M48
; DRILL file {KiCad 8.0.5} date 2025-01-06T13:55:54+0000
; FORMAT={-:-/ absolute / inch / decimal}
; #@! TF.CreationDate,2025-01-06T13:55:54+00:00
; #@! TF.GenerationSoftware,Kicad,Pcbnew,8.0.5
; #@! TF.FileFunction,Plated,1,2,PTH
FMAT,2
INCH
; #@! TA.AperFunction,Plated,PTH,ViaDrill
T1C0.0197
; #@! TA.AperFunction,Plated,PTH,ComponentDrill
T2C0.0276
; #@! TA.AperFunction,Plated,PTH,ComponentDrill
T3C0.0295
; #@! TA.AperFunction,Plated,PTH,ComponentDrill
T4C0.0315
; #@! TA.AperFunction,Plated,PTH,ComponentDrill
T5C0.0354
; #@! TA.AperFunction,Plated,PTH,ComponentDrill
T6C0.0394
; #@! TA.AperFunction,Plated,PTH,ComponentDrill
T7C0.0433
; #@! TA.AperFunction,Plated,PTH,ComponentDrill
T8C0.0472
; #@! TA.AperFunction,Plated,PTH,ComponentDrill
T9C0.0512
; #@! TA.AperFunction,Plated,PTH,ComponentDrill
T10C0.0551
; #@! TA.AperFunction,Plated,PTH,ComponentDrill
T11C0.0591
; #@! TA.AperFunction,Plated,PTH,ComponentDrill
T12C0.0709
; #@! TA.AperFunction,Plated,PTH,ComponentDrill
T13C0.1102
%
G90
G05
T1
X1.8514Y-3.5492
X1.8907Y-3.188
X1.9953Y-4.9854
X2.0778Y-5.999
X2.1122Y-5.9616
X2.1412Y-5.9217
X2.1567Y-5.7154
X2.3228Y-5.8425
X2.3575Y-4.0972
X2.4783Y-2.7441
X2.5748Y-6.0679
X2.6728Y-4.2283
X2.6838Y-4.0529
X2.7077Y-6.0384
X2.8197Y-4.5752
X3.0207Y-4.9852
X3.0571Y-4.2697
X3.0974Y-6.0098
X3.1201Y-4.9163
X3.1713Y-5.0187
X3.188Y-6.0778
X3.2205Y-4.8829
X3.2323Y-3.7205
X3.2783Y-3.6866
X3.3022Y-2.1417
X3.3197Y-3.5173
X3.3199Y-5.8435
X3.3268Y-1.185
X3.3268Y-1.252
X3.3528Y-3.7264
X3.3593Y-4.7913
X3.3661Y-2.1467
X3.3756Y-3.5181
X3.3854Y-2.6821
X3.415Y-4.5768
X3.4154Y-1.2185
X3.5059Y-3.5776
X3.5063Y-3.7811
X3.5069Y-2.6309
X3.5075Y-1.8992
X3.5349Y-4.1639
X3.6134Y-1.5795
X3.663Y-1.8339
X3.6713Y-6.0512
X3.6732Y-5.2057
X3.6949Y-4.2165
X3.7201Y-3.2825
X3.7215Y-5.497
X3.7766Y-5.2539
X3.7769Y-4.2221
X3.7913Y-5.8445
X3.8925Y-3.3337
X3.9882Y-4.7963
X4.002Y-4.2858
X4.0138Y-1.7638
X4.0543Y-4.085
X4.0547Y-5.3681
X4.0764Y-5.087
X4.0882Y-5.3219
X4.1112Y-2.1821
X4.188Y-5.0187
X4.188Y-6.0482
X4.189Y-5.2205
X4.2035Y-4.5094
X4.2146Y-1.7638
X4.2402Y-6.0827
X4.2843Y-3.9634
X4.2884Y-5.6841
X4.3295Y-4.5732
X4.3536Y-2.3797
X4.3646Y-4.2815
X4.3809Y-4.7913
X4.3868Y-5.6506
X4.4793Y-2.2707
X4.4852Y-6.0413
X4.4872Y-5.2884
X4.4882Y-4.9852
X4.489Y-1.637
X4.4902Y-5.6171
X4.4941Y-1.8343
X4.522Y-3.3386
X4.5276Y-4.0787
X4.5413Y-4.9547
X4.5764Y-2.4264
X4.5768Y-3.8268
X4.5972Y-2.7803
X4.6315Y-4.8878
X4.6626Y-2.1563
X4.6713Y-5.5941
X4.6811Y-5.9281
X4.7528Y-2.3276
X4.7874Y-4.0268
X4.7976Y-2.6783
X4.828Y-4.128
X4.8457Y-2.3303
X4.8661Y-5.936
X4.9161Y-3.5811
X4.9165Y-2.578
X4.9321Y-5.0344
X4.9386Y-2.3256
X4.9406Y-4.0311
X5.0035Y-2.8445
X5.0266Y-5.3228
X5.0591Y-3.5756
X5.0692Y-4.872
X5.0719Y-6.0748
X5.0965Y-5.6004
X5.1161Y-4.8898
X5.1545Y-4.8597
X5.1841Y-5.8484
X5.1909Y-4.8898
X5.3213Y-4.7252
X5.387Y-2.9563
X5.3874Y-3.5807
X5.3888Y-4.9656
X5.3988Y-3.6465
X5.4Y-4.1177
X5.4224Y-2.4811
X5.4528Y-3.8839
X5.4665Y-3.776
X5.4734Y-5.7343
X5.5665Y-3.7256
X5.5679Y-3.7815
X5.5679Y-4.7077
X5.5679Y-3.884
X5.5738Y-5.6821
X5.5744Y-2.1406
X5.6173Y-1.1138
X5.6772Y-3.7815
X5.6772Y-4.9094
X5.7116Y-5.5679
X5.7589Y-5.5291
X5.7726Y-3.7933
X5.7732Y-4.9429
X5.8022Y-5.4748
X5.8248Y-5.7343
X5.8455Y-5.428
X5.8687Y-5.6838
X5.869Y-3.8249
X5.8718Y-4.5371
X5.874Y-4.9429
X5.9734Y-4.9094
X6.0728Y-4.5098
X6.0738Y-4.813
X6.124Y-4.9764
X6.1378Y-6.0079
X6.1752Y-4.8425
X6.224Y-4.9429
X6.224Y-5.9626
X6.2736Y-4.876
X6.324Y-4.9094
X6.3248Y-6.0049
X6.424Y-4.8041
X6.524Y-4.8425
X6.624Y-4.876
X6.6575Y-4.9577
X6.6781Y-4.562
X6.7075Y-1.2933
X6.8346Y-4.6171
X6.8356Y-3.9321
X6.8736Y-4.7346
X6.9252Y-5.2352
X7.0193Y-1.062
X7.1496Y-1.7224
X7.1752Y-3.7874
X7.1791Y-4.2963
X7.2177Y-3.5307
X7.2217Y-4.3297
X7.248Y-5.8848
X7.251Y-4.9783
X7.3051Y-5.8311
X7.3303Y-5.2445
X7.3445Y-5.7766
X7.3809Y-5.7323
X7.4331Y-5.1354
X7.4488Y-5.2768
X7.474Y-4.5831
X7.5118Y-4.4323
X7.5256Y-2.8356
X7.5689Y-2.7628
X7.6093Y-3.2657
X7.6248Y-5.2433
X7.6413Y-4.0659
X7.6567Y-3.1516
X7.6669Y-4.6295
X7.6752Y-3.628
X7.8142Y-4.5327
X7.9213Y-4.572
X7.9508Y-1.062
X8.0236Y-4.5091
X8.0917Y-3.9327
X8.1248Y-4.7803
X8.1555Y-3.7372
X8.1748Y-4.5087
X8.2067Y-3.3335
X8.228Y-6.039
X8.2335Y-4.4654
X8.2346Y-3.8356
X8.278Y-4.7803
X8.2843Y-3.6339
X8.313Y-3.9311
X8.3303Y-6.0476
X8.3338Y-3.7814
X8.3799Y-3.5335
X8.426Y-4.0335
X8.426Y-6.0768
X8.4264Y-5.2807
X8.4724Y-3.436
X8.5102Y-3.9872
X8.5236Y-5.2433
X8.5272Y-6.0791
X8.6244Y-5.1933
X8.6283Y-6.0791
X8.6541Y-2.5295
X8.6638Y-4.7807
X8.7012Y-3.8868
X8.7126Y-6.0807
X8.7264Y-4.4646
X8.8094Y-6.0815
X8.8173Y-4.1906
X8.8701Y-3.785
X8.924Y-5.3331
X8.9705Y-3.6811
X8.9776Y-3.0354
X9.0642Y-4.6268
X9.0783Y-2.935
X9.1697Y-4.5917
X9.1713Y-3.0346
X9.2142Y-2.937
X9.2661Y-3.1358
X9.2713Y-4.5575
X9.3094Y-2.8362
X9.3728Y-4.5087
X9.5197Y-4.1906
T3
X2.6024Y-2.8039
X2.6614Y-2.7453
X2.7205Y-2.8031
X2.8317Y-2.8037
X2.8317Y-3.0911
X2.8907Y-2.7451
X2.8907Y-3.0325
X2.9498Y-2.803
X2.9498Y-3.0904
X4.3594Y-3.0783
X4.4185Y-3.1362
X4.4776Y-3.0776
X5.3496Y-1.5346
X5.3496Y-1.7319
X5.4087Y-1.5925
X5.4087Y-1.7898
X5.4677Y-1.5339
X5.4677Y-1.7311
T4
X1.8205Y-4.4295
X1.8205Y-4.6264
X1.8917Y-1.9793
X1.8917Y-2.3793
X1.9587Y-3.8091
X1.9951Y-1.9793
X1.9951Y-2.3793
X2.0984Y-1.9793
X2.0984Y-2.3793
X2.2018Y-1.9793
X2.2018Y-2.3793
X2.2461Y-3.0778
X2.2638Y-2.5813
X2.2638Y-2.9813
X2.2701Y-1.5768
X2.2701Y-1.7697
X2.2701Y-4.0323
X2.2701Y-4.2252
X2.2728Y-4.728
X2.3051Y-1.9793
X2.3051Y-2.3793
X2.3228Y-5.5541
X2.3587Y-3.8091
X2.3671Y-2.5813
X2.3671Y-2.9813
X2.3701Y-4.2291
X2.3701Y-4.6291
X2.4085Y-1.9793
X2.4085Y-2.3793
X2.4189Y-0.9937
X2.4189Y-1.3937
X2.4429Y-3.0778
X2.4669Y-3.7461
X2.4669Y-4.1461
X2.4669Y-4.2291
X2.4669Y-4.6291
X2.4697Y-4.728
X2.4793Y-2.5813
X2.4793Y-2.8813
X2.5118Y-1.9793
X2.5118Y-2.3793
X2.5197Y-5.5541
X2.5201Y-5.1449
X2.5201Y-5.4449
X2.576Y-1.0866
X2.6152Y-1.4961
X2.6152Y-1.8961
X2.6152Y-1.9793
X2.6152Y-2.3793
X2.6201Y-5.1449
X2.6201Y-5.4449
X2.6217Y-4.4283
X2.6217Y-4.7283
X2.6467Y-1.4047
X2.7175Y-1.4961
X2.7175Y-1.8961
X2.7175Y-1.9793
X2.7175Y-2.3793
X2.7201Y-5.1449
X2.7201Y-5.4449
X2.7217Y-4.4283
X2.7217Y-4.7283
X2.7728Y-1.0866
X2.8199Y-1.4961
X2.8199Y-1.8961
X2.8199Y-1.9793
X2.8199Y-2.3793
X2.8201Y-5.1449
X2.8201Y-5.4449
X2.8217Y-4.4283
X2.8217Y-4.7283
X2.8435Y-1.4047
X2.9154Y-4.2116
X2.9163Y-4.061
X2.9201Y-5.1449
X2.9201Y-5.4449
X2.9217Y-4.4283
X2.9217Y-4.7283
X2.9232Y-1.4961
X2.9232Y-1.8961
X2.9232Y-1.9793
X2.9232Y-2.3793
X2.9311Y-1.1417
X2.9311Y-1.3386
X3.0201Y-5.1449
X3.0201Y-5.4449
X3.0217Y-4.4283
X3.0217Y-4.7283
X3.0266Y-1.5502
X3.0266Y-1.6476
X3.0266Y-1.7451
X3.0266Y-1.9793
X3.0266Y-2.3793
X3.1122Y-4.2116
X3.1201Y-5.1449
X3.1201Y-5.4449
X3.1217Y-4.4283
X3.1217Y-4.7283
X3.1299Y-1.9793
X3.1299Y-2.3793
X3.1299Y-2.4646
X3.1299Y-2.8646
X3.2201Y-5.1449
X3.2201Y-5.4449
X3.2217Y-4.4283
X3.2217Y-4.7283
X3.2234Y-1.5502
X3.2234Y-1.6476
X3.2234Y-1.7451
X3.2333Y-1.9793
X3.2333Y-2.3793
X3.2333Y-2.4644
X3.2333Y-2.8644
X3.2465Y-2.9969
X3.2465Y-3.3969
X3.3163Y-4.061
X3.3199Y-5.5541
X3.3201Y-5.1449
X3.3201Y-5.4449
X3.3421Y-1.9543
X3.4222Y-3.8051
X3.4222Y-4.2051
X3.4232Y-4.4283
X3.4232Y-4.7283
X3.5157Y-2.9307
X3.5161Y-3.0276
X3.5167Y-5.5541
X3.5232Y-4.4283
X3.5232Y-4.7283
X3.539Y-1.9543
X3.5626Y-3.3268
X3.6232Y-4.4283
X3.6232Y-4.7283
X3.661Y-2.1291
X3.661Y-2.326
X3.6614Y-2.4291
X3.6614Y-2.8291
X3.6661Y-3.1787
X3.6689Y-3.4811
X3.6689Y-3.5811
X3.6689Y-3.6811
X3.6689Y-3.7811
X3.7126Y-2.9307
X3.7142Y-1.6862
X3.7142Y-1.9862
X3.7146Y-1.5874
X3.7232Y-4.4283
X3.7232Y-4.7283
X3.7827Y-4.0197
X3.7913Y-5.5541
X3.8142Y-1.6862
X3.8142Y-1.9862
X3.8146Y-1.5874
X3.8161Y-2.5307
X3.8161Y-2.6307
X3.8161Y-2.7307
X3.8161Y-2.8307
X3.8232Y-4.4283
X3.8232Y-4.7283
X3.863Y-3.1787
X3.9142Y-1.6862
X3.9142Y-1.9862
X3.9142Y-2.3461
X3.9146Y-1.5874
X3.9161Y-3.0276
X3.9232Y-4.4283
X3.9232Y-4.7283
X3.9626Y-3.3268
X3.9665Y-2.2323
X3.9689Y-3.4811
X3.9689Y-3.5811
X3.9689Y-3.6811
X3.9689Y-3.7811
X3.9795Y-4.0197
X3.9882Y-5.1449
X3.9882Y-5.4449
X3.9882Y-5.5541
X4.0138Y-3.0287
X4.0138Y-3.2256
X4.0142Y-1.6862
X4.0142Y-1.9862
X4.0146Y-1.5874
X4.0232Y-4.4283
X4.0232Y-4.7283
X4.062Y-3.6772
X4.062Y-3.874
X4.0882Y-5.1449
X4.0882Y-5.4449
X4.111Y-2.3461
X4.1142Y-1.6862
X4.1142Y-1.9862
X4.1146Y-1.5874
X4.1161Y-2.5307
X4.1161Y-2.6307
X4.1161Y-2.7307
X4.1161Y-2.8307
X4.1232Y-4.4283
X4.1232Y-4.7283
X4.1809Y-3.4242
X4.1882Y-5.1449
X4.1882Y-5.4449
X4.2114Y-2.4358
X4.2114Y-2.5358
X4.2114Y-2.6358
X4.2114Y-2.7358
X4.2114Y-2.8358
X4.2114Y-2.9358
X4.2114Y-3.0358
X4.2114Y-3.1358
X4.2142Y-1.6862
X4.2142Y-1.9862
X4.2146Y-1.5874
X4.2809Y-3.3242
X4.2882Y-5.1449
X4.2882Y-5.4449
X4.3142Y-1.6862
X4.3142Y-1.9862
X4.3146Y-1.5874
X4.3146Y-2.7319
X4.3146Y-2.9287
X4.3315Y-4.4252
X4.3315Y-4.7252
X4.3665Y-2.2323
X4.3685Y-3.7744
X4.3685Y-3.9713
X4.3809Y-3.4242
X4.3882Y-5.1449
X4.3882Y-5.4449
X4.4142Y-1.6862
X4.4142Y-1.9862
X4.4142Y-2.5303
X4.4142Y-2.9303
X4.4146Y-1.5874
X4.4315Y-4.4252
X4.4315Y-4.7252
X4.4661Y-5.7343
X4.4882Y-5.1449
X4.4882Y-5.4449
X4.5142Y-2.5772
X4.5142Y-2.9772
X4.5315Y-4.4252
X4.5315Y-4.7252
X4.5626Y-1.6803
X4.5626Y-1.8772
X4.563Y-3.2823
X4.563Y-3.6823
X4.5882Y-5.1449
X4.5882Y-5.4449
X4.6315Y-4.4252
X4.6315Y-4.7252
X4.6606Y-1.6291
X4.661Y-1.8307
X4.6693Y-2.3268
X4.6693Y-2.4268
X4.6693Y-2.5268
X4.6693Y-2.6268
X4.6693Y-2.7268
X4.6693Y-2.8268
X4.6693Y-2.9268
X4.6693Y-3.0268
X4.6693Y-3.1268
X4.6693Y-3.2268
X4.6693Y-3.3268
X4.6693Y-3.4268
X4.6693Y-3.5268
X4.6693Y-3.6268
X4.6693Y-3.7268
X4.6693Y-3.8268
X4.6693Y-3.9268
X4.6693Y-4.0268
X4.6693Y-4.1268
X4.6693Y-4.2268
X4.6882Y-5.1449
X4.6882Y-5.4449
X4.7315Y-4.4252
X4.7315Y-4.7252
X4.7882Y-5.1449
X4.7882Y-5.4449
X4.7884Y-5.5541
X4.8315Y-4.4252
X4.8315Y-4.7252
X4.8614Y-1.7323
X4.8661Y-5.7343
X4.9315Y-4.4252
X4.9315Y-4.7252
X4.9852Y-5.5541
X5.0315Y-4.4252
X5.0315Y-4.7252
X5.0583Y-1.7323
X5.0606Y-1.6291
X5.061Y-1.8307
X5.2575Y-1.4295
X5.2575Y-1.8295
X5.2693Y-2.3268
X5.2693Y-2.4268
X5.2693Y-2.5268
X5.2693Y-2.6268
X5.2693Y-2.7268
X5.2693Y-2.8268
X5.2693Y-2.9268
X5.2693Y-3.0268
X5.2693Y-3.1268
X5.2693Y-3.2268
X5.2693Y-3.3268
X5.2693Y-3.4268
X5.2693Y-3.5268
X5.2693Y-3.6268
X5.2693Y-3.7268
X5.2693Y-3.8268
X5.2693Y-3.9268
X5.2693Y-4.0268
X5.2693Y-4.1268
X5.2693Y-4.2268
X5.2736Y-5.025
X5.2736Y-5.625
X5.3612Y-2.6289
X5.3612Y-2.8258
X5.3736Y-5.025
X5.3736Y-5.625
X5.4736Y-5.025
X5.4736Y-5.625
X5.5736Y-5.025
X5.5736Y-5.625
X5.6126Y-1.3413
X5.6126Y-1.6413
X5.6736Y-5.025
X5.6736Y-5.625
X5.7126Y-1.3413
X5.7126Y-1.6413
X5.7146Y-1.7299
X5.7736Y-5.025
X5.7736Y-5.625
X5.8736Y-5.025
X5.8736Y-5.625
X5.924Y-5.1291
X5.924Y-5.7291
X5.9724Y-4.4323
X5.9724Y-4.7323
X5.9736Y-5.025
X5.9736Y-5.625
X6.0146Y-1.7299
X6.024Y-5.1291
X6.024Y-5.7291
X6.0724Y-4.4323
X6.0724Y-4.7323
X6.0736Y-5.025
X6.0736Y-5.625
X6.1126Y-1.3413
X6.1126Y-1.6413
X6.124Y-5.1291
X6.124Y-5.7291
X6.1724Y-4.4323
X6.1724Y-4.7323
X6.1736Y-5.025
X6.1736Y-5.625
X6.2126Y-1.3413
X6.2126Y-1.6413
X6.224Y-5.1291
X6.224Y-5.7291
X6.2724Y-4.4323
X6.2724Y-4.7323
X6.2736Y-5.025
X6.2736Y-5.625
X6.324Y-5.1291
X6.324Y-5.7291
X6.3724Y-4.4323
X6.3724Y-4.7323
X6.3736Y-5.025
X6.3736Y-5.625
X6.424Y-5.1291
X6.424Y-5.7291
X6.4724Y-4.4323
X6.4724Y-4.7323
X6.4736Y-5.025
X6.4736Y-5.625
X6.524Y-5.1291
X6.524Y-5.7291
X6.5531Y-1.5736
X6.5622Y-1.7472
X6.5724Y-4.4323
X6.5724Y-4.7323
X6.5736Y-5.025
X6.5736Y-5.625
X6.624Y-5.1291
X6.624Y-5.7291
X6.6736Y-5.025
X6.6736Y-5.625
X6.724Y-5.1291
X6.724Y-5.7291
X6.7591Y-1.7472
X6.7717Y-4.7352
X6.7717Y-4.9321
X6.7736Y-5.025
X6.7736Y-5.625
X6.824Y-5.1291
X6.824Y-5.7291
X6.865Y-1.337
X6.8736Y-5.025
X6.8736Y-5.625
X6.924Y-5.1291
X6.924Y-5.7291
X6.9531Y-1.5736
X6.965Y-1.337
X6.9736Y-5.025
X6.9736Y-5.625
X7.024Y-5.1291
X7.024Y-5.7291
X7.065Y-1.337
X7.0709Y-4.4795
X7.0709Y-4.8795
X7.0736Y-5.025
X7.0736Y-5.625
X7.124Y-5.1291
X7.124Y-5.7291
X7.165Y-1.337
X7.1665Y-1.5551
X7.1736Y-5.025
X7.1736Y-5.625
X7.224Y-5.1291
X7.224Y-5.7291
X7.2512Y-4.5362
X7.2512Y-4.7331
X7.265Y-1.337
X7.3634Y-1.5551
X7.365Y-1.337
X7.465Y-1.337
X7.565Y-1.337
X7.5744Y-4.3783
X7.5744Y-4.9783
X7.5744Y-5.1354
X7.5744Y-5.7354
X7.6744Y-4.3783
X7.6744Y-4.9783
X7.6744Y-5.1354
X7.6744Y-5.7354
X7.7728Y-4.2823
X7.7744Y-4.3783
X7.7744Y-4.9783
X7.7744Y-5.1354
X7.7744Y-5.7354
X7.8744Y-4.3783
X7.8744Y-4.9783
X7.8744Y-5.1354
X7.8744Y-5.7354
X7.9697Y-4.2823
X7.9744Y-4.3783
X7.9744Y-4.9783
X7.9744Y-5.1354
X7.9744Y-5.7354
X8.0744Y-4.3783
X8.0744Y-4.9783
X8.0744Y-5.1354
X8.0744Y-5.7354
X8.1744Y-4.3783
X8.1744Y-4.9783
X8.1744Y-5.1354
X8.1744Y-5.7354
X8.2744Y-4.3783
X8.2744Y-4.9783
X8.2744Y-5.1354
X8.2744Y-5.7354
X8.3744Y-4.3783
X8.3744Y-4.9783
X8.3744Y-5.1354
X8.3744Y-5.7354
X8.4744Y-4.3783
X8.4744Y-4.9783
X8.4744Y-5.1354
X8.4744Y-5.7354
X8.4955Y-2.5366
X8.4955Y-2.8366
X8.5744Y-4.3783
X8.5744Y-4.9783
X8.5744Y-5.1354
X8.5744Y-5.7354
X8.5955Y-2.5366
X8.5955Y-2.8366
X8.6744Y-4.3783
X8.6744Y-4.9783
X8.6744Y-5.1354
X8.6744Y-5.7354
X8.7744Y-4.3783
X8.7744Y-4.9783
X8.7744Y-5.1354
X8.7744Y-5.7354
X8.8173Y-2.735
X8.8173Y-2.835
X8.8173Y-2.935
X8.8173Y-3.035
X8.8173Y-3.135
X8.8173Y-3.235
X8.8173Y-3.335
X8.8173Y-3.435
X8.8173Y-3.535
X8.8173Y-3.635
X8.8173Y-3.735
X8.8173Y-3.835
X8.8173Y-3.935
X8.8173Y-4.035
X8.8744Y-4.3783
X8.8744Y-4.9783
X8.8744Y-5.1354
X8.8744Y-5.7354
X8.9744Y-4.3783
X8.9744Y-4.9783
X8.9744Y-5.1354
X8.9744Y-5.7354
X8.9764Y-5.8547
X8.9764Y-6.0516
X9.0744Y-4.3783
X9.0744Y-4.9783
X9.0744Y-5.1354
X9.0744Y-5.7354
X9.1555Y-1.4909
X9.1744Y-4.3783
X9.1744Y-4.9783
X9.1744Y-5.1354
X9.1744Y-5.7354
X9.2744Y-4.3783
X9.2744Y-4.9783
X9.2744Y-5.1354
X9.2744Y-5.7354
X9.3524Y-1.4909
X9.3744Y-4.3783
X9.3744Y-4.9783
X9.3744Y-5.1354
X9.3744Y-5.7354
X9.4173Y-2.735
X9.4173Y-2.835
X9.4173Y-2.935
X9.4173Y-3.035
X9.4173Y-3.135
X9.4173Y-3.235
X9.4173Y-3.335
X9.4173Y-3.435
X9.4173Y-3.535
X9.4173Y-3.635
X9.4173Y-3.735
X9.4173Y-3.835
X9.4173Y-3.935
X9.4173Y-4.035
X9.4616Y-1.6319
X9.4616Y-1.8287
X9.4744Y-4.3783
X9.4744Y-4.9783
X9.4744Y-5.1354
X9.4744Y-5.7354
T5
X1.7746Y-3.2996
X1.7746Y-3.3996
X1.7746Y-3.6244
X1.7746Y-3.7244
T6
X1.7969Y-4.8843
X1.7969Y-4.9843
X2.7173Y-2.5707
X2.8173Y-2.5707
X4.1809Y-3.5374
X4.2114Y-2.0827
X4.2809Y-3.5374
X4.3114Y-2.0827
X4.3809Y-3.5374
X4.4114Y-2.0827
X4.5114Y-2.0827
X4.6114Y-2.0827
X4.7114Y-2.0827
X4.8114Y-2.0827
X4.9114Y-2.0827
X5.0114Y-2.0827
X5.1114Y-2.0827
X5.2114Y-2.0827
X5.3114Y-2.0827
X5.4114Y-2.0827
X5.5114Y-2.0827
X5.8622Y-1.135
X5.8622Y-1.235
X5.9622Y-1.135
X5.9622Y-1.235
X6.0622Y-1.135
X6.0622Y-1.235
X6.1622Y-1.135
X6.1622Y-1.235
X6.2622Y-1.135
X6.2622Y-1.235
X6.3622Y-1.135
X6.3622Y-1.235
X6.4622Y-1.135
X6.4622Y-1.235
X6.5622Y-1.135
X6.5622Y-1.235
X6.6622Y-1.135
X6.6622Y-1.235
X6.7622Y-1.135
X6.7622Y-1.235
X7.211Y-1.135
X7.211Y-1.235
X7.311Y-1.135
X7.311Y-1.235
X7.411Y-1.135
X7.411Y-1.235
X7.511Y-1.135
X7.511Y-1.235
X7.611Y-1.135
X7.611Y-1.235
X7.711Y-1.135
X7.711Y-1.235
X7.811Y-1.135
X7.811Y-1.235
X7.911Y-1.135
X7.911Y-1.235
X8.011Y-1.135
X8.011Y-1.235
X8.111Y-1.135
X8.111Y-1.235
X8.211Y-1.135
X8.211Y-1.235
X8.311Y-1.135
X8.311Y-1.235
X8.411Y-1.135
X8.411Y-1.235
X8.511Y-1.135
X8.511Y-1.235
X8.611Y-1.135
X8.611Y-1.235
X8.711Y-1.135
X8.711Y-1.235
X8.811Y-1.135
X8.811Y-1.235
T7
X2.0898Y-3.3882
X2.0898Y-3.4882
X2.0898Y-3.5882
X9.1642Y-1.7291
X9.1642Y-1.8291
X9.1642Y-1.9291
T8
X1.9681Y-2.6843
X1.9681Y-2.7646
X1.9681Y-2.8685
X1.9693Y-2.952
X2.0752Y-2.6839
X2.0752Y-2.7807
X2.0752Y-2.952
X2.4311Y-1.5335
X2.4311Y-1.7697
T9
X2.003Y-5.1537
X2.003Y-5.3309
X2.2589Y-5.1537
X2.2589Y-5.3309
X9.139Y-2.3106
X9.235Y-2.2331
X9.2354Y-2.4098
X9.3906Y-2.3618
X9.4909Y-2.2331
X9.4909Y-2.4102
T11
X3.7079Y-1.3551
X3.8079Y-0.9555
X3.8079Y-1.4551
X3.9079Y-0.9555
X4.0079Y-1.3551
X4.1079Y-0.9555
X4.2079Y-0.9555
X4.2079Y-1.4551
X4.3079Y-1.3551
X4.5256Y-1.4551
X4.6256Y-0.9567
X4.6256Y-1.3551
X4.7256Y-0.9567
X4.7256Y-1.4551
X4.8256Y-1.3551
X4.9256Y-0.9567
X4.9256Y-1.4551
X5.0256Y-0.9567
X5.0256Y-1.3551
X5.1256Y-1.4551
T13
X1.8154Y-2.8169
X9.0224Y-1.2657
X9.2252Y-1.1291
X9.2252Y-1.378
T2
G00X2.0876Y-1.2766
M15
G01X2.0876Y-1.3159
M16
G05
G00X2.2687Y-0.9537
M15
G01X2.2687Y-0.9931
M16
G05
G00X2.2687Y-1.0719
M15
G01X2.2687Y-1.1112
M16
G05
G00X2.2687Y-1.2293
M15
G01X2.2687Y-1.2687
M16
G05
T10
G00X1.8193Y-2.5531
M15
G01X1.8744Y-2.5531
M16
G05
G00X1.8193Y-3.0807
M15
G01X1.8744Y-3.0807
M16
G05
T12
G00X6.3644Y-3.7267
M15
G01X6.4707Y-3.7267
M16
G05
G00X6.8506Y-3.7267
M15
G01X6.9569Y-3.7267
M16
G05
M30
