%TF.GenerationSoftware,KiCad,Pcbnew,8.0.5*%
%TF.CreationDate,2025-01-06T13:55:56+00:00*%
%TF.ProjectId,Oric,4f726963-2e6b-4696-9361-645f70636258,rev?*%
%TF.SameCoordinates,Original*%
%TF.FileFunction,Profile,NP*%
%FSLAX46Y46*%
G04 Gerber Fmt 4.6, Leading zero omitted, Abs format (unit mm)*
G04 Created by KiCad (PCBNEW 8.0.5) date 2025-01-06 13:55:56*
%MOMM*%
%LPD*%
G01*
G04 APERTURE LIST*
%TA.AperFunction,Profile*%
%ADD10C,0.050000*%
%TD*%
G04 APERTURE END LIST*
D10*
X214350000Y-46620000D02*
G75*
G02*
X210563868Y-46620000I-1893066J0D01*
G01*
X210563868Y-46620000D02*
G75*
G02*
X214350000Y-46620000I1893066J0D01*
G01*
X53825000Y-144650000D02*
G75*
G02*
X50063192Y-144650000I-1880904J0D01*
G01*
X50063192Y-144650000D02*
G75*
G02*
X53825000Y-144650000I1880904J0D01*
G01*
X183477421Y-54630000D02*
X154582584Y-54580000D01*
X75386132Y-88475000D02*
G75*
G02*
X71600000Y-88475000I-1893066J0D01*
G01*
X71600000Y-88475000D02*
G75*
G02*
X75386132Y-88475000I1893066J0D01*
G01*
X152952584Y-56210000D02*
X153132584Y-84997416D01*
X185127416Y-85037416D02*
G75*
G02*
X183497416Y-86667416I-1630016J16D01*
G01*
X241600000Y-152700000D02*
G75*
G02*
X237838192Y-152700000I-1880904J0D01*
G01*
X237838192Y-152700000D02*
G75*
G02*
X241600000Y-152700000I1880904J0D01*
G01*
X138610000Y-26480000D02*
G75*
G02*
X134848192Y-26480000I-1880904J0D01*
G01*
X134848192Y-26480000D02*
G75*
G02*
X138610000Y-26480000I1880904J0D01*
G01*
X244080000Y-26400000D02*
G75*
G02*
X240318192Y-26400000I-1880904J0D01*
G01*
X240318192Y-26400000D02*
G75*
G02*
X244080000Y-26400000I1880904J0D01*
G01*
X40320000Y-21440000D02*
X246490000Y-21440000D01*
X246490000Y-159550000D01*
X40320000Y-159550000D01*
X40320000Y-21440000D01*
X183477421Y-54630000D02*
G75*
G02*
X185107400Y-56260000I-21J-1630000D01*
G01*
X154762584Y-86627416D02*
X183497416Y-86667416D01*
X154762584Y-86627416D02*
G75*
G02*
X153132584Y-84997416I16J1630016D01*
G01*
X45720904Y-26409096D02*
G75*
G02*
X41959096Y-26409096I-1880904J0D01*
G01*
X41959096Y-26409096D02*
G75*
G02*
X45720904Y-26409096I1880904J0D01*
G01*
X185127416Y-85037416D02*
X185107421Y-56260000D01*
X152952584Y-56210000D02*
G75*
G02*
X154582584Y-54579984I1630016J0D01*
G01*
%TO.C,SK4*%
X56075000Y-23125000D02*
G75*
G02*
X54575000Y-23125000I-750000J0D01*
G01*
X54575000Y-23125000D02*
G75*
G02*
X56075000Y-23125000I750000J0D01*
G01*
X56075000Y-30125000D02*
G75*
G02*
X54575000Y-30125000I-750000J0D01*
G01*
X54575000Y-30125000D02*
G75*
G02*
X56075000Y-30125000I750000J0D01*
G01*
%TD*%
M02*
