%TF.GenerationSoftware,KiCad,Pcbnew,8.0.5*%
%TF.CreationDate,2025-01-06T13:55:56+00:00*%
%TF.ProjectId,Oric,4f726963-2e6b-4696-9361-645f70636258,rev?*%
%TF.SameCoordinates,Original*%
%TF.FileFunction,Legend,Bot*%
%TF.FilePolarity,Positive*%
%FSLAX46Y46*%
G04 Gerber Fmt 4.6, Leading zero omitted, Abs format (unit mm)*
G04 Created by KiCad (PCBNEW 8.0.5) date 2025-01-06 13:55:56*
%MOMM*%
%LPD*%
G01*
G04 APERTURE LIST*
%ADD10C,0.300000*%
%ADD11C,0.000000*%
G04 APERTURE END LIST*
D10*
X244669298Y-156988066D02*
X244669298Y-157988066D01*
X244669298Y-157988066D02*
X244735965Y-158188066D01*
X244735965Y-158188066D02*
X244869298Y-158321400D01*
X244869298Y-158321400D02*
X245069298Y-158388066D01*
X245069298Y-158388066D02*
X245202632Y-158388066D01*
X243335965Y-158388066D02*
X244002631Y-158388066D01*
X244002631Y-158388066D02*
X244002631Y-156988066D01*
X242069298Y-158254733D02*
X242135965Y-158321400D01*
X242135965Y-158321400D02*
X242335965Y-158388066D01*
X242335965Y-158388066D02*
X242469298Y-158388066D01*
X242469298Y-158388066D02*
X242669298Y-158321400D01*
X242669298Y-158321400D02*
X242802632Y-158188066D01*
X242802632Y-158188066D02*
X242869298Y-158054733D01*
X242869298Y-158054733D02*
X242935965Y-157788066D01*
X242935965Y-157788066D02*
X242935965Y-157588066D01*
X242935965Y-157588066D02*
X242869298Y-157321400D01*
X242869298Y-157321400D02*
X242802632Y-157188066D01*
X242802632Y-157188066D02*
X242669298Y-157054733D01*
X242669298Y-157054733D02*
X242469298Y-156988066D01*
X242469298Y-156988066D02*
X242335965Y-156988066D01*
X242335965Y-156988066D02*
X242135965Y-157054733D01*
X242135965Y-157054733D02*
X242069298Y-157121400D01*
X241069298Y-156988066D02*
X241069298Y-157988066D01*
X241069298Y-157988066D02*
X241135965Y-158188066D01*
X241135965Y-158188066D02*
X241269298Y-158321400D01*
X241269298Y-158321400D02*
X241469298Y-158388066D01*
X241469298Y-158388066D02*
X241602632Y-158388066D01*
X239735965Y-158388066D02*
X240402631Y-158388066D01*
X240402631Y-158388066D02*
X240402631Y-156988066D01*
X238469298Y-158254733D02*
X238535965Y-158321400D01*
X238535965Y-158321400D02*
X238735965Y-158388066D01*
X238735965Y-158388066D02*
X238869298Y-158388066D01*
X238869298Y-158388066D02*
X239069298Y-158321400D01*
X239069298Y-158321400D02*
X239202632Y-158188066D01*
X239202632Y-158188066D02*
X239269298Y-158054733D01*
X239269298Y-158054733D02*
X239335965Y-157788066D01*
X239335965Y-157788066D02*
X239335965Y-157588066D01*
X239335965Y-157588066D02*
X239269298Y-157321400D01*
X239269298Y-157321400D02*
X239202632Y-157188066D01*
X239202632Y-157188066D02*
X239069298Y-157054733D01*
X239069298Y-157054733D02*
X238869298Y-156988066D01*
X238869298Y-156988066D02*
X238735965Y-156988066D01*
X238735965Y-156988066D02*
X238535965Y-157054733D01*
X238535965Y-157054733D02*
X238469298Y-157121400D01*
X237469298Y-156988066D02*
X237469298Y-157988066D01*
X237469298Y-157988066D02*
X237535965Y-158188066D01*
X237535965Y-158188066D02*
X237669298Y-158321400D01*
X237669298Y-158321400D02*
X237869298Y-158388066D01*
X237869298Y-158388066D02*
X238002632Y-158388066D01*
X236135965Y-158388066D02*
X236802631Y-158388066D01*
X236802631Y-158388066D02*
X236802631Y-156988066D01*
X234869298Y-158254733D02*
X234935965Y-158321400D01*
X234935965Y-158321400D02*
X235135965Y-158388066D01*
X235135965Y-158388066D02*
X235269298Y-158388066D01*
X235269298Y-158388066D02*
X235469298Y-158321400D01*
X235469298Y-158321400D02*
X235602632Y-158188066D01*
X235602632Y-158188066D02*
X235669298Y-158054733D01*
X235669298Y-158054733D02*
X235735965Y-157788066D01*
X235735965Y-157788066D02*
X235735965Y-157588066D01*
X235735965Y-157588066D02*
X235669298Y-157321400D01*
X235669298Y-157321400D02*
X235602632Y-157188066D01*
X235602632Y-157188066D02*
X235469298Y-157054733D01*
X235469298Y-157054733D02*
X235269298Y-156988066D01*
X235269298Y-156988066D02*
X235135965Y-156988066D01*
X235135965Y-156988066D02*
X234935965Y-157054733D01*
X234935965Y-157054733D02*
X234869298Y-157121400D01*
X233869298Y-156988066D02*
X233869298Y-157988066D01*
X233869298Y-157988066D02*
X233935965Y-158188066D01*
X233935965Y-158188066D02*
X234069298Y-158321400D01*
X234069298Y-158321400D02*
X234269298Y-158388066D01*
X234269298Y-158388066D02*
X234402632Y-158388066D01*
X232535965Y-158388066D02*
X233202631Y-158388066D01*
X233202631Y-158388066D02*
X233202631Y-156988066D01*
X231269298Y-158254733D02*
X231335965Y-158321400D01*
X231335965Y-158321400D02*
X231535965Y-158388066D01*
X231535965Y-158388066D02*
X231669298Y-158388066D01*
X231669298Y-158388066D02*
X231869298Y-158321400D01*
X231869298Y-158321400D02*
X232002632Y-158188066D01*
X232002632Y-158188066D02*
X232069298Y-158054733D01*
X232069298Y-158054733D02*
X232135965Y-157788066D01*
X232135965Y-157788066D02*
X232135965Y-157588066D01*
X232135965Y-157588066D02*
X232069298Y-157321400D01*
X232069298Y-157321400D02*
X232002632Y-157188066D01*
X232002632Y-157188066D02*
X231869298Y-157054733D01*
X231869298Y-157054733D02*
X231669298Y-156988066D01*
X231669298Y-156988066D02*
X231535965Y-156988066D01*
X231535965Y-156988066D02*
X231335965Y-157054733D01*
X231335965Y-157054733D02*
X231269298Y-157121400D01*
D11*
%TO.C,G3*%
G36*
X209170234Y-60540000D02*
G01*
X209170234Y-63854335D01*
X209170234Y-64225898D01*
X209170234Y-67510509D01*
X202170000Y-67510509D01*
X195169766Y-67510509D01*
X195169766Y-60540000D01*
X195169766Y-57270251D01*
X195823716Y-57270251D01*
X195823716Y-57664107D01*
X195823716Y-58057963D01*
X196016928Y-58057963D01*
X196210141Y-58057963D01*
X196210141Y-58243744D01*
X196210141Y-58429526D01*
X196016928Y-58429526D01*
X195823716Y-58429526D01*
X195823716Y-58630169D01*
X195823716Y-58830813D01*
X196016928Y-58830813D01*
X196210141Y-58830813D01*
X196210141Y-59016594D01*
X196210141Y-59202375D01*
X196016928Y-59202375D01*
X195823716Y-59202375D01*
X195823716Y-59403019D01*
X195823716Y-59603663D01*
X196016928Y-59603663D01*
X196210141Y-59603663D01*
X196210141Y-59982656D01*
X196210141Y-60361650D01*
X196016928Y-60361650D01*
X195823716Y-60361650D01*
X195823716Y-60755506D01*
X195823716Y-61149362D01*
X196016928Y-61149362D01*
X196210141Y-61149362D01*
X196210141Y-61335143D01*
X196210141Y-61520924D01*
X196016928Y-61520924D01*
X195823716Y-61520924D01*
X195823716Y-61721568D01*
X195823716Y-61922211D01*
X196016928Y-61922211D01*
X196210141Y-61922211D01*
X196210141Y-62107993D01*
X196210141Y-62293774D01*
X196016928Y-62293774D01*
X195823716Y-62293774D01*
X195823716Y-62494417D01*
X195823716Y-62695061D01*
X196016928Y-62695061D01*
X196210141Y-62695061D01*
X196210141Y-62880842D01*
X196210141Y-63066623D01*
X196016928Y-63066623D01*
X195823716Y-63066623D01*
X195823716Y-63653692D01*
X195823716Y-64240760D01*
X196016928Y-64240760D01*
X196210141Y-64240760D01*
X196210141Y-64426541D01*
X196210141Y-64612323D01*
X196016928Y-64612323D01*
X195823716Y-64612323D01*
X195823716Y-65006179D01*
X195823716Y-65400035D01*
X196016928Y-65400035D01*
X196210141Y-65400035D01*
X196210141Y-65593247D01*
X196210141Y-65786459D01*
X196403353Y-65786459D01*
X196596566Y-65786459D01*
X196596566Y-66165453D01*
X196596566Y-66544447D01*
X196403353Y-66544447D01*
X196210141Y-66544447D01*
X196210141Y-66745090D01*
X196210141Y-66945734D01*
X196410785Y-66945734D01*
X196611428Y-66945734D01*
X196611428Y-66752522D01*
X196611428Y-66559309D01*
X196997853Y-66559309D01*
X197384278Y-66559309D01*
X197384278Y-66358665D01*
X197384278Y-66158022D01*
X197191065Y-66158022D01*
X196997853Y-66158022D01*
X196997853Y-65972241D01*
X196997853Y-65786459D01*
X197384278Y-65786459D01*
X197770703Y-65786459D01*
X197770703Y-65593247D01*
X197770703Y-65400035D01*
X198149696Y-65400035D01*
X198528690Y-65400035D01*
X198528690Y-65585816D01*
X198528690Y-65771597D01*
X198335477Y-65771597D01*
X198142265Y-65771597D01*
X198142265Y-65964809D01*
X198142265Y-66158022D01*
X197949053Y-66158022D01*
X197755840Y-66158022D01*
X197755840Y-66358665D01*
X197755840Y-66559309D01*
X197956484Y-66559309D01*
X198157127Y-66559309D01*
X198157127Y-66366097D01*
X198157127Y-66172884D01*
X198342909Y-66172884D01*
X198528690Y-66172884D01*
X198528690Y-66559309D01*
X198528690Y-66945734D01*
X199695395Y-66945734D01*
X200862101Y-66945734D01*
X200862101Y-66752522D01*
X200862101Y-66559309D01*
X201047882Y-66559309D01*
X201233663Y-66559309D01*
X201233663Y-66752522D01*
X201233663Y-66945734D01*
X201434307Y-66945734D01*
X201634951Y-66945734D01*
X201634951Y-66745090D01*
X201634951Y-66544447D01*
X201441738Y-66544447D01*
X201248526Y-66544447D01*
X201248526Y-66358665D01*
X201248526Y-66172884D01*
X201441738Y-66172884D01*
X201634951Y-66172884D01*
X201634951Y-65979672D01*
X201634951Y-65786459D01*
X201820732Y-65786459D01*
X202006513Y-65786459D01*
X202006513Y-65979672D01*
X202006513Y-66172884D01*
X202199725Y-66172884D01*
X202392938Y-66172884D01*
X202392938Y-66358665D01*
X202392938Y-66544447D01*
X202199725Y-66544447D01*
X202006513Y-66544447D01*
X202006513Y-66745090D01*
X202006513Y-66945734D01*
X202400369Y-66945734D01*
X202794225Y-66945734D01*
X202794225Y-66544447D01*
X203552212Y-66544447D01*
X203552212Y-66745090D01*
X203552212Y-66945734D01*
X203946068Y-66945734D01*
X204339924Y-66945734D01*
X204339924Y-66745090D01*
X204339924Y-66544447D01*
X203946068Y-66544447D01*
X203552212Y-66544447D01*
X202794225Y-66544447D01*
X202794225Y-66366097D01*
X202794225Y-65786459D01*
X202980006Y-65786459D01*
X203165787Y-65786459D01*
X203165787Y-65979672D01*
X203165787Y-66172884D01*
X203366431Y-66172884D01*
X203567075Y-66172884D01*
X203567075Y-65979672D01*
X203567075Y-65786459D01*
X203946068Y-65786459D01*
X204325062Y-65786459D01*
X204325062Y-65979672D01*
X204325062Y-66172884D01*
X204518274Y-66172884D01*
X204711487Y-66172884D01*
X204711487Y-66544447D01*
X204711487Y-66559309D01*
X204711487Y-66945734D01*
X204912130Y-66945734D01*
X205112774Y-66945734D01*
X205112774Y-66559309D01*
X205112774Y-66172884D01*
X205305986Y-66172884D01*
X205499199Y-66172884D01*
X205499199Y-65585816D01*
X205499199Y-64998747D01*
X205305986Y-64998747D01*
X205112774Y-64998747D01*
X205112774Y-64805535D01*
X205112774Y-64612323D01*
X204919562Y-64612323D01*
X204726349Y-64612323D01*
X204726349Y-64040117D01*
X204726349Y-63467911D01*
X204912130Y-63467911D01*
X205097912Y-63467911D01*
X205097912Y-63854335D01*
X205097912Y-64240760D01*
X205298555Y-64240760D01*
X205499199Y-64240760D01*
X205499199Y-64225898D01*
X205885624Y-64225898D01*
X205885624Y-65578385D01*
X205885624Y-66930871D01*
X207238110Y-66930871D01*
X208590597Y-66930871D01*
X208590597Y-65578385D01*
X208590597Y-64225898D01*
X207238110Y-64225898D01*
X205885624Y-64225898D01*
X205499199Y-64225898D01*
X205499199Y-64047548D01*
X205499199Y-63854335D01*
X206078836Y-63854335D01*
X206658473Y-63854335D01*
X206658473Y-63661123D01*
X206658473Y-63467911D01*
X206844254Y-63467911D01*
X207030036Y-63467911D01*
X207030036Y-63661123D01*
X207030036Y-63854335D01*
X207230679Y-63854335D01*
X207431323Y-63854335D01*
X207431323Y-63661123D01*
X207431323Y-63467911D01*
X207624535Y-63467911D01*
X207817748Y-63467911D01*
X207817748Y-63081486D01*
X207817748Y-62695061D01*
X208003529Y-62695061D01*
X208189310Y-62695061D01*
X208189310Y-63274698D01*
X208189310Y-63854335D01*
X208389954Y-63854335D01*
X208590597Y-63854335D01*
X208590597Y-62107993D01*
X208590597Y-60361650D01*
X207810316Y-60361650D01*
X207030036Y-60361650D01*
X207030036Y-60562293D01*
X207030036Y-60762937D01*
X207223248Y-60762937D01*
X207416460Y-60762937D01*
X207416460Y-60948718D01*
X207416460Y-61134499D01*
X206457830Y-61134499D01*
X205499199Y-61134499D01*
X205499199Y-60941287D01*
X205499199Y-60748074D01*
X205305986Y-60748074D01*
X205112774Y-60748074D01*
X205112774Y-60562293D01*
X205112774Y-60376512D01*
X205491768Y-60376512D01*
X205870761Y-60376512D01*
X205870761Y-60569725D01*
X205870761Y-60762937D01*
X206264617Y-60762937D01*
X206658473Y-60762937D01*
X206658473Y-60183300D01*
X206658473Y-59603663D01*
X206844254Y-59603663D01*
X207030036Y-59603663D01*
X207030036Y-59796875D01*
X207030036Y-59990087D01*
X207230679Y-59990087D01*
X207431323Y-59990087D01*
X207431323Y-59796875D01*
X207431323Y-59603663D01*
X207617104Y-59603663D01*
X207802885Y-59603663D01*
X207802885Y-59796875D01*
X207802885Y-59990087D01*
X208196741Y-59990087D01*
X208590597Y-59990087D01*
X208590597Y-59209806D01*
X208590597Y-58429526D01*
X208397385Y-58429526D01*
X208204172Y-58429526D01*
X208204172Y-58043101D01*
X208204172Y-57656676D01*
X208010960Y-57656676D01*
X207817748Y-57656676D01*
X207817748Y-57463464D01*
X207817748Y-57270251D01*
X207230679Y-57270251D01*
X206643611Y-57270251D01*
X206643611Y-57463464D01*
X206643611Y-57656676D01*
X206457830Y-57656676D01*
X206272048Y-57656676D01*
X206272048Y-57463464D01*
X206272048Y-57270251D01*
X206071405Y-57270251D01*
X205870761Y-57270251D01*
X205870761Y-57470895D01*
X205870761Y-57671538D01*
X206063974Y-57671538D01*
X206257186Y-57671538D01*
X206257186Y-57857320D01*
X206257186Y-58043101D01*
X206063974Y-58043101D01*
X205870761Y-58043101D01*
X205870761Y-58243744D01*
X205870761Y-58444388D01*
X206063974Y-58444388D01*
X206257186Y-58444388D01*
X206257186Y-58630169D01*
X206257186Y-58815950D01*
X206063974Y-58815950D01*
X205870761Y-58815950D01*
X205870761Y-59016594D01*
X205870761Y-59217238D01*
X206257186Y-59217238D01*
X206643611Y-59217238D01*
X206643611Y-59403019D01*
X206643611Y-59588800D01*
X205878192Y-59588800D01*
X205112774Y-59588800D01*
X205112774Y-59403019D01*
X205112774Y-59217238D01*
X205305986Y-59217238D01*
X205499199Y-59217238D01*
X205499199Y-59016594D01*
X205499199Y-58815950D01*
X205298555Y-58815950D01*
X205097912Y-58815950D01*
X205097912Y-59009163D01*
X205097912Y-59202375D01*
X204718918Y-59202375D01*
X204339924Y-59202375D01*
X204339924Y-59016594D01*
X204339924Y-58830813D01*
X204533137Y-58830813D01*
X204726349Y-58830813D01*
X204726349Y-58637601D01*
X204726349Y-58444388D01*
X205112774Y-58444388D01*
X205499199Y-58444388D01*
X205499199Y-58243744D01*
X205499199Y-58043101D01*
X205112774Y-58043101D01*
X204726349Y-58043101D01*
X204726349Y-57849888D01*
X204726349Y-57656676D01*
X204533137Y-57656676D01*
X204339924Y-57656676D01*
X204339924Y-57470895D01*
X204339924Y-57285114D01*
X204533137Y-57285114D01*
X204726349Y-57285114D01*
X204726349Y-56512264D01*
X204726349Y-56110977D01*
X205097912Y-56110977D01*
X205097912Y-56891258D01*
X205097912Y-57671538D01*
X205298555Y-57671538D01*
X205499199Y-57671538D01*
X205499199Y-56891258D01*
X205499199Y-56883826D01*
X205885624Y-56883826D01*
X207238110Y-56883826D01*
X208590597Y-56883826D01*
X208590597Y-55531340D01*
X208590597Y-54178853D01*
X207238110Y-54178853D01*
X205885624Y-54178853D01*
X205885624Y-55531340D01*
X205885624Y-56110977D01*
X205885624Y-56883826D01*
X205499199Y-56883826D01*
X205499199Y-56110977D01*
X205298555Y-56110977D01*
X205097912Y-56110977D01*
X204726349Y-56110977D01*
X204726349Y-55739414D01*
X204919562Y-55739414D01*
X205112774Y-55739414D01*
X205112774Y-55546202D01*
X205112774Y-55352990D01*
X205305986Y-55352990D01*
X205499199Y-55352990D01*
X205499199Y-54765921D01*
X205499199Y-54178853D01*
X205298555Y-54178853D01*
X205097912Y-54178853D01*
X205097912Y-54565278D01*
X205097912Y-54951702D01*
X204518274Y-54951702D01*
X203938637Y-54951702D01*
X203938637Y-55152346D01*
X203938637Y-55352990D01*
X204325062Y-55352990D01*
X204711487Y-55352990D01*
X204711487Y-55538771D01*
X204711487Y-55724552D01*
X204325062Y-55724552D01*
X203938637Y-55724552D01*
X203938637Y-55925196D01*
X203938637Y-56125839D01*
X204131849Y-56125839D01*
X204325062Y-56125839D01*
X204325062Y-56698045D01*
X204325062Y-57270251D01*
X203946068Y-57270251D01*
X203567075Y-57270251D01*
X203567075Y-57084470D01*
X203567075Y-56898689D01*
X203760287Y-56898689D01*
X203953500Y-56898689D01*
X203953500Y-56698045D01*
X203953500Y-56497402D01*
X203752856Y-56497402D01*
X203552212Y-56497402D01*
X203552212Y-56690614D01*
X203552212Y-56883826D01*
X203366431Y-56883826D01*
X203180650Y-56883826D01*
X203180650Y-56690614D01*
X203180650Y-56497402D01*
X202980006Y-56497402D01*
X202779363Y-56497402D01*
X202779363Y-56690614D01*
X202779363Y-56883826D01*
X202593581Y-56883826D01*
X202407800Y-56883826D01*
X202407800Y-56690614D01*
X202407800Y-56497402D01*
X202207157Y-56497402D01*
X202006513Y-56497402D01*
X202006513Y-56690614D01*
X202006513Y-56883826D01*
X201820732Y-56883826D01*
X201634951Y-56883826D01*
X201634951Y-56504833D01*
X201634951Y-56125839D01*
X202021376Y-56125839D01*
X202407800Y-56125839D01*
X202407800Y-55932627D01*
X202407800Y-55739414D01*
X202593581Y-55739414D01*
X202779363Y-55739414D01*
X202779363Y-55932627D01*
X202779363Y-56125839D01*
X203173219Y-56125839D01*
X203567075Y-56125839D01*
X203567075Y-55925196D01*
X203567075Y-55724552D01*
X203373862Y-55724552D01*
X203180650Y-55724552D01*
X203180650Y-55338127D01*
X203180650Y-54951702D01*
X202601013Y-54951702D01*
X202021376Y-54951702D01*
X202021376Y-54765921D01*
X202021376Y-54580140D01*
X202214588Y-54580140D01*
X202407800Y-54580140D01*
X202407800Y-54379496D01*
X202779363Y-54379496D01*
X202779363Y-54580140D01*
X203173219Y-54580140D01*
X203567075Y-54580140D01*
X203567075Y-54379496D01*
X204325062Y-54379496D01*
X204325062Y-54580140D01*
X204525706Y-54580140D01*
X204726349Y-54580140D01*
X204726349Y-54379496D01*
X204726349Y-54178853D01*
X204525706Y-54178853D01*
X204325062Y-54178853D01*
X204325062Y-54379496D01*
X203567075Y-54379496D01*
X203567075Y-54178853D01*
X203173219Y-54178853D01*
X202779363Y-54178853D01*
X202779363Y-54379496D01*
X202407800Y-54379496D01*
X202407800Y-54178853D01*
X201820732Y-54178853D01*
X201233663Y-54178853D01*
X201233663Y-54372065D01*
X201233663Y-54565278D01*
X201047882Y-54565278D01*
X200862101Y-54565278D01*
X200862101Y-54372065D01*
X200862101Y-54178853D01*
X200661457Y-54178853D01*
X200460814Y-54178853D01*
X200460814Y-54379496D01*
X200460814Y-54580140D01*
X200654026Y-54580140D01*
X200847239Y-54580140D01*
X200847239Y-54773352D01*
X200847239Y-54966565D01*
X201040451Y-54966565D01*
X201233663Y-54966565D01*
X201233663Y-55152346D01*
X201233663Y-55338127D01*
X201040451Y-55338127D01*
X200847239Y-55338127D01*
X200847239Y-55531340D01*
X200847239Y-55724552D01*
X200468245Y-55724552D01*
X200089251Y-55724552D01*
X200089251Y-55538771D01*
X200089251Y-55352990D01*
X200282464Y-55352990D01*
X200475676Y-55352990D01*
X200475676Y-55152346D01*
X200475676Y-54951702D01*
X200282464Y-54951702D01*
X200089251Y-54951702D01*
X200089251Y-54758490D01*
X200089251Y-54565278D01*
X199896039Y-54565278D01*
X199702827Y-54565278D01*
X199702827Y-54372065D01*
X199702827Y-54178853D01*
X199308971Y-54178853D01*
X198915115Y-54178853D01*
X198915115Y-54959134D01*
X198915115Y-55739414D01*
X199494752Y-55739414D01*
X200074389Y-55739414D01*
X200074389Y-55925196D01*
X200074389Y-56110977D01*
X199494752Y-56110977D01*
X198915115Y-56110977D01*
X198915115Y-56504833D01*
X198915115Y-56898689D01*
X199108327Y-56898689D01*
X199301539Y-56898689D01*
X199301539Y-57084470D01*
X199301539Y-57270251D01*
X198528690Y-57270251D01*
X197755840Y-57270251D01*
X197755840Y-57470895D01*
X197755840Y-57671538D01*
X197949053Y-57671538D01*
X198142265Y-57671538D01*
X198142265Y-57857320D01*
X198142265Y-58043101D01*
X197949053Y-58043101D01*
X197755840Y-58043101D01*
X197755840Y-58243744D01*
X197755840Y-58444388D01*
X198149696Y-58444388D01*
X198543552Y-58444388D01*
X198543552Y-58251176D01*
X198543552Y-58057963D01*
X198729333Y-58057963D01*
X198915115Y-58057963D01*
X198915115Y-58436957D01*
X198915115Y-58815950D01*
X198721902Y-58815950D01*
X198528690Y-58815950D01*
X198528690Y-59009163D01*
X198528690Y-59202375D01*
X198342909Y-59202375D01*
X198157127Y-59202375D01*
X198157127Y-59009163D01*
X198157127Y-58815950D01*
X197956484Y-58815950D01*
X197755840Y-58815950D01*
X197755840Y-59202375D01*
X197755840Y-59588800D01*
X197570059Y-59588800D01*
X197384278Y-59588800D01*
X197384278Y-59395588D01*
X197384278Y-59202375D01*
X197183634Y-59202375D01*
X196982990Y-59202375D01*
X196982990Y-59588800D01*
X196982990Y-59975225D01*
X196797209Y-59975225D01*
X196611428Y-59975225D01*
X196611428Y-59782012D01*
X196611428Y-59588800D01*
X196418216Y-59588800D01*
X196225003Y-59588800D01*
X196225003Y-59403019D01*
X196225003Y-59217238D01*
X196418216Y-59217238D01*
X196611428Y-59217238D01*
X196611428Y-59024025D01*
X196611428Y-58830813D01*
X196804641Y-58830813D01*
X196997853Y-58830813D01*
X196997853Y-58637601D01*
X196997853Y-58444388D01*
X197191065Y-58444388D01*
X197384278Y-58444388D01*
X197384278Y-58050532D01*
X197384278Y-57656676D01*
X197191065Y-57656676D01*
X196997853Y-57656676D01*
X196997853Y-57463464D01*
X196997853Y-57270251D01*
X196410785Y-57270251D01*
X195823716Y-57270251D01*
X195169766Y-57270251D01*
X195169766Y-55531340D01*
X195838579Y-55531340D01*
X195838579Y-56883826D01*
X197191065Y-56883826D01*
X198543552Y-56883826D01*
X198543552Y-55531340D01*
X198543552Y-54178853D01*
X197191065Y-54178853D01*
X195838579Y-54178853D01*
X195838579Y-55531340D01*
X195169766Y-55531340D01*
X195169766Y-53569491D01*
X202170000Y-53569491D01*
X209170234Y-53569491D01*
X209170234Y-54178853D01*
X209170234Y-60540000D01*
G37*
G36*
X200460814Y-64240760D02*
G01*
X200460814Y-64627185D01*
X200661457Y-64627185D01*
X200862101Y-64627185D01*
X200862101Y-64240760D01*
X200862101Y-63854335D01*
X201047882Y-63854335D01*
X201233663Y-63854335D01*
X201233663Y-64047548D01*
X201233663Y-64240760D01*
X201620088Y-64240760D01*
X202006513Y-64240760D01*
X202006513Y-64426541D01*
X202006513Y-64612323D01*
X201813301Y-64612323D01*
X201620088Y-64612323D01*
X201620088Y-64805535D01*
X201620088Y-64998747D01*
X201233663Y-64998747D01*
X200847239Y-64998747D01*
X200847239Y-65385172D01*
X200847239Y-65771597D01*
X200654026Y-65771597D01*
X200460814Y-65771597D01*
X200460814Y-66158022D01*
X200460814Y-66544447D01*
X199695395Y-66544447D01*
X198929977Y-66544447D01*
X198929977Y-66358665D01*
X198929977Y-66172884D01*
X199123189Y-66172884D01*
X199316402Y-66172884D01*
X199316402Y-65979672D01*
X199316402Y-65786459D01*
X199509614Y-65786459D01*
X199702827Y-65786459D01*
X199702827Y-65593247D01*
X199702827Y-65400035D01*
X200089251Y-65400035D01*
X200475676Y-65400035D01*
X200475676Y-65199391D01*
X200475676Y-64998747D01*
X200089251Y-64998747D01*
X199702827Y-64998747D01*
X199702827Y-64812966D01*
X199702827Y-64627185D01*
X199896039Y-64627185D01*
X200089251Y-64627185D01*
X200089251Y-64426541D01*
X200089251Y-64225898D01*
X199896039Y-64225898D01*
X199702827Y-64225898D01*
X199702827Y-64040117D01*
X199702827Y-63854335D01*
X200081820Y-63854335D01*
X200460814Y-63854335D01*
X200460814Y-64240760D01*
G37*
G36*
X201233663Y-65972241D02*
G01*
X201233663Y-66158022D01*
X201047882Y-66158022D01*
X200862101Y-66158022D01*
X200862101Y-65972241D01*
X200862101Y-65786459D01*
X201047882Y-65786459D01*
X201233663Y-65786459D01*
X201233663Y-65972241D01*
G37*
G36*
X205097912Y-65392603D02*
G01*
X205097912Y-65771597D01*
X204912130Y-65771597D01*
X204726349Y-65771597D01*
X204726349Y-65578385D01*
X204726349Y-65385172D01*
X204533137Y-65385172D01*
X204339924Y-65385172D01*
X204339924Y-65199391D01*
X204339924Y-65013610D01*
X204718918Y-65013610D01*
X205097912Y-65013610D01*
X205097912Y-65392603D01*
G37*
G36*
X196982990Y-65585816D02*
G01*
X196982990Y-65771597D01*
X196797209Y-65771597D01*
X196611428Y-65771597D01*
X196611428Y-65585816D01*
X196611428Y-65400035D01*
X196797209Y-65400035D01*
X196982990Y-65400035D01*
X196982990Y-65585816D01*
G37*
G36*
X203938637Y-65006179D02*
G01*
X203938637Y-65385172D01*
X203559644Y-65385172D01*
X203180650Y-65385172D01*
X203180650Y-65199391D01*
X203180650Y-65013610D01*
X203373862Y-65013610D01*
X203567075Y-65013610D01*
X203567075Y-64820397D01*
X203567075Y-64627185D01*
X203752856Y-64627185D01*
X203938637Y-64627185D01*
X203938637Y-65006179D01*
G37*
G36*
X202006513Y-65199391D02*
G01*
X202006513Y-65385172D01*
X201820732Y-65385172D01*
X201634951Y-65385172D01*
X201634951Y-65199391D01*
X201634951Y-65013610D01*
X201820732Y-65013610D01*
X202006513Y-65013610D01*
X202006513Y-65199391D01*
G37*
G36*
X199687964Y-65199391D02*
G01*
X199687964Y-65385172D01*
X199502183Y-65385172D01*
X199316402Y-65385172D01*
X199316402Y-65199391D01*
X199316402Y-65013610D01*
X199502183Y-65013610D01*
X199687964Y-65013610D01*
X199687964Y-65199391D01*
G37*
G36*
X197369415Y-65199391D02*
G01*
X197369415Y-65385172D01*
X197183634Y-65385172D01*
X196997853Y-65385172D01*
X196997853Y-65199391D01*
X196997853Y-65013610D01*
X197183634Y-65013610D01*
X197369415Y-65013610D01*
X197369415Y-65199391D01*
G37*
G36*
X203552212Y-64426541D02*
G01*
X203552212Y-64612323D01*
X203165787Y-64612323D01*
X202779363Y-64612323D01*
X202779363Y-64805535D01*
X202779363Y-64998747D01*
X202400369Y-64998747D01*
X202021376Y-64998747D01*
X202021376Y-64812966D01*
X202021376Y-64627185D01*
X202214588Y-64627185D01*
X202407800Y-64627185D01*
X202407800Y-64433973D01*
X202407800Y-64240760D01*
X202980006Y-64240760D01*
X203552212Y-64240760D01*
X203552212Y-64426541D01*
G37*
G36*
X198915115Y-64426541D02*
G01*
X198915115Y-64998747D01*
X198342909Y-64998747D01*
X197770703Y-64998747D01*
X197770703Y-64426541D01*
X197770703Y-64225898D01*
X198142265Y-64225898D01*
X198142265Y-64426541D01*
X198142265Y-64627185D01*
X198342909Y-64627185D01*
X198543552Y-64627185D01*
X198543552Y-64426541D01*
X198543552Y-64225898D01*
X198342909Y-64225898D01*
X198142265Y-64225898D01*
X197770703Y-64225898D01*
X197770703Y-63854335D01*
X198342909Y-63854335D01*
X198915115Y-63854335D01*
X198915115Y-64225898D01*
X198915115Y-64426541D01*
G37*
G36*
X204325062Y-64426541D02*
G01*
X204325062Y-64612323D01*
X204139281Y-64612323D01*
X203953500Y-64612323D01*
X203953500Y-64426541D01*
X203953500Y-64240760D01*
X204139281Y-64240760D01*
X204325062Y-64240760D01*
X204325062Y-64426541D01*
G37*
G36*
X196982990Y-64040117D02*
G01*
X196982990Y-64612323D01*
X196797209Y-64612323D01*
X196611428Y-64612323D01*
X196611428Y-64419110D01*
X196611428Y-64225898D01*
X196418216Y-64225898D01*
X196225003Y-64225898D01*
X196225003Y-64040117D01*
X196225003Y-63854335D01*
X196418216Y-63854335D01*
X196611428Y-63854335D01*
X196611428Y-63661123D01*
X196611428Y-63467911D01*
X196797209Y-63467911D01*
X196982990Y-63467911D01*
X196982990Y-64040117D01*
G37*
G36*
X203953500Y-60376512D02*
G01*
X204139281Y-60376512D01*
X204325062Y-60376512D01*
X204325062Y-60948718D01*
X204325062Y-61520924D01*
X204139281Y-61520924D01*
X203953500Y-61520924D01*
X203953500Y-61721568D01*
X203953500Y-61922211D01*
X204146712Y-61922211D01*
X204339924Y-61922211D01*
X204339924Y-61728999D01*
X204339924Y-61535787D01*
X204525706Y-61535787D01*
X204711487Y-61535787D01*
X204711487Y-61728999D01*
X204711487Y-61922211D01*
X205097912Y-61922211D01*
X205484336Y-61922211D01*
X205484336Y-62107993D01*
X205484336Y-62293774D01*
X205291124Y-62293774D01*
X205097912Y-62293774D01*
X205097912Y-62494417D01*
X205097912Y-62695061D01*
X205298555Y-62695061D01*
X205499199Y-62695061D01*
X205499199Y-62501849D01*
X205499199Y-62308636D01*
X205878192Y-62308636D01*
X206257186Y-62308636D01*
X206257186Y-62494417D01*
X206257186Y-62680199D01*
X206063974Y-62680199D01*
X205870761Y-62680199D01*
X205870761Y-62880842D01*
X205870761Y-63081486D01*
X206063974Y-63081486D01*
X206257186Y-63081486D01*
X206257186Y-63267267D01*
X206257186Y-63453048D01*
X205878192Y-63453048D01*
X205499199Y-63453048D01*
X205499199Y-63259836D01*
X205499199Y-63066623D01*
X205112774Y-63066623D01*
X204726349Y-63066623D01*
X204726349Y-62873411D01*
X204726349Y-62680199D01*
X204525706Y-62680199D01*
X204325062Y-62680199D01*
X204325062Y-63259836D01*
X204325062Y-63839473D01*
X203946068Y-63839473D01*
X203567075Y-63839473D01*
X203567075Y-63653692D01*
X203567075Y-63467911D01*
X203760287Y-63467911D01*
X203953500Y-63467911D01*
X203953500Y-63267267D01*
X203953500Y-63066623D01*
X203760287Y-63066623D01*
X203567075Y-63066623D01*
X203567075Y-62873411D01*
X203567075Y-62680199D01*
X203374306Y-62680199D01*
X203181538Y-62680199D01*
X203177378Y-62490702D01*
X203173219Y-62301205D01*
X202976291Y-62297058D01*
X202779363Y-62292911D01*
X202779363Y-62679767D01*
X202779363Y-63066623D01*
X202207157Y-63066623D01*
X201634951Y-63066623D01*
X201634951Y-62880842D01*
X201634951Y-62695061D01*
X201828594Y-62695061D01*
X202022238Y-62695061D01*
X202018091Y-62498133D01*
X202013944Y-62301205D01*
X201817016Y-62297058D01*
X201620088Y-62292911D01*
X201620088Y-62486555D01*
X201620088Y-62680199D01*
X200654026Y-62680199D01*
X199687964Y-62680199D01*
X199687964Y-63259836D01*
X199687964Y-63839473D01*
X199502183Y-63839473D01*
X199316402Y-63839473D01*
X199316402Y-63453048D01*
X199316402Y-63066623D01*
X199115758Y-63066623D01*
X198915115Y-63066623D01*
X198915115Y-63259836D01*
X198915115Y-63453048D01*
X198149696Y-63453048D01*
X197384278Y-63453048D01*
X197384278Y-63066623D01*
X197384278Y-62680199D01*
X197755840Y-62680199D01*
X197755840Y-62880842D01*
X197755840Y-63081486D01*
X197956484Y-63081486D01*
X198157127Y-63081486D01*
X198157127Y-62880842D01*
X198157127Y-62680199D01*
X197956484Y-62680199D01*
X197755840Y-62680199D01*
X197384278Y-62680199D01*
X196804641Y-62680199D01*
X196225003Y-62680199D01*
X196225003Y-62494417D01*
X196225003Y-62308636D01*
X196418216Y-62308636D01*
X196611428Y-62308636D01*
X196611428Y-62115424D01*
X196611428Y-61922211D01*
X196797209Y-61922211D01*
X196982990Y-61922211D01*
X196982990Y-62115424D01*
X196982990Y-62308636D01*
X197949053Y-62308636D01*
X198915115Y-62308636D01*
X198915115Y-62501849D01*
X198915115Y-62680199D01*
X198915115Y-62695061D01*
X199115758Y-62695061D01*
X199316402Y-62695061D01*
X199316402Y-62494417D01*
X199316402Y-62293774D01*
X199123189Y-62293774D01*
X198929977Y-62293774D01*
X198929977Y-62107993D01*
X198929977Y-61922211D01*
X199308971Y-61922211D01*
X199687964Y-61922211D01*
X199687964Y-62115424D01*
X199687964Y-62308636D01*
X199888608Y-62308636D01*
X200089251Y-62308636D01*
X200089251Y-62115424D01*
X200089251Y-61922211D01*
X200282895Y-61922211D01*
X200476539Y-61922211D01*
X200472392Y-61725283D01*
X200468245Y-61528355D01*
X199699111Y-61524506D01*
X198929977Y-61520657D01*
X198929977Y-61335009D01*
X198929977Y-61149362D01*
X199316402Y-61149362D01*
X199702827Y-61149362D01*
X199702827Y-60948718D01*
X199702827Y-60748074D01*
X199316402Y-60748074D01*
X198929977Y-60748074D01*
X198929977Y-60747212D01*
X200074389Y-60747212D01*
X200074389Y-60948287D01*
X200074389Y-61149362D01*
X200275464Y-61149362D01*
X200476539Y-61149362D01*
X200472392Y-60952434D01*
X200470763Y-60875100D01*
X200767818Y-60875100D01*
X200768924Y-60877778D01*
X200780175Y-60893368D01*
X200800612Y-60905332D01*
X200833657Y-60914118D01*
X200882729Y-60920173D01*
X200951250Y-60923944D01*
X201042639Y-60925879D01*
X201160318Y-60926424D01*
X201190517Y-60926442D01*
X201280056Y-60926712D01*
X201357258Y-60927269D01*
X201417777Y-60928061D01*
X201457265Y-60929035D01*
X201471376Y-60930140D01*
X201469489Y-60936464D01*
X201459662Y-60967012D01*
X201442584Y-61019299D01*
X201419550Y-61089381D01*
X201399757Y-61149362D01*
X201391852Y-61173317D01*
X201360785Y-61267164D01*
X201325870Y-61373603D01*
X201297490Y-61463969D01*
X201278092Y-61532557D01*
X201267159Y-61582593D01*
X201264179Y-61617303D01*
X201268636Y-61639909D01*
X201280015Y-61653638D01*
X201297801Y-61661714D01*
X201308616Y-61663080D01*
X201347575Y-61665053D01*
X201410686Y-61666879D01*
X201494584Y-61668547D01*
X201595905Y-61670044D01*
X201711281Y-61671355D01*
X201837349Y-61672470D01*
X201970741Y-61673375D01*
X202108092Y-61674056D01*
X202246038Y-61674503D01*
X202381211Y-61674700D01*
X202510247Y-61674637D01*
X202629780Y-61674300D01*
X202736445Y-61673676D01*
X202826875Y-61672752D01*
X202897705Y-61671517D01*
X202945569Y-61669956D01*
X202967103Y-61668057D01*
X202972522Y-61666434D01*
X203008755Y-61650662D01*
X203041590Y-61625407D01*
X203072948Y-61587485D01*
X203104748Y-61533709D01*
X203138913Y-61460897D01*
X203177364Y-61365861D01*
X203222020Y-61245419D01*
X203248893Y-61170035D01*
X203284338Y-61065640D01*
X203309190Y-60983009D01*
X203323978Y-60918616D01*
X203329233Y-60868931D01*
X203325487Y-60830426D01*
X203313269Y-60799573D01*
X203293111Y-60772844D01*
X203256948Y-60733823D01*
X203312397Y-60718892D01*
X203315696Y-60717952D01*
X203364544Y-60695180D01*
X203405910Y-60662852D01*
X203422294Y-60636832D01*
X203446043Y-60586306D01*
X203474693Y-60517073D01*
X203506499Y-60434184D01*
X203539716Y-60342692D01*
X203572597Y-60247650D01*
X203603396Y-60154110D01*
X203630369Y-60067124D01*
X203651769Y-59991745D01*
X203665850Y-59933025D01*
X203670868Y-59896017D01*
X203669643Y-59874895D01*
X203649182Y-59801043D01*
X203608066Y-59734673D01*
X203552204Y-59686234D01*
X203545184Y-59682251D01*
X203534807Y-59677350D01*
X203521845Y-59673078D01*
X203504360Y-59669385D01*
X203480412Y-59666219D01*
X203448064Y-59663530D01*
X203405377Y-59661267D01*
X203350411Y-59659378D01*
X203281229Y-59657813D01*
X203195893Y-59656521D01*
X203092462Y-59655451D01*
X202969000Y-59654551D01*
X202823567Y-59653772D01*
X202654225Y-59653062D01*
X202459035Y-59652369D01*
X202236059Y-59651644D01*
X200971924Y-59647607D01*
X200939862Y-59681735D01*
X200936462Y-59686005D01*
X200918784Y-59717803D01*
X200895259Y-59769459D01*
X200868416Y-59834296D01*
X200840783Y-59905638D01*
X200814889Y-59976809D01*
X200793262Y-60041130D01*
X200778432Y-60091925D01*
X200772926Y-60122517D01*
X200778755Y-60144113D01*
X200800103Y-60173562D01*
X200800712Y-60174102D01*
X200812260Y-60181180D01*
X200831048Y-60186981D01*
X200860290Y-60191737D01*
X200903197Y-60195682D01*
X200962980Y-60199046D01*
X201042850Y-60202064D01*
X201146021Y-60204967D01*
X201275702Y-60207987D01*
X201319537Y-60208994D01*
X201428071Y-60211900D01*
X201524993Y-60215080D01*
X201606681Y-60218377D01*
X201669513Y-60221633D01*
X201709869Y-60224692D01*
X201724126Y-60227398D01*
X201720191Y-60243699D01*
X201708978Y-60280470D01*
X201693036Y-60329039D01*
X201661947Y-60421100D01*
X201317758Y-60421572D01*
X201241704Y-60421715D01*
X201143830Y-60422401D01*
X201069437Y-60424321D01*
X201014705Y-60428235D01*
X200975817Y-60434903D01*
X200948951Y-60445088D01*
X200930290Y-60459549D01*
X200916014Y-60479048D01*
X200902304Y-60504347D01*
X200877963Y-60555282D01*
X200850814Y-60618767D01*
X200824127Y-60686601D01*
X200800193Y-60752467D01*
X200781303Y-60810050D01*
X200769747Y-60853033D01*
X200767818Y-60875100D01*
X200470763Y-60875100D01*
X200468245Y-60755506D01*
X200271317Y-60751359D01*
X200074389Y-60747212D01*
X198929977Y-60747212D01*
X198929977Y-60562293D01*
X198929977Y-60376512D01*
X199703258Y-60376512D01*
X200476539Y-60376512D01*
X200472392Y-60179584D01*
X200468245Y-59982656D01*
X200278748Y-59978496D01*
X200089251Y-59974337D01*
X200089251Y-59595787D01*
X200089251Y-59217238D01*
X200282464Y-59217238D01*
X200475676Y-59217238D01*
X200475676Y-59016594D01*
X200475676Y-58815950D01*
X200668889Y-58815950D01*
X200862101Y-58815950D01*
X200862101Y-58630169D01*
X200862101Y-58444388D01*
X201241095Y-58444388D01*
X201620088Y-58444388D01*
X201620088Y-58630169D01*
X201620088Y-58815950D01*
X202013944Y-58815950D01*
X202407800Y-58815950D01*
X202407800Y-58236313D01*
X202407800Y-57656676D01*
X202214588Y-57656676D01*
X202021376Y-57656676D01*
X202021376Y-57277682D01*
X202021376Y-56898689D01*
X202207157Y-56898689D01*
X202392938Y-56898689D01*
X202392938Y-57091901D01*
X202392938Y-57285114D01*
X202779363Y-57285114D01*
X203165787Y-57285114D01*
X203165787Y-57478326D01*
X203165787Y-57671538D01*
X203359000Y-57671538D01*
X203552212Y-57671538D01*
X203552212Y-57857320D01*
X203552212Y-58043101D01*
X203359000Y-58043101D01*
X203165787Y-58043101D01*
X203165787Y-58243744D01*
X203165787Y-58444388D01*
X203366431Y-58444388D01*
X203567075Y-58444388D01*
X203567075Y-58251176D01*
X203567075Y-58057963D01*
X203760287Y-58057963D01*
X203953500Y-58057963D01*
X203953500Y-57864751D01*
X203953500Y-57671538D01*
X204139281Y-57671538D01*
X204325062Y-57671538D01*
X204325062Y-57864751D01*
X204325062Y-58057963D01*
X204518274Y-58057963D01*
X204711487Y-58057963D01*
X204711487Y-58243744D01*
X204711487Y-58429526D01*
X204322707Y-58429526D01*
X203933927Y-58429526D01*
X203943713Y-58721734D01*
X203944741Y-58756180D01*
X203946770Y-58847259D01*
X203948622Y-58960828D01*
X203950247Y-59092008D01*
X203951596Y-59235919D01*
X203952621Y-59387679D01*
X203953272Y-59542408D01*
X203953500Y-59695228D01*
X203953500Y-59896017D01*
X203953500Y-60376512D01*
G37*
G36*
X203165787Y-63653692D02*
G01*
X203165787Y-63839473D01*
X202400369Y-63839473D01*
X201634951Y-63839473D01*
X201634951Y-63653692D01*
X201634951Y-63467911D01*
X202400369Y-63467911D01*
X203165787Y-63467911D01*
X203165787Y-63653692D01*
G37*
G36*
X200847239Y-63653692D02*
G01*
X200847239Y-63839473D01*
X200661457Y-63839473D01*
X200475676Y-63839473D01*
X200475676Y-63653692D01*
X200475676Y-63467911D01*
X200661457Y-63467911D01*
X200847239Y-63467911D01*
X200847239Y-63653692D01*
G37*
G36*
X208189310Y-61335143D02*
G01*
X208189310Y-61520924D01*
X207996098Y-61520924D01*
X207802885Y-61520924D01*
X207802885Y-61721568D01*
X207802885Y-61922211D01*
X207996098Y-61922211D01*
X208189310Y-61922211D01*
X208189310Y-62107993D01*
X208189310Y-62293774D01*
X207802885Y-62293774D01*
X207416460Y-62293774D01*
X207416460Y-62680199D01*
X207416460Y-63066623D01*
X207230679Y-63066623D01*
X207044898Y-63066623D01*
X207044898Y-62873411D01*
X207044898Y-62680199D01*
X206851686Y-62680199D01*
X206658473Y-62680199D01*
X206658473Y-62494417D01*
X206658473Y-62308636D01*
X206851686Y-62308636D01*
X207044898Y-62308636D01*
X207044898Y-62115424D01*
X207044898Y-61922211D01*
X207238110Y-61922211D01*
X207431323Y-61922211D01*
X207431323Y-61535787D01*
X207431323Y-61149362D01*
X207810316Y-61149362D01*
X208189310Y-61149362D01*
X208189310Y-61335143D01*
G37*
G36*
X206643611Y-62880842D02*
G01*
X206643611Y-63066623D01*
X206457830Y-63066623D01*
X206272048Y-63066623D01*
X206272048Y-62880842D01*
X206272048Y-62695061D01*
X206457830Y-62695061D01*
X206643611Y-62695061D01*
X206643611Y-62880842D01*
G37*
G36*
X207030036Y-61721568D02*
G01*
X207030036Y-61907349D01*
X206844254Y-61907349D01*
X206658473Y-61907349D01*
X206658473Y-61721568D01*
X206658473Y-61535787D01*
X206844254Y-61535787D01*
X207030036Y-61535787D01*
X207030036Y-61721568D01*
G37*
G36*
X206257186Y-61721568D02*
G01*
X206257186Y-61907349D01*
X205878192Y-61907349D01*
X205499199Y-61907349D01*
X205499199Y-61721568D01*
X205499199Y-61535787D01*
X205878192Y-61535787D01*
X206257186Y-61535787D01*
X206257186Y-61721568D01*
G37*
G36*
X198915115Y-61721568D02*
G01*
X198915115Y-61907349D01*
X198729333Y-61907349D01*
X198543552Y-61907349D01*
X198543552Y-61721568D01*
X198543552Y-61535787D01*
X198729333Y-61535787D01*
X198915115Y-61535787D01*
X198915115Y-61721568D01*
G37*
G36*
X197755840Y-61721568D02*
G01*
X197755840Y-61907349D01*
X197570059Y-61907349D01*
X197384278Y-61907349D01*
X197384278Y-61721568D01*
X197384278Y-61535787D01*
X197570059Y-61535787D01*
X197755840Y-61535787D01*
X197755840Y-61721568D01*
G37*
G36*
X196596566Y-61721568D02*
G01*
X196596566Y-61907349D01*
X196410785Y-61907349D01*
X196225003Y-61907349D01*
X196225003Y-61721568D01*
X196225003Y-61535787D01*
X196410785Y-61535787D01*
X196596566Y-61535787D01*
X196596566Y-61721568D01*
G37*
G36*
X197369415Y-60569725D02*
G01*
X197369415Y-60762937D01*
X197755840Y-60762937D01*
X198142265Y-60762937D01*
X198142265Y-60948718D01*
X198142265Y-61134499D01*
X197755840Y-61134499D01*
X197369415Y-61134499D01*
X197369415Y-61327712D01*
X197369415Y-61520924D01*
X197183634Y-61520924D01*
X196997853Y-61520924D01*
X196997853Y-61327712D01*
X196997853Y-61134499D01*
X196611428Y-61134499D01*
X196225003Y-61134499D01*
X196225003Y-60948718D01*
X196225003Y-60762937D01*
X196418216Y-60762937D01*
X196611428Y-60762937D01*
X196611428Y-60569725D01*
X196611428Y-60376512D01*
X196990422Y-60376512D01*
X197369415Y-60376512D01*
X197369415Y-60569725D01*
G37*
G36*
X198915115Y-60948718D02*
G01*
X198915115Y-61134499D01*
X198729333Y-61134499D01*
X198543552Y-61134499D01*
X198543552Y-60948718D01*
X198543552Y-60762937D01*
X198729333Y-60762937D01*
X198915115Y-60762937D01*
X198915115Y-60948718D01*
G37*
G36*
X198528690Y-60562293D02*
G01*
X198528690Y-60748074D01*
X198342909Y-60748074D01*
X198157127Y-60748074D01*
X198157127Y-60562293D01*
X198157127Y-60376512D01*
X198342909Y-60376512D01*
X198528690Y-60376512D01*
X198528690Y-60562293D01*
G37*
G36*
X206257186Y-60175868D02*
G01*
X206257186Y-60361650D01*
X206071405Y-60361650D01*
X205885624Y-60361650D01*
X205885624Y-60175868D01*
X205885624Y-59990087D01*
X206071405Y-59990087D01*
X206257186Y-59990087D01*
X206257186Y-60175868D01*
G37*
G36*
X205097912Y-59789444D02*
G01*
X205097912Y-59975225D01*
X204912130Y-59975225D01*
X204726349Y-59975225D01*
X204726349Y-59789444D01*
X204726349Y-59603663D01*
X204912130Y-59603663D01*
X205097912Y-59603663D01*
X205097912Y-59789444D01*
G37*
G36*
X199687964Y-59789444D02*
G01*
X199687964Y-59975225D01*
X199502183Y-59975225D01*
X199316402Y-59975225D01*
X199316402Y-59789444D01*
X199316402Y-59603663D01*
X199502183Y-59603663D01*
X199687964Y-59603663D01*
X199687964Y-59789444D01*
G37*
G36*
X198142265Y-59789444D02*
G01*
X198142265Y-59975225D01*
X197956484Y-59975225D01*
X197770703Y-59975225D01*
X197770703Y-59789444D01*
X197770703Y-59603663D01*
X197956484Y-59603663D01*
X198142265Y-59603663D01*
X198142265Y-59789444D01*
G37*
G36*
X208189310Y-59403019D02*
G01*
X208189310Y-59588800D01*
X208003529Y-59588800D01*
X207817748Y-59588800D01*
X207817748Y-59403019D01*
X207817748Y-59217238D01*
X208003529Y-59217238D01*
X208189310Y-59217238D01*
X208189310Y-59403019D01*
G37*
G36*
X207416460Y-59209806D02*
G01*
X207416460Y-59588800D01*
X207230679Y-59588800D01*
X207044898Y-59588800D01*
X207044898Y-59395588D01*
X207044898Y-59202375D01*
X206851686Y-59202375D01*
X206658473Y-59202375D01*
X206658473Y-59016594D01*
X206658473Y-58830813D01*
X207037467Y-58830813D01*
X207416460Y-58830813D01*
X207416460Y-59209806D01*
G37*
G36*
X200074389Y-59016594D02*
G01*
X200074389Y-59202375D01*
X199695395Y-59202375D01*
X199316402Y-59202375D01*
X199316402Y-59016594D01*
X199316402Y-58830813D01*
X199695395Y-58830813D01*
X200074389Y-58830813D01*
X200074389Y-59016594D01*
G37*
G36*
X207416460Y-58243744D02*
G01*
X207416460Y-58429526D01*
X207037467Y-58429526D01*
X206658473Y-58429526D01*
X206658473Y-58243744D01*
X206658473Y-58057963D01*
X207037467Y-58057963D01*
X207416460Y-58057963D01*
X207416460Y-58243744D01*
G37*
G36*
X202006513Y-58243744D02*
G01*
X202006513Y-58429526D01*
X201820732Y-58429526D01*
X201634951Y-58429526D01*
X201634951Y-58243744D01*
X201634951Y-58057963D01*
X201820732Y-58057963D01*
X202006513Y-58057963D01*
X202006513Y-58243744D01*
G37*
G36*
X200847239Y-58050532D02*
G01*
X200847239Y-58429526D01*
X200661457Y-58429526D01*
X200475676Y-58429526D01*
X200475676Y-58050532D01*
X200475676Y-57671538D01*
X200661457Y-57671538D01*
X200847239Y-57671538D01*
X200847239Y-58050532D01*
G37*
G36*
X200074389Y-57091901D02*
G01*
X200074389Y-57285114D01*
X200267601Y-57285114D01*
X200460814Y-57285114D01*
X200460814Y-57470895D01*
X200460814Y-57656676D01*
X200267601Y-57656676D01*
X200074389Y-57656676D01*
X200074389Y-58043101D01*
X200074389Y-58429526D01*
X199695395Y-58429526D01*
X199316402Y-58429526D01*
X199316402Y-58243744D01*
X199316402Y-58057963D01*
X199509614Y-58057963D01*
X199702827Y-58057963D01*
X199702827Y-57478326D01*
X199702827Y-56898689D01*
X199888608Y-56898689D01*
X200074389Y-56898689D01*
X200074389Y-57091901D01*
G37*
G36*
X201620088Y-57664107D02*
G01*
X201620088Y-58043101D01*
X201434307Y-58043101D01*
X201248526Y-58043101D01*
X201248526Y-57849888D01*
X201248526Y-57656676D01*
X201055313Y-57656676D01*
X200862101Y-57656676D01*
X200862101Y-57470895D01*
X200862101Y-57285114D01*
X201241095Y-57285114D01*
X201620088Y-57285114D01*
X201620088Y-57664107D01*
G37*
G36*
X199301539Y-57857320D02*
G01*
X199301539Y-58043101D01*
X199115758Y-58043101D01*
X198929977Y-58043101D01*
X198929977Y-57857320D01*
X198929977Y-57671538D01*
X199115758Y-57671538D01*
X199301539Y-57671538D01*
X199301539Y-57857320D01*
G37*
G36*
X196982990Y-57857320D02*
G01*
X196982990Y-58043101D01*
X196603997Y-58043101D01*
X196225003Y-58043101D01*
X196225003Y-57857320D01*
X196225003Y-57671538D01*
X196603997Y-57671538D01*
X196982990Y-57671538D01*
X196982990Y-57857320D01*
G37*
G36*
X200847239Y-57084470D02*
G01*
X200847239Y-57270251D01*
X200661457Y-57270251D01*
X200475676Y-57270251D01*
X200475676Y-57084470D01*
X200475676Y-56898689D01*
X200661457Y-56898689D01*
X200847239Y-56898689D01*
X200847239Y-57084470D01*
G37*
G36*
X201233663Y-56698045D02*
G01*
X201233663Y-56883826D01*
X201047882Y-56883826D01*
X200862101Y-56883826D01*
X200862101Y-56698045D01*
X200862101Y-56512264D01*
X201047882Y-56512264D01*
X201233663Y-56512264D01*
X201233663Y-56698045D01*
G37*
G36*
X200460814Y-56698045D02*
G01*
X200460814Y-56883826D01*
X200275033Y-56883826D01*
X200089251Y-56883826D01*
X200089251Y-56698045D01*
X200089251Y-56512264D01*
X200275033Y-56512264D01*
X200460814Y-56512264D01*
X200460814Y-56698045D01*
G37*
G36*
X199687964Y-56698045D02*
G01*
X199687964Y-56883826D01*
X199502183Y-56883826D01*
X199316402Y-56883826D01*
X199316402Y-56698045D01*
X199316402Y-56512264D01*
X199502183Y-56512264D01*
X199687964Y-56512264D01*
X199687964Y-56698045D01*
G37*
G36*
X201233663Y-55925196D02*
G01*
X201233663Y-56110977D01*
X201047882Y-56110977D01*
X200862101Y-56110977D01*
X200862101Y-55925196D01*
X200862101Y-55739414D01*
X201047882Y-55739414D01*
X201233663Y-55739414D01*
X201233663Y-55925196D01*
G37*
G36*
X202392938Y-55538771D02*
G01*
X202392938Y-55724552D01*
X202207157Y-55724552D01*
X202021376Y-55724552D01*
X202021376Y-55538771D01*
X202021376Y-55352990D01*
X202207157Y-55352990D01*
X202392938Y-55352990D01*
X202392938Y-55538771D01*
G37*
G36*
X201620088Y-55538771D02*
G01*
X201620088Y-55724552D01*
X201434307Y-55724552D01*
X201248526Y-55724552D01*
X201248526Y-55538771D01*
X201248526Y-55352990D01*
X201434307Y-55352990D01*
X201620088Y-55352990D01*
X201620088Y-55538771D01*
G37*
G36*
X202006513Y-55152346D02*
G01*
X202006513Y-55338127D01*
X201820732Y-55338127D01*
X201634951Y-55338127D01*
X201634951Y-55152346D01*
X201634951Y-54966565D01*
X201820732Y-54966565D01*
X202006513Y-54966565D01*
X202006513Y-55152346D01*
G37*
G36*
X200074389Y-55152346D02*
G01*
X200074389Y-55338127D01*
X199888608Y-55338127D01*
X199702827Y-55338127D01*
X199702827Y-55152346D01*
X199702827Y-54966565D01*
X199888608Y-54966565D01*
X200074389Y-54966565D01*
X200074389Y-55152346D01*
G37*
G36*
X201620088Y-54765921D02*
G01*
X201620088Y-54951702D01*
X201434307Y-54951702D01*
X201248526Y-54951702D01*
X201248526Y-54765921D01*
X201248526Y-54580140D01*
X201434307Y-54580140D01*
X201620088Y-54580140D01*
X201620088Y-54765921D01*
G37*
G36*
X199687964Y-54765921D02*
G01*
X199687964Y-54951702D01*
X199502183Y-54951702D01*
X199316402Y-54951702D01*
X199316402Y-54765921D01*
X199316402Y-54580140D01*
X199502183Y-54580140D01*
X199687964Y-54580140D01*
X199687964Y-54765921D01*
G37*
G36*
X208204172Y-65578385D02*
G01*
X208204172Y-66544447D01*
X207238110Y-66544447D01*
X206272048Y-66544447D01*
X206272048Y-65578385D01*
X206272048Y-64998747D01*
X206658473Y-64998747D01*
X206658473Y-65578385D01*
X206658473Y-66158022D01*
X207238110Y-66158022D01*
X207817748Y-66158022D01*
X207817748Y-65578385D01*
X207817748Y-64998747D01*
X207238110Y-64998747D01*
X206658473Y-64998747D01*
X206272048Y-64998747D01*
X206272048Y-64612323D01*
X207238110Y-64612323D01*
X208204172Y-64612323D01*
X208204172Y-64998747D01*
X208204172Y-65578385D01*
G37*
G36*
X208204172Y-55531340D02*
G01*
X208204172Y-56497402D01*
X207238110Y-56497402D01*
X206272048Y-56497402D01*
X206272048Y-55531340D01*
X206272048Y-54951702D01*
X206658473Y-54951702D01*
X206658473Y-55531340D01*
X206658473Y-56110977D01*
X207238110Y-56110977D01*
X207817748Y-56110977D01*
X207817748Y-55531340D01*
X207817748Y-54951702D01*
X207238110Y-54951702D01*
X206658473Y-54951702D01*
X206272048Y-54951702D01*
X206272048Y-54565278D01*
X207238110Y-54565278D01*
X208204172Y-54565278D01*
X208204172Y-54951702D01*
X208204172Y-55531340D01*
G37*
G36*
X198157127Y-55531340D02*
G01*
X198157127Y-56497402D01*
X197191065Y-56497402D01*
X196225003Y-56497402D01*
X196225003Y-55531340D01*
X196225003Y-54951702D01*
X196611428Y-54951702D01*
X196611428Y-55531340D01*
X196611428Y-56110977D01*
X197191065Y-56110977D01*
X197770703Y-56110977D01*
X197770703Y-55531340D01*
X197770703Y-54951702D01*
X197191065Y-54951702D01*
X196611428Y-54951702D01*
X196225003Y-54951702D01*
X196225003Y-54565278D01*
X197191065Y-54565278D01*
X198157127Y-54565278D01*
X198157127Y-54951702D01*
X198157127Y-55531340D01*
G37*
G36*
X202377619Y-60932673D02*
G01*
X202449909Y-60935813D01*
X202525781Y-60939702D01*
X202586683Y-60943491D01*
X202627703Y-60946868D01*
X202643928Y-60949523D01*
X202644704Y-60951362D01*
X202642374Y-60973867D01*
X202632677Y-61014137D01*
X202617801Y-61063940D01*
X202599934Y-61115044D01*
X202598349Y-61119138D01*
X202592484Y-61130265D01*
X202582340Y-61138259D01*
X202563675Y-61143637D01*
X202532249Y-61146919D01*
X202483820Y-61148621D01*
X202414149Y-61149263D01*
X202318993Y-61149362D01*
X202238902Y-61148898D01*
X202163769Y-61147482D01*
X202104300Y-61145288D01*
X202065181Y-61142491D01*
X202051101Y-61139269D01*
X202051157Y-61138502D01*
X202056307Y-61117703D01*
X202068170Y-61077468D01*
X202084422Y-61025717D01*
X202117743Y-60922257D01*
X202377619Y-60932673D01*
G37*
G36*
X202912164Y-60298484D02*
G01*
X202898789Y-60337639D01*
X202884489Y-60379142D01*
X202876274Y-60402522D01*
X202875595Y-60403818D01*
X202862333Y-60410576D01*
X202831266Y-60415482D01*
X202779418Y-60418737D01*
X202703814Y-60420542D01*
X202601479Y-60421100D01*
X202521296Y-60420549D01*
X202446159Y-60418868D01*
X202386687Y-60416264D01*
X202347569Y-60412946D01*
X202333488Y-60409123D01*
X202337380Y-60391814D01*
X202348599Y-60354115D01*
X202364577Y-60305086D01*
X202395667Y-60213025D01*
X202668458Y-60213025D01*
X202941249Y-60213025D01*
X202912164Y-60298484D01*
G37*
%TD*%
M02*
