%TF.GenerationSoftware,KiCad,Pcbnew,8.0.5*%
%TF.CreationDate,2025-01-06T13:55:53+00:00*%
%TF.ProjectId,Oric,4f726963-2e6b-4696-9361-645f70636258,rev?*%
%TF.SameCoordinates,Original*%
%TF.FileFunction,Drillmap*%
%TF.FilePolarity,Positive*%
%FSLAX45Y45*%
G04 Gerber Fmt 4.5, Leading zero omitted, Abs format (unit mm)*
G04 Created by KiCad (PCBNEW 8.0.5) date 2025-01-06 13:55:53*
%MOMM*%
%LPD*%
G01*
G04 APERTURE LIST*
%ADD10C,0.050000*%
%ADD11C,0.200000*%
G04 APERTURE END LIST*
D10*
X21435000Y-4662000D02*
G75*
G02*
X21056387Y-4662000I-189307J0D01*
G01*
X21056387Y-4662000D02*
G75*
G02*
X21435000Y-4662000I189307J0D01*
G01*
X5382500Y-14465000D02*
G75*
G02*
X5006319Y-14465000I-188090J0D01*
G01*
X5006319Y-14465000D02*
G75*
G02*
X5382500Y-14465000I188090J0D01*
G01*
X18347742Y-5463000D02*
X15458258Y-5458000D01*
X7538613Y-8847500D02*
G75*
G02*
X7160000Y-8847500I-189307J0D01*
G01*
X7160000Y-8847500D02*
G75*
G02*
X7538613Y-8847500I189307J0D01*
G01*
X15295258Y-5621000D02*
X15313258Y-8499742D01*
X18512742Y-8503742D02*
G75*
G02*
X18349742Y-8666742I-163002J2D01*
G01*
X24160000Y-15270000D02*
G75*
G02*
X23783819Y-15270000I-188090J0D01*
G01*
X23783819Y-15270000D02*
G75*
G02*
X24160000Y-15270000I188090J0D01*
G01*
X13861000Y-2648000D02*
G75*
G02*
X13484819Y-2648000I-188090J0D01*
G01*
X13484819Y-2648000D02*
G75*
G02*
X13861000Y-2648000I188090J0D01*
G01*
X24408000Y-2640000D02*
G75*
G02*
X24031819Y-2640000I-188090J0D01*
G01*
X24031819Y-2640000D02*
G75*
G02*
X24408000Y-2640000I188090J0D01*
G01*
X4032000Y-2144000D02*
X24649000Y-2144000D01*
X24649000Y-15955000D01*
X4032000Y-15955000D01*
X4032000Y-2144000D01*
X18347742Y-5463000D02*
G75*
G02*
X18510740Y-5626000I-2J-163000D01*
G01*
X15476258Y-8662742D02*
X18349742Y-8666742D01*
X15476258Y-8662742D02*
G75*
G02*
X15313258Y-8499742I2J163002D01*
G01*
X4572090Y-2640910D02*
G75*
G02*
X4195910Y-2640910I-188090J0D01*
G01*
X4195910Y-2640910D02*
G75*
G02*
X4572090Y-2640910I188090J0D01*
G01*
X18512742Y-8503742D02*
X18510742Y-5626000D01*
X15295258Y-5621000D02*
G75*
G02*
X15458258Y-5457998I163002J0D01*
G01*
X5607500Y-2312500D02*
G75*
G02*
X5457500Y-2312500I-75000J0D01*
G01*
X5457500Y-2312500D02*
G75*
G02*
X5607500Y-2312500I75000J0D01*
G01*
X5607500Y-3012500D02*
G75*
G02*
X5457500Y-3012500I-75000J0D01*
G01*
X5457500Y-3012500D02*
G75*
G02*
X5607500Y-3012500I75000J0D01*
G01*
D11*
X4290277Y-16268984D02*
X4290277Y-16068984D01*
X4290277Y-16068984D02*
X4337896Y-16068984D01*
X4337896Y-16068984D02*
X4366467Y-16078508D01*
X4366467Y-16078508D02*
X4385515Y-16097555D01*
X4385515Y-16097555D02*
X4395039Y-16116603D01*
X4395039Y-16116603D02*
X4404563Y-16154698D01*
X4404563Y-16154698D02*
X4404563Y-16183269D01*
X4404563Y-16183269D02*
X4395039Y-16221365D01*
X4395039Y-16221365D02*
X4385515Y-16240412D01*
X4385515Y-16240412D02*
X4366467Y-16259460D01*
X4366467Y-16259460D02*
X4337896Y-16268984D01*
X4337896Y-16268984D02*
X4290277Y-16268984D01*
X4490277Y-16268984D02*
X4490277Y-16135650D01*
X4490277Y-16173746D02*
X4499801Y-16154698D01*
X4499801Y-16154698D02*
X4509324Y-16145174D01*
X4509324Y-16145174D02*
X4528372Y-16135650D01*
X4528372Y-16135650D02*
X4547420Y-16135650D01*
X4614086Y-16268984D02*
X4614086Y-16135650D01*
X4614086Y-16068984D02*
X4604563Y-16078508D01*
X4604563Y-16078508D02*
X4614086Y-16088031D01*
X4614086Y-16088031D02*
X4623610Y-16078508D01*
X4623610Y-16078508D02*
X4614086Y-16068984D01*
X4614086Y-16068984D02*
X4614086Y-16088031D01*
X4737896Y-16268984D02*
X4718848Y-16259460D01*
X4718848Y-16259460D02*
X4709324Y-16240412D01*
X4709324Y-16240412D02*
X4709324Y-16068984D01*
X4842658Y-16268984D02*
X4823610Y-16259460D01*
X4823610Y-16259460D02*
X4814086Y-16240412D01*
X4814086Y-16240412D02*
X4814086Y-16068984D01*
X5071229Y-16268984D02*
X5071229Y-16068984D01*
X5071229Y-16068984D02*
X5137896Y-16211841D01*
X5137896Y-16211841D02*
X5204563Y-16068984D01*
X5204563Y-16068984D02*
X5204563Y-16268984D01*
X5385515Y-16268984D02*
X5385515Y-16164222D01*
X5385515Y-16164222D02*
X5375991Y-16145174D01*
X5375991Y-16145174D02*
X5356944Y-16135650D01*
X5356944Y-16135650D02*
X5318848Y-16135650D01*
X5318848Y-16135650D02*
X5299801Y-16145174D01*
X5385515Y-16259460D02*
X5366467Y-16268984D01*
X5366467Y-16268984D02*
X5318848Y-16268984D01*
X5318848Y-16268984D02*
X5299801Y-16259460D01*
X5299801Y-16259460D02*
X5290277Y-16240412D01*
X5290277Y-16240412D02*
X5290277Y-16221365D01*
X5290277Y-16221365D02*
X5299801Y-16202317D01*
X5299801Y-16202317D02*
X5318848Y-16192793D01*
X5318848Y-16192793D02*
X5366467Y-16192793D01*
X5366467Y-16192793D02*
X5385515Y-16183269D01*
X5480753Y-16135650D02*
X5480753Y-16335650D01*
X5480753Y-16145174D02*
X5499801Y-16135650D01*
X5499801Y-16135650D02*
X5537896Y-16135650D01*
X5537896Y-16135650D02*
X5556944Y-16145174D01*
X5556944Y-16145174D02*
X5566467Y-16154698D01*
X5566467Y-16154698D02*
X5575991Y-16173746D01*
X5575991Y-16173746D02*
X5575991Y-16230888D01*
X5575991Y-16230888D02*
X5566467Y-16249936D01*
X5566467Y-16249936D02*
X5556944Y-16259460D01*
X5556944Y-16259460D02*
X5537896Y-16268984D01*
X5537896Y-16268984D02*
X5499801Y-16268984D01*
X5499801Y-16268984D02*
X5480753Y-16259460D01*
X5661705Y-16249936D02*
X5671229Y-16259460D01*
X5671229Y-16259460D02*
X5661705Y-16268984D01*
X5661705Y-16268984D02*
X5652182Y-16259460D01*
X5652182Y-16259460D02*
X5661705Y-16249936D01*
X5661705Y-16249936D02*
X5661705Y-16268984D01*
X5661705Y-16145174D02*
X5671229Y-16154698D01*
X5671229Y-16154698D02*
X5661705Y-16164222D01*
X5661705Y-16164222D02*
X5652182Y-16154698D01*
X5652182Y-16154698D02*
X5661705Y-16145174D01*
X5661705Y-16145174D02*
X5661705Y-16164222D01*
M02*
