%TF.GenerationSoftware,KiCad,Pcbnew,8.0.5*%
%TF.CreationDate,2025-01-06T13:55:56+00:00*%
%TF.ProjectId,Oric,4f726963-2e6b-4696-9361-645f70636258,rev?*%
%TF.SameCoordinates,Original*%
%TF.FileFunction,Copper,L1,Top*%
%TF.FilePolarity,Positive*%
%FSLAX46Y46*%
G04 Gerber Fmt 4.6, Leading zero omitted, Abs format (unit mm)*
G04 Created by KiCad (PCBNEW 8.0.5) date 2025-01-06 13:55:56*
%MOMM*%
%LPD*%
G01*
G04 APERTURE LIST*
G04 Aperture macros list*
%AMRoundRect*
0 Rectangle with rounded corners*
0 $1 Rounding radius*
0 $2 $3 $4 $5 $6 $7 $8 $9 X,Y pos of 4 corners*
0 Add a 4 corners polygon primitive as box body*
4,1,4,$2,$3,$4,$5,$6,$7,$8,$9,$2,$3,0*
0 Add four circle primitives for the rounded corners*
1,1,$1+$1,$2,$3*
1,1,$1+$1,$4,$5*
1,1,$1+$1,$6,$7*
1,1,$1+$1,$8,$9*
0 Add four rect primitives between the rounded corners*
20,1,$1+$1,$2,$3,$4,$5,0*
20,1,$1+$1,$4,$5,$6,$7,0*
20,1,$1+$1,$6,$7,$8,$9,0*
20,1,$1+$1,$8,$9,$2,$3,0*%
G04 Aperture macros list end*
%TA.AperFunction,ComponentPad*%
%ADD10C,1.700000*%
%TD*%
%TA.AperFunction,ComponentPad*%
%ADD11O,1.700000X1.700000*%
%TD*%
%TA.AperFunction,ComponentPad*%
%ADD12R,1.600000X1.600000*%
%TD*%
%TA.AperFunction,ComponentPad*%
%ADD13C,1.600000*%
%TD*%
%TA.AperFunction,ComponentPad*%
%ADD14O,1.600000X1.600000*%
%TD*%
%TA.AperFunction,ComponentPad*%
%ADD15C,2.540000*%
%TD*%
%TA.AperFunction,ComponentPad*%
%ADD16C,1.800000*%
%TD*%
%TA.AperFunction,ComponentPad*%
%ADD17C,4.000000*%
%TD*%
%TA.AperFunction,ComponentPad*%
%ADD18C,1.905000*%
%TD*%
%TA.AperFunction,ComponentPad*%
%ADD19O,2.000000X1.905000*%
%TD*%
%TA.AperFunction,ComponentPad*%
%ADD20R,1.800000X1.800000*%
%TD*%
%TA.AperFunction,SMDPad,CuDef*%
%ADD21RoundRect,0.150000X0.150000X-0.875000X0.150000X0.875000X-0.150000X0.875000X-0.150000X-0.875000X0*%
%TD*%
%TA.AperFunction,ComponentPad*%
%ADD22C,1.300000*%
%TD*%
%TA.AperFunction,ComponentPad*%
%ADD23C,1.500000*%
%TD*%
%TA.AperFunction,ComponentPad*%
%ADD24C,1.440000*%
%TD*%
%TA.AperFunction,ComponentPad*%
%ADD25O,1.200000X2.200000*%
%TD*%
%TA.AperFunction,ComponentPad*%
%ADD26O,4.000000X2.000000*%
%TD*%
%TA.AperFunction,ComponentPad*%
%ADD27R,6.089998X3.740000*%
%TD*%
%TA.AperFunction,ComponentPad*%
%ADD28C,2.000000*%
%TD*%
%TA.AperFunction,ViaPad*%
%ADD29C,1.000000*%
%TD*%
%TA.AperFunction,Conductor*%
%ADD30C,0.300000*%
%TD*%
%TA.AperFunction,Conductor*%
%ADD31C,1.200000*%
%TD*%
%TA.AperFunction,Conductor*%
%ADD32C,0.600000*%
%TD*%
%TA.AperFunction,Conductor*%
%ADD33C,2.000000*%
%TD*%
G04 APERTURE END LIST*
D10*
%TO.P,PL3,1,COL0*%
%TO.N,/IO/IOA0*%
X139990000Y-52900000D03*
D11*
%TO.P,PL3,2,COL1*%
%TO.N,/IO/IOA1*%
X137450000Y-52900000D03*
%TO.P,PL3,3,COL2*%
%TO.N,/IO/IOA2*%
X134910000Y-52900000D03*
%TO.P,PL3,4,COL3*%
%TO.N,/IO/IOA3*%
X132370000Y-52900000D03*
%TO.P,PL3,5,COL7*%
%TO.N,/IO/IOA7*%
X129830000Y-52900000D03*
%TO.P,PL3,6,ROW2*%
%TO.N,ROW2*%
X127290000Y-52900000D03*
%TO.P,PL3,7,ROW1*%
%TO.N,ROW1*%
X124750000Y-52900000D03*
%TO.P,PL3,8,ROW0*%
%TO.N,ROW0*%
X122210000Y-52900000D03*
%TO.P,PL3,9,COL6*%
%TO.N,/IO/IOA6*%
X119670000Y-52900000D03*
%TO.P,PL3,10,GND*%
%TO.N,GND*%
X117130000Y-52900000D03*
%TO.P,PL3,11,COL5*%
%TO.N,/IO/IOA5*%
X114590000Y-52900000D03*
%TO.P,PL3,12,COL4*%
%TO.N,/IO/IOA4*%
X112050000Y-52900000D03*
%TO.P,PL3,13,IDK*%
%TO.N,Net-(PL3-IDK)*%
X109510000Y-52900000D03*
%TO.P,PL3,14,VCC*%
%TO.N,+5V*%
X106970000Y-52900000D03*
%TD*%
D12*
%TO.P,C21,1*%
%TO.N,~{RST}*%
X187030000Y-39500000D03*
D13*
%TO.P,C21,2*%
%TO.N,GND*%
X182030000Y-39500000D03*
%TD*%
%TO.P,RP3,1,R1.1*%
%TO.N,Net-(RP3A-R1.1)*%
X106970000Y-61870000D03*
D14*
%TO.P,RP3,2,R1.2*%
%TO.N,Net-(IC3A--)*%
X106970000Y-64410000D03*
%TO.P,RP3,3,R2.1*%
%TO.N,+5V*%
X106970000Y-66950000D03*
%TO.P,RP3,4,R2.2*%
%TO.N,Net-(IC3A-+)*%
X106970000Y-69490000D03*
%TO.P,RP3,5,R3.1*%
X106970000Y-72030000D03*
%TO.P,RP3,6,R3.2*%
%TO.N,GND*%
X106970000Y-74570000D03*
%TO.P,RP3,7,R4.1*%
%TO.N,Net-(RP3D-R4.1)*%
X106970000Y-77110000D03*
%TO.P,RP3,8,R4.2*%
%TO.N,Net-(RP3D-R4.2)*%
X106970000Y-79650000D03*
%TD*%
D13*
%TO.P,C31,1*%
%TO.N,Net-(C31-Pad1)*%
X76875000Y-41850000D03*
%TO.P,C31,2*%
%TO.N,Net-(IC23-GIN)*%
X81875000Y-41850000D03*
%TD*%
%TO.P,C101,1*%
%TO.N,+5V*%
X74050000Y-106975000D03*
%TO.P,C101,2*%
%TO.N,RDDATA*%
X79050000Y-106975000D03*
%TD*%
%TO.P,C100,1*%
%TO.N,GND*%
X184180000Y-120220000D03*
%TO.P,C100,2*%
%TO.N,Net-(IC5-~{NMI})*%
X184180000Y-115220000D03*
%TD*%
%TO.P,R11,1*%
%TO.N,+5V*%
X176610000Y-39970000D03*
D14*
%TO.P,R11,2*%
%TO.N,/IO/DA6*%
X166450000Y-39970000D03*
%TD*%
D13*
%TO.P,C28,1*%
%TO.N,GND*%
X101950000Y-81930000D03*
%TO.P,C28,2*%
%TO.N,+5V*%
X101950000Y-76930000D03*
%TD*%
%TO.P,C6,1*%
%TO.N,Net-(SK2-Tape_In)*%
X92990000Y-54080000D03*
%TO.P,C6,2*%
%TO.N,Net-(C6-Pad2)*%
X92990000Y-59080000D03*
%TD*%
%TO.P,C7,1*%
%TO.N,Net-(SK2-Tape_Out)*%
X128480000Y-44000000D03*
%TO.P,C7,2*%
%TO.N,GND*%
X123480000Y-44000000D03*
%TD*%
D12*
%TO.P,IC6,1,GND*%
%TO.N,GND*%
X192390000Y-145680000D03*
D14*
%TO.P,IC6,2,PA0*%
%TO.N,/IO/DA0*%
X194930000Y-145680000D03*
%TO.P,IC6,3,PA1*%
%TO.N,/IO/DA1*%
X197470000Y-145680000D03*
%TO.P,IC6,4,PA2*%
%TO.N,/IO/DA2*%
X200010000Y-145680000D03*
%TO.P,IC6,5,PA3*%
%TO.N,/IO/DA3*%
X202550000Y-145680000D03*
%TO.P,IC6,6,PA4*%
%TO.N,/IO/DA4*%
X205090000Y-145680000D03*
%TO.P,IC6,7,PA5*%
%TO.N,/IO/DA5*%
X207630000Y-145680000D03*
%TO.P,IC6,8,PA6*%
%TO.N,/IO/DA6*%
X210170000Y-145680000D03*
%TO.P,IC6,9,PA7*%
%TO.N,/IO/DA7*%
X212710000Y-145680000D03*
%TO.P,IC6,10,PB0*%
%TO.N,ROW0*%
X215250000Y-145680000D03*
%TO.P,IC6,11,PB1*%
%TO.N,ROW1*%
X217790000Y-145680000D03*
%TO.P,IC6,12,PB2*%
%TO.N,ROW2*%
X220330000Y-145680000D03*
%TO.P,IC6,13,PB3*%
%TO.N,KBCOM*%
X222870000Y-145680000D03*
%TO.P,IC6,14,PB4*%
%TO.N,Net-(IC6-PB4)*%
X225410000Y-145680000D03*
%TO.P,IC6,15,PB5*%
%TO.N,unconnected-(IC6-PB5-Pad15)*%
X227950000Y-145680000D03*
%TO.P,IC6,16,PB6*%
%TO.N,lMOTOR*%
X230490000Y-145680000D03*
%TO.P,IC6,17,PB7*%
%TO.N,WRDATA*%
X233030000Y-145680000D03*
%TO.P,IC6,18,CB1*%
%TO.N,RDDATA*%
X235570000Y-145680000D03*
%TO.P,IC6,19,CB2*%
%TO.N,BDIR*%
X238110000Y-145680000D03*
%TO.P,IC6,20,Vcc*%
%TO.N,+5V*%
X240650000Y-145680000D03*
%TO.P,IC6,21,~{IRQ}*%
%TO.N,~{IRQ}*%
X240650000Y-130440000D03*
%TO.P,IC6,22,R/~{W}*%
%TO.N,R{slash}~{W}*%
X238110000Y-130440000D03*
%TO.P,IC6,23,~{CS2}*%
%TO.N,~{I{slash}O}*%
X235570000Y-130440000D03*
%TO.P,IC6,24,CS1*%
%TO.N,IOCTRL*%
X233030000Y-130440000D03*
%TO.P,IC6,25,\u00D82*%
%TO.N,\u00D82*%
X230490000Y-130440000D03*
%TO.P,IC6,26,D7*%
%TO.N,/CPU and ULA/D7*%
X227950000Y-130440000D03*
%TO.P,IC6,27,D6*%
%TO.N,/CPU and ULA/D6*%
X225410000Y-130440000D03*
%TO.P,IC6,28,D5*%
%TO.N,/CPU and ULA/D5*%
X222870000Y-130440000D03*
%TO.P,IC6,29,D4*%
%TO.N,/CPU and ULA/D4*%
X220330000Y-130440000D03*
%TO.P,IC6,30,D3*%
%TO.N,/CPU and ULA/D3*%
X217790000Y-130440000D03*
%TO.P,IC6,31,D2*%
%TO.N,/CPU and ULA/D2*%
X215250000Y-130440000D03*
%TO.P,IC6,32,D1*%
%TO.N,/CPU and ULA/D1*%
X212710000Y-130440000D03*
%TO.P,IC6,33,D0*%
%TO.N,/CPU and ULA/D0*%
X210170000Y-130440000D03*
%TO.P,IC6,34,~{RES}*%
%TO.N,~{RST}*%
X207630000Y-130440000D03*
%TO.P,IC6,35,RS3*%
%TO.N,/CPU and ULA/A3*%
X205090000Y-130440000D03*
%TO.P,IC6,36,RS2*%
%TO.N,/CPU and ULA/A2*%
X202550000Y-130440000D03*
%TO.P,IC6,37,RS1*%
%TO.N,/CPU and ULA/A1*%
X200010000Y-130440000D03*
%TO.P,IC6,38,RS0*%
%TO.N,/CPU and ULA/A0*%
X197470000Y-130440000D03*
%TO.P,IC6,39,CA2*%
%TO.N,BC1*%
X194930000Y-130440000D03*
%TO.P,IC6,40,CA1*%
%TO.N,Net-(IC6-CA1)*%
X192390000Y-130440000D03*
%TD*%
D15*
%TO.P,SK2,1,Tape_Out*%
%TO.N,Net-(SK2-Tape_Out)*%
X117490000Y-34420000D03*
%TO.P,SK2,2,GND*%
%TO.N,GND*%
X117490000Y-24300000D03*
X120030000Y-24300000D03*
X122570000Y-34420000D03*
X125110000Y-24300000D03*
X127650000Y-24300000D03*
%TO.P,SK2,3,Tape_In*%
%TO.N,Net-(SK2-Tape_In)*%
X127650000Y-34420000D03*
%TO.P,SK2,4,Audio_1*%
%TO.N,TAUDIO*%
X120030000Y-36960000D03*
%TO.P,SK2,5,Audio_2*%
X125110000Y-36960000D03*
%TO.P,SK2,6,Relay_1*%
%TO.N,Net-(SK2-Relay_1)*%
X114950000Y-36960000D03*
%TO.P,SK2,7,Relay_2*%
%TO.N,Net-(SK2-Relay_2)*%
X130190000Y-36960000D03*
%TD*%
D12*
%TO.P,IC3,1*%
%TO.N,Net-(RP3A-R1.1)*%
X96930000Y-64280000D03*
D14*
%TO.P,IC3,2,-*%
%TO.N,Net-(IC3A--)*%
X96930000Y-66820000D03*
%TO.P,IC3,3,+*%
%TO.N,Net-(IC3A-+)*%
X96930000Y-69360000D03*
%TO.P,IC3,4,V-*%
%TO.N,GND*%
X96930000Y-71900000D03*
%TO.P,IC3,5,+*%
%TO.N,Net-(IC3B-+)*%
X104550000Y-71900000D03*
%TO.P,IC3,6,-*%
%TO.N,Net-(IC3A-+)*%
X104550000Y-69360000D03*
%TO.P,IC3,7*%
%TO.N,Net-(RP3D-R4.1)*%
X104550000Y-66820000D03*
%TO.P,IC3,8,V+*%
%TO.N,+5V*%
X104550000Y-64280000D03*
%TD*%
D16*
%TO.P,VC1,1*%
%TO.N,Net-(IC23-FIN)*%
X61750000Y-38950000D03*
%TO.P,VC1,2*%
%TO.N,GND*%
X61750000Y-44950000D03*
%TD*%
D12*
%TO.P,IC7,1,MUX*%
%TO.N,MUX*%
X133840000Y-107360000D03*
D14*
%TO.P,IC7,2,MA5*%
%TO.N,/CPU and ULA/MA5*%
X133840000Y-104820000D03*
%TO.P,IC7,3,MA4*%
%TO.N,/CPU and ULA/MA4*%
X133840000Y-102280000D03*
%TO.P,IC7,4,MA3*%
%TO.N,/CPU and ULA/MA3*%
X133840000Y-99740000D03*
%TO.P,IC7,5,D5*%
%TO.N,/CPU and ULA/D5*%
X133840000Y-97200000D03*
%TO.P,IC7,6,GND*%
%TO.N,GND*%
X133840000Y-94660000D03*
%TO.P,IC7,7,CLK_IN*%
%TO.N,Net-(IC7-CLK_IN)*%
X133840000Y-92120000D03*
%TO.P,IC7,8,D0*%
%TO.N,/CPU and ULA/D0*%
X133840000Y-89580000D03*
%TO.P,IC7,9,CAS*%
%TO.N,Net-(IC7-CAS)*%
X133840000Y-87040000D03*
%TO.P,IC7,10,RAS*%
%TO.N,Net-(IC7-RAS)*%
X133840000Y-84500000D03*
%TO.P,IC7,11,D2*%
%TO.N,/CPU and ULA/D2*%
X133840000Y-81960000D03*
%TO.P,IC7,12,D3*%
%TO.N,/CPU and ULA/D3*%
X133840000Y-79420000D03*
%TO.P,IC7,13,D4*%
%TO.N,/CPU and ULA/D4*%
X133840000Y-76880000D03*
%TO.P,IC7,14,CLK_OUT*%
%TO.N,Net-(IC5-\u00D80)*%
X133840000Y-74340000D03*
%TO.P,IC7,15,A11*%
%TO.N,/CPU and ULA/A11*%
X133840000Y-71800000D03*
%TO.P,IC7,16,SYNC*%
%TO.N,SYNC*%
X133840000Y-69260000D03*
%TO.P,IC7,17,D1*%
%TO.N,/CPU and ULA/D1*%
X133840000Y-66720000D03*
%TO.P,IC7,18,D7*%
%TO.N,/CPU and ULA/D7*%
X133840000Y-64180000D03*
%TO.P,IC7,19,RED*%
%TO.N,R*%
X133840000Y-61640000D03*
%TO.P,IC7,20,GREEN*%
%TO.N,G*%
X133840000Y-59100000D03*
%TO.P,IC7,21,BLUE*%
%TO.N,B*%
X118600000Y-59100000D03*
%TO.P,IC7,22,A13*%
%TO.N,/CPU and ULA/A13*%
X118600000Y-61640000D03*
%TO.P,IC7,23,ROMSEL*%
%TO.N,ROMSEL*%
X118600000Y-64180000D03*
%TO.P,IC7,24,VCC*%
%TO.N,+5V*%
X118600000Y-66720000D03*
%TO.P,IC7,25,I/O*%
%TO.N,~{I{slash}O}*%
X118600000Y-69260000D03*
%TO.P,IC7,26,~{MAP}*%
%TO.N,~{MAP}*%
X118600000Y-71800000D03*
%TO.P,IC7,27,R/~{W}*%
%TO.N,R{slash}~{W}*%
X118600000Y-74340000D03*
%TO.P,IC7,28,W*%
%TO.N,Net-(IC7-W)*%
X118600000Y-76880000D03*
%TO.P,IC7,29,A14*%
%TO.N,/CPU and ULA/A14*%
X118600000Y-79420000D03*
%TO.P,IC7,30,A15*%
%TO.N,/CPU and ULA/A15*%
X118600000Y-81960000D03*
%TO.P,IC7,31,A10*%
%TO.N,/CPU and ULA/A10*%
X118600000Y-84500000D03*
%TO.P,IC7,32,A8*%
%TO.N,/CPU and ULA/A8*%
X118600000Y-87040000D03*
%TO.P,IC7,33,A9*%
%TO.N,/CPU and ULA/A9*%
X118600000Y-89580000D03*
%TO.P,IC7,34,D6*%
%TO.N,/CPU and ULA/D6*%
X118600000Y-92120000D03*
%TO.P,IC7,35,A12*%
%TO.N,/CPU and ULA/A12*%
X118600000Y-94660000D03*
%TO.P,IC7,36,MA1*%
%TO.N,/CPU and ULA/MA1*%
X118600000Y-97200000D03*
%TO.P,IC7,37,MA2*%
%TO.N,/CPU and ULA/MA2*%
X118600000Y-99740000D03*
%TO.P,IC7,38,MA0*%
%TO.N,/CPU and ULA/MA0*%
X118600000Y-102280000D03*
%TO.P,IC7,39,MA7*%
%TO.N,/CPU and ULA/MA7*%
X118600000Y-104820000D03*
%TO.P,IC7,40,MA6*%
%TO.N,/CPU and ULA/MA6*%
X118600000Y-107360000D03*
%TD*%
D13*
%TO.P,C13,1*%
%TO.N,+5V*%
X232550000Y-37870000D03*
%TO.P,C13,2*%
%TO.N,GND*%
X237550000Y-37870000D03*
%TD*%
D12*
%TO.P,D1,1,K*%
%TO.N,+5V*%
X145150000Y-43940000D03*
D14*
%TO.P,D1,2,A*%
%TO.N,Net-(D1-A)*%
X152770000Y-43940000D03*
%TD*%
D17*
%TO.P,SK3,1*%
%TO.N,+9V*%
X234320000Y-35000000D03*
%TO.P,SK3,2*%
%TO.N,GND*%
X234320000Y-28680000D03*
%TO.P,SK3,3*%
X229170000Y-32150000D03*
%TD*%
D18*
%TO.P,TR7,1,B*%
%TO.N,Net-(TR6-E)*%
X53080000Y-86060000D03*
D19*
%TO.P,TR7,2,C*%
%TO.N,+9V*%
X53080000Y-88600000D03*
%TO.P,TR7,3,E*%
%TO.N,C2NMOTOR*%
X53080000Y-91140000D03*
%TD*%
D12*
%TO.P,IC31,1,~{OE}*%
%TO.N,GND*%
X64010000Y-138300000D03*
D14*
%TO.P,IC31,2,IO1*%
%TO.N,/CPU and ULA/D4*%
X66550000Y-138300000D03*
%TO.P,IC31,3,IO2*%
%TO.N,/CPU and ULA/D5*%
X69090000Y-138300000D03*
%TO.P,IC31,4,~{WE}*%
%TO.N,~{RAMW}*%
X71630000Y-138300000D03*
%TO.P,IC31,5,~{RAS}*%
%TO.N,~{RAS}*%
X74170000Y-138300000D03*
%TO.P,IC31,6,A6*%
%TO.N,/RAM/RA6*%
X76710000Y-138300000D03*
%TO.P,IC31,7,A5*%
%TO.N,/RAM/RA5*%
X79250000Y-138300000D03*
%TO.P,IC31,8,A4*%
%TO.N,/RAM/RA4*%
X81790000Y-138300000D03*
%TO.P,IC31,9,VCC*%
%TO.N,+5V*%
X84330000Y-138300000D03*
%TO.P,IC31,10,A7*%
%TO.N,/RAM/RA7*%
X84330000Y-130680000D03*
%TO.P,IC31,11,A3*%
%TO.N,/RAM/RA3*%
X81790000Y-130680000D03*
%TO.P,IC31,12,A2*%
%TO.N,/RAM/RA2*%
X79250000Y-130680000D03*
%TO.P,IC31,13,A1*%
%TO.N,/RAM/RA1*%
X76710000Y-130680000D03*
%TO.P,IC31,14,A0*%
%TO.N,/RAM/RA0*%
X74170000Y-130680000D03*
%TO.P,IC31,15,IO3*%
%TO.N,/CPU and ULA/D6*%
X71630000Y-130680000D03*
%TO.P,IC31,16,~{CAS}*%
%TO.N,~{CAS}*%
X69090000Y-130680000D03*
%TO.P,IC31,17,IO4*%
%TO.N,/CPU and ULA/D7*%
X66550000Y-130680000D03*
%TO.P,IC31,18,VSS*%
%TO.N,GND*%
X64010000Y-130680000D03*
%TD*%
D13*
%TO.P,R37,1*%
%TO.N,Net-(C30-Pad1)*%
X69025000Y-50275000D03*
D14*
%TO.P,R37,2*%
%TO.N,BR*%
X69025000Y-60435000D03*
%TD*%
D20*
%TO.P,D31,1,K*%
%TO.N,GND*%
X45075000Y-92060000D03*
D16*
%TO.P,D31,2,A*%
%TO.N,Net-(D31-A)*%
X45075000Y-94600000D03*
%TD*%
D13*
%TO.P,C5,1*%
%TO.N,Net-(C4-Pad2)*%
X94300000Y-74440000D03*
%TO.P,C5,2*%
%TO.N,GND*%
X89300000Y-74440000D03*
%TD*%
%TO.P,R4,1*%
%TO.N,SOUND*%
X82125000Y-62595000D03*
D14*
%TO.P,R4,2*%
%TO.N,GND*%
X82125000Y-72755000D03*
%TD*%
D13*
%TO.P,R45,1*%
%TO.N,CH_A*%
X79500000Y-50275000D03*
D14*
%TO.P,R45,2*%
%TO.N,SOUND*%
X79500000Y-60435000D03*
%TD*%
D13*
%TO.P,C34,1*%
%TO.N,+5V*%
X197430000Y-108770000D03*
%TO.P,C34,2*%
%TO.N,GND*%
X202430000Y-108770000D03*
%TD*%
%TO.P,R32,1*%
%TO.N,COMP*%
X61440000Y-25240000D03*
D14*
%TO.P,R32,2*%
%TO.N,Net-(C24-Pad2)*%
X61440000Y-35400000D03*
%TD*%
D21*
%TO.P,IC23,1,STND*%
%TO.N,GND*%
X76805000Y-36150000D03*
%TO.P,IC23,2,AGND*%
X78075000Y-36150000D03*
%TO.P,IC23,3,FIN*%
%TO.N,Net-(IC23-FIN)*%
X79345000Y-36150000D03*
%TO.P,IC23,4,APOS*%
%TO.N,+5V*%
X80615000Y-36150000D03*
%TO.P,IC23,5,ENCD*%
X81885000Y-36150000D03*
%TO.P,IC23,6,RIN*%
%TO.N,Net-(IC23-RIN)*%
X83155000Y-36150000D03*
%TO.P,IC23,7,GIN*%
%TO.N,Net-(IC23-GIN)*%
X84425000Y-36150000D03*
%TO.P,IC23,8,BIN*%
%TO.N,Net-(IC23-BIN)*%
X85695000Y-36150000D03*
%TO.P,IC23,9,CRMA*%
%TO.N,unconnected-(IC23-CRMA-Pad9)*%
X85695000Y-26850000D03*
%TO.P,IC23,10,COMP*%
%TO.N,Net-(IC23-COMP)*%
X84425000Y-26850000D03*
%TO.P,IC23,11,LUMA*%
%TO.N,unconnected-(IC23-LUMA-Pad11)*%
X83155000Y-26850000D03*
%TO.P,IC23,12,SELECT*%
%TO.N,GND*%
X81885000Y-26850000D03*
%TO.P,IC23,13,DGND*%
X80615000Y-26850000D03*
%TO.P,IC23,14,DPOS*%
%TO.N,+5V*%
X79345000Y-26850000D03*
%TO.P,IC23,15,VSYNC*%
X78075000Y-26850000D03*
%TO.P,IC23,16,HSYNC*%
%TO.N,SYNC*%
X76805000Y-26850000D03*
%TD*%
D13*
%TO.P,C12,1*%
%TO.N,+5V*%
X46240000Y-112510000D03*
%TO.P,C12,2*%
%TO.N,GND*%
X46240000Y-117510000D03*
%TD*%
%TO.P,R50,1*%
%TO.N,C2NREAD*%
X82460000Y-76120000D03*
D14*
%TO.P,R50,2*%
%TO.N,RDDATA*%
X82460000Y-86280000D03*
%TD*%
D12*
%TO.P,IC5,1,GND*%
%TO.N,GND*%
X192390000Y-126450000D03*
D14*
%TO.P,IC5,2,RDY*%
%TO.N,+5V*%
X194930000Y-126450000D03*
%TO.P,IC5,3,\u00D81*%
%TO.N,\u00D81*%
X197470000Y-126450000D03*
%TO.P,IC5,4,~{IRQ}*%
%TO.N,~{IRQ}*%
X200010000Y-126450000D03*
%TO.P,IC5,5,N/C*%
%TO.N,unconnected-(IC5-N{slash}C-Pad5)*%
X202550000Y-126450000D03*
%TO.P,IC5,6,~{NMI}*%
%TO.N,Net-(IC5-~{NMI})*%
X205090000Y-126450000D03*
%TO.P,IC5,7,Sync*%
%TO.N,unconnected-(IC5-Sync-Pad7)*%
X207630000Y-126450000D03*
%TO.P,IC5,8,VCC*%
%TO.N,+5V*%
X210170000Y-126450000D03*
%TO.P,IC5,9,A0*%
%TO.N,/CPU and ULA/A0*%
X212710000Y-126450000D03*
%TO.P,IC5,10,A1*%
%TO.N,/CPU and ULA/A1*%
X215250000Y-126450000D03*
%TO.P,IC5,11,A2*%
%TO.N,/CPU and ULA/A2*%
X217790000Y-126450000D03*
%TO.P,IC5,12,A3*%
%TO.N,/CPU and ULA/A3*%
X220330000Y-126450000D03*
%TO.P,IC5,13,A4*%
%TO.N,/CPU and ULA/A4*%
X222870000Y-126450000D03*
%TO.P,IC5,14,A5*%
%TO.N,/CPU and ULA/A5*%
X225410000Y-126450000D03*
%TO.P,IC5,15,A6*%
%TO.N,/CPU and ULA/A6*%
X227950000Y-126450000D03*
%TO.P,IC5,16,A7*%
%TO.N,/CPU and ULA/A7*%
X230490000Y-126450000D03*
%TO.P,IC5,17,A8*%
%TO.N,/CPU and ULA/A8*%
X233030000Y-126450000D03*
%TO.P,IC5,18,A9*%
%TO.N,/CPU and ULA/A9*%
X235570000Y-126450000D03*
%TO.P,IC5,19,A10*%
%TO.N,/CPU and ULA/A10*%
X238110000Y-126450000D03*
%TO.P,IC5,20,A11*%
%TO.N,/CPU and ULA/A11*%
X240650000Y-126450000D03*
%TO.P,IC5,21,GND*%
%TO.N,GND*%
X240650000Y-111210000D03*
%TO.P,IC5,22,A12*%
%TO.N,/CPU and ULA/A12*%
X238110000Y-111210000D03*
%TO.P,IC5,23,A13*%
%TO.N,/CPU and ULA/A13*%
X235570000Y-111210000D03*
%TO.P,IC5,24,A14*%
%TO.N,/CPU and ULA/A14*%
X233030000Y-111210000D03*
%TO.P,IC5,25,A15*%
%TO.N,/CPU and ULA/A15*%
X230490000Y-111210000D03*
%TO.P,IC5,26,D7*%
%TO.N,/CPU and ULA/D7*%
X227950000Y-111210000D03*
%TO.P,IC5,27,D6*%
%TO.N,/CPU and ULA/D6*%
X225410000Y-111210000D03*
%TO.P,IC5,28,D5*%
%TO.N,/CPU and ULA/D5*%
X222870000Y-111210000D03*
%TO.P,IC5,29,D4*%
%TO.N,/CPU and ULA/D4*%
X220330000Y-111210000D03*
%TO.P,IC5,30,D3*%
%TO.N,/CPU and ULA/D3*%
X217790000Y-111210000D03*
%TO.P,IC5,31,D2*%
%TO.N,/CPU and ULA/D2*%
X215250000Y-111210000D03*
%TO.P,IC5,32,D1*%
%TO.N,/CPU and ULA/D1*%
X212710000Y-111210000D03*
%TO.P,IC5,33,D0*%
%TO.N,/CPU and ULA/D0*%
X210170000Y-111210000D03*
%TO.P,IC5,34,R/~{W}*%
%TO.N,R{slash}~{W}*%
X207630000Y-111210000D03*
%TO.P,IC5,35,N/C*%
%TO.N,unconnected-(IC5-N{slash}C-Pad35)*%
X205090000Y-111210000D03*
%TO.P,IC5,36,N/C*%
%TO.N,unconnected-(IC5-N{slash}C-Pad36)*%
X202550000Y-111210000D03*
%TO.P,IC5,37,\u00D80*%
%TO.N,Net-(IC5-\u00D80)*%
X200010000Y-111210000D03*
%TO.P,IC5,38,~{SO}*%
%TO.N,+5V*%
X197470000Y-111210000D03*
%TO.P,IC5,39,\u00D82*%
%TO.N,\u00D82*%
X194930000Y-111210000D03*
%TO.P,IC5,40,~{RES}*%
%TO.N,~{RST}*%
X192390000Y-111210000D03*
%TD*%
D13*
%TO.P,R9,1*%
%TO.N,Net-(IC21-Pad13)*%
X60200000Y-107420000D03*
D14*
%TO.P,R9,2*%
%TO.N,Net-(C26-Pad1)*%
X60200000Y-117580000D03*
%TD*%
D13*
%TO.P,R38,1*%
%TO.N,Net-(C31-Pad1)*%
X71625000Y-50275000D03*
D14*
%TO.P,R38,2*%
%TO.N,BG*%
X71625000Y-60435000D03*
%TD*%
D22*
%TO.P,TR5,1,C*%
%TO.N,Net-(D30-K)*%
X66100000Y-71220000D03*
%TO.P,TR5,2,B*%
%TO.N,Net-(TR4-C)*%
X67600000Y-69730000D03*
%TO.P,TR5,3,E*%
%TO.N,GND*%
X69100000Y-71200000D03*
%TD*%
D10*
%TO.P,LK5,1,Pin_1*%
%TO.N,TAUDIO*%
X106195000Y-89850000D03*
D11*
%TO.P,LK5,2,Pin_2*%
%TO.N,Net-(IC2-+)*%
X108735000Y-89850000D03*
%TO.P,LK5,3,Pin_3*%
X111275000Y-89850000D03*
%TD*%
D12*
%TO.P,SW2,1*%
%TO.N,/ROM/R14*%
X215785000Y-72050000D03*
D14*
%TO.P,SW2,2*%
%TO.N,/ROM/R15*%
X218325000Y-72050000D03*
%TO.P,SW2,3*%
%TO.N,GND*%
X218325000Y-64430000D03*
%TO.P,SW2,4*%
X215785000Y-64430000D03*
%TD*%
D12*
%TO.P,C4,1*%
%TO.N,TAUDIO*%
X93120000Y-80740000D03*
D13*
%TO.P,C4,2*%
%TO.N,Net-(C4-Pad2)*%
X98120000Y-80740000D03*
%TD*%
%TO.P,C19,1*%
%TO.N,/IO/DA6*%
X166680000Y-44380000D03*
%TO.P,C19,2*%
%TO.N,GND*%
X171680000Y-44380000D03*
%TD*%
D12*
%TO.P,C1,1*%
%TO.N,Net-(C1-Pad1)*%
X110960000Y-100870000D03*
D13*
%TO.P,C1,2*%
%TO.N,Net-(C1-Pad2)*%
X110960000Y-95870000D03*
%TD*%
%TO.P,R7,1*%
%TO.N,Net-(RP3A-R1.1)*%
X112120000Y-64270000D03*
D14*
%TO.P,R7,2*%
%TO.N,Net-(IC3B-+)*%
X112120000Y-74430000D03*
%TD*%
D13*
%TO.P,R12,1*%
%TO.N,Net-(SK2-Tape_Out)*%
X113440000Y-145650000D03*
D14*
%TO.P,R12,2*%
%TO.N,WRDATA*%
X123600000Y-145650000D03*
%TD*%
D12*
%TO.P,C8,1*%
%TO.N,+9V*%
X240325000Y-46450000D03*
D13*
%TO.P,C8,2*%
%TO.N,GND*%
X240325000Y-41450000D03*
%TD*%
%TO.P,R55,1*%
%TO.N,Net-(D31-A)*%
X48050000Y-50275000D03*
D14*
%TO.P,R55,2*%
%TO.N,Net-(D30-K)*%
X48050000Y-60435000D03*
%TD*%
D23*
%TO.P,XT1,1,1*%
%TO.N,Net-(IC21-Pad13)*%
X57660000Y-107320000D03*
%TO.P,XT1,2,2*%
%TO.N,Net-(IC21-Pad2)*%
X57660000Y-102420000D03*
%TD*%
D24*
%TO.P,RV2,1,1*%
%TO.N,Net-(IC2-+)*%
X111275000Y-86975000D03*
%TO.P,RV2,2,2*%
X108735000Y-84435000D03*
%TO.P,RV2,3,3*%
%TO.N,TAUDIO*%
X106195000Y-86975000D03*
%TD*%
D12*
%TO.P,RP1,1,R1*%
%TO.N,+5V*%
X174370000Y-33960000D03*
D14*
%TO.P,RP1,2,R1.2*%
%TO.N,/ROM/R14*%
X176910000Y-33960000D03*
%TO.P,RP1,3,R2.2*%
%TO.N,/ROM/R15*%
X179450000Y-33960000D03*
%TO.P,RP1,4,R3.2*%
%TO.N,~{MAP}*%
X181990000Y-33960000D03*
%TO.P,RP1,5,R4.2*%
%TO.N,~{ROMDIS}*%
X184530000Y-33960000D03*
%TO.P,RP1,6,R5.2*%
%TO.N,~{RST}*%
X187070000Y-33960000D03*
%TO.P,RP1,7,R6.2*%
%TO.N,IOCTRL*%
X189610000Y-33960000D03*
%TO.P,RP1,8,R7.2*%
%TO.N,~{IRQ}*%
X192150000Y-33960000D03*
%TD*%
D12*
%TO.P,C3,1*%
%TO.N,+5V*%
X101080000Y-102100000D03*
D13*
%TO.P,C3,2*%
%TO.N,GND*%
X96080000Y-102100000D03*
%TD*%
%TO.P,R6,1*%
%TO.N,+5V*%
X179600000Y-123940000D03*
D14*
%TO.P,R6,2*%
%TO.N,Net-(IC5-~{NMI})*%
X179600000Y-113780000D03*
%TD*%
D13*
%TO.P,C16,1*%
%TO.N,+5V*%
X96300000Y-141075000D03*
%TO.P,C16,2*%
%TO.N,GND*%
X101300000Y-141075000D03*
%TD*%
D25*
%TO.P,SK4,1,Pin_1*%
%TO.N,GND*%
X53025000Y-32925000D03*
%TO.P,SK4,2,Pin_2*%
%TO.N,SOUNDL*%
X57625000Y-31725000D03*
%TO.P,SK4,3,Pin_3*%
%TO.N,SOUNDR*%
X57625000Y-27725000D03*
%TO.P,SK4,4,Pin_4*%
%TO.N,COMP*%
X57625000Y-24725000D03*
%TD*%
D13*
%TO.P,C23,1*%
%TO.N,+5V*%
X172000000Y-125275000D03*
%TO.P,C23,2*%
%TO.N,GND*%
X172000000Y-120275000D03*
%TD*%
%TO.P,R13,1*%
%TO.N,Net-(SK2-Tape_Out)*%
X128540000Y-41380000D03*
D14*
%TO.P,R13,2*%
%TO.N,GND*%
X118380000Y-41380000D03*
%TD*%
D20*
%TO.P,D32,1,K*%
%TO.N,GND*%
X45075000Y-83810000D03*
D16*
%TO.P,D32,2,A*%
%TO.N,Net-(D32-A)*%
X45075000Y-86350000D03*
%TD*%
D11*
%TO.P,SK5,1,Pin_1*%
%TO.N,GND*%
X49990000Y-72860000D03*
%TO.P,SK5,2,Pin_2*%
%TO.N,+5V*%
X49990000Y-70220000D03*
%TO.P,SK5,3,Pin_3*%
%TO.N,C2NMOTOR*%
X50020000Y-74980000D03*
%TO.P,SK5,4,Pin_4*%
%TO.N,C2NREAD*%
X49990000Y-68180000D03*
%TO.P,SK5,5,Pin_5*%
%TO.N,C2NWRITE*%
X52710000Y-74980000D03*
%TO.P,SK5,6,Pin_6*%
%TO.N,unconnected-(SK5-Pin_6-Pad6)*%
X52710000Y-70630000D03*
%TO.P,SK5,7,Pin_7*%
%TO.N,GND*%
X52710000Y-68170000D03*
D26*
%TO.P,SK5,S,SHIELD*%
X46910000Y-78250000D03*
D17*
X46110000Y-71550000D03*
D26*
X46910000Y-64850000D03*
%TD*%
D22*
%TO.P,TR2,1,C*%
%TO.N,KBCOM*%
X138880000Y-43970000D03*
%TO.P,TR2,2,B*%
%TO.N,Net-(TR2-B)*%
X137380000Y-45460000D03*
%TO.P,TR2,3,E*%
%TO.N,GND*%
X135880000Y-43990000D03*
%TD*%
%TO.P,TR1,1,C*%
%TO.N,RDDATA*%
X113730000Y-78170000D03*
%TO.P,TR1,2,B*%
%TO.N,Net-(RP3D-R4.2)*%
X112230000Y-79660000D03*
%TO.P,TR1,3,E*%
%TO.N,GND*%
X110730000Y-78190000D03*
%TD*%
D13*
%TO.P,R30,1*%
%TO.N,Net-(IC21-Pad2)*%
X115900000Y-83370000D03*
D14*
%TO.P,R30,2*%
%TO.N,Net-(IC7-CLK_IN)*%
X115900000Y-93530000D03*
%TD*%
D18*
%TO.P,IC1,1,VI*%
%TO.N,+9V*%
X232770000Y-49000000D03*
D19*
%TO.P,IC1,2,GND*%
%TO.N,GND*%
X232770000Y-46460000D03*
%TO.P,IC1,3,VO*%
%TO.N,+5V*%
X232770000Y-43920000D03*
%TD*%
D10*
%TO.P,LK4,1,Pin_1*%
%TO.N,SOUND*%
X71560000Y-65295000D03*
D11*
%TO.P,LK4,2,Pin_2*%
%TO.N,GND*%
X69020000Y-65295000D03*
%TD*%
D12*
%TO.P,C36,1*%
%TO.N,+5V*%
X84890000Y-49640000D03*
D13*
%TO.P,C36,2*%
%TO.N,GND*%
X89890000Y-49640000D03*
%TD*%
%TO.P,C17,1*%
%TO.N,+5V*%
X121625000Y-141075000D03*
%TO.P,C17,2*%
%TO.N,GND*%
X126625000Y-141075000D03*
%TD*%
%TO.P,R26,1*%
%TO.N,R*%
X110910000Y-56700000D03*
D14*
%TO.P,R26,2*%
%TO.N,GND*%
X100750000Y-56700000D03*
%TD*%
D10*
%TO.P,LK6,1,Pin_1*%
%TO.N,GND*%
X45640000Y-124060000D03*
D11*
%TO.P,LK6,2,Pin_2*%
%TO.N,~{RST}*%
X45640000Y-126600000D03*
%TD*%
D13*
%TO.P,R46,1*%
%TO.N,SOUNDL*%
X53300000Y-50275000D03*
D14*
%TO.P,R46,2*%
%TO.N,CH_A*%
X53300000Y-60435000D03*
%TD*%
D22*
%TO.P,TR4,1,C*%
%TO.N,Net-(TR4-C)*%
X71925000Y-71215000D03*
%TO.P,TR4,2,B*%
%TO.N,lMOTOR*%
X73425000Y-69725000D03*
%TO.P,TR4,3,E*%
%TO.N,GND*%
X74925000Y-71195000D03*
%TD*%
D12*
%TO.P,RL1,1*%
%TO.N,unconnected-(RL1-Pad1)*%
X142560000Y-41690000D03*
D14*
%TO.P,RL1,2*%
%TO.N,+5V*%
X145100000Y-41690000D03*
%TO.P,RL1,6*%
%TO.N,Net-(D1-A)*%
X155260000Y-41690000D03*
%TO.P,RL1,7*%
%TO.N,unconnected-(RL1-Pad7)*%
X157800000Y-41690000D03*
%TO.P,RL1,8*%
%TO.N,Net-(SK2-Relay_2)*%
X157800000Y-34070000D03*
%TO.P,RL1,9*%
%TO.N,unconnected-(RL1-Pad9)*%
X155260000Y-34070000D03*
%TO.P,RL1,13*%
%TO.N,unconnected-(RL1-Pad13)*%
X145100000Y-34070000D03*
%TO.P,RL1,14*%
%TO.N,Net-(SK2-Relay_1)*%
X142560000Y-34070000D03*
%TD*%
D12*
%TO.P,IC21,1*%
%TO.N,Net-(C26-Pad2)*%
X66590000Y-120100000D03*
D14*
%TO.P,IC21,2*%
%TO.N,Net-(IC21-Pad2)*%
X69130000Y-120100000D03*
%TO.P,IC21,3*%
%TO.N,Net-(IC7-W)*%
X71670000Y-120100000D03*
%TO.P,IC21,4*%
%TO.N,~{RAMW}*%
X74210000Y-120100000D03*
%TO.P,IC21,5*%
%TO.N,unconnected-(IC21-Pad5)*%
X76750000Y-120100000D03*
%TO.P,IC21,6*%
%TO.N,unconnected-(IC21-Pad6)*%
X79290000Y-120100000D03*
%TO.P,IC21,7,GND*%
%TO.N,GND*%
X81830000Y-120100000D03*
%TO.P,IC21,8*%
%TO.N,~{CAS}*%
X81830000Y-112480000D03*
%TO.P,IC21,9*%
%TO.N,Net-(IC7-CAS)*%
X79290000Y-112480000D03*
%TO.P,IC21,10*%
%TO.N,~{RAS}*%
X76750000Y-112480000D03*
%TO.P,IC21,11*%
%TO.N,Net-(IC7-RAS)*%
X74210000Y-112480000D03*
%TO.P,IC21,12*%
%TO.N,Net-(C26-Pad1)*%
X71670000Y-112480000D03*
%TO.P,IC21,13*%
%TO.N,Net-(IC21-Pad13)*%
X69130000Y-112480000D03*
%TO.P,IC21,14,VCC*%
%TO.N,+5V*%
X66590000Y-112480000D03*
%TD*%
D13*
%TO.P,R101,1*%
%TO.N,+5V*%
X74075000Y-103150000D03*
D14*
%TO.P,R101,2*%
%TO.N,RDDATA*%
X84235000Y-103150000D03*
%TD*%
D13*
%TO.P,R43,1*%
%TO.N,CH_C*%
X82125000Y-50275000D03*
D14*
%TO.P,R43,2*%
%TO.N,SOUND*%
X82125000Y-60435000D03*
%TD*%
D13*
%TO.P,R8,1*%
%TO.N,Net-(IC3B-+)*%
X114660000Y-75620000D03*
D14*
%TO.P,R8,2*%
%TO.N,Net-(RP3D-R4.1)*%
X114660000Y-65460000D03*
%TD*%
D12*
%TO.P,IC30,1,~{OE}*%
%TO.N,GND*%
X101300000Y-138300000D03*
D14*
%TO.P,IC30,2,IO1*%
%TO.N,/CPU and ULA/D0*%
X103840000Y-138300000D03*
%TO.P,IC30,3,IO2*%
%TO.N,/CPU and ULA/D1*%
X106380000Y-138300000D03*
%TO.P,IC30,4,~{WE}*%
%TO.N,~{RAMW}*%
X108920000Y-138300000D03*
%TO.P,IC30,5,~{RAS}*%
%TO.N,~{RAS}*%
X111460000Y-138300000D03*
%TO.P,IC30,6,A6*%
%TO.N,/RAM/RA6*%
X114000000Y-138300000D03*
%TO.P,IC30,7,A5*%
%TO.N,/RAM/RA5*%
X116540000Y-138300000D03*
%TO.P,IC30,8,A4*%
%TO.N,/RAM/RA4*%
X119080000Y-138300000D03*
%TO.P,IC30,9,VCC*%
%TO.N,+5V*%
X121620000Y-138300000D03*
%TO.P,IC30,10,A7*%
%TO.N,/RAM/RA7*%
X121620000Y-130680000D03*
%TO.P,IC30,11,A3*%
%TO.N,/RAM/RA3*%
X119080000Y-130680000D03*
%TO.P,IC30,12,A2*%
%TO.N,/RAM/RA2*%
X116540000Y-130680000D03*
%TO.P,IC30,13,A1*%
%TO.N,/RAM/RA1*%
X114000000Y-130680000D03*
%TO.P,IC30,14,A0*%
%TO.N,/RAM/RA0*%
X111460000Y-130680000D03*
%TO.P,IC30,15,IO3*%
%TO.N,/CPU and ULA/D2*%
X108920000Y-130680000D03*
%TO.P,IC30,16,~{CAS}*%
%TO.N,~{CAS}*%
X106380000Y-130680000D03*
%TO.P,IC30,17,IO4*%
%TO.N,/CPU and ULA/D3*%
X103840000Y-130680000D03*
%TO.P,IC30,18,VSS*%
%TO.N,GND*%
X101300000Y-130680000D03*
%TD*%
D13*
%TO.P,R25,1*%
%TO.N,Net-(PL3-IDK)*%
X133540000Y-46470000D03*
D14*
%TO.P,R25,2*%
%TO.N,Net-(TR2-B)*%
X133540000Y-36310000D03*
%TD*%
D12*
%TO.P,C24,1*%
%TO.N,Net-(IC23-COMP)*%
X70430000Y-27600000D03*
D13*
%TO.P,C24,2*%
%TO.N,Net-(C24-Pad2)*%
X65430000Y-27600000D03*
%TD*%
%TO.P,R39,1*%
%TO.N,Net-(C32-Pad1)*%
X74250000Y-50275000D03*
D14*
%TO.P,R39,2*%
%TO.N,BB*%
X74250000Y-60435000D03*
%TD*%
D10*
%TO.P,PL2,1,~{MAP}*%
%TO.N,~{MAP}*%
X183160000Y-31370000D03*
D11*
%TO.P,PL2,2,~{ROMDIS}*%
%TO.N,~{ROMDIS}*%
X183160000Y-28830000D03*
%TO.P,PL2,3,\u00D82*%
%TO.N,\u00D82*%
X185700000Y-31370000D03*
%TO.P,PL2,4,~{RESET}*%
%TO.N,~{RST}*%
X185700000Y-28830000D03*
%TO.P,PL2,5,~{I/O}*%
%TO.N,~{I{slash}O}*%
X188240000Y-31370000D03*
%TO.P,PL2,6,I/O_CONTROL*%
%TO.N,IOCTRL*%
X188240000Y-28830000D03*
%TO.P,PL2,7,R/~{W}*%
%TO.N,R{slash}~{W}*%
X190780000Y-31370000D03*
%TO.P,PL2,8,~{IRQ}*%
%TO.N,~{IRQ}*%
X190780000Y-28830000D03*
%TO.P,PL2,9,D2*%
%TO.N,/CPU and ULA/D2*%
X193320000Y-31370000D03*
%TO.P,PL2,10,D0*%
%TO.N,/CPU and ULA/D0*%
X193320000Y-28830000D03*
%TO.P,PL2,11,A3*%
%TO.N,/CPU and ULA/A3*%
X195860000Y-31370000D03*
%TO.P,PL2,12,D1*%
%TO.N,/CPU and ULA/D1*%
X195860000Y-28830000D03*
%TO.P,PL2,13,A0*%
%TO.N,/CPU and ULA/A0*%
X198400000Y-31370000D03*
%TO.P,PL2,14,D6*%
%TO.N,/CPU and ULA/D6*%
X198400000Y-28830000D03*
%TO.P,PL2,15,A1*%
%TO.N,/CPU and ULA/A1*%
X200940000Y-31370000D03*
%TO.P,PL2,16,D3*%
%TO.N,/CPU and ULA/D3*%
X200940000Y-28830000D03*
%TO.P,PL2,17,A2*%
%TO.N,/CPU and ULA/A2*%
X203480000Y-31370000D03*
%TO.P,PL2,18,D4*%
%TO.N,/CPU and ULA/D4*%
X203480000Y-28830000D03*
%TO.P,PL2,19,D5*%
%TO.N,/CPU and ULA/D5*%
X206020000Y-31370000D03*
%TO.P,PL2,20,A4*%
%TO.N,/CPU and ULA/A4*%
X206020000Y-28830000D03*
%TO.P,PL2,21,A5*%
%TO.N,/CPU and ULA/A5*%
X208560000Y-31370000D03*
%TO.P,PL2,22,D7*%
%TO.N,/CPU and ULA/D7*%
X208560000Y-28830000D03*
%TO.P,PL2,23,A6*%
%TO.N,/CPU and ULA/A6*%
X211100000Y-31370000D03*
%TO.P,PL2,24,A15*%
%TO.N,/CPU and ULA/A15*%
X211100000Y-28830000D03*
%TO.P,PL2,25,A7*%
%TO.N,/CPU and ULA/A7*%
X213640000Y-31370000D03*
%TO.P,PL2,26,A14*%
%TO.N,/CPU and ULA/A14*%
X213640000Y-28830000D03*
%TO.P,PL2,27,A8*%
%TO.N,/CPU and ULA/A8*%
X216180000Y-31370000D03*
%TO.P,PL2,28,A13*%
%TO.N,/CPU and ULA/A13*%
X216180000Y-28830000D03*
%TO.P,PL2,29,A9*%
%TO.N,/CPU and ULA/A9*%
X218720000Y-31370000D03*
%TO.P,PL2,30,A12*%
%TO.N,/CPU and ULA/A12*%
X218720000Y-28830000D03*
%TO.P,PL2,31,A10*%
%TO.N,/CPU and ULA/A10*%
X221260000Y-31370000D03*
%TO.P,PL2,32,A11*%
%TO.N,/CPU and ULA/A11*%
X221260000Y-28830000D03*
%TO.P,PL2,33,+5V*%
%TO.N,+5V*%
X223800000Y-31370000D03*
%TO.P,PL2,34,GND*%
%TO.N,GND*%
X223800000Y-28830000D03*
%TD*%
D23*
%TO.P,XT2,1,1*%
%TO.N,GND*%
X57660000Y-44950000D03*
%TO.P,XT2,2,2*%
%TO.N,Net-(IC23-FIN)*%
X57660000Y-40050000D03*
%TD*%
D13*
%TO.P,C14,1*%
%TO.N,+5V*%
X59000000Y-141075000D03*
%TO.P,C14,2*%
%TO.N,GND*%
X64000000Y-141075000D03*
%TD*%
%TO.P,C2,1*%
%TO.N,Net-(C2-Pad1)*%
X103175000Y-93400000D03*
%TO.P,C2,2*%
%TO.N,Net-(C1-Pad1)*%
X103175000Y-98400000D03*
%TD*%
%TO.P,R35,1*%
%TO.N,Net-(C31-Pad1)*%
X71625000Y-48160000D03*
D14*
%TO.P,R35,2*%
%TO.N,GND*%
X71625000Y-38000000D03*
%TD*%
D27*
%TO.P,LS1,1,1*%
%TO.N,Net-(C1-Pad2)*%
X163005000Y-94657500D03*
%TO.P,LS1,2,2*%
%TO.N,GND*%
X175355000Y-94657500D03*
%TD*%
D13*
%TO.P,RP2,1,R1.1*%
%TO.N,Net-(RP2A-R1.1)*%
X94350000Y-40320000D03*
D14*
%TO.P,RP2,2,R1.2*%
%TO.N,BR*%
X96890000Y-40320000D03*
%TO.P,RP2,3,R2.1*%
%TO.N,Net-(RP2B-R2.1)*%
X99430000Y-40320000D03*
%TO.P,RP2,4,R2.2*%
%TO.N,Net-(IC22-O6b)*%
X101970000Y-40320000D03*
%TO.P,RP2,5,R3.1*%
%TO.N,Net-(RP2C-R3.1)*%
X104510000Y-40320000D03*
%TO.P,RP2,6,R3.2*%
%TO.N,BG*%
X107050000Y-40320000D03*
%TO.P,RP2,7,R4.1*%
%TO.N,Net-(RP2D-R4.1)*%
X109590000Y-40320000D03*
%TO.P,RP2,8,R4.2*%
%TO.N,BB*%
X112130000Y-40320000D03*
%TD*%
D12*
%TO.P,IC9,1,A15*%
%TO.N,/ROM/R15*%
X223960000Y-69470000D03*
D14*
%TO.P,IC9,2,A12*%
%TO.N,/CPU and ULA/A12*%
X223960000Y-72010000D03*
%TO.P,IC9,3,A7*%
%TO.N,/CPU and ULA/A7*%
X223960000Y-74550000D03*
%TO.P,IC9,4,A6*%
%TO.N,/CPU and ULA/A6*%
X223960000Y-77090000D03*
%TO.P,IC9,5,A5*%
%TO.N,/CPU and ULA/A5*%
X223960000Y-79630000D03*
%TO.P,IC9,6,A4*%
%TO.N,/CPU and ULA/A4*%
X223960000Y-82170000D03*
%TO.P,IC9,7,A3*%
%TO.N,/CPU and ULA/A3*%
X223960000Y-84710000D03*
%TO.P,IC9,8,A2*%
%TO.N,/CPU and ULA/A2*%
X223960000Y-87250000D03*
%TO.P,IC9,9,A1*%
%TO.N,/CPU and ULA/A1*%
X223960000Y-89790000D03*
%TO.P,IC9,10,A0*%
%TO.N,/CPU and ULA/A0*%
X223960000Y-92330000D03*
%TO.P,IC9,11,D0*%
%TO.N,/CPU and ULA/D0*%
X223960000Y-94870000D03*
%TO.P,IC9,12,D1*%
%TO.N,/CPU and ULA/D1*%
X223960000Y-97410000D03*
%TO.P,IC9,13,D2*%
%TO.N,/CPU and ULA/D2*%
X223960000Y-99950000D03*
%TO.P,IC9,14,GND*%
%TO.N,GND*%
X223960000Y-102490000D03*
%TO.P,IC9,15,D3*%
%TO.N,/CPU and ULA/D3*%
X239200000Y-102490000D03*
%TO.P,IC9,16,D4*%
%TO.N,/CPU and ULA/D4*%
X239200000Y-99950000D03*
%TO.P,IC9,17,D5*%
%TO.N,/CPU and ULA/D5*%
X239200000Y-97410000D03*
%TO.P,IC9,18,D6*%
%TO.N,/CPU and ULA/D6*%
X239200000Y-94870000D03*
%TO.P,IC9,19,D7*%
%TO.N,/CPU and ULA/D7*%
X239200000Y-92330000D03*
%TO.P,IC9,20,~{CE}*%
%TO.N,/ROM/~{CROMSEL}*%
X239200000Y-89790000D03*
%TO.P,IC9,21,A10*%
%TO.N,/CPU and ULA/A10*%
X239200000Y-87250000D03*
%TO.P,IC9,22,~{OE}*%
%TO.N,~{\u00D82}*%
X239200000Y-84710000D03*
%TO.P,IC9,23,A11*%
%TO.N,/CPU and ULA/A11*%
X239200000Y-82170000D03*
%TO.P,IC9,24,A9*%
%TO.N,/CPU and ULA/A9*%
X239200000Y-79630000D03*
%TO.P,IC9,25,A8*%
%TO.N,/CPU and ULA/A8*%
X239200000Y-77090000D03*
%TO.P,IC9,26,A13*%
%TO.N,/CPU and ULA/A13*%
X239200000Y-74550000D03*
%TO.P,IC9,27,A14*%
%TO.N,/ROM/R14*%
X239200000Y-72010000D03*
%TO.P,IC9,28,VCC*%
%TO.N,+5V*%
X239200000Y-69470000D03*
%TD*%
D13*
%TO.P,R47,1*%
%TO.N,CH_B*%
X76875000Y-50275000D03*
D14*
%TO.P,R47,2*%
%TO.N,SOUND*%
X76875000Y-60435000D03*
%TD*%
D12*
%TO.P,IC11,1*%
%TO.N,~{ROMDIS}*%
X151700000Y-120200000D03*
D14*
%TO.P,IC11,2*%
%TO.N,ROMSEL*%
X154240000Y-120200000D03*
%TO.P,IC11,3*%
%TO.N,Net-(IC11-Pad3)*%
X156780000Y-120200000D03*
%TO.P,IC11,4*%
X159320000Y-120200000D03*
%TO.P,IC11,5*%
X161860000Y-120200000D03*
%TO.P,IC11,6*%
%TO.N,/ROM/~{CROMSEL}*%
X164400000Y-120200000D03*
%TO.P,IC11,7,GND*%
%TO.N,GND*%
X166940000Y-120200000D03*
%TO.P,IC11,8*%
%TO.N,~{\u00D82}*%
X166940000Y-112580000D03*
%TO.P,IC11,9*%
%TO.N,\u00D82*%
X164400000Y-112580000D03*
%TO.P,IC11,10*%
X161860000Y-112580000D03*
%TO.P,IC11,11*%
%TO.N,unconnected-(IC11-Pad11)*%
X159320000Y-112580000D03*
%TO.P,IC11,12*%
%TO.N,unconnected-(IC11-Pad12)*%
X156780000Y-112580000D03*
%TO.P,IC11,13*%
%TO.N,unconnected-(IC11-Pad13)*%
X154240000Y-112580000D03*
%TO.P,IC11,14,VCC*%
%TO.N,+5V*%
X151700000Y-112580000D03*
%TD*%
D13*
%TO.P,R36,1*%
%TO.N,Net-(C32-Pad1)*%
X74250000Y-48160000D03*
D14*
%TO.P,R36,2*%
%TO.N,GND*%
X74250000Y-38000000D03*
%TD*%
D13*
%TO.P,R51,1*%
%TO.N,C2NWRITE*%
X62660000Y-95150000D03*
D14*
%TO.P,R51,2*%
%TO.N,WRDATA*%
X62660000Y-105310000D03*
%TD*%
D13*
%TO.P,R2,1*%
%TO.N,SOUND*%
X79500000Y-62600000D03*
D14*
%TO.P,R2,2*%
%TO.N,Net-(C4-Pad2)*%
X79500000Y-72760000D03*
%TD*%
D28*
%TO.P,SW1,1,1*%
%TO.N,GND*%
X234580000Y-61210000D03*
X241070000Y-61220000D03*
%TO.P,SW1,2,2*%
%TO.N,Net-(IC5-~{NMI})*%
X232130000Y-58690000D03*
X234570000Y-56720000D03*
X241070000Y-56720000D03*
%TO.P,SW1,3,B*%
%TO.N,unconnected-(SW1-B-Pad3)*%
X238520000Y-59990000D03*
%TD*%
D22*
%TO.P,TR3,1,C*%
%TO.N,Net-(D1-A)*%
X138880000Y-38960000D03*
%TO.P,TR3,2,B*%
%TO.N,lMOTOR*%
X137380000Y-40450000D03*
%TO.P,TR3,3,E*%
%TO.N,GND*%
X135880000Y-38980000D03*
%TD*%
D13*
%TO.P,C25,1*%
%TO.N,Net-(IC3A-+)*%
X109590000Y-69390000D03*
%TO.P,C25,2*%
%TO.N,GND*%
X109590000Y-74390000D03*
%TD*%
%TO.P,C30,1*%
%TO.N,Net-(C30-Pad1)*%
X76875000Y-39375000D03*
%TO.P,C30,2*%
%TO.N,Net-(IC23-RIN)*%
X81875000Y-39375000D03*
%TD*%
%TO.P,C10,1*%
%TO.N,+5V*%
X104420000Y-59590000D03*
%TO.P,C10,2*%
%TO.N,GND*%
X99420000Y-59590000D03*
%TD*%
D12*
%TO.P,IC8,1,S*%
%TO.N,MUX*%
X110020000Y-120020000D03*
D14*
%TO.P,IC8,2,I0a*%
%TO.N,/CPU and ULA/MA1*%
X112560000Y-120020000D03*
%TO.P,IC8,3,I1a*%
%TO.N,/CPU and ULA/A1*%
X115100000Y-120020000D03*
%TO.P,IC8,4,Za*%
%TO.N,/RAM/RA3*%
X117640000Y-120020000D03*
%TO.P,IC8,5,I0b*%
%TO.N,/CPU and ULA/MA0*%
X120180000Y-120020000D03*
%TO.P,IC8,6,I1b*%
%TO.N,/CPU and ULA/A0*%
X122720000Y-120020000D03*
%TO.P,IC8,7,Zb*%
%TO.N,/RAM/RA6*%
X125260000Y-120020000D03*
%TO.P,IC8,8,GND*%
%TO.N,GND*%
X127800000Y-120020000D03*
%TO.P,IC8,9,Zd*%
%TO.N,/RAM/RA2*%
X127800000Y-112400000D03*
%TO.P,IC8,10,I1d*%
%TO.N,/CPU and ULA/A5*%
X125260000Y-112400000D03*
%TO.P,IC8,11,I0d*%
%TO.N,/CPU and ULA/MA5*%
X122720000Y-112400000D03*
%TO.P,IC8,12,Zc*%
%TO.N,/RAM/RA1*%
X120180000Y-112400000D03*
%TO.P,IC8,13,I1c*%
%TO.N,/CPU and ULA/A4*%
X117640000Y-112400000D03*
%TO.P,IC8,14,I0c*%
%TO.N,/CPU and ULA/MA4*%
X115100000Y-112400000D03*
%TO.P,IC8,15,OE*%
%TO.N,GND*%
X112560000Y-112400000D03*
%TO.P,IC8,16,VCC*%
%TO.N,+5V*%
X110020000Y-112400000D03*
%TD*%
D13*
%TO.P,C11,1*%
%TO.N,+5V*%
X136175000Y-66775000D03*
%TO.P,C11,2*%
%TO.N,GND*%
X136175000Y-71775000D03*
%TD*%
%TO.P,R10,1*%
%TO.N,Net-(C26-Pad2)*%
X62660000Y-117580000D03*
D14*
%TO.P,R10,2*%
%TO.N,Net-(IC21-Pad2)*%
X62660000Y-107420000D03*
%TD*%
D13*
%TO.P,R41,1*%
%TO.N,GND*%
X63800000Y-60435000D03*
D14*
%TO.P,R41,2*%
%TO.N,CH_A*%
X63800000Y-50275000D03*
%TD*%
D13*
%TO.P,R33,1*%
%TO.N,Net-(IC23-FIN)*%
X66425000Y-38000000D03*
D14*
%TO.P,R33,2*%
%TO.N,GND*%
X66425000Y-48160000D03*
%TD*%
D13*
%TO.P,R24,1*%
%TO.N,+5V*%
X118390000Y-46500000D03*
D14*
%TO.P,R24,2*%
%TO.N,Net-(PL3-IDK)*%
X128550000Y-46500000D03*
%TD*%
D13*
%TO.P,R3,1*%
%TO.N,GND*%
X89310000Y-76900000D03*
D14*
%TO.P,R3,2*%
%TO.N,Net-(C4-Pad2)*%
X99470000Y-76900000D03*
%TD*%
D12*
%TO.P,IC4,1,C*%
%TO.N,CH_C*%
X150470000Y-145520000D03*
D14*
%TO.P,IC4,2,TEST_1*%
%TO.N,unconnected-(IC4-TEST_1-Pad2)*%
X153010000Y-145520000D03*
%TO.P,IC4,3,VCC*%
%TO.N,+5V*%
X155550000Y-145520000D03*
%TO.P,IC4,4,A*%
%TO.N,CH_A*%
X158090000Y-145520000D03*
%TO.P,IC4,5,B*%
%TO.N,CH_B*%
X160630000Y-145520000D03*
%TO.P,IC4,6,GND*%
%TO.N,GND*%
X163170000Y-145520000D03*
%TO.P,IC4,7,IOA7*%
%TO.N,/IO/IOA7*%
X165710000Y-145520000D03*
%TO.P,IC4,8,IOA6*%
%TO.N,/IO/IOA6*%
X168250000Y-145520000D03*
%TO.P,IC4,9,IOA5*%
%TO.N,/IO/IOA5*%
X170790000Y-145520000D03*
%TO.P,IC4,10,IOA4*%
%TO.N,/IO/IOA4*%
X173330000Y-145520000D03*
%TO.P,IC4,11,IOA3*%
%TO.N,/IO/IOA3*%
X175870000Y-145520000D03*
%TO.P,IC4,12,IOA2*%
%TO.N,/IO/IOA2*%
X178410000Y-145520000D03*
%TO.P,IC4,13,IOA1*%
%TO.N,/IO/IOA1*%
X180950000Y-145520000D03*
%TO.P,IC4,14,IOA0*%
%TO.N,/IO/IOA0*%
X183490000Y-145520000D03*
%TO.P,IC4,15,CLOCK*%
%TO.N,\u00D81*%
X183490000Y-130280000D03*
%TO.P,IC4,16,~{RESET}*%
%TO.N,~{RST}*%
X180950000Y-130280000D03*
%TO.P,IC4,17,A8*%
%TO.N,unconnected-(IC4-A8-Pad17)*%
X178410000Y-130280000D03*
%TO.P,IC4,18,BDIR*%
%TO.N,BDIR*%
X175870000Y-130280000D03*
%TO.P,IC4,19,BC2*%
%TO.N,+5V*%
X173330000Y-130280000D03*
%TO.P,IC4,20,BC1*%
%TO.N,BC1*%
X170790000Y-130280000D03*
%TO.P,IC4,21,DA7*%
%TO.N,/IO/DA7*%
X168250000Y-130280000D03*
%TO.P,IC4,22,DA6*%
%TO.N,/IO/DA6*%
X165710000Y-130280000D03*
%TO.P,IC4,23,DA5*%
%TO.N,/IO/DA5*%
X163170000Y-130280000D03*
%TO.P,IC4,24,DA4*%
%TO.N,/IO/DA4*%
X160630000Y-130280000D03*
%TO.P,IC4,25,DA3*%
%TO.N,/IO/DA3*%
X158090000Y-130280000D03*
%TO.P,IC4,26,DA2*%
%TO.N,/IO/DA2*%
X155550000Y-130280000D03*
%TO.P,IC4,27,DA1*%
%TO.N,/IO/DA1*%
X153010000Y-130280000D03*
%TO.P,IC4,28,DA0*%
%TO.N,/IO/DA0*%
X150470000Y-130280000D03*
%TD*%
D12*
%TO.P,IC22,1,OEa*%
%TO.N,GND*%
X94340000Y-50450000D03*
D14*
%TO.P,IC22,2,I1*%
%TO.N,R*%
X96880000Y-50450000D03*
%TO.P,IC22,3,O1a*%
%TO.N,BR*%
X99420000Y-50450000D03*
%TO.P,IC22,4,I2*%
%TO.N,+5V*%
X101960000Y-50450000D03*
%TO.P,IC22,5,O2a*%
%TO.N,unconnected-(IC22-O2a-Pad5)*%
X104500000Y-50450000D03*
%TO.P,IC22,6,I3*%
%TO.N,+5V*%
X107040000Y-50450000D03*
%TO.P,IC22,7,O3a*%
%TO.N,unconnected-(IC22-O3a-Pad7)*%
X109580000Y-50450000D03*
%TO.P,IC22,8,GND*%
%TO.N,GND*%
X112120000Y-50450000D03*
%TO.P,IC22,9,O4a*%
%TO.N,BB*%
X112120000Y-42830000D03*
%TO.P,IC22,10,I4*%
%TO.N,B*%
X109580000Y-42830000D03*
%TO.P,IC22,11,O5b*%
%TO.N,BG*%
X107040000Y-42830000D03*
%TO.P,IC22,12,I5*%
%TO.N,G*%
X104500000Y-42830000D03*
%TO.P,IC22,13,O6b*%
%TO.N,Net-(IC22-O6b)*%
X101960000Y-42830000D03*
%TO.P,IC22,14,I6*%
%TO.N,SYNC*%
X99420000Y-42830000D03*
%TO.P,IC22,15,OEb*%
%TO.N,GND*%
X96880000Y-42830000D03*
%TO.P,IC22,16,VCC*%
%TO.N,+5V*%
X94340000Y-42830000D03*
%TD*%
D12*
%TO.P,IC2,1,GAIN*%
%TO.N,unconnected-(IC2-GAIN-Pad1)*%
X93190000Y-88420000D03*
D14*
%TO.P,IC2,2,-*%
%TO.N,GND*%
X93190000Y-90960000D03*
%TO.P,IC2,3,+*%
%TO.N,Net-(IC2-+)*%
X93190000Y-93500000D03*
%TO.P,IC2,4,GND*%
%TO.N,GND*%
X93190000Y-96040000D03*
%TO.P,IC2,5*%
%TO.N,Net-(C1-Pad1)*%
X100810000Y-96040000D03*
%TO.P,IC2,6,V+*%
%TO.N,+5V*%
X100810000Y-93500000D03*
%TO.P,IC2,7,BYPASS*%
%TO.N,unconnected-(IC2-BYPASS-Pad7)*%
X100810000Y-90960000D03*
%TO.P,IC2,8,GAIN*%
%TO.N,unconnected-(IC2-GAIN-Pad8)*%
X100810000Y-88420000D03*
%TD*%
D15*
%TO.P,SK1,1,Pin_1*%
%TO.N,Net-(RP2A-R1.1)*%
X94180000Y-34420000D03*
%TO.P,SK1,2,Pin_2*%
%TO.N,Net-(RP2C-R3.1)*%
X101800000Y-34420000D03*
%TO.P,SK1,3,Pin_3*%
%TO.N,Net-(RP2D-R4.1)*%
X109420000Y-34420000D03*
%TO.P,SK1,4,Pin_4*%
%TO.N,Net-(RP2B-R2.1)*%
X96720000Y-36960000D03*
%TO.P,SK1,5,Pin_5*%
%TO.N,GND*%
X96720000Y-24270000D03*
X99260000Y-24270000D03*
X104340000Y-24270000D03*
X106880000Y-24270000D03*
X106880000Y-36960000D03*
%TD*%
D13*
%TO.P,R31,1*%
%TO.N,+5V*%
X86925000Y-96650000D03*
D14*
%TO.P,R31,2*%
%TO.N,Net-(IC7-CLK_IN)*%
X86925000Y-106810000D03*
%TD*%
D13*
%TO.P,C33,1*%
%TO.N,GND*%
X72225000Y-35680000D03*
%TO.P,C33,2*%
%TO.N,Net-(IC23-FIN)*%
X67225000Y-35680000D03*
%TD*%
%TO.P,R48,1*%
%TO.N,SOUNDR*%
X58550000Y-50275000D03*
D14*
%TO.P,R48,2*%
%TO.N,CH_A*%
X58550000Y-60435000D03*
%TD*%
D13*
%TO.P,R5,1*%
%TO.N,Net-(IC3A--)*%
X93000000Y-71860000D03*
D14*
%TO.P,R5,2*%
%TO.N,Net-(C6-Pad2)*%
X93000000Y-61700000D03*
%TD*%
D12*
%TO.P,IC10,1,GND*%
%TO.N,GND*%
X133950000Y-142875000D03*
D14*
%TO.P,IC10,2,n/c*%
%TO.N,unconnected-(IC10-n{slash}c-Pad2)*%
X136490000Y-142875000D03*
%TO.P,IC10,3,B*%
%TO.N,CH_B*%
X139030000Y-142875000D03*
%TO.P,IC10,4,A*%
%TO.N,CH_A*%
X141570000Y-142875000D03*
%TO.P,IC10,5,n/c*%
%TO.N,unconnected-(IC10-n{slash}c-Pad5)*%
X144110000Y-142875000D03*
%TO.P,IC10,6,IOB7*%
%TO.N,unconnected-(IC10-IOB7-Pad6)*%
X146650000Y-142875000D03*
%TO.P,IC10,7,IOB6*%
%TO.N,unconnected-(IC10-IOB6-Pad7)*%
X149190000Y-142875000D03*
%TO.P,IC10,8,IOB5*%
%TO.N,unconnected-(IC10-IOB5-Pad8)*%
X151730000Y-142875000D03*
%TO.P,IC10,9,IOB4*%
%TO.N,unconnected-(IC10-IOB4-Pad9)*%
X154270000Y-142875000D03*
%TO.P,IC10,10,IOB3*%
%TO.N,unconnected-(IC10-IOB3-Pad10)*%
X156810000Y-142875000D03*
%TO.P,IC10,11,IOB2*%
%TO.N,unconnected-(IC10-IOB2-Pad11)*%
X159350000Y-142875000D03*
%TO.P,IC10,12,IOB1*%
%TO.N,unconnected-(IC10-IOB1-Pad12)*%
X161890000Y-142875000D03*
%TO.P,IC10,13,IOB0*%
%TO.N,unconnected-(IC10-IOB0-Pad13)*%
X164430000Y-142875000D03*
%TO.P,IC10,14,IOA7*%
%TO.N,/IO/IOA7*%
X166970000Y-142875000D03*
%TO.P,IC10,15,IOA6*%
%TO.N,/IO/IOA6*%
X169510000Y-142875000D03*
%TO.P,IC10,16,IOA5*%
%TO.N,/IO/IOA5*%
X172050000Y-142875000D03*
%TO.P,IC10,17,IOA4*%
%TO.N,/IO/IOA4*%
X174590000Y-142875000D03*
%TO.P,IC10,18,IOA3*%
%TO.N,/IO/IOA3*%
X177130000Y-142875000D03*
%TO.P,IC10,19,IOA2*%
%TO.N,/IO/IOA2*%
X179670000Y-142875000D03*
%TO.P,IC10,20,IOA1*%
%TO.N,/IO/IOA1*%
X182210000Y-142875000D03*
%TO.P,IC10,21,IOA0*%
%TO.N,/IO/IOA0*%
X182210000Y-127635000D03*
%TO.P,IC10,22,CLOCK*%
%TO.N,\u00D81*%
X179670000Y-127635000D03*
%TO.P,IC10,23,~{RESET}*%
%TO.N,~{RST}*%
X177130000Y-127635000D03*
%TO.P,IC10,24,~{A9}*%
%TO.N,GND*%
X174590000Y-127635000D03*
%TO.P,IC10,25,A8*%
%TO.N,+5V*%
X172050000Y-127635000D03*
%TO.P,IC10,26,TEST_2*%
%TO.N,unconnected-(IC10-TEST_2-Pad26)*%
X169510000Y-127635000D03*
%TO.P,IC10,27,BDIR*%
%TO.N,BDIR*%
X166970000Y-127635000D03*
%TO.P,IC10,28,BC2*%
%TO.N,+5V*%
X164430000Y-127635000D03*
%TO.P,IC10,29,BC1*%
%TO.N,BC1*%
X161890000Y-127635000D03*
%TO.P,IC10,30,DA7*%
%TO.N,/IO/DA7*%
X159350000Y-127635000D03*
%TO.P,IC10,31,DA6*%
%TO.N,/IO/DA6*%
X156810000Y-127635000D03*
%TO.P,IC10,32,DA5*%
%TO.N,/IO/DA5*%
X154270000Y-127635000D03*
%TO.P,IC10,33,DA4*%
%TO.N,/IO/DA4*%
X151730000Y-127635000D03*
%TO.P,IC10,34,DA3*%
%TO.N,/IO/DA3*%
X149190000Y-127635000D03*
%TO.P,IC10,35,DA2*%
%TO.N,/IO/DA2*%
X146650000Y-127635000D03*
%TO.P,IC10,36,DA1*%
%TO.N,/IO/DA1*%
X144110000Y-127635000D03*
%TO.P,IC10,37,DA0*%
%TO.N,/IO/DA0*%
X141570000Y-127635000D03*
%TO.P,IC10,38,C*%
%TO.N,CH_C*%
X139030000Y-127635000D03*
%TO.P,IC10,39,TEST_1*%
%TO.N,unconnected-(IC10-TEST_1-Pad39)*%
X136490000Y-127635000D03*
%TO.P,IC10,40,VCC*%
%TO.N,+5V*%
X133950000Y-127635000D03*
%TD*%
D13*
%TO.P,C9,1*%
%TO.N,+5V*%
X74450000Y-29000000D03*
%TO.P,C9,2*%
%TO.N,GND*%
X74450000Y-34000000D03*
%TD*%
%TO.P,R53,1*%
%TO.N,Net-(TR4-C)*%
X60125000Y-75725000D03*
D14*
%TO.P,R53,2*%
%TO.N,+5V*%
X60125000Y-65565000D03*
%TD*%
D13*
%TO.P,C32,1*%
%TO.N,Net-(C32-Pad1)*%
X76875000Y-44325000D03*
%TO.P,C32,2*%
%TO.N,Net-(IC23-BIN)*%
X81875000Y-44325000D03*
%TD*%
%TO.P,R40,1*%
%TO.N,GND*%
X61175000Y-60435000D03*
D14*
%TO.P,R40,2*%
%TO.N,CH_C*%
X61175000Y-50275000D03*
%TD*%
D13*
%TO.P,R56,1*%
%TO.N,Net-(D32-A)*%
X49750000Y-96750000D03*
D14*
%TO.P,R56,2*%
%TO.N,+5V*%
X59910000Y-96750000D03*
%TD*%
D13*
%TO.P,R54,1*%
%TO.N,Net-(D30-K)*%
X57500000Y-65565000D03*
D14*
%TO.P,R54,2*%
%TO.N,+9V*%
X57500000Y-75725000D03*
%TD*%
D13*
%TO.P,R34,1*%
%TO.N,Net-(C30-Pad1)*%
X69025000Y-48160000D03*
D14*
%TO.P,R34,2*%
%TO.N,GND*%
X69025000Y-38000000D03*
%TD*%
D13*
%TO.P,R1,1*%
%TO.N,Net-(C2-Pad1)*%
X100650000Y-84500000D03*
D14*
%TO.P,R1,2*%
%TO.N,GND*%
X90490000Y-84500000D03*
%TD*%
D13*
%TO.P,C26,1*%
%TO.N,Net-(C26-Pad1)*%
X57730000Y-120090000D03*
%TO.P,C26,2*%
%TO.N,Net-(C26-Pad2)*%
X62730000Y-120090000D03*
%TD*%
D12*
%TO.P,D30,1,K*%
%TO.N,Net-(D30-K)*%
X62975000Y-73185000D03*
D14*
%TO.P,D30,2,A*%
%TO.N,GND*%
X62975000Y-65565000D03*
%TD*%
D13*
%TO.P,R44,1*%
%TO.N,SOUNDL*%
X50675000Y-50275000D03*
D14*
%TO.P,R44,2*%
%TO.N,CH_C*%
X50675000Y-60435000D03*
%TD*%
D13*
%TO.P,R49,1*%
%TO.N,SOUNDR*%
X55925000Y-50275000D03*
D14*
%TO.P,R49,2*%
%TO.N,CH_B*%
X55925000Y-60435000D03*
%TD*%
D13*
%TO.P,R42,1*%
%TO.N,GND*%
X66425000Y-60435000D03*
D14*
%TO.P,R42,2*%
%TO.N,CH_B*%
X66425000Y-50275000D03*
%TD*%
D13*
%TO.P,C35,1*%
%TO.N,+5V*%
X228000000Y-148710000D03*
%TO.P,C35,2*%
%TO.N,GND*%
X228000000Y-153710000D03*
%TD*%
D10*
%TO.P,PL1,1,Pin_1*%
%TO.N,Net-(IC6-PB4)*%
X148900000Y-31370000D03*
D11*
%TO.P,PL1,2,Pin_2*%
%TO.N,GND*%
X148900000Y-28830000D03*
%TO.P,PL1,3,Pin_3*%
%TO.N,/IO/DA0*%
X151440000Y-31370000D03*
%TO.P,PL1,4,Pin_4*%
%TO.N,GND*%
X151440000Y-28830000D03*
%TO.P,PL1,5,Pin_5*%
%TO.N,/IO/DA1*%
X153980000Y-31370000D03*
%TO.P,PL1,6,Pin_6*%
%TO.N,GND*%
X153980000Y-28830000D03*
%TO.P,PL1,7,Pin_7*%
%TO.N,/IO/DA2*%
X156520000Y-31370000D03*
%TO.P,PL1,8,Pin_8*%
%TO.N,GND*%
X156520000Y-28830000D03*
%TO.P,PL1,9,Pin_9*%
%TO.N,/IO/DA3*%
X159060000Y-31370000D03*
%TO.P,PL1,10,Pin_10*%
%TO.N,GND*%
X159060000Y-28830000D03*
%TO.P,PL1,11,Pin_11*%
%TO.N,/IO/DA4*%
X161600000Y-31370000D03*
%TO.P,PL1,12,Pin_12*%
%TO.N,GND*%
X161600000Y-28830000D03*
%TO.P,PL1,13,Pin_13*%
%TO.N,/IO/DA5*%
X164140000Y-31370000D03*
%TO.P,PL1,14,Pin_14*%
%TO.N,GND*%
X164140000Y-28830000D03*
%TO.P,PL1,15,Pin_15*%
%TO.N,/IO/DA6*%
X166680000Y-31370000D03*
%TO.P,PL1,16,Pin_16*%
%TO.N,GND*%
X166680000Y-28830000D03*
%TO.P,PL1,17,Pin_17*%
%TO.N,/IO/DA7*%
X169220000Y-31370000D03*
%TO.P,PL1,18,Pin_18*%
%TO.N,GND*%
X169220000Y-28830000D03*
%TO.P,PL1,19,Pin_19*%
%TO.N,Net-(IC6-CA1)*%
X171760000Y-31370000D03*
%TO.P,PL1,20,Pin_20*%
%TO.N,GND*%
X171760000Y-28830000D03*
%TD*%
D13*
%TO.P,C37,1*%
%TO.N,+9V*%
X57050000Y-78175000D03*
%TO.P,C37,2*%
%TO.N,Net-(D30-K)*%
X62050000Y-78175000D03*
%TD*%
D22*
%TO.P,TR6,1,C*%
%TO.N,+9V*%
X71925000Y-78515000D03*
%TO.P,TR6,2,B*%
%TO.N,Net-(D30-K)*%
X73425000Y-77025000D03*
%TO.P,TR6,3,E*%
%TO.N,Net-(TR6-E)*%
X74925000Y-78495000D03*
%TD*%
D28*
%TO.P,SW3,1,1*%
%TO.N,GND*%
X50875000Y-135405000D03*
X57375000Y-135405000D03*
%TO.P,SW3,2,2*%
%TO.N,~{RST}*%
X50875000Y-130905000D03*
X57375000Y-130905000D03*
%TD*%
D12*
%TO.P,IC20,1,S*%
%TO.N,MUX*%
X86950000Y-120100000D03*
D14*
%TO.P,IC20,2,I0a*%
%TO.N,/CPU and ULA/MA3*%
X89490000Y-120100000D03*
%TO.P,IC20,3,I1a*%
%TO.N,/CPU and ULA/A3*%
X92030000Y-120100000D03*
%TO.P,IC20,4,Za*%
%TO.N,/RAM/RA5*%
X94570000Y-120100000D03*
%TO.P,IC20,5,I0b*%
%TO.N,/CPU and ULA/MA2*%
X97110000Y-120100000D03*
%TO.P,IC20,6,I1b*%
%TO.N,/CPU and ULA/A2*%
X99650000Y-120100000D03*
%TO.P,IC20,7,Zb*%
%TO.N,/RAM/RA4*%
X102190000Y-120100000D03*
%TO.P,IC20,8,GND*%
%TO.N,GND*%
X104730000Y-120100000D03*
%TO.P,IC20,9,Zd*%
%TO.N,/RAM/RA0*%
X104730000Y-112480000D03*
%TO.P,IC20,10,I1d*%
%TO.N,/CPU and ULA/A6*%
X102190000Y-112480000D03*
%TO.P,IC20,11,I0d*%
%TO.N,/CPU and ULA/MA6*%
X99650000Y-112480000D03*
%TO.P,IC20,12,Zc*%
%TO.N,/RAM/RA7*%
X97110000Y-112480000D03*
%TO.P,IC20,13,I1c*%
%TO.N,/CPU and ULA/A7*%
X94570000Y-112480000D03*
%TO.P,IC20,14,I0c*%
%TO.N,/CPU and ULA/MA7*%
X92030000Y-112480000D03*
%TO.P,IC20,15,OE*%
%TO.N,GND*%
X89490000Y-112480000D03*
%TO.P,IC20,16,VCC*%
%TO.N,+5V*%
X86950000Y-112480000D03*
%TD*%
D13*
%TO.P,C15,1*%
%TO.N,+5V*%
X84325000Y-141075000D03*
%TO.P,C15,2*%
%TO.N,GND*%
X89325000Y-141075000D03*
%TD*%
%TO.P,C22,1*%
%TO.N,+5V*%
X115890000Y-42680000D03*
%TO.P,C22,2*%
%TO.N,GND*%
X115890000Y-47680000D03*
%TD*%
D29*
%TO.N,~{RST}*%
X50680000Y-126630000D03*
%TO.N,GND*%
X174590000Y-120260000D03*
X101300000Y-121825000D03*
X241800000Y-106440000D03*
X135160000Y-120020000D03*
X89060000Y-96040000D03*
X111275000Y-121700000D03*
X89075000Y-66825000D03*
X89050000Y-90870000D03*
X89090000Y-48240000D03*
X85325000Y-121700000D03*
X184175000Y-126450000D03*
X223960000Y-106440000D03*
X129450000Y-142250000D03*
%TO.N,+5V*%
X84500000Y-30100000D03*
X83875000Y-54400000D03*
X96300000Y-148450000D03*
X107050000Y-44801551D03*
X85500000Y-54525000D03*
X142680000Y-28290000D03*
X85740000Y-89360000D03*
X84500000Y-31800000D03*
X59000000Y-148400000D03*
X101950000Y-44801551D03*
X131675000Y-148550000D03*
X85990000Y-68125000D03*
X106770000Y-114540000D03*
X84325000Y-148425000D03*
X169625000Y-115875000D03*
X84320000Y-89340000D03*
%TO.N,Net-(SK2-Tape_In)*%
X114150000Y-46590000D03*
X93040000Y-46580000D03*
X114020000Y-41580000D03*
%TO.N,Net-(SK2-Tape_Out)*%
X123080000Y-59190000D03*
%TO.N,~{RST}*%
X137160000Y-104590000D03*
X59880000Y-104070000D03*
X137130000Y-92620000D03*
X193670000Y-133180000D03*
X194480000Y-80050000D03*
X186188541Y-133211459D03*
%TO.N,Net-(C26-Pad1)*%
X71620000Y-116210000D03*
%TO.N,/CPU and ULA/A8*%
X232950000Y-77080000D03*
%TO.N,/CPU and ULA/D5*%
X221010000Y-98725000D03*
X89787500Y-105762500D03*
X68775000Y-153375000D03*
X221300000Y-154450000D03*
%TO.N,/CPU and ULA/D4*%
X80975000Y-154375000D03*
X216160000Y-101275000D03*
X94490000Y-83375000D03*
X219160000Y-154410000D03*
%TO.N,R{slash}~{W}*%
X207640000Y-114520000D03*
X238070000Y-114520000D03*
X203800000Y-114530000D03*
%TO.N,/CPU and ULA/A3*%
X220060000Y-121430000D03*
X208450000Y-84670000D03*
X210260000Y-121420000D03*
X206370000Y-121420000D03*
%TO.N,\u00D82*%
X194740000Y-117590000D03*
X230230000Y-117520000D03*
%TO.N,/CPU and ULA/A0*%
X210420000Y-92300000D03*
X214030000Y-134130000D03*
%TO.N,/CPU and ULA/D3*%
X216590000Y-154410000D03*
X93250000Y-153700000D03*
X214020000Y-102450000D03*
X98870000Y-84675000D03*
X93300000Y-132225000D03*
%TO.N,/CPU and ULA/D2*%
X211150000Y-99850000D03*
X114860000Y-84800000D03*
X214020000Y-154350000D03*
X107700000Y-154500000D03*
X205530000Y-99890000D03*
%TO.N,/CPU and ULA/D0*%
X208990000Y-153390000D03*
X128500000Y-90820000D03*
X207150000Y-94925000D03*
X103840000Y-135175000D03*
X127675000Y-135200000D03*
X128825000Y-154300000D03*
%TO.N,/CPU and ULA/D7*%
X182350000Y-109125000D03*
X124870000Y-90960000D03*
X125490000Y-102390000D03*
X68167500Y-102942500D03*
X227850000Y-93500000D03*
X182250000Y-96200000D03*
X124880000Y-65480000D03*
%TO.N,/CPU and ULA/A9*%
X235360000Y-79650000D03*
%TO.N,/CPU and ULA/A7*%
X230590000Y-74550000D03*
%TO.N,/CPU and ULA/A12*%
X236460000Y-72040000D03*
%TO.N,/CPU and ULA/A6*%
X228030000Y-77100000D03*
%TO.N,/CPU and ULA/A1*%
X212850000Y-89750000D03*
X216500000Y-133180000D03*
%TO.N,Net-(IC5-~{NMI})*%
X221650000Y-113400000D03*
X209130000Y-113420000D03*
X219813956Y-64248297D03*
%TO.N,Net-(IC5-\u00D80)*%
X136840000Y-90950000D03*
X136830000Y-75090000D03*
X183430000Y-109975000D03*
X183330000Y-89680000D03*
%TO.N,/CPU and ULA/D1*%
X115350000Y-125850000D03*
X106400000Y-132600000D03*
X209160000Y-97425000D03*
X121860000Y-68030000D03*
X211590000Y-153610000D03*
X106375000Y-153625000D03*
%TO.N,/CPU and ULA/A2*%
X215200000Y-87275000D03*
X219060000Y-131910000D03*
%TO.N,/CPU and ULA/D6*%
X211677500Y-96047500D03*
X77650000Y-108450000D03*
X65400000Y-154125000D03*
X225300000Y-96140000D03*
X223760000Y-154470000D03*
%TO.N,/CPU and ULA/A13*%
X201950000Y-26975000D03*
X234040000Y-74600000D03*
X181600000Y-43750000D03*
X178290000Y-26975000D03*
%TO.N,/CPU and ULA/MA6*%
X101650579Y-108860579D03*
%TO.N,Net-(IC7-CAS)*%
X85160000Y-94650000D03*
%TO.N,/CPU and ULA/MA5*%
X122630000Y-104850000D03*
%TO.N,Net-(IC7-RAS)*%
X83270000Y-93640000D03*
%TO.N,/CPU and ULA/MA2*%
X102980000Y-103760000D03*
%TO.N,MUX*%
X110860000Y-108750000D03*
X86740000Y-116250000D03*
X109970000Y-116160000D03*
%TO.N,/CPU and ULA/MA3*%
X93850000Y-107100000D03*
%TO.N,/CPU and ULA/MA4*%
X115000000Y-103600000D03*
%TO.N,~{MAP}*%
X120720000Y-59120000D03*
%TO.N,SYNC*%
X86750000Y-30950000D03*
X116770000Y-70620000D03*
%TO.N,/CPU and ULA/MA0*%
X121600000Y-102280000D03*
%TO.N,ROMSEL*%
X137730000Y-63020000D03*
X141425000Y-119575000D03*
X154250000Y-114550000D03*
%TO.N,G*%
X110581739Y-60443261D03*
%TO.N,~{I{slash}O}*%
X198480000Y-115130000D03*
X235490000Y-115760000D03*
%TO.N,/CPU and ULA/MA1*%
X116250000Y-97200000D03*
%TO.N,R*%
X116240000Y-61630000D03*
%TO.N,Net-(IC7-W)*%
X82100000Y-94500000D03*
%TO.N,/CPU and ULA/MA7*%
X95932500Y-107242500D03*
%TO.N,/RAM/RA1*%
X114000000Y-126625000D03*
X76725000Y-126625000D03*
%TO.N,/RAM/RA6*%
X114050000Y-142675000D03*
X125275000Y-127875000D03*
X113975000Y-134325000D03*
%TO.N,/RAM/RA3*%
X81800000Y-124025000D03*
X117640000Y-124150000D03*
%TO.N,/RAM/RA2*%
X79250000Y-124875000D03*
%TO.N,/ROM/R14*%
X191150000Y-72025000D03*
%TO.N,~{\u00D82}*%
X194950000Y-92150000D03*
X190800000Y-112580000D03*
%TO.N,~{ROMDIS}*%
X193275000Y-82950000D03*
X173625000Y-99875000D03*
X173600000Y-117275000D03*
%TO.N,/ROM/R15*%
X192250000Y-70175000D03*
%TO.N,/RAM/RA0*%
X103539999Y-129210304D03*
%TO.N,/RAM/RA5*%
X94525000Y-139625000D03*
%TO.N,~{RAMW}*%
X108925000Y-144375000D03*
%TO.N,/RAM/RA7*%
X95925000Y-133450000D03*
%TO.N,~{CAS}*%
X80550000Y-127475000D03*
X106375000Y-127475000D03*
%TO.N,~{RAS}*%
X111425000Y-143525000D03*
%TO.N,/RAM/RA4*%
X102990000Y-136350000D03*
%TO.N,TAUDIO*%
X91780000Y-40120000D03*
%TO.N,/IO/DA6*%
X165710000Y-123000000D03*
X156850000Y-123000000D03*
%TO.N,/IO/DA2*%
X155550000Y-126400000D03*
%TO.N,/IO/IOA1*%
X144200000Y-96050000D03*
X141425000Y-96050000D03*
X147375000Y-139060000D03*
X144200000Y-124700000D03*
%TO.N,/IO/IOA5*%
X129950000Y-124200000D03*
%TO.N,/IO/DA3*%
X149200000Y-125550000D03*
X158090000Y-125550000D03*
%TO.N,BDIR*%
X169100000Y-125925000D03*
X175900000Y-132975000D03*
%TO.N,CH_C*%
X155900000Y-152600000D03*
X52775000Y-152375000D03*
%TO.N,ROW2*%
X185550000Y-148110000D03*
%TO.N,ROW1*%
X186550000Y-146725000D03*
%TO.N,ROW0*%
X187475000Y-145600000D03*
%TO.N,Net-(PL3-IDK)*%
X118430000Y-54770000D03*
%TO.N,/IO/IOA2*%
X146275000Y-140440000D03*
X136875000Y-126125000D03*
X141425001Y-98652919D03*
X138500000Y-98650000D03*
%TO.N,/IO/IOA6*%
X130924844Y-123435741D03*
%TO.N,/IO/IOA4*%
X128756666Y-123750000D03*
%TO.N,/IO/DA4*%
X151725000Y-124700000D03*
X160630000Y-124700000D03*
%TO.N,/IO/IOA7*%
X131850000Y-124200000D03*
%TO.N,/IO/IOA0*%
X146625000Y-96350000D03*
X141390000Y-94630000D03*
X148475000Y-137870000D03*
X146638078Y-125550802D03*
%TO.N,/IO/DA5*%
X163170000Y-122025000D03*
X154275000Y-122250000D03*
%TO.N,/IO/DA7*%
X168250000Y-123850000D03*
X159350000Y-123850000D03*
%TO.N,/IO/IOA3*%
X138850000Y-95910000D03*
X149071459Y-97153541D03*
X145075000Y-141425000D03*
X149143261Y-115243261D03*
%TO.N,KBCOM*%
X141590000Y-54370000D03*
X184100000Y-149475000D03*
%TO.N,Net-(IC6-PB4)*%
X170370000Y-32850000D03*
X189200000Y-134030000D03*
X226670000Y-135460000D03*
%TO.N,CH_A*%
X54387659Y-150410258D03*
X149063955Y-144369697D03*
X158090000Y-151450000D03*
X141575000Y-144325000D03*
%TO.N,Net-(IC6-CA1)*%
X188800000Y-130440000D03*
%TO.N,Net-(IC21-Pad2)*%
X67890000Y-107400000D03*
X108820000Y-100670000D03*
%TO.N,/ROM/~{CROMSEL}*%
X189840000Y-116410000D03*
X194090000Y-103275000D03*
%TO.N,BG*%
X104425000Y-55425000D03*
%TO.N,BB*%
X113775000Y-57675000D03*
%TO.N,CH_B*%
X53650000Y-151425000D03*
X160650000Y-152525000D03*
X147950000Y-145650000D03*
X139025000Y-145650000D03*
%TO.N,IOCTRL*%
X201200000Y-116130000D03*
X232910000Y-116630000D03*
%TO.N,RDDATA*%
X78675000Y-152650000D03*
X113925000Y-153450000D03*
%TO.N,WRDATA*%
X123600000Y-150775000D03*
X118650000Y-142090000D03*
X54780000Y-145170000D03*
%TO.N,Net-(D31-A)*%
X48025000Y-80975000D03*
%TO.N,Net-(D32-A)*%
X47025000Y-90150000D03*
%TO.N,Net-(TR4-C)*%
X62950000Y-69700000D03*
%TO.N,lMOTOR*%
X127090000Y-72250000D03*
X118900000Y-150575000D03*
X125440000Y-59070000D03*
%TD*%
D30*
%TO.N,Net-(C2-Pad1)*%
X103175000Y-87025000D02*
X103175000Y-93400000D01*
X100650000Y-84500000D02*
X103175000Y-87025000D01*
D31*
%TO.N,GND*%
X64010000Y-135440000D02*
X64010000Y-130680000D01*
X148900000Y-28830000D02*
X148900000Y-23300000D01*
D32*
X115890000Y-47680000D02*
X117308905Y-44090000D01*
X101950000Y-81930000D02*
X103005000Y-81930000D01*
D30*
X81875000Y-29000000D02*
X88500000Y-29000000D01*
D31*
X96080000Y-102100000D02*
X93190000Y-99210000D01*
X96080000Y-102810000D02*
X93680000Y-105210000D01*
D32*
X103005000Y-81930000D02*
X104425000Y-83350000D01*
D31*
X96080000Y-102100000D02*
X96080000Y-102810000D01*
X64000000Y-141075000D02*
X64000000Y-156825000D01*
X62920000Y-68170000D02*
X62925000Y-68175000D01*
D32*
X96880000Y-42830000D02*
X94340000Y-50450000D01*
D31*
X89490000Y-114585000D02*
X89475000Y-114600000D01*
X88700000Y-114600000D02*
X88675000Y-114575000D01*
X101300000Y-130680000D02*
X101300000Y-138300000D01*
X101300000Y-141075000D02*
X101300000Y-156575000D01*
X148900000Y-28830000D02*
X171760000Y-28830000D01*
X52710000Y-68170000D02*
X62920000Y-68170000D01*
X190540000Y-151650000D02*
X190540000Y-156660000D01*
X190540000Y-156660000D02*
X190560000Y-156680000D01*
X135860000Y-103290000D02*
X135860000Y-94670000D01*
X46910000Y-64850000D02*
X46910000Y-70750000D01*
X192390000Y-145680000D02*
X190550000Y-145680000D01*
X192390000Y-126450000D02*
X190540000Y-126450000D01*
X99420000Y-69410000D02*
X96930000Y-71900000D01*
D33*
X175355000Y-94657500D02*
X175355000Y-97435000D01*
D31*
X174590000Y-120260000D02*
X174590000Y-127635000D01*
X89490000Y-112480000D02*
X89490000Y-114585000D01*
X190540000Y-145670000D02*
X190540000Y-151650000D01*
X89475000Y-114600000D02*
X88700000Y-114600000D01*
X93680000Y-105245000D02*
X89490000Y-109435000D01*
D32*
X135690000Y-72260000D02*
X136175000Y-71775000D01*
D31*
X46910000Y-64850000D02*
X42950000Y-64850000D01*
X89490000Y-109435000D02*
X89490000Y-112480000D01*
D32*
X135690000Y-94500000D02*
X135690000Y-72260000D01*
D30*
X57660000Y-44950000D02*
X61750000Y-44950000D01*
D31*
X129450000Y-142250000D02*
X129450000Y-141050000D01*
X93190000Y-99210000D02*
X93190000Y-96040000D01*
X135175000Y-125500000D02*
X135175000Y-124038478D01*
D32*
X106970000Y-74570000D02*
X109410000Y-74570000D01*
D31*
X175380000Y-97460000D02*
X175380000Y-96650000D01*
X64010000Y-138300000D02*
X64010000Y-141065000D01*
X64010000Y-141065000D02*
X64000000Y-141075000D01*
D30*
X111250000Y-117350000D02*
X111250000Y-121675000D01*
D31*
X190540000Y-126450000D02*
X190540000Y-145670000D01*
X135860000Y-110320000D02*
X135860000Y-103290000D01*
X163170000Y-156845000D02*
X163175000Y-156850000D01*
D32*
X110730000Y-80960000D02*
X110730000Y-78190000D01*
X135860000Y-94670000D02*
X135690000Y-94500000D01*
D31*
X135860000Y-94670000D02*
X135280000Y-94670000D01*
X46240000Y-117510000D02*
X42780000Y-117510000D01*
D32*
X113110000Y-83340000D02*
X110730000Y-80960000D01*
D31*
X163170000Y-145520000D02*
X163170000Y-156845000D01*
X47420000Y-72860000D02*
X46110000Y-71550000D01*
X184175000Y-120225000D02*
X184180000Y-120220000D01*
X46110000Y-71550000D02*
X42950000Y-71550000D01*
D32*
X109410000Y-74570000D02*
X109590000Y-74390000D01*
D30*
X111250000Y-121675000D02*
X111275000Y-121700000D01*
D31*
X241070000Y-61220000D02*
X243690000Y-61220000D01*
D30*
X80615000Y-28990000D02*
X80625000Y-29000000D01*
D31*
X122570000Y-34420000D02*
X122570000Y-23380000D01*
X46910000Y-70750000D02*
X46110000Y-71550000D01*
X241800000Y-106440000D02*
X244260000Y-106440000D01*
X88675000Y-114575000D02*
X85425000Y-114575000D01*
X93680000Y-105210000D02*
X93680000Y-105245000D01*
D30*
X80615000Y-26850000D02*
X80615000Y-28990000D01*
X57650000Y-48150000D02*
X57660000Y-48140000D01*
X80625000Y-29000000D02*
X81875000Y-29000000D01*
D31*
X99420000Y-59590000D02*
X99420000Y-69410000D01*
D30*
X81885000Y-28990000D02*
X81875000Y-29000000D01*
D31*
X129450000Y-125500000D02*
X135175000Y-125500000D01*
X46910000Y-78250000D02*
X42950000Y-78250000D01*
X135270000Y-94660000D02*
X133840000Y-94660000D01*
X135280000Y-94670000D02*
X135270000Y-94660000D01*
D32*
X110730000Y-78190000D02*
X109590000Y-74390000D01*
D30*
X112560000Y-112400000D02*
X112560000Y-116040000D01*
D31*
X184200000Y-120170000D02*
X175380000Y-112880000D01*
D30*
X78075000Y-35680000D02*
X78075000Y-36150000D01*
D31*
X52710000Y-65175000D02*
X52710000Y-68170000D01*
X62925000Y-68175000D02*
X62975000Y-68125000D01*
D32*
X104425000Y-91400000D02*
X113110000Y-91400000D01*
D31*
X171760000Y-28830000D02*
X171760000Y-23230000D01*
X62975000Y-68125000D02*
X62975000Y-65565000D01*
X228000000Y-156450000D02*
X227990000Y-156460000D01*
X46910000Y-78250000D02*
X46910000Y-72350000D01*
X85425000Y-114575000D02*
X85350000Y-114650000D01*
D30*
X45075000Y-92060000D02*
X43260000Y-92060000D01*
D31*
X129450000Y-150200000D02*
X131300000Y-152050000D01*
D32*
X113110000Y-91400000D02*
X113110000Y-83340000D01*
D31*
X135160000Y-111020000D02*
X135860000Y-110320000D01*
D32*
X104425000Y-83350000D02*
X104425000Y-91400000D01*
D30*
X45075000Y-83810000D02*
X43215000Y-83810000D01*
D31*
X85350000Y-114650000D02*
X85350000Y-121650000D01*
X46910000Y-72350000D02*
X46110000Y-71550000D01*
D30*
X63975000Y-135405000D02*
X64010000Y-135440000D01*
D31*
X244260000Y-106440000D02*
X244280000Y-106460000D01*
X175355000Y-97435000D02*
X175380000Y-97460000D01*
D32*
X117398905Y-44000000D02*
X117308905Y-44090000D01*
D30*
X66425000Y-48160000D02*
X57660000Y-48160000D01*
D31*
X175380000Y-112880000D02*
X175380000Y-97460000D01*
X129450000Y-141050000D02*
X129450000Y-125500000D01*
X131300000Y-152050000D02*
X131300000Y-156650000D01*
X184175000Y-126450000D02*
X184175000Y-120225000D01*
D30*
X57660000Y-48160000D02*
X57650000Y-48150000D01*
D31*
X228000000Y-153710000D02*
X228000000Y-156450000D01*
X171760000Y-23230000D02*
X171740000Y-23210000D01*
X190550000Y-145680000D02*
X190540000Y-145670000D01*
X106880000Y-36960000D02*
X106880000Y-24270000D01*
D30*
X53050000Y-44950000D02*
X53050000Y-32950000D01*
D31*
X129425000Y-141075000D02*
X129450000Y-141050000D01*
X101300000Y-138300000D02*
X101300000Y-141075000D01*
X49990000Y-72860000D02*
X47420000Y-72860000D01*
D30*
X57375000Y-135405000D02*
X63975000Y-135405000D01*
X112560000Y-116040000D02*
X111250000Y-117350000D01*
D31*
X129450000Y-142250000D02*
X129450000Y-150200000D01*
D32*
X123480000Y-44000000D02*
X117398905Y-44000000D01*
D31*
X126625000Y-141075000D02*
X129425000Y-141075000D01*
X148900000Y-23300000D02*
X148920000Y-23280000D01*
D30*
X81885000Y-26850000D02*
X81885000Y-28990000D01*
D31*
X135175000Y-124038478D02*
X135160000Y-124023478D01*
X223800000Y-28830000D02*
X223800000Y-23190000D01*
D30*
X180600000Y-38070000D02*
X180600000Y-23300000D01*
D31*
X135160000Y-124023478D02*
X135160000Y-120020000D01*
X89325000Y-141075000D02*
X89325000Y-156900000D01*
X101300000Y-130680000D02*
X101300000Y-121825000D01*
X64010000Y-138300000D02*
X64010000Y-135440000D01*
X223960000Y-102490000D02*
X223960000Y-106440000D01*
D30*
X57660000Y-44950000D02*
X53050000Y-44950000D01*
X57660000Y-48140000D02*
X57660000Y-44950000D01*
D31*
X47235000Y-65175000D02*
X52710000Y-65175000D01*
X46910000Y-64850000D02*
X47235000Y-65175000D01*
D30*
X182030000Y-39500000D02*
X180600000Y-38070000D01*
D32*
X117308905Y-44090000D02*
X118380000Y-41380000D01*
D30*
X53050000Y-32950000D02*
X53025000Y-32925000D01*
D31*
X135160000Y-120020000D02*
X135160000Y-111020000D01*
D30*
%TO.N,+5V*%
X77925000Y-24875000D02*
X74450000Y-24875000D01*
X80615000Y-31810000D02*
X74485000Y-31810000D01*
D31*
X197430000Y-111170000D02*
X197470000Y-111210000D01*
X147050000Y-32660000D02*
X147050000Y-39770000D01*
X98710000Y-99730000D02*
X101080000Y-102100000D01*
D30*
X86440000Y-93440000D02*
X86350000Y-93350000D01*
D32*
X107040000Y-50450000D02*
X107040000Y-44811551D01*
D30*
X229240000Y-146400000D02*
X229240000Y-143210000D01*
X77925000Y-24875000D02*
X79345000Y-24875000D01*
D31*
X104550000Y-64280000D02*
X104550000Y-59720000D01*
D30*
X86925000Y-93925000D02*
X86440000Y-93440000D01*
D31*
X131675000Y-148550000D02*
X155525000Y-148550000D01*
D30*
X164425000Y-131725000D02*
X173325000Y-131725000D01*
D31*
X169650000Y-124725000D02*
X171450000Y-124725000D01*
D30*
X74075000Y-106950000D02*
X74050000Y-106975000D01*
X81885000Y-31810000D02*
X81875000Y-31800000D01*
D32*
X106970000Y-54995000D02*
X108800000Y-56825000D01*
D31*
X169625000Y-124700000D02*
X169650000Y-124725000D01*
X131675000Y-127675000D02*
X131675000Y-148550000D01*
X169625000Y-115875000D02*
X169625000Y-124700000D01*
X131675000Y-148550000D02*
X131675000Y-148575000D01*
X196900000Y-113980000D02*
X196900000Y-120380000D01*
X146420000Y-40370000D02*
X145100000Y-41690000D01*
X101080000Y-102100000D02*
X104740000Y-102100000D01*
D32*
X108800000Y-56975000D02*
X108855000Y-56975000D01*
D31*
X84330000Y-141070000D02*
X84325000Y-141075000D01*
D30*
X176610000Y-39970000D02*
X174400000Y-37760000D01*
X86925000Y-96650000D02*
X86925000Y-93925000D01*
X80615000Y-36150000D02*
X80615000Y-31810000D01*
X228000000Y-148710000D02*
X229240000Y-147470000D01*
D31*
X197430000Y-108770000D02*
X197430000Y-111170000D01*
D32*
X108855000Y-56975000D02*
X118600000Y-66720000D01*
D30*
X86350000Y-93350000D02*
X86350000Y-90870000D01*
X173325000Y-131725000D02*
X173330000Y-131720000D01*
D32*
X101950000Y-66880000D02*
X104550000Y-64280000D01*
D30*
X79375000Y-30100000D02*
X84500000Y-30100000D01*
D31*
X171450000Y-124725000D02*
X172000000Y-125275000D01*
X84330000Y-138300000D02*
X84330000Y-141070000D01*
X104550000Y-59720000D02*
X104420000Y-59590000D01*
X106770000Y-104130000D02*
X106770000Y-114540000D01*
X84325000Y-141075000D02*
X84325000Y-148425000D01*
X100810000Y-93500000D02*
X98710000Y-93500000D01*
D30*
X74485000Y-31810000D02*
X74450000Y-31775000D01*
D32*
X106970000Y-52900000D02*
X106970000Y-54995000D01*
D30*
X66590000Y-106035000D02*
X66590000Y-112480000D01*
D31*
X96300000Y-141075000D02*
X96300000Y-148450000D01*
X142680000Y-28290000D02*
X147050000Y-32660000D01*
X155550000Y-148525000D02*
X155550000Y-145520000D01*
D30*
X228000000Y-148710000D02*
X226800000Y-147510000D01*
D31*
X146450000Y-40370000D02*
X146420000Y-40370000D01*
X131715000Y-127635000D02*
X131675000Y-127675000D01*
D30*
X174400000Y-37760000D02*
X174400000Y-37150000D01*
D32*
X101960000Y-50450000D02*
X101960000Y-44811551D01*
D30*
X74075000Y-103150000D02*
X74075000Y-105950000D01*
D32*
X101960000Y-44811551D02*
X101950000Y-44801551D01*
X107040000Y-44811551D02*
X107050000Y-44801551D01*
D30*
X74075000Y-105950000D02*
X66650000Y-105950000D01*
D31*
X104740000Y-102100000D02*
X106770000Y-104130000D01*
X194930000Y-122350000D02*
X194930000Y-126450000D01*
X59000000Y-141075000D02*
X59000000Y-148400000D01*
D30*
X79345000Y-24875000D02*
X79345000Y-26850000D01*
D32*
X106970000Y-52900000D02*
X106970000Y-50520000D01*
D30*
X79345000Y-26850000D02*
X79345000Y-30070000D01*
X66650000Y-105950000D02*
X66600000Y-106000000D01*
X78075000Y-26850000D02*
X78075000Y-28725000D01*
X229240000Y-147470000D02*
X229240000Y-146400000D01*
X164430000Y-131720000D02*
X164425000Y-131725000D01*
X81885000Y-36150000D02*
X81885000Y-31810000D01*
X173330000Y-131720000D02*
X173330000Y-130280000D01*
X174370000Y-37120000D02*
X174370000Y-33960000D01*
X74075000Y-105950000D02*
X74075000Y-106950000D01*
D31*
X98710000Y-93500000D02*
X98710000Y-99730000D01*
D30*
X66600000Y-106025000D02*
X66590000Y-106035000D01*
X81875000Y-31800000D02*
X84500000Y-31800000D01*
D32*
X108800000Y-56825000D02*
X108800000Y-56975000D01*
D30*
X226800000Y-147510000D02*
X226800000Y-143260000D01*
X164430000Y-127635000D02*
X164430000Y-131720000D01*
D32*
X101950000Y-76930000D02*
X101950000Y-66880000D01*
D31*
X147050000Y-39770000D02*
X146450000Y-40370000D01*
X197470000Y-111210000D02*
X197470000Y-113410000D01*
D30*
X80615000Y-31810000D02*
X80625000Y-31800000D01*
X78075000Y-26850000D02*
X78075000Y-24875000D01*
D31*
X155525000Y-148550000D02*
X155550000Y-148525000D01*
D30*
X66600000Y-106000000D02*
X66600000Y-106025000D01*
D31*
X133950000Y-127635000D02*
X131715000Y-127635000D01*
D30*
X80625000Y-31800000D02*
X81875000Y-31800000D01*
D32*
X106970000Y-66950000D02*
X104550000Y-64530000D01*
X104550000Y-64530000D02*
X104550000Y-64280000D01*
D30*
X74450000Y-31775000D02*
X74450000Y-29000000D01*
D31*
X197470000Y-113410000D02*
X196900000Y-113980000D01*
D30*
X78075000Y-24875000D02*
X77925000Y-24875000D01*
X174400000Y-37150000D02*
X174370000Y-37120000D01*
D31*
X196900000Y-120380000D02*
X194930000Y-122350000D01*
D32*
X106970000Y-50520000D02*
X107040000Y-50450000D01*
D30*
X74450000Y-24875000D02*
X74450000Y-29000000D01*
X78075000Y-28725000D02*
X78075000Y-30100000D01*
X78075000Y-30100000D02*
X79375000Y-30100000D01*
X79345000Y-30070000D02*
X79375000Y-30100000D01*
%TO.N,Net-(C4-Pad2)*%
X96760000Y-76900000D02*
X99470000Y-76900000D01*
X94300000Y-74440000D02*
X96760000Y-76900000D01*
%TO.N,Net-(SK2-Tape_In)*%
X114150000Y-41710000D02*
X114020000Y-41580000D01*
X92990000Y-54080000D02*
X92990000Y-46630000D01*
X92990000Y-46630000D02*
X93040000Y-46580000D01*
X114150000Y-46590000D02*
X114150000Y-41710000D01*
%TO.N,Net-(C6-Pad2)*%
X93000000Y-59090000D02*
X92990000Y-59080000D01*
X93000000Y-61700000D02*
X93000000Y-59090000D01*
%TO.N,Net-(SK2-Tape_Out)*%
X128480000Y-44000000D02*
X128480000Y-41440000D01*
X128480000Y-41440000D02*
X128540000Y-41380000D01*
X123970000Y-60080000D02*
X123080000Y-59190000D01*
X117490000Y-37900000D02*
X120970000Y-41380000D01*
X121330000Y-118710000D02*
X123970000Y-116070000D01*
X120970000Y-41380000D02*
X128540000Y-41380000D01*
X112850000Y-127650000D02*
X121330000Y-127650000D01*
X117490000Y-34420000D02*
X117490000Y-37900000D01*
X121330000Y-127650000D02*
X121330000Y-118710000D01*
X113440000Y-145650000D02*
X112850000Y-145060000D01*
X112850000Y-145060000D02*
X112850000Y-127650000D01*
X123970000Y-116070000D02*
X123970000Y-60080000D01*
%TO.N,~{RST}*%
X192390000Y-108550000D02*
X192390000Y-111210000D01*
X180950000Y-130280000D02*
X180950000Y-129000000D01*
X187040000Y-33930000D02*
X187070000Y-33960000D01*
X194170000Y-46640000D02*
X194170000Y-79447500D01*
X181011459Y-133211459D02*
X180950000Y-133150000D01*
X50875000Y-124230000D02*
X50875000Y-104065000D01*
X207630000Y-130440000D02*
X207630000Y-133170000D01*
X192390000Y-122730000D02*
X192390000Y-111210000D01*
X193680000Y-133170000D02*
X193670000Y-133180000D01*
X180950000Y-129000000D02*
X177150000Y-129000000D01*
X137160000Y-92650000D02*
X137160000Y-104590000D01*
X137130000Y-92620000D02*
X137160000Y-92650000D01*
X59870000Y-104060000D02*
X59880000Y-104070000D01*
X194626250Y-79903750D02*
X196120000Y-81397500D01*
X50875000Y-130905000D02*
X50875000Y-124230000D01*
X193670000Y-133180000D02*
X193670000Y-124010000D01*
X196120000Y-104820000D02*
X192390000Y-108550000D01*
X185700000Y-28830000D02*
X187040000Y-30170000D01*
X187040000Y-30170000D02*
X187040000Y-33930000D01*
X194480000Y-80050000D02*
X194626250Y-79903750D01*
X180950000Y-133150000D02*
X180950000Y-130280000D01*
X177150000Y-127655000D02*
X177130000Y-127635000D01*
X177150000Y-129000000D02*
X177150000Y-127655000D01*
X194170000Y-79447500D02*
X194626250Y-79903750D01*
X207630000Y-133170000D02*
X193680000Y-133170000D01*
X186188541Y-133211459D02*
X181011459Y-133211459D01*
X50880000Y-104060000D02*
X59870000Y-104060000D01*
X196120000Y-81397500D02*
X196120000Y-104820000D01*
X187030000Y-39500000D02*
X194170000Y-46640000D01*
X193670000Y-124010000D02*
X192390000Y-122730000D01*
X50875000Y-104065000D02*
X50880000Y-104060000D01*
%TO.N,Net-(IC3A-+)*%
X106970000Y-69490000D02*
X104680000Y-69490000D01*
X104680000Y-69490000D02*
X104550000Y-69360000D01*
X106970000Y-72030000D02*
X106970000Y-69490000D01*
%TO.N,Net-(C26-Pad2)*%
X62730000Y-117650000D02*
X62660000Y-117580000D01*
X62730000Y-120090000D02*
X62730000Y-117650000D01*
%TO.N,Net-(C26-Pad1)*%
X60200000Y-117620000D02*
X60200000Y-117580000D01*
X71670000Y-116160000D02*
X71620000Y-116210000D01*
X57730000Y-120090000D02*
X60200000Y-117620000D01*
X71670000Y-112480000D02*
X71670000Y-116160000D01*
%TO.N,Net-(IC2-+)*%
X108735000Y-84435000D02*
X108735000Y-86970000D01*
X108735000Y-86970000D02*
X108735000Y-89850000D01*
X108740000Y-86975000D02*
X108735000Y-86970000D01*
X111275000Y-89850000D02*
X111275000Y-86975000D01*
X111275000Y-86975000D02*
X108740000Y-86975000D01*
%TO.N,Net-(IC3A--)*%
X96930000Y-66820000D02*
X93040000Y-66820000D01*
X93040000Y-66820000D02*
X93000000Y-66860000D01*
X93000000Y-66860000D02*
X93000000Y-71860000D01*
%TO.N,Net-(RP3D-R4.1)*%
X104550000Y-66820000D02*
X102900000Y-68470000D01*
X102900000Y-73040000D02*
X106970000Y-77110000D01*
X102900000Y-68470000D02*
X102900000Y-73040000D01*
%TO.N,Net-(IC3B-+)*%
X105975000Y-73325000D02*
X108050000Y-73325000D01*
X112120000Y-74430000D02*
X114660000Y-75620000D01*
X104550000Y-71900000D02*
X105975000Y-73325000D01*
X110465000Y-72775000D02*
X112120000Y-74430000D01*
X108050000Y-73325000D02*
X108600000Y-72775000D01*
X108600000Y-72775000D02*
X110465000Y-72775000D01*
%TO.N,/CPU and ULA/A8*%
X216180000Y-33760000D02*
X224760000Y-42340000D01*
X233320000Y-77450000D02*
X233320000Y-80600000D01*
X216180000Y-31370000D02*
X216180000Y-33760000D01*
X233030000Y-120180000D02*
X233030000Y-126450000D01*
X232620000Y-65400000D02*
X232620000Y-76750000D01*
X234180000Y-81460000D02*
X234180000Y-119030000D01*
X232950000Y-77080000D02*
X233320000Y-77450000D01*
X232620000Y-76750000D02*
X232950000Y-77080000D01*
X233320000Y-80600000D02*
X234180000Y-81460000D01*
X224760000Y-42340000D02*
X224760000Y-57540000D01*
X224760000Y-57540000D02*
X232620000Y-65400000D01*
X234180000Y-119030000D02*
X233030000Y-120180000D01*
%TO.N,/CPU and ULA/D5*%
X83075000Y-153500000D02*
X68900000Y-153500000D01*
X221580000Y-120130000D02*
X221580000Y-127660000D01*
X218000000Y-45650000D02*
X206020000Y-33670000D01*
X222870000Y-118840000D02*
X221580000Y-120130000D01*
X68775000Y-138615000D02*
X69090000Y-138300000D01*
X221010000Y-63860000D02*
X218000000Y-60850000D01*
X89687500Y-105762500D02*
X83075000Y-112375000D01*
X221300000Y-154450000D02*
X221480000Y-154270000D01*
X68900000Y-153500000D02*
X68775000Y-153375000D01*
X221580000Y-127660000D02*
X222870000Y-128950000D01*
X221010000Y-106420000D02*
X221010000Y-63860000D01*
X222870000Y-111210000D02*
X222870000Y-118840000D01*
X206020000Y-33670000D02*
X206020000Y-31370000D01*
X222870000Y-128950000D02*
X222870000Y-130440000D01*
X221480000Y-154270000D02*
X221480000Y-141910000D01*
X218000000Y-60850000D02*
X218000000Y-45650000D01*
X222870000Y-111210000D02*
X222870000Y-108280000D01*
X221480000Y-141910000D02*
X222870000Y-140520000D01*
X89787500Y-105762500D02*
X89687500Y-105762500D01*
X68775000Y-153375000D02*
X68775000Y-138615000D01*
X222870000Y-108280000D02*
X221010000Y-106420000D01*
X83075000Y-112375000D02*
X83075000Y-153500000D01*
X222870000Y-140520000D02*
X222870000Y-130440000D01*
%TO.N,/CPU and ULA/D4*%
X80975000Y-154375000D02*
X66550000Y-154375000D01*
X220330000Y-130440000D02*
X220330000Y-128840000D01*
X91660000Y-94750000D02*
X91660000Y-105290000D01*
X85775000Y-127050000D02*
X85775000Y-154350000D01*
X81000000Y-154350000D02*
X80975000Y-154375000D01*
X219110000Y-145450000D02*
X219110000Y-154360000D01*
X206950000Y-66775000D02*
X206950000Y-35960000D01*
X216160000Y-101275000D02*
X216160000Y-104960000D01*
X219680000Y-141240000D02*
X219110000Y-141810000D01*
X94490000Y-83375000D02*
X94490000Y-94750000D01*
X220330000Y-130440000D02*
X220330000Y-140590000D01*
X206950000Y-35960000D02*
X204790000Y-33800000D01*
X216160000Y-75985000D02*
X206950000Y-66775000D01*
X83810000Y-125085000D02*
X85775000Y-127050000D01*
X220330000Y-118860000D02*
X220330000Y-111210000D01*
X204790000Y-33800000D02*
X204790000Y-30140000D01*
X66550000Y-154375000D02*
X66550000Y-138300000D01*
X219070000Y-120120000D02*
X220330000Y-118860000D01*
X220330000Y-128840000D02*
X219070000Y-127580000D01*
X219070000Y-127580000D02*
X219070000Y-120120000D01*
X219110000Y-154360000D02*
X219160000Y-154410000D01*
X220330000Y-140590000D02*
X219680000Y-141240000D01*
X204790000Y-30140000D02*
X203480000Y-28830000D01*
X91660000Y-105290000D02*
X83810000Y-113140000D01*
X216160000Y-101275000D02*
X216160000Y-75985000D01*
X220330000Y-109130000D02*
X220330000Y-111210000D01*
X219110000Y-141810000D02*
X219110000Y-145450000D01*
X94490000Y-94750000D02*
X91660000Y-94750000D01*
X85775000Y-154350000D02*
X81000000Y-154350000D01*
X216160000Y-104960000D02*
X220330000Y-109130000D01*
X83810000Y-113140000D02*
X83810000Y-125085000D01*
%TO.N,R{slash}~{W}*%
X236880000Y-126440000D02*
X236880000Y-119970000D01*
X236880000Y-119970000D02*
X237500000Y-119350000D01*
X200900000Y-103260000D02*
X200900000Y-79850000D01*
X238110000Y-130440000D02*
X238110000Y-129130000D01*
X200900000Y-79850000D02*
X197590000Y-76540000D01*
X190780000Y-34940000D02*
X190780000Y-31370000D01*
X197590000Y-76540000D02*
X197590000Y-41750000D01*
X207630000Y-113900000D02*
X207630000Y-111210000D01*
X238070000Y-118780000D02*
X238070000Y-114520000D01*
X236880000Y-127900000D02*
X236880000Y-126440000D01*
X207640000Y-113910000D02*
X207630000Y-113900000D01*
X237340000Y-128360000D02*
X236880000Y-127900000D01*
X238110000Y-129130000D02*
X237340000Y-128360000D01*
X203800000Y-106160000D02*
X200900000Y-103260000D01*
X207640000Y-114520000D02*
X207640000Y-113910000D01*
X197590000Y-41750000D02*
X190780000Y-34940000D01*
X237500000Y-119350000D02*
X238070000Y-118780000D01*
X203800000Y-114530000D02*
X203800000Y-106160000D01*
%TO.N,/CPU and ULA/A3*%
X211450000Y-118890000D02*
X211450000Y-109500000D01*
X208260000Y-90210000D02*
X208700000Y-89770000D01*
X220060000Y-121430000D02*
X220330000Y-121700000D01*
X205090000Y-129130000D02*
X205590000Y-128630000D01*
X205590000Y-128630000D02*
X206380000Y-127840000D01*
X208260000Y-106310000D02*
X208260000Y-90210000D01*
X210590000Y-121090000D02*
X210590000Y-119750000D01*
X211450000Y-109500000D02*
X208260000Y-106310000D01*
X206380000Y-127840000D02*
X206380000Y-126280000D01*
X208450000Y-80550000D02*
X200950000Y-73050000D01*
X200950000Y-73050000D02*
X200950000Y-39000000D01*
X206380000Y-126280000D02*
X206380000Y-121430000D01*
X200950000Y-39000000D02*
X195800000Y-33850000D01*
X208450000Y-84670000D02*
X208450000Y-80550000D01*
X195800000Y-33850000D02*
X195800000Y-31440000D01*
X206380000Y-121430000D02*
X206370000Y-121420000D01*
X210590000Y-119750000D02*
X211450000Y-118890000D01*
X210260000Y-121420000D02*
X210590000Y-121090000D01*
X205090000Y-130440000D02*
X205090000Y-129130000D01*
X220330000Y-121700000D02*
X220330000Y-126450000D01*
X208700000Y-89770000D02*
X208700000Y-84920000D01*
X208700000Y-84920000D02*
X208450000Y-84670000D01*
%TO.N,\u00D82*%
X229190000Y-120160000D02*
X229190000Y-127790000D01*
X194930000Y-117400000D02*
X194930000Y-111210000D01*
X185700000Y-31370000D02*
X185700000Y-34960000D01*
X230230000Y-117520000D02*
X230230000Y-119120000D01*
X230530000Y-129130000D02*
X230530000Y-130220000D01*
X198130000Y-81880000D02*
X198130000Y-105670000D01*
X185700000Y-34960000D02*
X195080000Y-44340000D01*
X229190000Y-127790000D02*
X230530000Y-129130000D01*
X195080000Y-44340000D02*
X195080000Y-78830000D01*
X230230000Y-119120000D02*
X229190000Y-120160000D01*
X195080000Y-78830000D02*
X198130000Y-81880000D01*
X198130000Y-105670000D02*
X194930000Y-108870000D01*
X194930000Y-108870000D02*
X194930000Y-111210000D01*
X194740000Y-117590000D02*
X194930000Y-117400000D01*
%TO.N,/CPU and ULA/A0*%
X210420000Y-92300000D02*
X210420000Y-78870000D01*
X210060000Y-105680000D02*
X210060000Y-98960000D01*
X210810000Y-98210000D02*
X210810000Y-96910000D01*
X213380000Y-128360000D02*
X213960000Y-128940000D01*
X210060000Y-98960000D02*
X210810000Y-98210000D01*
X212710000Y-127690000D02*
X213380000Y-128360000D01*
X210420000Y-78870000D02*
X202720000Y-71170000D01*
X213960000Y-130700000D02*
X213960000Y-134060000D01*
X213990000Y-118870000D02*
X213990000Y-109610000D01*
X212710000Y-126450000D02*
X212710000Y-127690000D01*
X198350000Y-33780000D02*
X198350000Y-31400000D01*
X213990000Y-109610000D02*
X210060000Y-105680000D01*
X202720000Y-71170000D02*
X202720000Y-38150000D01*
X210120000Y-92600000D02*
X210420000Y-92300000D01*
X213960000Y-134060000D02*
X214030000Y-134130000D01*
X202720000Y-38150000D02*
X198350000Y-33780000D01*
X210810000Y-96910000D02*
X210120000Y-96220000D01*
X212710000Y-120150000D02*
X213990000Y-118870000D01*
X210120000Y-96220000D02*
X210120000Y-92600000D01*
X213960000Y-128940000D02*
X213960000Y-130700000D01*
X212710000Y-126450000D02*
X212710000Y-120150000D01*
%TO.N,/CPU and ULA/D3*%
X213640000Y-88715000D02*
X214310000Y-89385000D01*
X98870000Y-84675000D02*
X98870000Y-89900000D01*
X216540000Y-145400000D02*
X216540000Y-154360000D01*
X213640000Y-76940000D02*
X213640000Y-88715000D01*
X98330000Y-106230000D02*
X97040000Y-107520000D01*
X216540000Y-154360000D02*
X216590000Y-154410000D01*
X202190000Y-33820000D02*
X205200000Y-36830000D01*
X217790000Y-118810000D02*
X217790000Y-111210000D01*
X97030000Y-91740000D02*
X97030000Y-100260000D01*
X216560000Y-127630000D02*
X216560000Y-120040000D01*
X216540000Y-141730000D02*
X216540000Y-145400000D01*
X93300000Y-118540000D02*
X93300000Y-121090000D01*
X97030000Y-100260000D02*
X98330000Y-101560000D01*
X97040000Y-110260000D02*
X95810000Y-111490000D01*
X202190000Y-30080000D02*
X202190000Y-33820000D01*
X98330000Y-101560000D02*
X98330000Y-106230000D01*
X217790000Y-130440000D02*
X217790000Y-140480000D01*
X214310000Y-102160000D02*
X214020000Y-102450000D01*
X217070000Y-141200000D02*
X216540000Y-141730000D01*
X93300000Y-132225000D02*
X93300000Y-121110000D01*
X216560000Y-120040000D02*
X217790000Y-118810000D01*
X95810000Y-111490000D02*
X95810000Y-116030000D01*
X93250000Y-153700000D02*
X93250000Y-132275000D01*
X95810000Y-116030000D02*
X93300000Y-118540000D01*
X97040000Y-107520000D02*
X97040000Y-110260000D01*
X200940000Y-28830000D02*
X202190000Y-30080000D01*
X214310000Y-89385000D02*
X214310000Y-102160000D01*
X217790000Y-130440000D02*
X217790000Y-128860000D01*
X217790000Y-111210000D02*
X217790000Y-109540000D01*
X217790000Y-140480000D02*
X217070000Y-141200000D01*
X93250000Y-132275000D02*
X93300000Y-132225000D01*
X93300000Y-121090000D02*
X93290000Y-121100000D01*
X217790000Y-128860000D02*
X216560000Y-127630000D01*
X205200000Y-36830000D02*
X205200000Y-68500000D01*
X205200000Y-68500000D02*
X213640000Y-76940000D01*
X217790000Y-109540000D02*
X214020000Y-105770000D01*
X98870000Y-89900000D02*
X97030000Y-91740000D01*
X214020000Y-105770000D02*
X214020000Y-102450000D01*
%TO.N,/CPU and ULA/D2*%
X108410000Y-106220000D02*
X108410000Y-130170000D01*
X211470000Y-100170000D02*
X211470000Y-105795000D01*
X214070000Y-120060000D02*
X215250000Y-118880000D01*
X213990000Y-141860000D02*
X213990000Y-145420000D01*
X211150000Y-99850000D02*
X211470000Y-100170000D01*
X114860000Y-84800000D02*
X114690000Y-84970000D01*
X114690000Y-84970000D02*
X114690000Y-99940000D01*
X215250000Y-128930000D02*
X214070000Y-127750000D01*
X215250000Y-130440000D02*
X215250000Y-128930000D01*
X213990000Y-145420000D02*
X213990000Y-154320000D01*
X215250000Y-140600000D02*
X214810000Y-141040000D01*
X193320000Y-31370000D02*
X193320000Y-33890000D01*
X114690000Y-99940000D02*
X108410000Y-106220000D01*
X107700000Y-154500000D02*
X107700000Y-130680000D01*
X199310000Y-39880000D02*
X199310000Y-74760000D01*
X193320000Y-33890000D02*
X199310000Y-39880000D01*
X215250000Y-130440000D02*
X215250000Y-140600000D01*
X199310000Y-74760000D02*
X205600000Y-81050000D01*
X107700000Y-130680000D02*
X108920000Y-130680000D01*
X214810000Y-141040000D02*
X213990000Y-141860000D01*
X215250000Y-109575000D02*
X215250000Y-111210000D01*
X215250000Y-118880000D02*
X215250000Y-111210000D01*
X211470000Y-105795000D02*
X215250000Y-109575000D01*
X205600000Y-99820000D02*
X205530000Y-99890000D01*
X108410000Y-130170000D02*
X108920000Y-130680000D01*
X205600000Y-81050000D02*
X205600000Y-99820000D01*
X214070000Y-127750000D02*
X214070000Y-120060000D01*
X213990000Y-154320000D02*
X214020000Y-154350000D01*
%TO.N,/CPU and ULA/D0*%
X103840000Y-138300000D02*
X103840000Y-135175000D01*
X210170000Y-118830000D02*
X210170000Y-111210000D01*
X208930000Y-153330000D02*
X208990000Y-153390000D01*
X194550000Y-30210000D02*
X193280000Y-28940000D01*
X127675000Y-138300000D02*
X127675000Y-135200000D01*
X208930000Y-141720000D02*
X208930000Y-145700000D01*
X207120000Y-94955000D02*
X207120000Y-106560000D01*
X208960000Y-120040000D02*
X210170000Y-118830000D01*
X207120000Y-106560000D02*
X210170000Y-109610000D01*
X200150000Y-73950000D02*
X200150000Y-39470000D01*
X200150000Y-39470000D02*
X194550000Y-33870000D01*
X207130000Y-80930000D02*
X200150000Y-73950000D01*
X128950000Y-121075000D02*
X128950000Y-91270000D01*
X208960000Y-127620000D02*
X208960000Y-120040000D01*
X210170000Y-128830000D02*
X208960000Y-127620000D01*
X127675000Y-122350000D02*
X128950000Y-121075000D01*
X194550000Y-33870000D02*
X194550000Y-30210000D01*
X207130000Y-94905000D02*
X207130000Y-80930000D01*
X209420000Y-141230000D02*
X208930000Y-141720000D01*
X210170000Y-130440000D02*
X210170000Y-128830000D01*
X128825000Y-154300000D02*
X128825000Y-151875000D01*
X210210000Y-130220000D02*
X210210000Y-140440000D01*
X128950000Y-91270000D02*
X128500000Y-90820000D01*
X128825000Y-151875000D02*
X125325000Y-148375000D01*
X207150000Y-94925000D02*
X207130000Y-94905000D01*
X207150000Y-94925000D02*
X207120000Y-94955000D01*
X208930000Y-145700000D02*
X208930000Y-153330000D01*
X210210000Y-140440000D02*
X209420000Y-141230000D01*
X125325000Y-148375000D02*
X125325000Y-140650000D01*
X210170000Y-109610000D02*
X210170000Y-111210000D01*
X125325000Y-140650000D02*
X127675000Y-138300000D01*
X127675000Y-135200000D02*
X127675000Y-122350000D01*
%TO.N,/CPU and ULA/D7*%
X220610000Y-48750000D02*
X220610000Y-44460000D01*
X209860000Y-30140000D02*
X208640000Y-28920000D01*
X124870000Y-65490000D02*
X124880000Y-65480000D01*
X227850000Y-93500000D02*
X227950000Y-93600000D01*
X227340000Y-83810000D02*
X226820000Y-83290000D01*
X182350000Y-96300000D02*
X182250000Y-96200000D01*
X124870000Y-90960000D02*
X124870000Y-65490000D01*
X225100000Y-64080000D02*
X220610000Y-59590000D01*
X209860000Y-31680000D02*
X209860000Y-30140000D01*
X227990000Y-130220000D02*
X227990000Y-129120000D01*
X227850000Y-84320000D02*
X227340000Y-83810000D01*
X226820000Y-65800000D02*
X225100000Y-64080000D01*
X209860000Y-33710000D02*
X209860000Y-31680000D01*
X227990000Y-129120000D02*
X226650000Y-127780000D01*
X65300000Y-105810000D02*
X65300000Y-130680000D01*
X182350000Y-109125000D02*
X182350000Y-96300000D01*
X218720000Y-42570000D02*
X209860000Y-33710000D01*
X227950000Y-93600000D02*
X227950000Y-111210000D01*
X68167500Y-102942500D02*
X65300000Y-105810000D01*
X65300000Y-130680000D02*
X66550000Y-130680000D01*
X227850000Y-93500000D02*
X227850000Y-84320000D01*
X220610000Y-44460000D02*
X218720000Y-42570000D01*
X124870000Y-101770000D02*
X125490000Y-102390000D01*
X220610000Y-59590000D02*
X220610000Y-48750000D01*
X226650000Y-127780000D02*
X226650000Y-120160000D01*
X124870000Y-90960000D02*
X124870000Y-101770000D01*
X226820000Y-83290000D02*
X226820000Y-75400000D01*
X226820000Y-75400000D02*
X226820000Y-65800000D01*
X226650000Y-120160000D02*
X227950000Y-118860000D01*
X227950000Y-118860000D02*
X227950000Y-111210000D01*
%TO.N,/CPU and ULA/A9*%
X218720000Y-33740000D02*
X226440000Y-41460000D01*
X235010000Y-65260000D02*
X235010000Y-79300000D01*
X226440000Y-41460000D02*
X226440000Y-56690000D01*
X235010000Y-79300000D02*
X235360000Y-79650000D01*
X226440000Y-56690000D02*
X235010000Y-65260000D01*
X218720000Y-31370000D02*
X218720000Y-33740000D01*
X235570000Y-120100000D02*
X235570000Y-126450000D01*
X235760000Y-80050000D02*
X235760000Y-107760000D01*
X235760000Y-107760000D02*
X236960000Y-108960000D01*
X236960000Y-108960000D02*
X236960000Y-118710000D01*
X236960000Y-118710000D02*
X235570000Y-120100000D01*
X235360000Y-79650000D02*
X235760000Y-80050000D01*
%TO.N,/CPU and ULA/A7*%
X230590000Y-74550000D02*
X230830000Y-74790000D01*
X213640000Y-33850000D02*
X213640000Y-31370000D01*
X230830000Y-80550000D02*
X231710000Y-81430000D01*
X230590000Y-74550000D02*
X230590000Y-65900000D01*
X230490000Y-120180000D02*
X230490000Y-126450000D01*
X231710000Y-81430000D02*
X231710000Y-118960000D01*
X231710000Y-118960000D02*
X230490000Y-120180000D01*
X230590000Y-65900000D02*
X223080000Y-58390000D01*
X223080000Y-58390000D02*
X223080000Y-43290000D01*
X223080000Y-43290000D02*
X213640000Y-33850000D01*
X230830000Y-74790000D02*
X230830000Y-80550000D01*
%TO.N,/CPU and ULA/A11*%
X241950000Y-118890000D02*
X240650000Y-120190000D01*
X239830000Y-104890000D02*
X239830000Y-107930000D01*
X240900000Y-82140000D02*
X240900000Y-103820000D01*
X240900000Y-103820000D02*
X239830000Y-104890000D01*
X221260000Y-28830000D02*
X222550000Y-30120000D01*
X236970000Y-62570000D02*
X240900000Y-66500000D01*
X228950000Y-47810000D02*
X236970000Y-55830000D01*
X240870000Y-82170000D02*
X240900000Y-82140000D01*
X239830000Y-107930000D02*
X241950000Y-110050000D01*
X241950000Y-110050000D02*
X241950000Y-118890000D01*
X222550000Y-33690000D02*
X228950000Y-40090000D01*
X240650000Y-120190000D02*
X240650000Y-126450000D01*
X240900000Y-66500000D02*
X240900000Y-82140000D01*
X236970000Y-55830000D02*
X236970000Y-62570000D01*
X228950000Y-40090000D02*
X228950000Y-47810000D01*
X222550000Y-30120000D02*
X222550000Y-33690000D01*
X239200000Y-82170000D02*
X240870000Y-82170000D01*
%TO.N,/CPU and ULA/A12*%
X220000000Y-30110000D02*
X218720000Y-28830000D01*
X238110000Y-108910000D02*
X238110000Y-111210000D01*
X227310000Y-41100000D02*
X220000000Y-33790000D01*
X236460000Y-72040000D02*
X236460000Y-65280000D01*
X227310000Y-56130000D02*
X227310000Y-41100000D01*
X236710000Y-107510000D02*
X238110000Y-108910000D01*
X220000000Y-33790000D02*
X220000000Y-30110000D01*
X236710000Y-72290000D02*
X236710000Y-107510000D01*
X236460000Y-72040000D02*
X236710000Y-72290000D01*
X236460000Y-65280000D02*
X227310000Y-56130000D01*
%TO.N,/CPU and ULA/A6*%
X224890000Y-62760000D02*
X221490000Y-59360000D01*
X216670000Y-39290000D02*
X211090000Y-33710000D01*
X211090000Y-33710000D02*
X211090000Y-31460000D01*
X229220000Y-111150000D02*
X229220000Y-83240000D01*
X228030000Y-65900000D02*
X224890000Y-62760000D01*
X221490000Y-44110000D02*
X216670000Y-39290000D01*
X221490000Y-59360000D02*
X221490000Y-56960000D01*
X228660000Y-119420000D02*
X229220000Y-118860000D01*
X221490000Y-56960000D02*
X221490000Y-44110000D01*
X228030000Y-82050000D02*
X228030000Y-77100000D01*
X227950000Y-120130000D02*
X228660000Y-119420000D01*
X229220000Y-118860000D02*
X229220000Y-111150000D01*
X229220000Y-83240000D02*
X228480000Y-82500000D01*
X228480000Y-82500000D02*
X228030000Y-82050000D01*
X227950000Y-126450000D02*
X227950000Y-120130000D01*
X228030000Y-77100000D02*
X228030000Y-65900000D01*
%TO.N,/CPU and ULA/A14*%
X214950000Y-33780000D02*
X214950000Y-30140000D01*
X231830000Y-65770000D02*
X223930000Y-57870000D01*
X233030000Y-111210000D02*
X233030000Y-81550000D01*
X223930000Y-42760000D02*
X214950000Y-33780000D01*
X233030000Y-81550000D02*
X231830000Y-80350000D01*
X231830000Y-80350000D02*
X231830000Y-65770000D01*
X214950000Y-30140000D02*
X213640000Y-28830000D01*
X223930000Y-57870000D02*
X223930000Y-42760000D01*
%TO.N,/CPU and ULA/A10*%
X239370000Y-118850000D02*
X238110000Y-120110000D01*
X236050000Y-63115261D02*
X236050000Y-60290000D01*
X236050000Y-60290000D02*
X228130000Y-52370000D01*
X238110000Y-120110000D02*
X238110000Y-126450000D01*
X237580000Y-64645261D02*
X236050000Y-63115261D01*
X239370000Y-108870000D02*
X239370000Y-118850000D01*
X239200000Y-87250000D02*
X237580000Y-87250000D01*
X221260000Y-33710000D02*
X221260000Y-31370000D01*
X237580000Y-87250000D02*
X237580000Y-64645261D01*
X228130000Y-40580000D02*
X221260000Y-33710000D01*
X228130000Y-52370000D02*
X228130000Y-40580000D01*
X237580000Y-107080000D02*
X239370000Y-108870000D01*
X237580000Y-87250000D02*
X237580000Y-107080000D01*
%TO.N,/CPU and ULA/A1*%
X213490000Y-90390000D02*
X213490000Y-100930000D01*
X212780000Y-89680000D02*
X212780000Y-77880000D01*
X216520000Y-118810000D02*
X215250000Y-120080000D01*
X212740000Y-105765000D02*
X216520000Y-109545000D01*
X212850000Y-89750000D02*
X213490000Y-90390000D01*
X212850000Y-89750000D02*
X212780000Y-89680000D01*
X215840000Y-128290000D02*
X216500000Y-128950000D01*
X212780000Y-77880000D02*
X204370000Y-69470000D01*
X215250000Y-126450000D02*
X215250000Y-127700000D01*
X216520000Y-109545000D02*
X216520000Y-118810000D01*
X204370000Y-69470000D02*
X204370000Y-37280000D01*
X215250000Y-120080000D02*
X215250000Y-126450000D01*
X216500000Y-128950000D02*
X216500000Y-133180000D01*
X200940000Y-33850000D02*
X200940000Y-31370000D01*
X213490000Y-100930000D02*
X212740000Y-101680000D01*
X204370000Y-37280000D02*
X200940000Y-33850000D01*
X212740000Y-101680000D02*
X212740000Y-105765000D01*
X215250000Y-127700000D02*
X215840000Y-128290000D01*
%TO.N,/CPU and ULA/A15*%
X212390000Y-33810000D02*
X222220000Y-43640000D01*
X222220000Y-43640000D02*
X222220000Y-58800000D01*
X230430000Y-84980000D02*
X230490000Y-85040000D01*
X229320000Y-65900000D02*
X229320000Y-80420000D01*
X230430000Y-81530000D02*
X230430000Y-84980000D01*
X229320000Y-80420000D02*
X230430000Y-81530000D01*
X222220000Y-58800000D02*
X229320000Y-65900000D01*
X230490000Y-85040000D02*
X230490000Y-111210000D01*
X212390000Y-30120000D02*
X212390000Y-33810000D01*
X211100000Y-28830000D02*
X212390000Y-30120000D01*
%TO.N,Net-(IC5-~{NMI})*%
X219812500Y-64249753D02*
X219812500Y-106762500D01*
X205090000Y-122190000D02*
X205090000Y-126450000D01*
X209130000Y-115930000D02*
X209130000Y-113420000D01*
X219812500Y-106762500D02*
X221650000Y-108600000D01*
X205090000Y-119970000D02*
X208620000Y-116440000D01*
X221650000Y-108600000D02*
X221650000Y-113400000D01*
X219813956Y-64248297D02*
X219812500Y-64249753D01*
X208620000Y-116440000D02*
X209130000Y-115930000D01*
X205090000Y-122190000D02*
X205090000Y-119970000D01*
%TO.N,Net-(IC5-\u00D80)*%
X136840000Y-75100000D02*
X136830000Y-75090000D01*
X183430000Y-89780000D02*
X183330000Y-89680000D01*
X183430000Y-109975000D02*
X183430000Y-89780000D01*
X136840000Y-90950000D02*
X136840000Y-75100000D01*
%TO.N,/CPU and ULA/A4*%
X218930000Y-59600000D02*
X218930000Y-45380000D01*
X222870000Y-120070000D02*
X224140000Y-118800000D01*
X222220000Y-82170000D02*
X222200000Y-82150000D01*
X222200000Y-82150000D02*
X222200000Y-63780000D01*
X222200000Y-106330000D02*
X222200000Y-82150000D01*
X222870000Y-126450000D02*
X222870000Y-120070000D01*
X207310000Y-33760000D02*
X207310000Y-32320000D01*
X218930000Y-60510000D02*
X218930000Y-59600000D01*
X207310000Y-32320000D02*
X207310000Y-30290000D01*
X218930000Y-45380000D02*
X216980000Y-43430000D01*
X207310000Y-30290000D02*
X206040000Y-29020000D01*
X224140000Y-118800000D02*
X224140000Y-108270000D01*
X216980000Y-43430000D02*
X207310000Y-33760000D01*
X223960000Y-82170000D02*
X222220000Y-82170000D01*
X224140000Y-108270000D02*
X222200000Y-106330000D01*
X220190000Y-61770000D02*
X218930000Y-60510000D01*
X222200000Y-63780000D02*
X220190000Y-61770000D01*
%TO.N,~{IRQ}*%
X192070000Y-33950000D02*
X192070000Y-30280000D01*
X206360000Y-110430000D02*
X206990000Y-109800000D01*
X200010000Y-121300000D02*
X206360000Y-114950000D01*
X198460000Y-40340000D02*
X192070000Y-33950000D01*
X204190000Y-81490000D02*
X198460000Y-75760000D01*
X206360000Y-114950000D02*
X206360000Y-110430000D01*
X192070000Y-30280000D02*
X190750000Y-28960000D01*
X200010000Y-126450000D02*
X200010000Y-121300000D01*
X206990000Y-108070000D02*
X204190000Y-105270000D01*
X204190000Y-105270000D02*
X204190000Y-81490000D01*
X206990000Y-109800000D02*
X206990000Y-108070000D01*
X198460000Y-75760000D02*
X198460000Y-40340000D01*
%TO.N,/CPU and ULA/D1*%
X209560000Y-90210000D02*
X209160000Y-90610000D01*
X201770000Y-38550000D02*
X201770000Y-71995000D01*
X211980000Y-141280000D02*
X211440000Y-141820000D01*
X212710000Y-128960000D02*
X211490000Y-127740000D01*
X106380000Y-146660000D02*
X106380000Y-138300000D01*
X115350000Y-125850000D02*
X116390000Y-125850000D01*
X195830000Y-28960000D02*
X197110000Y-30240000D01*
X211490000Y-127740000D02*
X211490000Y-120170000D01*
X211440000Y-145340000D02*
X211440000Y-153460000D01*
X121490000Y-68400000D02*
X121860000Y-68030000D01*
X201770000Y-71995000D02*
X209560000Y-79785000D01*
X209160000Y-97425000D02*
X209160000Y-101165000D01*
X212710000Y-118950000D02*
X212710000Y-111210000D01*
X197110000Y-30240000D02*
X197110000Y-33890000D01*
X211440000Y-141820000D02*
X211440000Y-145340000D01*
X120240000Y-108020000D02*
X120240000Y-73540000D01*
X212710000Y-130440000D02*
X212710000Y-128960000D01*
X106400000Y-132600000D02*
X106380000Y-132620000D01*
X120240000Y-73540000D02*
X121490000Y-72290000D01*
X116390000Y-125850000D02*
X116390000Y-118440000D01*
X118880000Y-109380000D02*
X120240000Y-108020000D01*
X211490000Y-120170000D02*
X212710000Y-118950000D01*
X209160000Y-90610000D02*
X209160000Y-97425000D01*
X209160000Y-101165000D02*
X209150000Y-101175000D01*
X197110000Y-33890000D02*
X201770000Y-38550000D01*
X209560000Y-79785000D02*
X209560000Y-90210000D01*
X212710000Y-140550000D02*
X211980000Y-141280000D01*
X121490000Y-72290000D02*
X121490000Y-68400000D01*
X118880000Y-115950000D02*
X118880000Y-109380000D01*
X212710000Y-130440000D02*
X212710000Y-140550000D01*
X211440000Y-153460000D02*
X211590000Y-153610000D01*
X116390000Y-118440000D02*
X118880000Y-115950000D01*
X209150000Y-101175000D02*
X209170000Y-101195000D01*
X212710000Y-109530000D02*
X212710000Y-111210000D01*
X106375000Y-153625000D02*
X106375000Y-146665000D01*
X209170000Y-105990000D02*
X212710000Y-109530000D01*
X209170000Y-101195000D02*
X209170000Y-105990000D01*
X106375000Y-146665000D02*
X106380000Y-146660000D01*
X106380000Y-132620000D02*
X106380000Y-138300000D01*
%TO.N,/CPU and ULA/A2*%
X206070000Y-67645000D02*
X206070000Y-36460000D01*
X219060000Y-131910000D02*
X219060000Y-128870000D01*
X215200000Y-87275000D02*
X215200000Y-105625000D01*
X217790000Y-120130000D02*
X217790000Y-126450000D01*
X217790000Y-127600000D02*
X217790000Y-126450000D01*
X219060000Y-128870000D02*
X217790000Y-127600000D01*
X215200000Y-87275000D02*
X215200000Y-76775000D01*
X203400000Y-33790000D02*
X203400000Y-31430000D01*
X219060000Y-111320000D02*
X219060000Y-118860000D01*
X219060000Y-118860000D02*
X217790000Y-120130000D01*
X215200000Y-76775000D02*
X206070000Y-67645000D01*
X206070000Y-36460000D02*
X203400000Y-33790000D01*
X215200000Y-105625000D02*
X219060000Y-109485000D01*
X219060000Y-109485000D02*
X219060000Y-111320000D01*
%TO.N,/CPU and ULA/D6*%
X72960000Y-118730000D02*
X72960000Y-121612894D01*
X203600000Y-70400000D02*
X203600000Y-37830000D01*
X224180000Y-127860000D02*
X224180000Y-120050000D01*
X225700000Y-96540000D02*
X225700000Y-97120000D01*
X71630000Y-134355000D02*
X71630000Y-130680000D01*
X224020000Y-141790000D02*
X225410000Y-140400000D01*
X75500000Y-116190000D02*
X72960000Y-118730000D01*
X225410000Y-129090000D02*
X224180000Y-127860000D01*
X65400000Y-154125000D02*
X65400000Y-134400000D01*
X211580000Y-95950000D02*
X211580000Y-78380000D01*
X225300000Y-96140000D02*
X225700000Y-96540000D01*
X71625000Y-122947894D02*
X71625000Y-130675000D01*
X211580000Y-78380000D02*
X203600000Y-70400000D01*
X225700000Y-97120000D02*
X225720000Y-97140000D01*
X72960000Y-121612894D02*
X71625000Y-122947894D01*
X77650000Y-108450000D02*
X75500000Y-110600000D01*
X199640000Y-33870000D02*
X199640000Y-30220000D01*
X225720000Y-97140000D02*
X225720000Y-110900000D01*
X224020000Y-154210000D02*
X224020000Y-141790000D01*
X224180000Y-120050000D02*
X225410000Y-118820000D01*
X225410000Y-118820000D02*
X225410000Y-111210000D01*
X75500000Y-110600000D02*
X75500000Y-116190000D01*
X225410000Y-130440000D02*
X225410000Y-129090000D01*
X71585000Y-134400000D02*
X71630000Y-134355000D01*
X225410000Y-140400000D02*
X225410000Y-130440000D01*
X225720000Y-110900000D02*
X225410000Y-111210000D01*
X203600000Y-37830000D02*
X199640000Y-33870000D01*
X65400000Y-134400000D02*
X71585000Y-134400000D01*
X199640000Y-30220000D02*
X198310000Y-28890000D01*
X223760000Y-154470000D02*
X224020000Y-154210000D01*
X71625000Y-130675000D02*
X71630000Y-130680000D01*
X211677500Y-96047500D02*
X211580000Y-95950000D01*
%TO.N,/CPU and ULA/A13*%
X214325000Y-26975000D02*
X216180000Y-28830000D01*
X234040000Y-79980000D02*
X234910000Y-80850000D01*
X216180000Y-28830000D02*
X217470000Y-30120000D01*
X225620000Y-41880000D02*
X225620000Y-57180000D01*
X234040000Y-65600000D02*
X234040000Y-74600000D01*
X234040000Y-74600000D02*
X234040000Y-79980000D01*
X201950000Y-26975000D02*
X214325000Y-26975000D01*
X181625000Y-42000000D02*
X181625000Y-43725000D01*
X217470000Y-30120000D02*
X217470000Y-33730000D01*
X234910000Y-80850000D02*
X234910000Y-110550000D01*
X181625000Y-43725000D02*
X181600000Y-43750000D01*
X234910000Y-110550000D02*
X235570000Y-111210000D01*
X178290000Y-26975000D02*
X178290000Y-38665000D01*
X217470000Y-33730000D02*
X225620000Y-41880000D01*
X178290000Y-38665000D02*
X181625000Y-42000000D01*
X225620000Y-57180000D02*
X234040000Y-65600000D01*
%TO.N,/CPU and ULA/A5*%
X225470000Y-79630000D02*
X223960000Y-79630000D01*
X226610000Y-84620000D02*
X225470000Y-83480000D01*
X225470000Y-79630000D02*
X225470000Y-65750000D01*
X209960000Y-35170000D02*
X219770000Y-44980000D01*
X208560000Y-31370000D02*
X208560000Y-33770000D01*
X221990000Y-62270000D02*
X225435000Y-65715000D01*
X208560000Y-33770000D02*
X209960000Y-35170000D01*
X225470000Y-83480000D02*
X225470000Y-79630000D01*
X219770000Y-60050000D02*
X221990000Y-62270000D01*
X219770000Y-47720000D02*
X219770000Y-60050000D01*
X225470000Y-65750000D02*
X225435000Y-65715000D01*
X225410000Y-120050000D02*
X226610000Y-118850000D01*
X226610000Y-118850000D02*
X226610000Y-84620000D01*
X225410000Y-126450000D02*
X225410000Y-120050000D01*
X219770000Y-44980000D02*
X219770000Y-47720000D01*
%TO.N,/CPU and ULA/MA6*%
X99650000Y-110070000D02*
X99650000Y-112480000D01*
X101650579Y-108860579D02*
X100859421Y-108860579D01*
X100859421Y-108860579D02*
X99650000Y-110070000D01*
%TO.N,Net-(IC7-CAS)*%
X79290000Y-110085000D02*
X85675000Y-103700000D01*
X85675000Y-95165000D02*
X85160000Y-94650000D01*
X79290000Y-112480000D02*
X79290000Y-110085000D01*
X85675000Y-103700000D02*
X85675000Y-95165000D01*
%TO.N,/CPU and ULA/MA5*%
X122720000Y-104940000D02*
X122630000Y-104850000D01*
X122720000Y-112400000D02*
X122720000Y-104940000D01*
%TO.N,Net-(IC7-RAS)*%
X83260000Y-100740000D02*
X74210000Y-109790000D01*
X83270000Y-93640000D02*
X83260000Y-93650000D01*
X83260000Y-93650000D02*
X83260000Y-100740000D01*
X74210000Y-109790000D02*
X74210000Y-112480000D01*
%TO.N,/CPU and ULA/MA2*%
X102980000Y-103830000D02*
X98470000Y-108340000D01*
X97110000Y-117470000D02*
X97110000Y-120100000D01*
X98470000Y-116110000D02*
X97110000Y-117470000D01*
X102980000Y-103760000D02*
X102980000Y-103830000D01*
X98470000Y-108340000D02*
X98470000Y-116110000D01*
%TO.N,MUX*%
X110020000Y-120020000D02*
X109970000Y-119970000D01*
X111170000Y-114960000D02*
X109970000Y-116160000D01*
X86950000Y-116342893D02*
X86950000Y-120100000D01*
X86740000Y-116250000D02*
X86857107Y-116250000D01*
X109970000Y-119970000D02*
X109970000Y-116160000D01*
X86857107Y-116250000D02*
X86950000Y-116342893D01*
X110860000Y-108750000D02*
X111170000Y-109060000D01*
X111170000Y-109060000D02*
X111170000Y-114960000D01*
%TO.N,/CPU and ULA/MA3*%
X93675000Y-107100000D02*
X90790000Y-109985000D01*
X90790000Y-109985000D02*
X90790000Y-118800000D01*
X90790000Y-118800000D02*
X89490000Y-120100000D01*
X93850000Y-107100000D02*
X93675000Y-107100000D01*
%TO.N,/CPU and ULA/MA4*%
X115000000Y-112300000D02*
X115100000Y-112400000D01*
X115000000Y-103600000D02*
X115000000Y-112300000D01*
%TO.N,~{MAP}*%
X181990000Y-33960000D02*
X181990000Y-32540000D01*
X118620000Y-71820000D02*
X118600000Y-71800000D01*
X120720000Y-71540000D02*
X120440000Y-71820000D01*
X120440000Y-71820000D02*
X118620000Y-71820000D01*
X181990000Y-32540000D02*
X183160000Y-31370000D01*
X120720000Y-59120000D02*
X120720000Y-71540000D01*
%TO.N,SYNC*%
X109930000Y-61650000D02*
X109930000Y-66955000D01*
X113595000Y-70620000D02*
X116770000Y-70620000D01*
X100680000Y-52250000D02*
X102010000Y-53580000D01*
X102010000Y-53580000D02*
X102010000Y-57840000D01*
X109930000Y-66955000D02*
X113595000Y-70620000D01*
X99420000Y-44890000D02*
X100680000Y-46150000D01*
X86750000Y-30950000D02*
X76805000Y-30950000D01*
X76805000Y-30950000D02*
X76805000Y-26850000D01*
X99420000Y-42830000D02*
X99420000Y-44890000D01*
X100680000Y-46150000D02*
X100680000Y-52250000D01*
X106120000Y-57840000D02*
X109930000Y-61650000D01*
X102010000Y-57840000D02*
X106120000Y-57840000D01*
%TO.N,/CPU and ULA/MA0*%
X120600000Y-117290000D02*
X121460000Y-116430000D01*
X120180000Y-120020000D02*
X120180000Y-117710000D01*
X120180000Y-117710000D02*
X120600000Y-117290000D01*
X121460000Y-116430000D02*
X121460000Y-112290000D01*
X121460000Y-112290000D02*
X121460000Y-102420000D01*
X121460000Y-102420000D02*
X121600000Y-102280000D01*
%TO.N,ROMSEL*%
X141475000Y-100250000D02*
X137980000Y-96755000D01*
X137980000Y-63270000D02*
X137730000Y-63020000D01*
X154240000Y-114560000D02*
X154240000Y-120200000D01*
X141425000Y-119575000D02*
X141475000Y-119525000D01*
X141475000Y-119525000D02*
X141475000Y-100250000D01*
X137980000Y-96755000D02*
X137980000Y-63270000D01*
X154250000Y-114550000D02*
X154240000Y-114560000D01*
%TO.N,G*%
X107210000Y-57060000D02*
X103250000Y-57060000D01*
X103250000Y-46370000D02*
X104500000Y-45120000D01*
X110581739Y-60443261D02*
X110581739Y-60431739D01*
X103250000Y-57060000D02*
X103250000Y-46370000D01*
X104500000Y-45120000D02*
X104500000Y-42830000D01*
X110581739Y-60431739D02*
X107210000Y-57060000D01*
%TO.N,B*%
X110730000Y-53305000D02*
X110730000Y-46305000D01*
X110730000Y-46305000D02*
X109580000Y-45155000D01*
X118600000Y-59100000D02*
X116525000Y-59100000D01*
X116525000Y-59100000D02*
X110730000Y-53305000D01*
X109580000Y-45155000D02*
X109580000Y-42830000D01*
%TO.N,~{I{slash}O}*%
X195900000Y-78075000D02*
X195900000Y-42780000D01*
X234320000Y-126520000D02*
X234320000Y-120190000D01*
X235490000Y-119020000D02*
X235490000Y-115760000D01*
X234960000Y-128400000D02*
X234320000Y-127760000D01*
X234320000Y-120190000D02*
X235090000Y-119420000D01*
X195900000Y-42780000D02*
X188240000Y-35120000D01*
X199150000Y-81325000D02*
X195900000Y-78075000D01*
X235570000Y-130440000D02*
X235570000Y-129010000D01*
X235090000Y-119420000D02*
X235490000Y-119020000D01*
X198810000Y-109690000D02*
X199150000Y-109350000D01*
X188240000Y-35120000D02*
X188240000Y-31370000D01*
X235570000Y-129010000D02*
X234960000Y-128400000D01*
X198810000Y-114800000D02*
X198810000Y-109690000D01*
X234320000Y-127760000D02*
X234320000Y-126520000D01*
X198480000Y-115130000D02*
X198810000Y-114800000D01*
X199150000Y-109350000D02*
X199150000Y-81325000D01*
%TO.N,/CPU and ULA/MA1*%
X116250000Y-97200000D02*
X116250000Y-100625000D01*
X113800000Y-103075000D02*
X113800000Y-117090000D01*
X112560000Y-118330000D02*
X112560000Y-120020000D01*
X116250000Y-100625000D02*
X113800000Y-103075000D01*
X113800000Y-117090000D02*
X112560000Y-118330000D01*
%TO.N,R*%
X110800000Y-56620000D02*
X116240000Y-61630000D01*
%TO.N,Net-(IC7-W)*%
X82100000Y-100675000D02*
X72950000Y-109825000D01*
X71670000Y-118600000D02*
X71670000Y-120100000D01*
X82100000Y-94500000D02*
X82100000Y-100675000D01*
X72950000Y-117320000D02*
X71670000Y-118600000D01*
X72950000Y-109825000D02*
X72950000Y-117320000D01*
%TO.N,/CPU and ULA/MA7*%
X92030000Y-111220000D02*
X92030000Y-112480000D01*
X95932500Y-107242500D02*
X95932500Y-107317500D01*
X95932500Y-107317500D02*
X92030000Y-111220000D01*
%TO.N,/RAM/RA1*%
X76710000Y-126640000D02*
X76710000Y-130680000D01*
X120180000Y-116050000D02*
X120180000Y-112400000D01*
X114075000Y-126700000D02*
X118890000Y-126700000D01*
X76725000Y-126625000D02*
X76710000Y-126640000D01*
X118890000Y-117340000D02*
X120180000Y-116050000D01*
X118890000Y-126700000D02*
X118890000Y-117340000D01*
X114000000Y-126625000D02*
X114075000Y-126700000D01*
%TO.N,/RAM/RA6*%
X114000000Y-134350000D02*
X114000000Y-138300000D01*
X114000000Y-138300000D02*
X114000000Y-142625000D01*
X125260000Y-127860000D02*
X125275000Y-127875000D01*
X114000000Y-142625000D02*
X114050000Y-142675000D01*
X125260000Y-120020000D02*
X125260000Y-127860000D01*
X113975000Y-134325000D02*
X114000000Y-134350000D01*
%TO.N,/RAM/RA3*%
X81800000Y-124725000D02*
X81790000Y-124735000D01*
X117640000Y-120020000D02*
X117780000Y-120160000D01*
X81790000Y-124735000D02*
X81790000Y-130680000D01*
X81800000Y-124025000D02*
X81800000Y-124725000D01*
X117640000Y-124150000D02*
X117640000Y-120020000D01*
%TO.N,/RAM/RA2*%
X116540000Y-129350000D02*
X116540000Y-130680000D01*
X126470000Y-129350000D02*
X116540000Y-129350000D01*
X127800000Y-112400000D02*
X127800000Y-115930000D01*
X126470000Y-117260000D02*
X126470000Y-129350000D01*
X127800000Y-115930000D02*
X126470000Y-117260000D01*
X79250000Y-124875000D02*
X79250000Y-130680000D01*
%TO.N,/ROM/R14*%
X180925000Y-45025000D02*
X183875000Y-45025000D01*
X183875000Y-45025000D02*
X186200000Y-45025000D01*
X187725000Y-46550000D02*
X191150000Y-49975000D01*
X191150000Y-51875000D02*
X191150000Y-72025000D01*
X180350000Y-41975000D02*
X180350000Y-44450000D01*
X180350000Y-44450000D02*
X180925000Y-45025000D01*
X191150000Y-49975000D02*
X191150000Y-51875000D01*
X177900000Y-39525000D02*
X180350000Y-41975000D01*
X176910000Y-38535000D02*
X177900000Y-39525000D01*
X176910000Y-33960000D02*
X176910000Y-38535000D01*
X186200000Y-45025000D02*
X187725000Y-46550000D01*
%TO.N,~{\u00D82}*%
X190800000Y-112580000D02*
X190870000Y-112510000D01*
X190870000Y-108810000D02*
X195300000Y-104380000D01*
X195300000Y-104380000D02*
X195300000Y-92500000D01*
X195300000Y-92500000D02*
X194950000Y-92150000D01*
X190870000Y-112510000D02*
X190870000Y-108810000D01*
%TO.N,~{ROMDIS}*%
X193275000Y-82950000D02*
X193290000Y-82935000D01*
X173625000Y-99875000D02*
X173600000Y-99900000D01*
X193290000Y-47950000D02*
X184470000Y-39130000D01*
X184500000Y-33930000D02*
X184500000Y-30170000D01*
X184500000Y-30170000D02*
X183160000Y-28830000D01*
X193290000Y-82935000D02*
X193290000Y-47950000D01*
X173600000Y-99900000D02*
X173600000Y-117275000D01*
X184470000Y-39130000D02*
X184470000Y-33950000D01*
X184530000Y-33960000D02*
X184500000Y-33930000D01*
%TO.N,/ROM/R15*%
X184475000Y-41425000D02*
X192175000Y-49125000D01*
X192175000Y-70100000D02*
X192250000Y-70175000D01*
X182328654Y-41425000D02*
X184475000Y-41425000D01*
X179450000Y-33960000D02*
X179450000Y-38546346D01*
X192175000Y-50250000D02*
X192175000Y-70100000D01*
X192175000Y-49125000D02*
X192175000Y-50250000D01*
X179450000Y-38546346D02*
X182328654Y-41425000D01*
%TO.N,/RAM/RA0*%
X103460000Y-129130305D02*
X103539999Y-129210304D01*
X104730000Y-116130000D02*
X103460000Y-117400000D01*
X103460000Y-117400000D02*
X103460000Y-129130305D01*
X104730000Y-112480000D02*
X104730000Y-116130000D01*
%TO.N,/RAM/RA5*%
X94570000Y-139580000D02*
X94525000Y-139625000D01*
X94570000Y-120100000D02*
X94910000Y-120440000D01*
X94570000Y-120100000D02*
X94570000Y-139580000D01*
%TO.N,~{RAMW}*%
X74210000Y-120100000D02*
X74210000Y-122390000D01*
X72850000Y-123750000D02*
X72850000Y-138300000D01*
X108920000Y-144370000D02*
X108925000Y-144375000D01*
X72850000Y-138300000D02*
X71630000Y-138300000D01*
X74210000Y-122390000D02*
X72850000Y-123750000D01*
X108920000Y-138300000D02*
X108920000Y-144370000D01*
%TO.N,/RAM/RA7*%
X95920000Y-133445000D02*
X95925000Y-133450000D01*
X97110000Y-116150000D02*
X97110000Y-112480000D01*
X95920000Y-117340000D02*
X95920000Y-133445000D01*
X95920000Y-117340000D02*
X97110000Y-116150000D01*
%TO.N,~{CAS}*%
X81830000Y-116120000D02*
X80540000Y-117410000D01*
X80540000Y-127465000D02*
X80550000Y-127475000D01*
X80540000Y-117410000D02*
X80540000Y-127465000D01*
X81830000Y-112480000D02*
X81830000Y-116120000D01*
X106380000Y-127480000D02*
X106375000Y-127475000D01*
X106380000Y-130680000D02*
X106380000Y-127480000D01*
%TO.N,~{RAS}*%
X75490000Y-138300000D02*
X74170000Y-138300000D01*
X76750000Y-116150000D02*
X75490000Y-117410000D01*
X111460000Y-143490000D02*
X111425000Y-143525000D01*
X111460000Y-138300000D02*
X111460000Y-143490000D01*
X75490000Y-117410000D02*
X75490000Y-138300000D01*
X76750000Y-112480000D02*
X76750000Y-116150000D01*
%TO.N,/RAM/RA4*%
X102990000Y-136350000D02*
X102690000Y-136050000D01*
X102690000Y-136050000D02*
X102690000Y-120600000D01*
X102190000Y-120100000D02*
X102460000Y-120370000D01*
X102690000Y-120600000D02*
X102190000Y-120100000D01*
%TO.N,TAUDIO*%
X106195000Y-82395000D02*
X106195000Y-86975000D01*
X102850000Y-79050000D02*
X106195000Y-82395000D01*
X91780000Y-40120000D02*
X91780000Y-51390000D01*
X96750000Y-79050000D02*
X102850000Y-79050000D01*
X91780000Y-51390000D02*
X91170000Y-52000000D01*
X91170000Y-78790000D02*
X93120000Y-80740000D01*
X93120000Y-80740000D02*
X95060000Y-80740000D01*
X95060000Y-80740000D02*
X96750000Y-79050000D01*
X91170000Y-52000000D02*
X91170000Y-78790000D01*
X106195000Y-86975000D02*
X106195000Y-89850000D01*
%TO.N,/IO/DA6*%
X159000000Y-47820000D02*
X156480000Y-47820000D01*
X156810000Y-123040000D02*
X156810000Y-127635000D01*
X165710000Y-123000000D02*
X165710000Y-130280000D01*
X166680000Y-40140000D02*
X159000000Y-47820000D01*
X165660000Y-104980000D02*
X165660000Y-114990000D01*
X165660000Y-114990000D02*
X165710000Y-115040000D01*
X156850000Y-123000000D02*
X156810000Y-123040000D01*
X150730000Y-90050000D02*
X165660000Y-104980000D01*
X166680000Y-31370000D02*
X166680000Y-40140000D01*
X156480000Y-47820000D02*
X150730000Y-53570000D01*
X165710000Y-115040000D02*
X165710000Y-123000000D01*
X150730000Y-53570000D02*
X150730000Y-90050000D01*
%TO.N,/IO/DA2*%
X155550000Y-126450000D02*
X155550000Y-126400000D01*
X155550000Y-126450000D02*
X155550000Y-130280000D01*
X155550000Y-99870000D02*
X155550000Y-126450000D01*
X156520000Y-31370000D02*
X156520000Y-42680000D01*
X156520000Y-42680000D02*
X147320000Y-51880000D01*
X147320000Y-91640000D02*
X155550000Y-99870000D01*
X147320000Y-51880000D02*
X147320000Y-91640000D01*
%TO.N,/IO/IOA1*%
X180950000Y-142900000D02*
X180975000Y-142875000D01*
X140540000Y-58440000D02*
X137450000Y-55350000D01*
X140540000Y-95165000D02*
X140540000Y-58440000D01*
X180975000Y-142875000D02*
X182210000Y-142875000D01*
X180950000Y-142900000D02*
X180950000Y-145520000D01*
X180950000Y-139575000D02*
X180950000Y-142900000D01*
X141425000Y-96050000D02*
X140540000Y-95165000D01*
X144225000Y-124675000D02*
X144225000Y-96075000D01*
X144225000Y-96075000D02*
X144200000Y-96050000D01*
X164350000Y-139060000D02*
X164865000Y-139575000D01*
X147375000Y-139060000D02*
X164350000Y-139060000D01*
X164865000Y-139575000D02*
X180950000Y-139575000D01*
X137450000Y-55350000D02*
X137450000Y-52900000D01*
X144200000Y-124700000D02*
X144225000Y-124675000D01*
%TO.N,/IO/IOA5*%
X130300000Y-122575000D02*
X131725000Y-122575000D01*
X130440000Y-108265000D02*
X130440000Y-60980000D01*
X172050000Y-142875000D02*
X170790000Y-145520000D01*
X129950000Y-122925000D02*
X130300000Y-122575000D01*
X126460000Y-57000000D02*
X118690000Y-57000000D01*
X131725000Y-109550000D02*
X130440000Y-108265000D01*
X129950000Y-124200000D02*
X129950000Y-122925000D01*
X130440000Y-60980000D02*
X126460000Y-57000000D01*
X131725000Y-122575000D02*
X131725000Y-109550000D01*
X118690000Y-57000000D02*
X114590000Y-52900000D01*
%TO.N,/IO/DA3*%
X158090000Y-130280000D02*
X158090000Y-125300000D01*
X158090000Y-101170000D02*
X148240000Y-91320000D01*
X158090000Y-125300000D02*
X158090000Y-125550000D01*
X149200000Y-127625000D02*
X149190000Y-127635000D01*
X159060000Y-43980000D02*
X159060000Y-31370000D01*
X148240000Y-91320000D02*
X148240000Y-52240000D01*
X158090000Y-125300000D02*
X158090000Y-101170000D01*
X157860000Y-45180000D02*
X159060000Y-43980000D01*
X149200000Y-125550000D02*
X149200000Y-127625000D01*
X155300000Y-45180000D02*
X157860000Y-45180000D01*
X148240000Y-52240000D02*
X155300000Y-45180000D01*
%TO.N,BDIR*%
X175900000Y-130310000D02*
X175870000Y-130280000D01*
X170775000Y-125925000D02*
X170775000Y-128925000D01*
X175900000Y-132975000D02*
X175900000Y-130310000D01*
X170775000Y-128925000D02*
X175825000Y-128925000D01*
X175870000Y-128920000D02*
X175870000Y-130280000D01*
X175825000Y-128925000D02*
X175850000Y-128900000D01*
X169100000Y-125925000D02*
X170775000Y-125925000D01*
X175850000Y-128900000D02*
X175870000Y-128920000D01*
%TO.N,CH_C*%
X82125000Y-50275000D02*
X82125000Y-52850000D01*
X150470000Y-145520000D02*
X150470000Y-147470000D01*
X50675000Y-63115000D02*
X50680000Y-63120000D01*
X150470000Y-144230000D02*
X150470000Y-145520000D01*
X156800000Y-144225000D02*
X150475000Y-144225000D01*
X132625000Y-129450000D02*
X139000000Y-129450000D01*
X150475000Y-147475000D02*
X132625000Y-147475000D01*
X139000000Y-129450000D02*
X139030000Y-129420000D01*
X50680000Y-63120000D02*
X76775000Y-63120000D01*
X132625000Y-147475000D02*
X132625000Y-129450000D01*
X150475000Y-144225000D02*
X150470000Y-144230000D01*
X139030000Y-129420000D02*
X139030000Y-127635000D01*
X50675000Y-60435000D02*
X50675000Y-63115000D01*
X76775000Y-63120000D02*
X76775000Y-99560000D01*
X47450000Y-152375000D02*
X52775000Y-152375000D01*
X47450000Y-99560000D02*
X47450000Y-152375000D01*
X156800000Y-152600000D02*
X156800000Y-144225000D01*
X150470000Y-147470000D02*
X150475000Y-147475000D01*
X76775000Y-99560000D02*
X47450000Y-99560000D01*
X155900000Y-152600000D02*
X156800000Y-152600000D01*
X82125000Y-52850000D02*
X61175000Y-52850000D01*
X61175000Y-52850000D02*
X61175000Y-50275000D01*
D32*
%TO.N,Net-(IC22-O6b)*%
X101970000Y-40320000D02*
X101970000Y-42820000D01*
X101970000Y-42820000D02*
X101960000Y-42830000D01*
D30*
%TO.N,ROW2*%
X142950000Y-135290000D02*
X142950000Y-94000000D01*
X169310000Y-136500000D02*
X168100000Y-135290000D01*
X127310000Y-50340000D02*
X127290000Y-50360000D01*
X185625000Y-148035000D02*
X185625000Y-136500000D01*
X185625000Y-136500000D02*
X169310000Y-136500000D01*
X143150000Y-50340000D02*
X127310000Y-50340000D01*
X143150000Y-93800000D02*
X143150000Y-50340000D01*
X142950000Y-94000000D02*
X143150000Y-93800000D01*
X185550000Y-148110000D02*
X185625000Y-148035000D01*
X127290000Y-50360000D02*
X127290000Y-52900000D01*
X168100000Y-135290000D02*
X142950000Y-135290000D01*
%TO.N,ROW1*%
X143970000Y-49470000D02*
X124750000Y-49470000D01*
X186550000Y-146725000D02*
X186600000Y-146675000D01*
X170900000Y-135600000D02*
X169320000Y-134020000D01*
X145400000Y-94870000D02*
X143970000Y-93440000D01*
X169320000Y-134020000D02*
X145400000Y-134020000D01*
X143970000Y-93440000D02*
X143970000Y-49470000D01*
X186600000Y-146675000D02*
X186600000Y-135600000D01*
X124750000Y-49470000D02*
X124750000Y-52900000D01*
X186600000Y-135600000D02*
X170900000Y-135600000D01*
X145400000Y-134020000D02*
X145400000Y-94870000D01*
%TO.N,ROW0*%
X187500000Y-145575000D02*
X187500000Y-134800000D01*
X187475000Y-145600000D02*
X187500000Y-145575000D01*
X147875000Y-96015000D02*
X144880000Y-93020000D01*
X144880000Y-93020000D02*
X144880000Y-48550000D01*
X170700000Y-132780000D02*
X147875000Y-132780000D01*
X144880000Y-48550000D02*
X122270000Y-48550000D01*
X187500000Y-134800000D02*
X172720000Y-134800000D01*
X122270000Y-48550000D02*
X122210000Y-48610000D01*
X147875000Y-132780000D02*
X147875000Y-96015000D01*
X172720000Y-134800000D02*
X170700000Y-132780000D01*
X122210000Y-48610000D02*
X122210000Y-52900000D01*
%TO.N,Net-(C1-Pad1)*%
X103175000Y-99855000D02*
X104250000Y-100930000D01*
X103175000Y-98400000D02*
X103175000Y-99855000D01*
X100810000Y-96040000D02*
X103170000Y-98400000D01*
X103170000Y-98400000D02*
X103175000Y-98400000D01*
X110300000Y-102020000D02*
X110960000Y-101360000D01*
X110960000Y-101360000D02*
X110960000Y-100870000D01*
X107970000Y-102020000D02*
X110300000Y-102020000D01*
X104250000Y-100930000D02*
X106880000Y-100930000D01*
X106880000Y-100930000D02*
X107970000Y-102020000D01*
%TO.N,Net-(PL3-IDK)*%
X133510000Y-46500000D02*
X133540000Y-46470000D01*
X128550000Y-46500000D02*
X133510000Y-46500000D01*
X118430000Y-50440000D02*
X118430000Y-54770000D01*
X128550000Y-46500000D02*
X122370000Y-46500000D01*
X122370000Y-46500000D02*
X119830000Y-49040000D01*
X119830000Y-49040000D02*
X118430000Y-50440000D01*
%TO.N,Net-(TR2-B)*%
X137380000Y-42940000D02*
X133540000Y-39100000D01*
X137380000Y-45460000D02*
X137380000Y-42940000D01*
X133540000Y-39100000D02*
X133540000Y-36310000D01*
%TO.N,Net-(RP2D-R4.1)*%
X109590000Y-34810000D02*
X109440000Y-34660000D01*
X109590000Y-40320000D02*
X109590000Y-34810000D01*
%TO.N,Net-(RP2C-R3.1)*%
X104510000Y-40320000D02*
X101820000Y-34620000D01*
%TO.N,Net-(RP2B-R2.1)*%
X99430000Y-40320000D02*
X96790000Y-37680000D01*
X96790000Y-37680000D02*
X96790000Y-37070000D01*
%TO.N,Net-(RP2A-R1.1)*%
X94350000Y-40320000D02*
X94350000Y-34920000D01*
X94350000Y-34920000D02*
X94140000Y-34710000D01*
%TO.N,/IO/IOA2*%
X178410000Y-140550000D02*
X178410000Y-142850000D01*
X141075000Y-96900000D02*
X141072918Y-96900000D01*
X146275000Y-140440000D02*
X163210000Y-140440000D01*
X139640000Y-58810000D02*
X139640000Y-95225000D01*
X163320000Y-140550000D02*
X178410000Y-140550000D01*
X140575000Y-96402082D02*
X140575000Y-96400000D01*
X141425001Y-98652919D02*
X141425001Y-97250001D01*
X136900000Y-126100000D02*
X136900000Y-107225000D01*
X134910000Y-52900000D02*
X134910000Y-54080000D01*
X138885000Y-105240000D02*
X138885000Y-99035000D01*
X163210000Y-140440000D02*
X163320000Y-140550000D01*
X138885000Y-99035000D02*
X138500000Y-98650000D01*
X134910000Y-54080000D02*
X139640000Y-58810000D01*
X140575000Y-96400000D02*
X139640000Y-95465000D01*
X178410000Y-142850000D02*
X178435000Y-142875000D01*
X141072918Y-96900000D02*
X140575000Y-96402082D01*
X139640000Y-95465000D02*
X139640000Y-95225000D01*
X178410000Y-142850000D02*
X178410000Y-145520000D01*
X139640000Y-95225000D02*
X139640000Y-95380000D01*
X141425001Y-97250001D02*
X141075000Y-96900000D01*
X136900000Y-107225000D02*
X138885000Y-105240000D01*
X178435000Y-142875000D02*
X179670000Y-142875000D01*
X136875000Y-126125000D02*
X136900000Y-126100000D01*
%TO.N,/IO/IOA6*%
X131010585Y-123350000D02*
X132700000Y-123350000D01*
X132700000Y-123350000D02*
X132700000Y-109380000D01*
X131450000Y-108130000D02*
X131450000Y-60670000D01*
X126890000Y-56110000D02*
X122800000Y-56110000D01*
X119670000Y-52980000D02*
X119670000Y-52900000D01*
X131450000Y-60670000D02*
X126890000Y-56110000D01*
X130924844Y-123435741D02*
X131010585Y-123350000D01*
X132700000Y-109380000D02*
X131450000Y-108130000D01*
X169510000Y-142875000D02*
X168250000Y-145520000D01*
X122800000Y-56110000D02*
X119670000Y-52980000D01*
%TO.N,/IO/DA0*%
X149000000Y-47620000D02*
X145660000Y-50960000D01*
X151440000Y-31370000D02*
X151440000Y-36380000D01*
X149000000Y-38820000D02*
X149000000Y-47620000D01*
X150380000Y-99490000D02*
X150470000Y-99580000D01*
X145660000Y-50960000D02*
X145660000Y-92540000D01*
X151440000Y-36380000D02*
X149000000Y-38820000D01*
X145660000Y-92540000D02*
X150380000Y-97260000D01*
X150470000Y-99580000D02*
X150470000Y-130280000D01*
X150380000Y-97260000D02*
X150380000Y-99490000D01*
%TO.N,/IO/IOA4*%
X130825000Y-109885000D02*
X129490000Y-108550000D01*
X129575000Y-121875000D02*
X130825000Y-121875000D01*
X128756666Y-123750000D02*
X128756666Y-122693334D01*
X128756666Y-122693334D02*
X129575000Y-121875000D01*
X116980000Y-57830000D02*
X112050000Y-52900000D01*
X125950000Y-57830000D02*
X116980000Y-57830000D01*
X174590000Y-142875000D02*
X173330000Y-145520000D01*
X129490000Y-61370000D02*
X125950000Y-57830000D01*
X130825000Y-121875000D02*
X130825000Y-109885000D01*
X129490000Y-108550000D02*
X129490000Y-61370000D01*
%TO.N,/IO/DA4*%
X151725000Y-124700000D02*
X151725000Y-127630000D01*
X151725000Y-127630000D02*
X151730000Y-127635000D01*
X160630000Y-102460000D02*
X160630000Y-125050000D01*
X158170000Y-46100000D02*
X155660000Y-46100000D01*
X155660000Y-46100000D02*
X149040000Y-52720000D01*
X161600000Y-42670000D02*
X158170000Y-46100000D01*
X149040000Y-52720000D02*
X149040000Y-90870000D01*
X160630000Y-125050000D02*
X160630000Y-124700000D01*
X149040000Y-90870000D02*
X160630000Y-102460000D01*
X161600000Y-31370000D02*
X161600000Y-42670000D01*
X160630000Y-125050000D02*
X160630000Y-130280000D01*
%TO.N,/IO/IOA7*%
X133600000Y-124200000D02*
X133600000Y-109230000D01*
X132400000Y-108030000D02*
X132400000Y-60210000D01*
X129880000Y-52950000D02*
X129830000Y-52900000D01*
X133297500Y-108927500D02*
X132400000Y-108030000D01*
X129880000Y-57690000D02*
X129880000Y-52950000D01*
X166970000Y-142875000D02*
X165710000Y-145520000D01*
X133600000Y-109230000D02*
X133375000Y-109005000D01*
X132400000Y-60210000D02*
X129880000Y-57690000D01*
X131850000Y-124200000D02*
X133600000Y-124200000D01*
%TO.N,/IO/IOA0*%
X139990000Y-56670000D02*
X141380000Y-58060000D01*
X188350000Y-133450000D02*
X188350000Y-150575000D01*
X183125000Y-145885000D02*
X183490000Y-145520000D01*
X183125000Y-150575000D02*
X183125000Y-145885000D01*
X166425000Y-138525000D02*
X183490000Y-138525000D01*
X188350000Y-150575000D02*
X183125000Y-150575000D01*
X146675000Y-125513880D02*
X146675000Y-96400000D01*
X165770000Y-137870000D02*
X166425000Y-138525000D01*
X146675000Y-96400000D02*
X146625000Y-96350000D01*
X141380000Y-58060000D02*
X141380000Y-94630000D01*
X148475000Y-137870000D02*
X165770000Y-137870000D01*
X139990000Y-52900000D02*
X139990000Y-56670000D01*
X182210000Y-127635000D02*
X186360000Y-127635000D01*
X186375000Y-127650000D02*
X186375000Y-131475000D01*
X146638078Y-125550802D02*
X146675000Y-125513880D01*
X183490000Y-138525000D02*
X183490000Y-145520000D01*
X186375000Y-131475000D02*
X188350000Y-133450000D01*
X186360000Y-127635000D02*
X186375000Y-127650000D01*
%TO.N,/IO/DA5*%
X149920000Y-90530000D02*
X149920000Y-53150000D01*
X149920000Y-53150000D02*
X156140000Y-46930000D01*
X154270000Y-122255000D02*
X154270000Y-127635000D01*
X154275000Y-122250000D02*
X154270000Y-122255000D01*
X164140000Y-41420000D02*
X164140000Y-31370000D01*
X158630000Y-46930000D02*
X164140000Y-41420000D01*
X163170000Y-130280000D02*
X163170000Y-122025000D01*
X156140000Y-46930000D02*
X158630000Y-46930000D01*
X163170000Y-103780000D02*
X149920000Y-90530000D01*
X163170000Y-122025000D02*
X163170000Y-103780000D01*
%TO.N,/IO/DA7*%
X151670000Y-89690000D02*
X151670000Y-54000000D01*
X157040000Y-48630000D02*
X159520000Y-48630000D01*
X151670000Y-54000000D02*
X157040000Y-48630000D01*
X159520000Y-48630000D02*
X169150000Y-39000000D01*
X169150000Y-39000000D02*
X169150000Y-31440000D01*
X159350000Y-123850000D02*
X159350000Y-127635000D01*
X168250000Y-123850000D02*
X168250000Y-106270000D01*
X168250000Y-130280000D02*
X168250000Y-123850000D01*
X168250000Y-106270000D02*
X151670000Y-89690000D01*
X169150000Y-31440000D02*
X169220000Y-31370000D01*
%TO.N,/IO/DA1*%
X153010000Y-130280000D02*
X153010000Y-98640000D01*
X150200000Y-40130000D02*
X153980000Y-36350000D01*
X153980000Y-36350000D02*
X153980000Y-31370000D01*
X146480000Y-92110000D02*
X146480000Y-51480000D01*
X150200000Y-47760000D02*
X150200000Y-40130000D01*
X146480000Y-51480000D02*
X150200000Y-47760000D01*
X153010000Y-98640000D02*
X146480000Y-92110000D01*
%TO.N,/IO/IOA3*%
X138850000Y-59380000D02*
X132370000Y-52900000D01*
X149150000Y-97232082D02*
X149071459Y-97153541D01*
X175870000Y-142875000D02*
X175870000Y-141445000D01*
X149143261Y-115243261D02*
X149150000Y-115236522D01*
X175870000Y-141445000D02*
X175850000Y-141425000D01*
X149150000Y-115236522D02*
X149150000Y-97232082D01*
X138850000Y-95910000D02*
X138850000Y-59380000D01*
X175870000Y-142875000D02*
X177130000Y-142875000D01*
X175870000Y-145520000D02*
X175870000Y-142875000D01*
X175850000Y-141425000D02*
X145075000Y-141425000D01*
%TO.N,KBCOM*%
X166910000Y-136650000D02*
X140325000Y-136650000D01*
X184700000Y-148875000D02*
X184700000Y-137500000D01*
X140325000Y-136650000D02*
X140325000Y-124225000D01*
X142275000Y-122275000D02*
X142275000Y-55055000D01*
X140325000Y-124225000D02*
X142275000Y-122275000D01*
X184100000Y-149475000D02*
X184700000Y-148875000D01*
X167760000Y-137500000D02*
X166910000Y-136650000D01*
X184700000Y-137500000D02*
X167760000Y-137500000D01*
X142275000Y-55055000D02*
X141590000Y-54370000D01*
%TO.N,Net-(IC6-PB4)*%
X225990000Y-141190000D02*
X226670000Y-140510000D01*
X170370000Y-41360000D02*
X170370000Y-32850000D01*
X188530000Y-106370000D02*
X188530000Y-52525000D01*
X225410000Y-141770000D02*
X225990000Y-141190000D01*
X189200000Y-134030000D02*
X189200000Y-132550000D01*
X226670000Y-140510000D02*
X226670000Y-135460000D01*
X187475000Y-130825000D02*
X187475000Y-107425000D01*
X181535000Y-52525000D02*
X170370000Y-41360000D01*
X188530000Y-52525000D02*
X181535000Y-52525000D01*
X225410000Y-145680000D02*
X225410000Y-141770000D01*
X187475000Y-107425000D02*
X188530000Y-106370000D01*
X189200000Y-132550000D02*
X187475000Y-130825000D01*
%TO.N,CH_A*%
X53300000Y-58875000D02*
X53300000Y-60435000D01*
X63800000Y-50275000D02*
X63800000Y-52325000D01*
X79500000Y-52325000D02*
X79500000Y-50275000D01*
X158090000Y-151450000D02*
X158090000Y-145520000D01*
X78175000Y-61740000D02*
X58550000Y-61740000D01*
X78175000Y-101110000D02*
X78175000Y-61740000D01*
X58550000Y-58875000D02*
X53300000Y-58875000D01*
X49025000Y-101110000D02*
X78175000Y-101110000D01*
X149063955Y-144369697D02*
X149019258Y-144325000D01*
X58550000Y-60435000D02*
X58550000Y-58875000D01*
X54387659Y-150410258D02*
X49025000Y-150410258D01*
X63800000Y-52325000D02*
X79500000Y-52325000D01*
X49025000Y-150410258D02*
X49025000Y-101110000D01*
X58550000Y-61740000D02*
X58550000Y-60435000D01*
X149019258Y-144325000D02*
X141575000Y-144325000D01*
%TO.N,Net-(IC6-CA1)*%
X188825000Y-107700000D02*
X189830000Y-106695000D01*
X171790000Y-31400000D02*
X171760000Y-31370000D01*
X189830000Y-106695000D02*
X189830000Y-51550000D01*
X182010000Y-51550000D02*
X171790000Y-41330000D01*
X188825000Y-130415000D02*
X188825000Y-107700000D01*
X189830000Y-51550000D02*
X182010000Y-51550000D01*
X188800000Y-130440000D02*
X188825000Y-130415000D01*
X171790000Y-41330000D02*
X171790000Y-31400000D01*
%TO.N,Net-(IC21-Pad2)*%
X108820000Y-100670000D02*
X109025000Y-100465000D01*
X113930000Y-93050000D02*
X113930000Y-84180000D01*
X67890000Y-112370000D02*
X67890000Y-107400000D01*
X67890000Y-116200000D02*
X67890000Y-112370000D01*
X69130000Y-117440000D02*
X68510000Y-116820000D01*
X109025000Y-100465000D02*
X109025000Y-94415000D01*
X113020000Y-93960000D02*
X113930000Y-93050000D01*
X69130000Y-120100000D02*
X69130000Y-117440000D01*
X114740000Y-83370000D02*
X115900000Y-83370000D01*
X113930000Y-84180000D02*
X114740000Y-83370000D01*
X109480000Y-93960000D02*
X113020000Y-93960000D01*
X109025000Y-94415000D02*
X109480000Y-93960000D01*
X68510000Y-116820000D02*
X67890000Y-116200000D01*
%TO.N,/ROM/~{CROMSEL}*%
X189840000Y-108580000D02*
X189840000Y-116410000D01*
X194090000Y-103275000D02*
X194090000Y-104330000D01*
X194090000Y-104330000D02*
X189840000Y-108580000D01*
%TO.N,Net-(C24-Pad2)*%
X65420000Y-35400000D02*
X61440000Y-35400000D01*
X65430000Y-35390000D02*
X65420000Y-35400000D01*
X65430000Y-27600000D02*
X65430000Y-35390000D01*
%TO.N,Net-(IC23-COMP)*%
X84425000Y-24350000D02*
X70430000Y-24350000D01*
X70430000Y-24350000D02*
X70430000Y-27600000D01*
X84425000Y-26850000D02*
X84425000Y-24350000D01*
%TO.N,Net-(IC23-RIN)*%
X83155000Y-39370000D02*
X83150000Y-39375000D01*
X83155000Y-36150000D02*
X83155000Y-39370000D01*
X83150000Y-39375000D02*
X81875000Y-39375000D01*
%TO.N,Net-(C30-Pad1)*%
X69025000Y-50275000D02*
X69025000Y-48160000D01*
%TO.N,Net-(IC23-GIN)*%
X84425000Y-41850000D02*
X81875000Y-41850000D01*
X84425000Y-36150000D02*
X84425000Y-41850000D01*
%TO.N,Net-(C31-Pad1)*%
X71625000Y-50275000D02*
X71625000Y-48160000D01*
%TO.N,Net-(IC23-BIN)*%
X85695000Y-36150000D02*
X85695000Y-44320000D01*
X85700000Y-44325000D02*
X81875000Y-44325000D01*
X85695000Y-44320000D02*
X85700000Y-44325000D01*
%TO.N,Net-(C32-Pad1)*%
X74250000Y-50275000D02*
X74250000Y-48160000D01*
%TO.N,Net-(IC23-FIN)*%
X66450000Y-40525000D02*
X79325000Y-40525000D01*
X61750000Y-38950000D02*
X61750000Y-40525000D01*
X66425000Y-40500000D02*
X66450000Y-40525000D01*
X67225000Y-35680000D02*
X66425000Y-38000000D01*
X79350000Y-40500000D02*
X79345000Y-40495000D01*
X57660000Y-40050000D02*
X58135000Y-40525000D01*
X60300000Y-40525000D02*
X61750000Y-40525000D01*
X66425000Y-38000000D02*
X66425000Y-40500000D01*
X58135000Y-40525000D02*
X60300000Y-40525000D01*
X79325000Y-40525000D02*
X79350000Y-40500000D01*
X61750000Y-40525000D02*
X66450000Y-40525000D01*
X79345000Y-40495000D02*
X79345000Y-36150000D01*
D32*
%TO.N,COMP*%
X58140000Y-25240000D02*
X61440000Y-25240000D01*
X57625000Y-24725000D02*
X58140000Y-25240000D01*
D30*
%TO.N,BR*%
X99420000Y-50450000D02*
X99420000Y-46420000D01*
X99420000Y-46420000D02*
X98090000Y-45090000D01*
X98090000Y-45090000D02*
X98090000Y-41520000D01*
X98090000Y-41520000D02*
X96890000Y-40320000D01*
D32*
%TO.N,BG*%
X107050000Y-42820000D02*
X107040000Y-42830000D01*
X107050000Y-40320000D02*
X107050000Y-42820000D01*
D30*
X106670000Y-42830000D02*
X107040000Y-42830000D01*
X105890000Y-52282943D02*
X105890000Y-43610000D01*
X104425000Y-53747943D02*
X105890000Y-52282943D01*
X104425000Y-55425000D02*
X104425000Y-53747943D01*
X105890000Y-43610000D02*
X106670000Y-42830000D01*
D32*
%TO.N,BB*%
X112130000Y-40320000D02*
X112130000Y-41650000D01*
D30*
X113625000Y-57675000D02*
X111100000Y-55150000D01*
X109275000Y-55150000D02*
X108300000Y-54175000D01*
D32*
X112130000Y-42820000D02*
X112120000Y-42830000D01*
D30*
X108300000Y-54175000D02*
X108300000Y-41825000D01*
X108475000Y-41650000D02*
X112130000Y-41650000D01*
X111100000Y-55150000D02*
X109275000Y-55150000D01*
X108300000Y-41825000D02*
X108475000Y-41650000D01*
D32*
X112130000Y-41650000D02*
X112130000Y-42820000D01*
D30*
X113775000Y-57675000D02*
X113625000Y-57675000D01*
%TO.N,CH_B*%
X160650000Y-152525000D02*
X160630000Y-152505000D01*
X55925000Y-62355000D02*
X55925000Y-60435000D01*
X66425000Y-51775000D02*
X66425000Y-50275000D01*
X76875000Y-50275000D02*
X76875000Y-51775000D01*
X77475000Y-62450000D02*
X56020000Y-62450000D01*
X77475000Y-100310000D02*
X77475000Y-62450000D01*
X139025000Y-145650000D02*
X147950000Y-145650000D01*
X160630000Y-152505000D02*
X160630000Y-145520000D01*
X48225000Y-151425000D02*
X48225000Y-100310000D01*
X53650000Y-151425000D02*
X48225000Y-151425000D01*
X139050000Y-142895000D02*
X139030000Y-142875000D01*
X56020000Y-62450000D02*
X55925000Y-62355000D01*
X76875000Y-51775000D02*
X66425000Y-51775000D01*
X48225000Y-100310000D02*
X77475000Y-100310000D01*
%TO.N,IOCTRL*%
X200800000Y-109530000D02*
X201280000Y-110010000D01*
X188240000Y-28830000D02*
X189580000Y-30170000D01*
X189580000Y-30170000D02*
X189580000Y-33930000D01*
X232500000Y-119510000D02*
X232910000Y-119100000D01*
X233030000Y-130440000D02*
X233030000Y-128990000D01*
X189610000Y-33960000D02*
X189610000Y-35200000D01*
X232310000Y-128270000D02*
X231740000Y-127700000D01*
X196710000Y-42300000D02*
X196710000Y-77335000D01*
X199890000Y-80515000D02*
X199890000Y-103790000D01*
X200800000Y-104700000D02*
X200800000Y-109530000D01*
X231740000Y-120270000D02*
X232500000Y-119510000D01*
X233030000Y-128990000D02*
X232310000Y-128270000D01*
X189580000Y-33930000D02*
X189610000Y-33960000D01*
X201280000Y-116050000D02*
X201200000Y-116130000D01*
X201280000Y-110010000D02*
X201280000Y-116050000D01*
X231740000Y-127700000D02*
X231740000Y-126380000D01*
X196710000Y-77335000D02*
X199890000Y-80515000D01*
X232910000Y-119100000D02*
X232910000Y-116630000D01*
X231740000Y-126380000D02*
X231740000Y-120270000D01*
X189610000Y-35200000D02*
X196710000Y-42300000D01*
X199890000Y-103790000D02*
X200800000Y-104700000D01*
D31*
%TO.N,C2NMOTOR*%
X50025000Y-91150000D02*
X50675000Y-91150000D01*
X50685000Y-91140000D02*
X53080000Y-91140000D01*
X50020000Y-91145000D02*
X50025000Y-91150000D01*
X50020000Y-74980000D02*
X50020000Y-91145000D01*
X50675000Y-91150000D02*
X50685000Y-91140000D01*
D30*
%TO.N,C2NWRITE*%
X55050000Y-95150000D02*
X62660000Y-95150000D01*
X55025000Y-95125000D02*
X55050000Y-95150000D01*
X55005000Y-74980000D02*
X55025000Y-75000000D01*
X52710000Y-74980000D02*
X55005000Y-74980000D01*
X55025000Y-75000000D02*
X55025000Y-95125000D01*
%TO.N,RDDATA*%
X84235000Y-92775000D02*
X84235000Y-92155000D01*
X113840000Y-123335000D02*
X113840000Y-118560000D01*
X78675000Y-152650000D02*
X77900000Y-152650000D01*
X113925000Y-153450000D02*
X113925000Y-152045000D01*
X82460000Y-92150000D02*
X82460000Y-86280000D01*
X110310000Y-148430000D02*
X110310000Y-126865000D01*
X117100000Y-79325000D02*
X115945000Y-78170000D01*
X113840000Y-118560000D02*
X116360000Y-116040000D01*
X79050000Y-108925000D02*
X79050000Y-106975000D01*
X116360000Y-105350000D02*
X117100000Y-104610000D01*
X77900000Y-152650000D02*
X77900000Y-110075000D01*
X115945000Y-78170000D02*
X113730000Y-78170000D01*
X84235000Y-103150000D02*
X84235000Y-92775000D01*
X116360000Y-116040000D02*
X116360000Y-105350000D01*
X84240000Y-92150000D02*
X82460000Y-92150000D01*
X80410000Y-106975000D02*
X79050000Y-106975000D01*
X84235000Y-92155000D02*
X84240000Y-92150000D01*
X84235000Y-103150000D02*
X80410000Y-106975000D01*
X117100000Y-104610000D02*
X117100000Y-79325000D01*
X113925000Y-152045000D02*
X110310000Y-148430000D01*
X110310000Y-126865000D02*
X113840000Y-123335000D01*
X77900000Y-110075000D02*
X79050000Y-108925000D01*
%TO.N,WRDATA*%
X123600000Y-145650000D02*
X118650000Y-145650000D01*
X54780000Y-145170000D02*
X54780000Y-105320000D01*
X54780000Y-105320000D02*
X54790000Y-105310000D01*
X54790000Y-105310000D02*
X62660000Y-105310000D01*
X118650000Y-145650000D02*
X118650000Y-142090000D01*
X123600000Y-150775000D02*
X123600000Y-145650000D01*
%TO.N,Net-(D30-K)*%
X66100000Y-71220000D02*
X66100000Y-63875000D01*
X66100000Y-63875000D02*
X57475000Y-63875000D01*
D32*
X66100000Y-73175000D02*
X66100000Y-71220000D01*
X62975000Y-73185000D02*
X62975000Y-77250000D01*
D30*
X49325000Y-60445000D02*
X49315000Y-60435000D01*
D32*
X73425000Y-77025000D02*
X63200000Y-77025000D01*
D30*
X57500000Y-65565000D02*
X57500000Y-63900000D01*
X57500000Y-63900000D02*
X57475000Y-63875000D01*
D32*
X62975000Y-77250000D02*
X62050000Y-78175000D01*
D30*
X57475000Y-63875000D02*
X49325000Y-63875000D01*
D32*
X62975000Y-73185000D02*
X66090000Y-73185000D01*
D30*
X49315000Y-60435000D02*
X48050000Y-60435000D01*
X49325000Y-63875000D02*
X49325000Y-60445000D01*
D32*
X66090000Y-73185000D02*
X66100000Y-73175000D01*
X63200000Y-77025000D02*
X62975000Y-77250000D01*
%TO.N,+9V*%
X57500000Y-77725000D02*
X57050000Y-78175000D01*
X57050000Y-78175000D02*
X57050000Y-80000000D01*
X57050000Y-80000000D02*
X71925000Y-80000000D01*
X71925000Y-80000000D02*
X71925000Y-78515000D01*
X57500000Y-75725000D02*
X57500000Y-77725000D01*
D30*
%TO.N,Net-(D31-A)*%
X48025000Y-80975000D02*
X48025000Y-94600000D01*
X48025000Y-94600000D02*
X45075000Y-94600000D01*
%TO.N,Net-(D32-A)*%
X47025000Y-86350000D02*
X45075000Y-86350000D01*
X47025000Y-90150000D02*
X47025000Y-86350000D01*
%TO.N,Net-(TR4-C)*%
X62950000Y-69700000D02*
X60150000Y-69700000D01*
X60150000Y-70025000D02*
X60125000Y-70050000D01*
X60150000Y-69700000D02*
X60150000Y-70025000D01*
X60125000Y-70050000D02*
X60125000Y-75725000D01*
%TO.N,lMOTOR*%
X126530000Y-115730000D02*
X126530000Y-107130000D01*
X127090000Y-60720000D02*
X125440000Y-59070000D01*
X127090000Y-106570000D02*
X127090000Y-60720000D01*
X115390000Y-146960000D02*
X115390000Y-128450000D01*
X126530000Y-107130000D02*
X127090000Y-106570000D01*
X123980000Y-118280000D02*
X126530000Y-115730000D01*
X118900000Y-150470000D02*
X115390000Y-146960000D01*
X115390000Y-128450000D02*
X123980000Y-128450000D01*
X118900000Y-150575000D02*
X118900000Y-150470000D01*
X123980000Y-128450000D02*
X123980000Y-118280000D01*
%TD*%
%TA.AperFunction,Conductor*%
%TO.N,GND*%
G36*
X69070000Y-23427225D02*
G01*
X69070000Y-32775000D01*
X78251000Y-32775000D01*
X78318039Y-32794685D01*
X78363794Y-32847489D01*
X78375000Y-32899000D01*
X78375000Y-37676000D01*
X78355315Y-37743039D01*
X78302511Y-37788794D01*
X78251000Y-37800000D01*
X76549999Y-37800000D01*
X75211319Y-39138681D01*
X75149996Y-39172166D01*
X75123638Y-39175000D01*
X68374000Y-39175000D01*
X68306961Y-39155315D01*
X68261206Y-39102511D01*
X68250000Y-39051000D01*
X68250000Y-36522598D01*
X68269685Y-36455559D01*
X68272425Y-36451475D01*
X68355568Y-36332734D01*
X68451739Y-36126496D01*
X68510635Y-35906692D01*
X68530468Y-35680000D01*
X68510635Y-35453308D01*
X68451739Y-35233504D01*
X68355568Y-35027266D01*
X68321881Y-34979156D01*
X68259307Y-34889789D01*
X68252180Y-34876798D01*
X68240278Y-34862614D01*
X68225044Y-34840857D01*
X68064141Y-34679954D01*
X68042383Y-34664719D01*
X68025825Y-34650825D01*
X66881319Y-33506319D01*
X66847834Y-33444996D01*
X66845000Y-33418638D01*
X66845000Y-23426813D01*
X69070000Y-23427225D01*
G37*
%TD.AperFunction*%
%TD*%
%TA.AperFunction,Conductor*%
%TO.N,GND*%
G36*
X245505677Y-21999685D02*
G01*
X245526319Y-22016319D01*
X245813681Y-22303681D01*
X245847166Y-22365004D01*
X245850000Y-22391362D01*
X245850000Y-42610000D01*
X243090000Y-42610000D01*
X239920000Y-39440000D01*
X237999000Y-39440000D01*
X237931961Y-39420315D01*
X237886206Y-39367511D01*
X237875000Y-39316000D01*
X237875000Y-33225000D01*
X234547431Y-30540153D01*
X228829324Y-33161909D01*
X228760180Y-33171956D01*
X228696581Y-33143027D01*
X228683409Y-33129790D01*
X227784794Y-32079140D01*
X227756179Y-32015398D01*
X227766568Y-31946305D01*
X227803311Y-31900344D01*
X232113962Y-28576711D01*
X232113961Y-28576710D01*
X232113962Y-28576710D01*
X229416169Y-26399998D01*
X240262758Y-26399998D01*
X240262758Y-26400001D01*
X240282467Y-26675575D01*
X240339886Y-26939521D01*
X240341193Y-26945529D01*
X240401138Y-27106248D01*
X240437741Y-27204385D01*
X240437743Y-27204389D01*
X240570141Y-27446857D01*
X240570146Y-27446865D01*
X240735702Y-27668024D01*
X240735718Y-27668042D01*
X240931053Y-27863377D01*
X240931071Y-27863393D01*
X241152230Y-28028949D01*
X241152238Y-28028954D01*
X241394706Y-28161352D01*
X241394710Y-28161354D01*
X241394712Y-28161355D01*
X241653567Y-28257903D01*
X241788546Y-28287266D01*
X241923520Y-28316628D01*
X241923522Y-28316628D01*
X241923526Y-28316629D01*
X242168413Y-28334143D01*
X242199095Y-28336338D01*
X242199096Y-28336338D01*
X242199097Y-28336338D01*
X242226704Y-28334363D01*
X242474666Y-28316629D01*
X242497734Y-28311611D01*
X242526809Y-28305286D01*
X242744625Y-28257903D01*
X243003480Y-28161355D01*
X243245959Y-28028951D01*
X243467128Y-27863387D01*
X243662483Y-27668032D01*
X243828047Y-27446863D01*
X243960451Y-27204384D01*
X244056999Y-26945529D01*
X244115725Y-26675570D01*
X244135434Y-26400000D01*
X244115725Y-26124430D01*
X244056999Y-25854471D01*
X243960451Y-25595616D01*
X243948175Y-25573135D01*
X243828050Y-25353142D01*
X243828045Y-25353134D01*
X243662489Y-25131975D01*
X243662473Y-25131957D01*
X243467138Y-24936622D01*
X243467120Y-24936606D01*
X243245961Y-24771050D01*
X243245953Y-24771045D01*
X243003485Y-24638647D01*
X243003481Y-24638645D01*
X242905344Y-24602042D01*
X242744625Y-24542097D01*
X242744621Y-24542096D01*
X242744618Y-24542095D01*
X242474671Y-24483371D01*
X242199097Y-24463662D01*
X242199095Y-24463662D01*
X241923520Y-24483371D01*
X241653573Y-24542095D01*
X241653568Y-24542096D01*
X241653567Y-24542097D01*
X241596529Y-24563371D01*
X241394710Y-24638645D01*
X241394706Y-24638647D01*
X241152238Y-24771045D01*
X241152230Y-24771050D01*
X240931071Y-24936606D01*
X240931053Y-24936622D01*
X240735718Y-25131957D01*
X240735702Y-25131975D01*
X240570146Y-25353134D01*
X240570141Y-25353142D01*
X240437743Y-25595610D01*
X240437741Y-25595614D01*
X240341191Y-25854477D01*
X240282467Y-26124424D01*
X240262758Y-26399998D01*
X229416169Y-26399998D01*
X229007778Y-26070488D01*
X226925000Y-24390000D01*
X226924999Y-24390000D01*
X143089999Y-24390000D01*
X136510000Y-30969999D01*
X136510000Y-38956000D01*
X136490315Y-39023039D01*
X136437511Y-39068794D01*
X136386000Y-39080000D01*
X135821362Y-39080000D01*
X135754323Y-39060315D01*
X135733681Y-39043681D01*
X135426319Y-38736319D01*
X135392834Y-38674996D01*
X135390000Y-38648638D01*
X135390000Y-35030000D01*
X131836319Y-31476319D01*
X131802834Y-31414996D01*
X131800000Y-31388638D01*
X131800000Y-26479998D01*
X134792758Y-26479998D01*
X134792758Y-26480001D01*
X134812467Y-26755575D01*
X134869886Y-27019521D01*
X134871193Y-27025529D01*
X134913288Y-27138389D01*
X134967741Y-27284385D01*
X134967743Y-27284389D01*
X135100141Y-27526857D01*
X135100146Y-27526865D01*
X135265702Y-27748024D01*
X135265718Y-27748042D01*
X135461053Y-27943377D01*
X135461071Y-27943393D01*
X135682230Y-28108949D01*
X135682238Y-28108954D01*
X135924706Y-28241352D01*
X135924710Y-28241354D01*
X135924712Y-28241355D01*
X136183567Y-28337903D01*
X136275800Y-28357967D01*
X136453520Y-28396628D01*
X136453522Y-28396628D01*
X136453526Y-28396629D01*
X136698413Y-28414143D01*
X136729095Y-28416338D01*
X136729096Y-28416338D01*
X136729097Y-28416338D01*
X136756704Y-28414363D01*
X137004666Y-28396629D01*
X137274625Y-28337903D01*
X137533480Y-28241355D01*
X137775959Y-28108951D01*
X137997128Y-27943387D01*
X138192483Y-27748032D01*
X138358047Y-27526863D01*
X138490451Y-27284384D01*
X138586999Y-27025529D01*
X138645725Y-26755570D01*
X138665434Y-26480000D01*
X138645725Y-26204430D01*
X138586999Y-25934471D01*
X138490451Y-25675616D01*
X138475068Y-25647445D01*
X138358050Y-25433142D01*
X138358045Y-25433134D01*
X138192489Y-25211975D01*
X138192473Y-25211957D01*
X137997138Y-25016622D01*
X137997120Y-25016606D01*
X137775961Y-24851050D01*
X137775953Y-24851045D01*
X137533485Y-24718647D01*
X137533481Y-24718645D01*
X137362074Y-24654714D01*
X137274625Y-24622097D01*
X137274621Y-24622096D01*
X137274618Y-24622095D01*
X137004671Y-24563371D01*
X136729097Y-24543662D01*
X136729095Y-24543662D01*
X136453520Y-24563371D01*
X136183573Y-24622095D01*
X136183568Y-24622096D01*
X136183567Y-24622097D01*
X136139200Y-24638645D01*
X135924710Y-24718645D01*
X135924706Y-24718647D01*
X135682238Y-24851045D01*
X135682230Y-24851050D01*
X135461071Y-25016606D01*
X135461053Y-25016622D01*
X135265718Y-25211957D01*
X135265702Y-25211975D01*
X135100146Y-25433134D01*
X135100141Y-25433142D01*
X134967743Y-25675610D01*
X134967741Y-25675614D01*
X134871191Y-25934477D01*
X134812467Y-26204424D01*
X134792758Y-26479998D01*
X131800000Y-26479998D01*
X131800000Y-24340000D01*
X131799999Y-24340000D01*
X90260000Y-24372529D01*
X90260000Y-24340000D01*
X87690000Y-24340000D01*
X87690000Y-24356810D01*
X87677844Y-24334570D01*
X87675000Y-24308163D01*
X87675000Y-23430670D01*
X69070000Y-23427224D01*
X69070000Y-23427225D01*
X66845000Y-23426813D01*
X58432936Y-23425255D01*
X58365900Y-23405558D01*
X58345278Y-23388936D01*
X58341930Y-23385588D01*
X58341929Y-23385587D01*
X58341928Y-23385586D01*
X58201788Y-23283768D01*
X58047445Y-23205127D01*
X57882701Y-23151598D01*
X57882699Y-23151597D01*
X57882698Y-23151597D01*
X57751271Y-23130781D01*
X57711611Y-23124500D01*
X57538389Y-23124500D01*
X57498728Y-23130781D01*
X57367302Y-23151597D01*
X57202552Y-23205128D01*
X57048208Y-23283770D01*
X56908078Y-23385580D01*
X56908069Y-23385587D01*
X56905013Y-23388644D01*
X56843688Y-23422124D01*
X56817317Y-23424956D01*
X56525000Y-23424903D01*
X56525000Y-24127160D01*
X56524618Y-24136883D01*
X56524500Y-24138383D01*
X56524500Y-24216000D01*
X56504815Y-24283039D01*
X56452011Y-24328794D01*
X56400500Y-24340000D01*
X50695000Y-24340000D01*
X50695000Y-23124996D01*
X54519435Y-23124996D01*
X54519435Y-23125003D01*
X54539630Y-23304249D01*
X54539631Y-23304254D01*
X54599211Y-23474523D01*
X54695184Y-23627262D01*
X54822738Y-23754816D01*
X54852529Y-23773535D01*
X54965825Y-23844724D01*
X54975478Y-23850789D01*
X55145745Y-23910368D01*
X55145750Y-23910369D01*
X55324996Y-23930565D01*
X55325000Y-23930565D01*
X55325004Y-23930565D01*
X55504249Y-23910369D01*
X55504252Y-23910368D01*
X55504255Y-23910368D01*
X55674522Y-23850789D01*
X55827262Y-23754816D01*
X55954816Y-23627262D01*
X56050789Y-23474522D01*
X56110368Y-23304255D01*
X56112676Y-23283770D01*
X56130565Y-23125003D01*
X56130565Y-23124996D01*
X56110369Y-22945750D01*
X56110368Y-22945745D01*
X56050789Y-22775478D01*
X55954816Y-22622738D01*
X55827262Y-22495184D01*
X55674523Y-22399211D01*
X55504254Y-22339631D01*
X55504249Y-22339630D01*
X55325004Y-22319435D01*
X55324996Y-22319435D01*
X55145750Y-22339630D01*
X55145745Y-22339631D01*
X54975476Y-22399211D01*
X54822737Y-22495184D01*
X54695184Y-22622737D01*
X54599211Y-22775476D01*
X54539631Y-22945745D01*
X54539630Y-22945750D01*
X54519435Y-23124996D01*
X50695000Y-23124996D01*
X50695000Y-21980000D01*
X245438638Y-21980000D01*
X245505677Y-21999685D01*
G37*
%TD.AperFunction*%
%TD*%
%TA.AperFunction,Conductor*%
%TO.N,GND*%
G36*
X90260000Y-51470000D02*
G01*
X87814000Y-51470000D01*
X87746961Y-51450315D01*
X87701206Y-51397511D01*
X87690000Y-51346000D01*
X87690000Y-31316243D01*
X87695340Y-31280247D01*
X87736024Y-31146132D01*
X87755341Y-30950000D01*
X87736024Y-30753868D01*
X87695339Y-30619748D01*
X87690000Y-30583753D01*
X87690000Y-24356810D01*
X87690000Y-24340000D01*
X90260000Y-24340000D01*
X90260000Y-51470000D01*
G37*
%TD.AperFunction*%
%TD*%
%TA.AperFunction,Conductor*%
%TO.N,+5V*%
G36*
X85429085Y-53359687D02*
G01*
X85496002Y-53379784D01*
X85516004Y-53396004D01*
X86673681Y-54553681D01*
X86707166Y-54615004D01*
X86710000Y-54641362D01*
X86710000Y-68425034D01*
X87016917Y-90934309D01*
X86998149Y-91001611D01*
X86945973Y-91048082D01*
X86892929Y-91060000D01*
X83774000Y-91060000D01*
X83706961Y-91040315D01*
X83661206Y-90987511D01*
X83650000Y-90936000D01*
X83650000Y-86832772D01*
X83661618Y-86780367D01*
X83686739Y-86726496D01*
X83745635Y-86506692D01*
X83765468Y-86280000D01*
X83745635Y-86053308D01*
X83686739Y-85833504D01*
X83661617Y-85779630D01*
X83650000Y-85727226D01*
X83650000Y-76672772D01*
X83661618Y-76620367D01*
X83686739Y-76566496D01*
X83745635Y-76346692D01*
X83765468Y-76120000D01*
X83745635Y-75893308D01*
X83686739Y-75673504D01*
X83661617Y-75619630D01*
X83650000Y-75567226D01*
X83650000Y-66563603D01*
X83669685Y-66496564D01*
X83722489Y-66450809D01*
X83733810Y-66446297D01*
X84380000Y-66225000D01*
X84380000Y-58380000D01*
X83257618Y-58380000D01*
X83190579Y-58360315D01*
X83144824Y-58307511D01*
X83133619Y-58256399D01*
X83118214Y-53470642D01*
X83137682Y-53403544D01*
X83190339Y-53357619D01*
X83242973Y-53346249D01*
X85429085Y-53359687D01*
G37*
%TD.AperFunction*%
%TD*%
%TA.AperFunction,Conductor*%
%TO.N,+5V*%
G36*
X239265677Y-142489685D02*
G01*
X239286319Y-142506319D01*
X241303681Y-144523681D01*
X241337166Y-144585004D01*
X241340000Y-144611362D01*
X241340000Y-145608638D01*
X241320315Y-145675677D01*
X241303681Y-145696319D01*
X241286319Y-145713681D01*
X241224996Y-145747166D01*
X241198638Y-145750000D01*
X240044000Y-145750000D01*
X239976961Y-145730315D01*
X239931206Y-145677511D01*
X239920000Y-145626000D01*
X239920000Y-145030000D01*
X238590000Y-143700000D01*
X226774000Y-143700000D01*
X226706961Y-143680315D01*
X226661206Y-143627511D01*
X226650000Y-143576000D01*
X226650000Y-142771362D01*
X226669685Y-142704323D01*
X226686319Y-142683681D01*
X226863681Y-142506319D01*
X226925004Y-142472834D01*
X226951362Y-142470000D01*
X239198638Y-142470000D01*
X239265677Y-142489685D01*
G37*
%TD.AperFunction*%
%TD*%
%TA.AperFunction,Conductor*%
%TO.N,+9V*%
G36*
X234923042Y-33254839D02*
G01*
X234959647Y-33314352D01*
X234960332Y-33316983D01*
X236274909Y-38599633D01*
X236275000Y-38600000D01*
X237324999Y-42875000D01*
X239532162Y-44355934D01*
X241145089Y-45438157D01*
X241189791Y-45491854D01*
X241200000Y-45541125D01*
X241200000Y-47271877D01*
X241180315Y-47338916D01*
X241127511Y-47384671D01*
X241112467Y-47390394D01*
X232949235Y-49902158D01*
X232879371Y-49903059D01*
X232822049Y-49868175D01*
X231969400Y-48953137D01*
X231938098Y-48890671D01*
X231945538Y-48821198D01*
X231989356Y-48766777D01*
X232010523Y-48754953D01*
X233222371Y-48226147D01*
X233227684Y-48223974D01*
X234600000Y-47700000D01*
X234275000Y-37975000D01*
X232554855Y-34340892D01*
X232543967Y-34271878D01*
X232572119Y-34207931D01*
X232617664Y-34174052D01*
X234790734Y-33233135D01*
X234860073Y-33224562D01*
X234923042Y-33254839D01*
G37*
%TD.AperFunction*%
%TD*%
%TA.AperFunction,Conductor*%
%TO.N,GND*%
G36*
X245850000Y-157946000D02*
G01*
X245830315Y-158013039D01*
X245777511Y-158058794D01*
X245726000Y-158070000D01*
X41214000Y-158070000D01*
X41146961Y-158050315D01*
X41101206Y-157997511D01*
X41090000Y-157946000D01*
X41090000Y-95935592D01*
X41109685Y-95868553D01*
X41126246Y-95847983D01*
X41157026Y-95817151D01*
X41157028Y-95817151D01*
X41158766Y-96860000D01*
X43780000Y-96860000D01*
X43780000Y-116980047D01*
X43799998Y-120749623D01*
X43800000Y-120750281D01*
X43800000Y-155590000D01*
X243090000Y-155590000D01*
X243090000Y-42610000D01*
X245850000Y-42610000D01*
X245850000Y-157946000D01*
G37*
%TD.AperFunction*%
%TD*%
%TA.AperFunction,Conductor*%
%TO.N,GND*%
G36*
X50695000Y-24340000D02*
G01*
X54220000Y-24340000D01*
X54220000Y-48451000D01*
X54200315Y-48518039D01*
X54147511Y-48563794D01*
X54096000Y-48575000D01*
X43762151Y-48575000D01*
X43785022Y-85778301D01*
X43774579Y-85828185D01*
X43745842Y-85893702D01*
X43688866Y-86118691D01*
X43688864Y-86118702D01*
X43669700Y-86349993D01*
X43669700Y-86350006D01*
X43688864Y-86581297D01*
X43688866Y-86581308D01*
X43745842Y-86806297D01*
X43775283Y-86873419D01*
X43785726Y-86923151D01*
X43790087Y-94016754D01*
X43779644Y-94066638D01*
X43745842Y-94143702D01*
X43688866Y-94368691D01*
X43688864Y-94368702D01*
X43669700Y-94599993D01*
X43669700Y-94600006D01*
X43688864Y-94831297D01*
X43688866Y-94831308D01*
X43745843Y-95056300D01*
X43780362Y-95134997D01*
X43790806Y-95184731D01*
X43791798Y-96796763D01*
X43780000Y-96837035D01*
X43780000Y-96860000D01*
X41158766Y-96860000D01*
X41154110Y-94066638D01*
X41070000Y-43600000D01*
X41070000Y-28954000D01*
X41089685Y-28886961D01*
X41142489Y-28841206D01*
X41194000Y-28830000D01*
X47770000Y-28830000D01*
X47770000Y-22104000D01*
X47789685Y-22036961D01*
X47842489Y-21991206D01*
X47894000Y-21980000D01*
X50695000Y-21980000D01*
X50695000Y-24340000D01*
G37*
%TD.AperFunction*%
%TD*%
%TA.AperFunction,Conductor*%
%TO.N,GND*%
G36*
X90260000Y-96646000D02*
G01*
X90240315Y-96713039D01*
X90187511Y-96758794D01*
X90136000Y-96770000D01*
X88354468Y-96770000D01*
X88287429Y-96750315D01*
X88241674Y-96697511D01*
X88232482Y-96655258D01*
X88230940Y-96655393D01*
X88210635Y-96423313D01*
X88210635Y-96423308D01*
X88151739Y-96203504D01*
X88055568Y-95997266D01*
X88023130Y-95950940D01*
X87962425Y-95864242D01*
X87940097Y-95798035D01*
X87940000Y-95793119D01*
X87940000Y-51470000D01*
X90260000Y-51470000D01*
X90260000Y-96646000D01*
G37*
%TD.AperFunction*%
%TD*%
M02*
