%TF.GenerationSoftware,KiCad,Pcbnew,8.0.5*%
%TF.CreationDate,2024-10-27T18:20:28+00:00*%
%TF.ProjectId,Oric-PS2USB,4f726963-2d50-4533-9255-53422e6b6963,rev?*%
%TF.SameCoordinates,Original*%
%TF.FileFunction,Legend,Top*%
%TF.FilePolarity,Positive*%
%FSLAX46Y46*%
G04 Gerber Fmt 4.6, Leading zero omitted, Abs format (unit mm)*
G04 Created by KiCad (PCBNEW 8.0.5) date 2024-10-27 18:20:28*
%MOMM*%
%LPD*%
G01*
G04 APERTURE LIST*
%ADD10C,0.150000*%
%ADD11C,0.129000*%
%ADD12C,0.108000*%
%ADD13C,0.120000*%
%ADD14C,0.100000*%
G04 APERTURE END LIST*
D10*
X39150000Y-51950000D02*
X74820000Y-51950000D01*
X74820000Y-54610000D01*
X39150000Y-54610000D01*
X39150000Y-51950000D01*
X28112969Y-107671476D02*
X28341541Y-107671476D01*
X28341541Y-107671476D02*
X28455826Y-107728619D01*
X28455826Y-107728619D02*
X28570112Y-107842905D01*
X28570112Y-107842905D02*
X28627255Y-108071476D01*
X28627255Y-108071476D02*
X28627255Y-108471476D01*
X28627255Y-108471476D02*
X28570112Y-108700048D01*
X28570112Y-108700048D02*
X28455826Y-108814334D01*
X28455826Y-108814334D02*
X28341541Y-108871476D01*
X28341541Y-108871476D02*
X28112969Y-108871476D01*
X28112969Y-108871476D02*
X27998684Y-108814334D01*
X27998684Y-108814334D02*
X27884398Y-108700048D01*
X27884398Y-108700048D02*
X27827255Y-108471476D01*
X27827255Y-108471476D02*
X27827255Y-108071476D01*
X27827255Y-108071476D02*
X27884398Y-107842905D01*
X27884398Y-107842905D02*
X27998684Y-107728619D01*
X27998684Y-107728619D02*
X28112969Y-107671476D01*
X29141541Y-108871476D02*
X29141541Y-108071476D01*
X29141541Y-108300048D02*
X29198684Y-108185762D01*
X29198684Y-108185762D02*
X29255827Y-108128619D01*
X29255827Y-108128619D02*
X29370112Y-108071476D01*
X29370112Y-108071476D02*
X29484398Y-108071476D01*
X29884398Y-108871476D02*
X29884398Y-108071476D01*
X29884398Y-107671476D02*
X29827255Y-107728619D01*
X29827255Y-107728619D02*
X29884398Y-107785762D01*
X29884398Y-107785762D02*
X29941541Y-107728619D01*
X29941541Y-107728619D02*
X29884398Y-107671476D01*
X29884398Y-107671476D02*
X29884398Y-107785762D01*
X30970113Y-108814334D02*
X30855827Y-108871476D01*
X30855827Y-108871476D02*
X30627255Y-108871476D01*
X30627255Y-108871476D02*
X30512970Y-108814334D01*
X30512970Y-108814334D02*
X30455827Y-108757191D01*
X30455827Y-108757191D02*
X30398684Y-108642905D01*
X30398684Y-108642905D02*
X30398684Y-108300048D01*
X30398684Y-108300048D02*
X30455827Y-108185762D01*
X30455827Y-108185762D02*
X30512970Y-108128619D01*
X30512970Y-108128619D02*
X30627255Y-108071476D01*
X30627255Y-108071476D02*
X30855827Y-108071476D01*
X30855827Y-108071476D02*
X30970113Y-108128619D01*
X32398684Y-108871476D02*
X32398684Y-107671476D01*
X32398684Y-107671476D02*
X32855827Y-107671476D01*
X32855827Y-107671476D02*
X32970112Y-107728619D01*
X32970112Y-107728619D02*
X33027255Y-107785762D01*
X33027255Y-107785762D02*
X33084398Y-107900048D01*
X33084398Y-107900048D02*
X33084398Y-108071476D01*
X33084398Y-108071476D02*
X33027255Y-108185762D01*
X33027255Y-108185762D02*
X32970112Y-108242905D01*
X32970112Y-108242905D02*
X32855827Y-108300048D01*
X32855827Y-108300048D02*
X32398684Y-108300048D01*
X33541541Y-108814334D02*
X33712970Y-108871476D01*
X33712970Y-108871476D02*
X33998684Y-108871476D01*
X33998684Y-108871476D02*
X34112970Y-108814334D01*
X34112970Y-108814334D02*
X34170112Y-108757191D01*
X34170112Y-108757191D02*
X34227255Y-108642905D01*
X34227255Y-108642905D02*
X34227255Y-108528619D01*
X34227255Y-108528619D02*
X34170112Y-108414334D01*
X34170112Y-108414334D02*
X34112970Y-108357191D01*
X34112970Y-108357191D02*
X33998684Y-108300048D01*
X33998684Y-108300048D02*
X33770112Y-108242905D01*
X33770112Y-108242905D02*
X33655827Y-108185762D01*
X33655827Y-108185762D02*
X33598684Y-108128619D01*
X33598684Y-108128619D02*
X33541541Y-108014334D01*
X33541541Y-108014334D02*
X33541541Y-107900048D01*
X33541541Y-107900048D02*
X33598684Y-107785762D01*
X33598684Y-107785762D02*
X33655827Y-107728619D01*
X33655827Y-107728619D02*
X33770112Y-107671476D01*
X33770112Y-107671476D02*
X34055827Y-107671476D01*
X34055827Y-107671476D02*
X34227255Y-107728619D01*
X35598684Y-107614334D02*
X34570112Y-109157191D01*
X35941541Y-107785762D02*
X35998684Y-107728619D01*
X35998684Y-107728619D02*
X36112970Y-107671476D01*
X36112970Y-107671476D02*
X36398684Y-107671476D01*
X36398684Y-107671476D02*
X36512970Y-107728619D01*
X36512970Y-107728619D02*
X36570112Y-107785762D01*
X36570112Y-107785762D02*
X36627255Y-107900048D01*
X36627255Y-107900048D02*
X36627255Y-108014334D01*
X36627255Y-108014334D02*
X36570112Y-108185762D01*
X36570112Y-108185762D02*
X35884398Y-108871476D01*
X35884398Y-108871476D02*
X36627255Y-108871476D01*
X38055827Y-107671476D02*
X38055827Y-108642905D01*
X38055827Y-108642905D02*
X38112970Y-108757191D01*
X38112970Y-108757191D02*
X38170113Y-108814334D01*
X38170113Y-108814334D02*
X38284398Y-108871476D01*
X38284398Y-108871476D02*
X38512970Y-108871476D01*
X38512970Y-108871476D02*
X38627255Y-108814334D01*
X38627255Y-108814334D02*
X38684398Y-108757191D01*
X38684398Y-108757191D02*
X38741541Y-108642905D01*
X38741541Y-108642905D02*
X38741541Y-107671476D01*
X39255827Y-108814334D02*
X39427256Y-108871476D01*
X39427256Y-108871476D02*
X39712970Y-108871476D01*
X39712970Y-108871476D02*
X39827256Y-108814334D01*
X39827256Y-108814334D02*
X39884398Y-108757191D01*
X39884398Y-108757191D02*
X39941541Y-108642905D01*
X39941541Y-108642905D02*
X39941541Y-108528619D01*
X39941541Y-108528619D02*
X39884398Y-108414334D01*
X39884398Y-108414334D02*
X39827256Y-108357191D01*
X39827256Y-108357191D02*
X39712970Y-108300048D01*
X39712970Y-108300048D02*
X39484398Y-108242905D01*
X39484398Y-108242905D02*
X39370113Y-108185762D01*
X39370113Y-108185762D02*
X39312970Y-108128619D01*
X39312970Y-108128619D02*
X39255827Y-108014334D01*
X39255827Y-108014334D02*
X39255827Y-107900048D01*
X39255827Y-107900048D02*
X39312970Y-107785762D01*
X39312970Y-107785762D02*
X39370113Y-107728619D01*
X39370113Y-107728619D02*
X39484398Y-107671476D01*
X39484398Y-107671476D02*
X39770113Y-107671476D01*
X39770113Y-107671476D02*
X39941541Y-107728619D01*
X40855827Y-108242905D02*
X41027255Y-108300048D01*
X41027255Y-108300048D02*
X41084398Y-108357191D01*
X41084398Y-108357191D02*
X41141541Y-108471476D01*
X41141541Y-108471476D02*
X41141541Y-108642905D01*
X41141541Y-108642905D02*
X41084398Y-108757191D01*
X41084398Y-108757191D02*
X41027255Y-108814334D01*
X41027255Y-108814334D02*
X40912970Y-108871476D01*
X40912970Y-108871476D02*
X40455827Y-108871476D01*
X40455827Y-108871476D02*
X40455827Y-107671476D01*
X40455827Y-107671476D02*
X40855827Y-107671476D01*
X40855827Y-107671476D02*
X40970113Y-107728619D01*
X40970113Y-107728619D02*
X41027255Y-107785762D01*
X41027255Y-107785762D02*
X41084398Y-107900048D01*
X41084398Y-107900048D02*
X41084398Y-108014334D01*
X41084398Y-108014334D02*
X41027255Y-108128619D01*
X41027255Y-108128619D02*
X40970113Y-108185762D01*
X40970113Y-108185762D02*
X40855827Y-108242905D01*
X40855827Y-108242905D02*
X40455827Y-108242905D01*
X27884398Y-110803409D02*
X27884398Y-109603409D01*
X28570112Y-110803409D02*
X28055826Y-110117695D01*
X28570112Y-109603409D02*
X27884398Y-110289124D01*
X29541541Y-110746267D02*
X29427255Y-110803409D01*
X29427255Y-110803409D02*
X29198684Y-110803409D01*
X29198684Y-110803409D02*
X29084398Y-110746267D01*
X29084398Y-110746267D02*
X29027255Y-110631981D01*
X29027255Y-110631981D02*
X29027255Y-110174838D01*
X29027255Y-110174838D02*
X29084398Y-110060552D01*
X29084398Y-110060552D02*
X29198684Y-110003409D01*
X29198684Y-110003409D02*
X29427255Y-110003409D01*
X29427255Y-110003409D02*
X29541541Y-110060552D01*
X29541541Y-110060552D02*
X29598684Y-110174838D01*
X29598684Y-110174838D02*
X29598684Y-110289124D01*
X29598684Y-110289124D02*
X29027255Y-110403409D01*
X29998683Y-110003409D02*
X30284397Y-110803409D01*
X30570112Y-110003409D02*
X30284397Y-110803409D01*
X30284397Y-110803409D02*
X30170112Y-111089124D01*
X30170112Y-111089124D02*
X30112969Y-111146267D01*
X30112969Y-111146267D02*
X29998683Y-111203409D01*
X31027255Y-110803409D02*
X31027255Y-109603409D01*
X31027255Y-110060552D02*
X31141541Y-110003409D01*
X31141541Y-110003409D02*
X31370112Y-110003409D01*
X31370112Y-110003409D02*
X31484398Y-110060552D01*
X31484398Y-110060552D02*
X31541541Y-110117695D01*
X31541541Y-110117695D02*
X31598683Y-110231981D01*
X31598683Y-110231981D02*
X31598683Y-110574838D01*
X31598683Y-110574838D02*
X31541541Y-110689124D01*
X31541541Y-110689124D02*
X31484398Y-110746267D01*
X31484398Y-110746267D02*
X31370112Y-110803409D01*
X31370112Y-110803409D02*
X31141541Y-110803409D01*
X31141541Y-110803409D02*
X31027255Y-110746267D01*
X32284397Y-110803409D02*
X32170112Y-110746267D01*
X32170112Y-110746267D02*
X32112969Y-110689124D01*
X32112969Y-110689124D02*
X32055826Y-110574838D01*
X32055826Y-110574838D02*
X32055826Y-110231981D01*
X32055826Y-110231981D02*
X32112969Y-110117695D01*
X32112969Y-110117695D02*
X32170112Y-110060552D01*
X32170112Y-110060552D02*
X32284397Y-110003409D01*
X32284397Y-110003409D02*
X32455826Y-110003409D01*
X32455826Y-110003409D02*
X32570112Y-110060552D01*
X32570112Y-110060552D02*
X32627255Y-110117695D01*
X32627255Y-110117695D02*
X32684397Y-110231981D01*
X32684397Y-110231981D02*
X32684397Y-110574838D01*
X32684397Y-110574838D02*
X32627255Y-110689124D01*
X32627255Y-110689124D02*
X32570112Y-110746267D01*
X32570112Y-110746267D02*
X32455826Y-110803409D01*
X32455826Y-110803409D02*
X32284397Y-110803409D01*
X33712969Y-110803409D02*
X33712969Y-110174838D01*
X33712969Y-110174838D02*
X33655826Y-110060552D01*
X33655826Y-110060552D02*
X33541540Y-110003409D01*
X33541540Y-110003409D02*
X33312969Y-110003409D01*
X33312969Y-110003409D02*
X33198683Y-110060552D01*
X33712969Y-110746267D02*
X33598683Y-110803409D01*
X33598683Y-110803409D02*
X33312969Y-110803409D01*
X33312969Y-110803409D02*
X33198683Y-110746267D01*
X33198683Y-110746267D02*
X33141540Y-110631981D01*
X33141540Y-110631981D02*
X33141540Y-110517695D01*
X33141540Y-110517695D02*
X33198683Y-110403409D01*
X33198683Y-110403409D02*
X33312969Y-110346267D01*
X33312969Y-110346267D02*
X33598683Y-110346267D01*
X33598683Y-110346267D02*
X33712969Y-110289124D01*
X34284397Y-110803409D02*
X34284397Y-110003409D01*
X34284397Y-110231981D02*
X34341540Y-110117695D01*
X34341540Y-110117695D02*
X34398683Y-110060552D01*
X34398683Y-110060552D02*
X34512968Y-110003409D01*
X34512968Y-110003409D02*
X34627254Y-110003409D01*
X35541540Y-110803409D02*
X35541540Y-109603409D01*
X35541540Y-110746267D02*
X35427254Y-110803409D01*
X35427254Y-110803409D02*
X35198682Y-110803409D01*
X35198682Y-110803409D02*
X35084397Y-110746267D01*
X35084397Y-110746267D02*
X35027254Y-110689124D01*
X35027254Y-110689124D02*
X34970111Y-110574838D01*
X34970111Y-110574838D02*
X34970111Y-110231981D01*
X34970111Y-110231981D02*
X35027254Y-110117695D01*
X35027254Y-110117695D02*
X35084397Y-110060552D01*
X35084397Y-110060552D02*
X35198682Y-110003409D01*
X35198682Y-110003409D02*
X35427254Y-110003409D01*
X35427254Y-110003409D02*
X35541540Y-110060552D01*
X37027254Y-110803409D02*
X37027254Y-109603409D01*
X37027254Y-109603409D02*
X37484397Y-109603409D01*
X37484397Y-109603409D02*
X37598682Y-109660552D01*
X37598682Y-109660552D02*
X37655825Y-109717695D01*
X37655825Y-109717695D02*
X37712968Y-109831981D01*
X37712968Y-109831981D02*
X37712968Y-110003409D01*
X37712968Y-110003409D02*
X37655825Y-110117695D01*
X37655825Y-110117695D02*
X37598682Y-110174838D01*
X37598682Y-110174838D02*
X37484397Y-110231981D01*
X37484397Y-110231981D02*
X37027254Y-110231981D01*
X38227254Y-110803409D02*
X38227254Y-110003409D01*
X38227254Y-110231981D02*
X38284397Y-110117695D01*
X38284397Y-110117695D02*
X38341540Y-110060552D01*
X38341540Y-110060552D02*
X38455825Y-110003409D01*
X38455825Y-110003409D02*
X38570111Y-110003409D01*
X39141539Y-110803409D02*
X39027254Y-110746267D01*
X39027254Y-110746267D02*
X38970111Y-110689124D01*
X38970111Y-110689124D02*
X38912968Y-110574838D01*
X38912968Y-110574838D02*
X38912968Y-110231981D01*
X38912968Y-110231981D02*
X38970111Y-110117695D01*
X38970111Y-110117695D02*
X39027254Y-110060552D01*
X39027254Y-110060552D02*
X39141539Y-110003409D01*
X39141539Y-110003409D02*
X39312968Y-110003409D01*
X39312968Y-110003409D02*
X39427254Y-110060552D01*
X39427254Y-110060552D02*
X39484397Y-110117695D01*
X39484397Y-110117695D02*
X39541539Y-110231981D01*
X39541539Y-110231981D02*
X39541539Y-110574838D01*
X39541539Y-110574838D02*
X39484397Y-110689124D01*
X39484397Y-110689124D02*
X39427254Y-110746267D01*
X39427254Y-110746267D02*
X39312968Y-110803409D01*
X39312968Y-110803409D02*
X39141539Y-110803409D01*
X39884396Y-110003409D02*
X40341539Y-110003409D01*
X40055825Y-109603409D02*
X40055825Y-110631981D01*
X40055825Y-110631981D02*
X40112968Y-110746267D01*
X40112968Y-110746267D02*
X40227253Y-110803409D01*
X40227253Y-110803409D02*
X40341539Y-110803409D01*
X40912967Y-110803409D02*
X40798682Y-110746267D01*
X40798682Y-110746267D02*
X40741539Y-110689124D01*
X40741539Y-110689124D02*
X40684396Y-110574838D01*
X40684396Y-110574838D02*
X40684396Y-110231981D01*
X40684396Y-110231981D02*
X40741539Y-110117695D01*
X40741539Y-110117695D02*
X40798682Y-110060552D01*
X40798682Y-110060552D02*
X40912967Y-110003409D01*
X40912967Y-110003409D02*
X41084396Y-110003409D01*
X41084396Y-110003409D02*
X41198682Y-110060552D01*
X41198682Y-110060552D02*
X41255825Y-110117695D01*
X41255825Y-110117695D02*
X41312967Y-110231981D01*
X41312967Y-110231981D02*
X41312967Y-110574838D01*
X41312967Y-110574838D02*
X41255825Y-110689124D01*
X41255825Y-110689124D02*
X41198682Y-110746267D01*
X41198682Y-110746267D02*
X41084396Y-110803409D01*
X41084396Y-110803409D02*
X40912967Y-110803409D01*
X41655824Y-110003409D02*
X42112967Y-110003409D01*
X41827253Y-109603409D02*
X41827253Y-110631981D01*
X41827253Y-110631981D02*
X41884396Y-110746267D01*
X41884396Y-110746267D02*
X41998681Y-110803409D01*
X41998681Y-110803409D02*
X42112967Y-110803409D01*
X42398681Y-110003409D02*
X42684395Y-110803409D01*
X42970110Y-110003409D02*
X42684395Y-110803409D01*
X42684395Y-110803409D02*
X42570110Y-111089124D01*
X42570110Y-111089124D02*
X42512967Y-111146267D01*
X42512967Y-111146267D02*
X42398681Y-111203409D01*
X43427253Y-110003409D02*
X43427253Y-111203409D01*
X43427253Y-110060552D02*
X43541539Y-110003409D01*
X43541539Y-110003409D02*
X43770110Y-110003409D01*
X43770110Y-110003409D02*
X43884396Y-110060552D01*
X43884396Y-110060552D02*
X43941539Y-110117695D01*
X43941539Y-110117695D02*
X43998681Y-110231981D01*
X43998681Y-110231981D02*
X43998681Y-110574838D01*
X43998681Y-110574838D02*
X43941539Y-110689124D01*
X43941539Y-110689124D02*
X43884396Y-110746267D01*
X43884396Y-110746267D02*
X43770110Y-110803409D01*
X43770110Y-110803409D02*
X43541539Y-110803409D01*
X43541539Y-110803409D02*
X43427253Y-110746267D01*
X44970110Y-110746267D02*
X44855824Y-110803409D01*
X44855824Y-110803409D02*
X44627253Y-110803409D01*
X44627253Y-110803409D02*
X44512967Y-110746267D01*
X44512967Y-110746267D02*
X44455824Y-110631981D01*
X44455824Y-110631981D02*
X44455824Y-110174838D01*
X44455824Y-110174838D02*
X44512967Y-110060552D01*
X44512967Y-110060552D02*
X44627253Y-110003409D01*
X44627253Y-110003409D02*
X44855824Y-110003409D01*
X44855824Y-110003409D02*
X44970110Y-110060552D01*
X44970110Y-110060552D02*
X45027253Y-110174838D01*
X45027253Y-110174838D02*
X45027253Y-110289124D01*
X45027253Y-110289124D02*
X44455824Y-110403409D01*
X46341538Y-110003409D02*
X46627252Y-110803409D01*
X46627252Y-110803409D02*
X46912967Y-110003409D01*
X47998681Y-110803409D02*
X47312967Y-110803409D01*
X47655824Y-110803409D02*
X47655824Y-109603409D01*
X47655824Y-109603409D02*
X47541538Y-109774838D01*
X47541538Y-109774838D02*
X47427253Y-109889124D01*
X47427253Y-109889124D02*
X47312967Y-109946267D01*
X28627255Y-112163914D02*
X28570112Y-112106771D01*
X28570112Y-112106771D02*
X28455826Y-112049628D01*
X28455826Y-112049628D02*
X28341541Y-112049628D01*
X28341541Y-112049628D02*
X28227255Y-112106771D01*
X28227255Y-112106771D02*
X28170112Y-112163914D01*
X28170112Y-112163914D02*
X28112969Y-112278200D01*
X28112969Y-112278200D02*
X28112969Y-112392485D01*
X28112969Y-112392485D02*
X28170112Y-112506771D01*
X28170112Y-112506771D02*
X28227255Y-112563914D01*
X28227255Y-112563914D02*
X28341541Y-112621057D01*
X28341541Y-112621057D02*
X28455826Y-112621057D01*
X28455826Y-112621057D02*
X28570112Y-112563914D01*
X28570112Y-112563914D02*
X28627255Y-112506771D01*
X28627255Y-112049628D02*
X28627255Y-112506771D01*
X28627255Y-112506771D02*
X28684398Y-112563914D01*
X28684398Y-112563914D02*
X28741541Y-112563914D01*
X28741541Y-112563914D02*
X28855826Y-112506771D01*
X28855826Y-112506771D02*
X28912969Y-112392485D01*
X28912969Y-112392485D02*
X28912969Y-112106771D01*
X28912969Y-112106771D02*
X28798684Y-111935342D01*
X28798684Y-111935342D02*
X28627255Y-111821057D01*
X28627255Y-111821057D02*
X28398684Y-111763914D01*
X28398684Y-111763914D02*
X28170112Y-111821057D01*
X28170112Y-111821057D02*
X27998684Y-111935342D01*
X27998684Y-111935342D02*
X27884398Y-112106771D01*
X27884398Y-112106771D02*
X27827255Y-112335342D01*
X27827255Y-112335342D02*
X27884398Y-112563914D01*
X27884398Y-112563914D02*
X27998684Y-112735342D01*
X27998684Y-112735342D02*
X28170112Y-112849628D01*
X28170112Y-112849628D02*
X28398684Y-112906771D01*
X28398684Y-112906771D02*
X28627255Y-112849628D01*
X28627255Y-112849628D02*
X28798684Y-112735342D01*
X29941541Y-111935342D02*
X29941541Y-112906771D01*
X29941541Y-112906771D02*
X29884398Y-113021057D01*
X29884398Y-113021057D02*
X29827255Y-113078200D01*
X29827255Y-113078200D02*
X29712969Y-113135342D01*
X29712969Y-113135342D02*
X29541541Y-113135342D01*
X29541541Y-113135342D02*
X29427255Y-113078200D01*
X29941541Y-112678200D02*
X29827255Y-112735342D01*
X29827255Y-112735342D02*
X29598683Y-112735342D01*
X29598683Y-112735342D02*
X29484398Y-112678200D01*
X29484398Y-112678200D02*
X29427255Y-112621057D01*
X29427255Y-112621057D02*
X29370112Y-112506771D01*
X29370112Y-112506771D02*
X29370112Y-112163914D01*
X29370112Y-112163914D02*
X29427255Y-112049628D01*
X29427255Y-112049628D02*
X29484398Y-111992485D01*
X29484398Y-111992485D02*
X29598683Y-111935342D01*
X29598683Y-111935342D02*
X29827255Y-111935342D01*
X29827255Y-111935342D02*
X29941541Y-111992485D01*
X30512969Y-112735342D02*
X30512969Y-111935342D01*
X30512969Y-112163914D02*
X30570112Y-112049628D01*
X30570112Y-112049628D02*
X30627255Y-111992485D01*
X30627255Y-111992485D02*
X30741540Y-111935342D01*
X30741540Y-111935342D02*
X30855826Y-111935342D01*
X31770112Y-112735342D02*
X31770112Y-112106771D01*
X31770112Y-112106771D02*
X31712969Y-111992485D01*
X31712969Y-111992485D02*
X31598683Y-111935342D01*
X31598683Y-111935342D02*
X31370112Y-111935342D01*
X31370112Y-111935342D02*
X31255826Y-111992485D01*
X31770112Y-112678200D02*
X31655826Y-112735342D01*
X31655826Y-112735342D02*
X31370112Y-112735342D01*
X31370112Y-112735342D02*
X31255826Y-112678200D01*
X31255826Y-112678200D02*
X31198683Y-112563914D01*
X31198683Y-112563914D02*
X31198683Y-112449628D01*
X31198683Y-112449628D02*
X31255826Y-112335342D01*
X31255826Y-112335342D02*
X31370112Y-112278200D01*
X31370112Y-112278200D02*
X31655826Y-112278200D01*
X31655826Y-112278200D02*
X31770112Y-112221057D01*
X32341540Y-111935342D02*
X32341540Y-112735342D01*
X32341540Y-112049628D02*
X32398683Y-111992485D01*
X32398683Y-111992485D02*
X32512968Y-111935342D01*
X32512968Y-111935342D02*
X32684397Y-111935342D01*
X32684397Y-111935342D02*
X32798683Y-111992485D01*
X32798683Y-111992485D02*
X32855826Y-112106771D01*
X32855826Y-112106771D02*
X32855826Y-112735342D01*
X33941540Y-112735342D02*
X33941540Y-111535342D01*
X33941540Y-112678200D02*
X33827254Y-112735342D01*
X33827254Y-112735342D02*
X33598682Y-112735342D01*
X33598682Y-112735342D02*
X33484397Y-112678200D01*
X33484397Y-112678200D02*
X33427254Y-112621057D01*
X33427254Y-112621057D02*
X33370111Y-112506771D01*
X33370111Y-112506771D02*
X33370111Y-112163914D01*
X33370111Y-112163914D02*
X33427254Y-112049628D01*
X33427254Y-112049628D02*
X33484397Y-111992485D01*
X33484397Y-111992485D02*
X33598682Y-111935342D01*
X33598682Y-111935342D02*
X33827254Y-111935342D01*
X33827254Y-111935342D02*
X33941540Y-111992485D01*
X34684396Y-112735342D02*
X34570111Y-112678200D01*
X34570111Y-112678200D02*
X34512968Y-112621057D01*
X34512968Y-112621057D02*
X34455825Y-112506771D01*
X34455825Y-112506771D02*
X34455825Y-112163914D01*
X34455825Y-112163914D02*
X34512968Y-112049628D01*
X34512968Y-112049628D02*
X34570111Y-111992485D01*
X34570111Y-111992485D02*
X34684396Y-111935342D01*
X34684396Y-111935342D02*
X34855825Y-111935342D01*
X34855825Y-111935342D02*
X34970111Y-111992485D01*
X34970111Y-111992485D02*
X35027254Y-112049628D01*
X35027254Y-112049628D02*
X35084396Y-112163914D01*
X35084396Y-112163914D02*
X35084396Y-112506771D01*
X35084396Y-112506771D02*
X35027254Y-112621057D01*
X35027254Y-112621057D02*
X34970111Y-112678200D01*
X34970111Y-112678200D02*
X34855825Y-112735342D01*
X34855825Y-112735342D02*
X34684396Y-112735342D01*
X35770110Y-112735342D02*
X35655825Y-112678200D01*
X35655825Y-112678200D02*
X35598682Y-112563914D01*
X35598682Y-112563914D02*
X35598682Y-111535342D01*
X36741539Y-112735342D02*
X36741539Y-111535342D01*
X36741539Y-112678200D02*
X36627253Y-112735342D01*
X36627253Y-112735342D02*
X36398681Y-112735342D01*
X36398681Y-112735342D02*
X36284396Y-112678200D01*
X36284396Y-112678200D02*
X36227253Y-112621057D01*
X36227253Y-112621057D02*
X36170110Y-112506771D01*
X36170110Y-112506771D02*
X36170110Y-112163914D01*
X36170110Y-112163914D02*
X36227253Y-112049628D01*
X36227253Y-112049628D02*
X36284396Y-111992485D01*
X36284396Y-111992485D02*
X36398681Y-111935342D01*
X36398681Y-111935342D02*
X36627253Y-111935342D01*
X36627253Y-111935342D02*
X36741539Y-111992485D01*
X37312967Y-112735342D02*
X37312967Y-111935342D01*
X37312967Y-111535342D02*
X37255824Y-111592485D01*
X37255824Y-111592485D02*
X37312967Y-111649628D01*
X37312967Y-111649628D02*
X37370110Y-111592485D01*
X37370110Y-111592485D02*
X37312967Y-111535342D01*
X37312967Y-111535342D02*
X37312967Y-111649628D01*
X38398682Y-112735342D02*
X38398682Y-112106771D01*
X38398682Y-112106771D02*
X38341539Y-111992485D01*
X38341539Y-111992485D02*
X38227253Y-111935342D01*
X38227253Y-111935342D02*
X37998682Y-111935342D01*
X37998682Y-111935342D02*
X37884396Y-111992485D01*
X38398682Y-112678200D02*
X38284396Y-112735342D01*
X38284396Y-112735342D02*
X37998682Y-112735342D01*
X37998682Y-112735342D02*
X37884396Y-112678200D01*
X37884396Y-112678200D02*
X37827253Y-112563914D01*
X37827253Y-112563914D02*
X37827253Y-112449628D01*
X37827253Y-112449628D02*
X37884396Y-112335342D01*
X37884396Y-112335342D02*
X37998682Y-112278200D01*
X37998682Y-112278200D02*
X38284396Y-112278200D01*
X38284396Y-112278200D02*
X38398682Y-112221057D01*
X38970110Y-111935342D02*
X38970110Y-112735342D01*
X38970110Y-112049628D02*
X39027253Y-111992485D01*
X39027253Y-111992485D02*
X39141538Y-111935342D01*
X39141538Y-111935342D02*
X39312967Y-111935342D01*
X39312967Y-111935342D02*
X39427253Y-111992485D01*
X39427253Y-111992485D02*
X39484396Y-112106771D01*
X39484396Y-112106771D02*
X39484396Y-112735342D01*
X41598681Y-112735342D02*
X40912967Y-112735342D01*
X41255824Y-112735342D02*
X41255824Y-111535342D01*
X41255824Y-111535342D02*
X41141538Y-111706771D01*
X41141538Y-111706771D02*
X41027253Y-111821057D01*
X41027253Y-111821057D02*
X40912967Y-111878200D01*
X42341538Y-111535342D02*
X42455824Y-111535342D01*
X42455824Y-111535342D02*
X42570110Y-111592485D01*
X42570110Y-111592485D02*
X42627253Y-111649628D01*
X42627253Y-111649628D02*
X42684395Y-111763914D01*
X42684395Y-111763914D02*
X42741538Y-111992485D01*
X42741538Y-111992485D02*
X42741538Y-112278200D01*
X42741538Y-112278200D02*
X42684395Y-112506771D01*
X42684395Y-112506771D02*
X42627253Y-112621057D01*
X42627253Y-112621057D02*
X42570110Y-112678200D01*
X42570110Y-112678200D02*
X42455824Y-112735342D01*
X42455824Y-112735342D02*
X42341538Y-112735342D01*
X42341538Y-112735342D02*
X42227253Y-112678200D01*
X42227253Y-112678200D02*
X42170110Y-112621057D01*
X42170110Y-112621057D02*
X42112967Y-112506771D01*
X42112967Y-112506771D02*
X42055824Y-112278200D01*
X42055824Y-112278200D02*
X42055824Y-111992485D01*
X42055824Y-111992485D02*
X42112967Y-111763914D01*
X42112967Y-111763914D02*
X42170110Y-111649628D01*
X42170110Y-111649628D02*
X42227253Y-111592485D01*
X42227253Y-111592485D02*
X42341538Y-111535342D01*
X44112967Y-111478200D02*
X43084395Y-113021057D01*
X44455824Y-111649628D02*
X44512967Y-111592485D01*
X44512967Y-111592485D02*
X44627253Y-111535342D01*
X44627253Y-111535342D02*
X44912967Y-111535342D01*
X44912967Y-111535342D02*
X45027253Y-111592485D01*
X45027253Y-111592485D02*
X45084395Y-111649628D01*
X45084395Y-111649628D02*
X45141538Y-111763914D01*
X45141538Y-111763914D02*
X45141538Y-111878200D01*
X45141538Y-111878200D02*
X45084395Y-112049628D01*
X45084395Y-112049628D02*
X44398681Y-112735342D01*
X44398681Y-112735342D02*
X45141538Y-112735342D01*
X45884395Y-111535342D02*
X45998681Y-111535342D01*
X45998681Y-111535342D02*
X46112967Y-111592485D01*
X46112967Y-111592485D02*
X46170110Y-111649628D01*
X46170110Y-111649628D02*
X46227252Y-111763914D01*
X46227252Y-111763914D02*
X46284395Y-111992485D01*
X46284395Y-111992485D02*
X46284395Y-112278200D01*
X46284395Y-112278200D02*
X46227252Y-112506771D01*
X46227252Y-112506771D02*
X46170110Y-112621057D01*
X46170110Y-112621057D02*
X46112967Y-112678200D01*
X46112967Y-112678200D02*
X45998681Y-112735342D01*
X45998681Y-112735342D02*
X45884395Y-112735342D01*
X45884395Y-112735342D02*
X45770110Y-112678200D01*
X45770110Y-112678200D02*
X45712967Y-112621057D01*
X45712967Y-112621057D02*
X45655824Y-112506771D01*
X45655824Y-112506771D02*
X45598681Y-112278200D01*
X45598681Y-112278200D02*
X45598681Y-111992485D01*
X45598681Y-111992485D02*
X45655824Y-111763914D01*
X45655824Y-111763914D02*
X45712967Y-111649628D01*
X45712967Y-111649628D02*
X45770110Y-111592485D01*
X45770110Y-111592485D02*
X45884395Y-111535342D01*
X46741538Y-111649628D02*
X46798681Y-111592485D01*
X46798681Y-111592485D02*
X46912967Y-111535342D01*
X46912967Y-111535342D02*
X47198681Y-111535342D01*
X47198681Y-111535342D02*
X47312967Y-111592485D01*
X47312967Y-111592485D02*
X47370109Y-111649628D01*
X47370109Y-111649628D02*
X47427252Y-111763914D01*
X47427252Y-111763914D02*
X47427252Y-111878200D01*
X47427252Y-111878200D02*
X47370109Y-112049628D01*
X47370109Y-112049628D02*
X46684395Y-112735342D01*
X46684395Y-112735342D02*
X47427252Y-112735342D01*
X48455824Y-111935342D02*
X48455824Y-112735342D01*
X48170109Y-111478200D02*
X47884395Y-112335342D01*
X47884395Y-112335342D02*
X48627252Y-112335342D01*
X34239819Y-71124047D02*
X33239819Y-71124047D01*
X33239819Y-71124047D02*
X34239819Y-70552619D01*
X34239819Y-70552619D02*
X33239819Y-70552619D01*
X33954104Y-70124047D02*
X33954104Y-69647857D01*
X34239819Y-70219285D02*
X33239819Y-69885952D01*
X33239819Y-69885952D02*
X34239819Y-69552619D01*
X34239819Y-69219285D02*
X33239819Y-69219285D01*
X33239819Y-69219285D02*
X34239819Y-68647857D01*
X34239819Y-68647857D02*
X33239819Y-68647857D01*
X33239819Y-67981190D02*
X33239819Y-67790714D01*
X33239819Y-67790714D02*
X33287438Y-67695476D01*
X33287438Y-67695476D02*
X33382676Y-67600238D01*
X33382676Y-67600238D02*
X33573152Y-67552619D01*
X33573152Y-67552619D02*
X33906485Y-67552619D01*
X33906485Y-67552619D02*
X34096961Y-67600238D01*
X34096961Y-67600238D02*
X34192200Y-67695476D01*
X34192200Y-67695476D02*
X34239819Y-67790714D01*
X34239819Y-67790714D02*
X34239819Y-67981190D01*
X34239819Y-67981190D02*
X34192200Y-68076428D01*
X34192200Y-68076428D02*
X34096961Y-68171666D01*
X34096961Y-68171666D02*
X33906485Y-68219285D01*
X33906485Y-68219285D02*
X33573152Y-68219285D01*
X33573152Y-68219285D02*
X33382676Y-68171666D01*
X33382676Y-68171666D02*
X33287438Y-68076428D01*
X33287438Y-68076428D02*
X33239819Y-67981190D01*
X34192200Y-66409761D02*
X34239819Y-66266904D01*
X34239819Y-66266904D02*
X34239819Y-66028809D01*
X34239819Y-66028809D02*
X34192200Y-65933571D01*
X34192200Y-65933571D02*
X34144580Y-65885952D01*
X34144580Y-65885952D02*
X34049342Y-65838333D01*
X34049342Y-65838333D02*
X33954104Y-65838333D01*
X33954104Y-65838333D02*
X33858866Y-65885952D01*
X33858866Y-65885952D02*
X33811247Y-65933571D01*
X33811247Y-65933571D02*
X33763628Y-66028809D01*
X33763628Y-66028809D02*
X33716009Y-66219285D01*
X33716009Y-66219285D02*
X33668390Y-66314523D01*
X33668390Y-66314523D02*
X33620771Y-66362142D01*
X33620771Y-66362142D02*
X33525533Y-66409761D01*
X33525533Y-66409761D02*
X33430295Y-66409761D01*
X33430295Y-66409761D02*
X33335057Y-66362142D01*
X33335057Y-66362142D02*
X33287438Y-66314523D01*
X33287438Y-66314523D02*
X33239819Y-66219285D01*
X33239819Y-66219285D02*
X33239819Y-65981190D01*
X33239819Y-65981190D02*
X33287438Y-65838333D01*
X34239819Y-65266904D02*
X34192200Y-65362142D01*
X34192200Y-65362142D02*
X34144580Y-65409761D01*
X34144580Y-65409761D02*
X34049342Y-65457380D01*
X34049342Y-65457380D02*
X33763628Y-65457380D01*
X33763628Y-65457380D02*
X33668390Y-65409761D01*
X33668390Y-65409761D02*
X33620771Y-65362142D01*
X33620771Y-65362142D02*
X33573152Y-65266904D01*
X33573152Y-65266904D02*
X33573152Y-65124047D01*
X33573152Y-65124047D02*
X33620771Y-65028809D01*
X33620771Y-65028809D02*
X33668390Y-64981190D01*
X33668390Y-64981190D02*
X33763628Y-64933571D01*
X33763628Y-64933571D02*
X34049342Y-64933571D01*
X34049342Y-64933571D02*
X34144580Y-64981190D01*
X34144580Y-64981190D02*
X34192200Y-65028809D01*
X34192200Y-65028809D02*
X34239819Y-65124047D01*
X34239819Y-65124047D02*
X34239819Y-65266904D01*
X34192200Y-64076428D02*
X34239819Y-64171666D01*
X34239819Y-64171666D02*
X34239819Y-64362142D01*
X34239819Y-64362142D02*
X34192200Y-64457380D01*
X34192200Y-64457380D02*
X34144580Y-64504999D01*
X34144580Y-64504999D02*
X34049342Y-64552618D01*
X34049342Y-64552618D02*
X33763628Y-64552618D01*
X33763628Y-64552618D02*
X33668390Y-64504999D01*
X33668390Y-64504999D02*
X33620771Y-64457380D01*
X33620771Y-64457380D02*
X33573152Y-64362142D01*
X33573152Y-64362142D02*
X33573152Y-64171666D01*
X33573152Y-64171666D02*
X33620771Y-64076428D01*
X34239819Y-63647856D02*
X33239819Y-63647856D01*
X33858866Y-63552618D02*
X34239819Y-63266904D01*
X33573152Y-63266904D02*
X33954104Y-63647856D01*
X34192200Y-62457380D02*
X34239819Y-62552618D01*
X34239819Y-62552618D02*
X34239819Y-62743094D01*
X34239819Y-62743094D02*
X34192200Y-62838332D01*
X34192200Y-62838332D02*
X34096961Y-62885951D01*
X34096961Y-62885951D02*
X33716009Y-62885951D01*
X33716009Y-62885951D02*
X33620771Y-62838332D01*
X33620771Y-62838332D02*
X33573152Y-62743094D01*
X33573152Y-62743094D02*
X33573152Y-62552618D01*
X33573152Y-62552618D02*
X33620771Y-62457380D01*
X33620771Y-62457380D02*
X33716009Y-62409761D01*
X33716009Y-62409761D02*
X33811247Y-62409761D01*
X33811247Y-62409761D02*
X33906485Y-62885951D01*
X33573152Y-62124046D02*
X33573152Y-61743094D01*
X33239819Y-61981189D02*
X34096961Y-61981189D01*
X34096961Y-61981189D02*
X34192200Y-61933570D01*
X34192200Y-61933570D02*
X34239819Y-61838332D01*
X34239819Y-61838332D02*
X34239819Y-61743094D01*
X54739819Y-109516190D02*
X53739819Y-109516190D01*
X53739819Y-109516190D02*
X54454104Y-109182857D01*
X54454104Y-109182857D02*
X53739819Y-108849524D01*
X53739819Y-108849524D02*
X54739819Y-108849524D01*
X53739819Y-108516190D02*
X53739819Y-107944762D01*
X54739819Y-108230476D02*
X53739819Y-108230476D01*
X54168390Y-107468571D02*
X54120771Y-107563809D01*
X54120771Y-107563809D02*
X54073152Y-107611428D01*
X54073152Y-107611428D02*
X53977914Y-107659047D01*
X53977914Y-107659047D02*
X53930295Y-107659047D01*
X53930295Y-107659047D02*
X53835057Y-107611428D01*
X53835057Y-107611428D02*
X53787438Y-107563809D01*
X53787438Y-107563809D02*
X53739819Y-107468571D01*
X53739819Y-107468571D02*
X53739819Y-107278095D01*
X53739819Y-107278095D02*
X53787438Y-107182857D01*
X53787438Y-107182857D02*
X53835057Y-107135238D01*
X53835057Y-107135238D02*
X53930295Y-107087619D01*
X53930295Y-107087619D02*
X53977914Y-107087619D01*
X53977914Y-107087619D02*
X54073152Y-107135238D01*
X54073152Y-107135238D02*
X54120771Y-107182857D01*
X54120771Y-107182857D02*
X54168390Y-107278095D01*
X54168390Y-107278095D02*
X54168390Y-107468571D01*
X54168390Y-107468571D02*
X54216009Y-107563809D01*
X54216009Y-107563809D02*
X54263628Y-107611428D01*
X54263628Y-107611428D02*
X54358866Y-107659047D01*
X54358866Y-107659047D02*
X54549342Y-107659047D01*
X54549342Y-107659047D02*
X54644580Y-107611428D01*
X54644580Y-107611428D02*
X54692200Y-107563809D01*
X54692200Y-107563809D02*
X54739819Y-107468571D01*
X54739819Y-107468571D02*
X54739819Y-107278095D01*
X54739819Y-107278095D02*
X54692200Y-107182857D01*
X54692200Y-107182857D02*
X54644580Y-107135238D01*
X54644580Y-107135238D02*
X54549342Y-107087619D01*
X54549342Y-107087619D02*
X54358866Y-107087619D01*
X54358866Y-107087619D02*
X54263628Y-107135238D01*
X54263628Y-107135238D02*
X54216009Y-107182857D01*
X54216009Y-107182857D02*
X54168390Y-107278095D01*
X54168390Y-106516190D02*
X54120771Y-106611428D01*
X54120771Y-106611428D02*
X54073152Y-106659047D01*
X54073152Y-106659047D02*
X53977914Y-106706666D01*
X53977914Y-106706666D02*
X53930295Y-106706666D01*
X53930295Y-106706666D02*
X53835057Y-106659047D01*
X53835057Y-106659047D02*
X53787438Y-106611428D01*
X53787438Y-106611428D02*
X53739819Y-106516190D01*
X53739819Y-106516190D02*
X53739819Y-106325714D01*
X53739819Y-106325714D02*
X53787438Y-106230476D01*
X53787438Y-106230476D02*
X53835057Y-106182857D01*
X53835057Y-106182857D02*
X53930295Y-106135238D01*
X53930295Y-106135238D02*
X53977914Y-106135238D01*
X53977914Y-106135238D02*
X54073152Y-106182857D01*
X54073152Y-106182857D02*
X54120771Y-106230476D01*
X54120771Y-106230476D02*
X54168390Y-106325714D01*
X54168390Y-106325714D02*
X54168390Y-106516190D01*
X54168390Y-106516190D02*
X54216009Y-106611428D01*
X54216009Y-106611428D02*
X54263628Y-106659047D01*
X54263628Y-106659047D02*
X54358866Y-106706666D01*
X54358866Y-106706666D02*
X54549342Y-106706666D01*
X54549342Y-106706666D02*
X54644580Y-106659047D01*
X54644580Y-106659047D02*
X54692200Y-106611428D01*
X54692200Y-106611428D02*
X54739819Y-106516190D01*
X54739819Y-106516190D02*
X54739819Y-106325714D01*
X54739819Y-106325714D02*
X54692200Y-106230476D01*
X54692200Y-106230476D02*
X54644580Y-106182857D01*
X54644580Y-106182857D02*
X54549342Y-106135238D01*
X54549342Y-106135238D02*
X54358866Y-106135238D01*
X54358866Y-106135238D02*
X54263628Y-106182857D01*
X54263628Y-106182857D02*
X54216009Y-106230476D01*
X54216009Y-106230476D02*
X54168390Y-106325714D01*
X54739819Y-105182857D02*
X54739819Y-105754285D01*
X54739819Y-105468571D02*
X53739819Y-105468571D01*
X53739819Y-105468571D02*
X53882676Y-105563809D01*
X53882676Y-105563809D02*
X53977914Y-105659047D01*
X53977914Y-105659047D02*
X54025533Y-105754285D01*
X53739819Y-104325714D02*
X53739819Y-104516190D01*
X53739819Y-104516190D02*
X53787438Y-104611428D01*
X53787438Y-104611428D02*
X53835057Y-104659047D01*
X53835057Y-104659047D02*
X53977914Y-104754285D01*
X53977914Y-104754285D02*
X54168390Y-104801904D01*
X54168390Y-104801904D02*
X54549342Y-104801904D01*
X54549342Y-104801904D02*
X54644580Y-104754285D01*
X54644580Y-104754285D02*
X54692200Y-104706666D01*
X54692200Y-104706666D02*
X54739819Y-104611428D01*
X54739819Y-104611428D02*
X54739819Y-104420952D01*
X54739819Y-104420952D02*
X54692200Y-104325714D01*
X54692200Y-104325714D02*
X54644580Y-104278095D01*
X54644580Y-104278095D02*
X54549342Y-104230476D01*
X54549342Y-104230476D02*
X54311247Y-104230476D01*
X54311247Y-104230476D02*
X54216009Y-104278095D01*
X54216009Y-104278095D02*
X54168390Y-104325714D01*
X54168390Y-104325714D02*
X54120771Y-104420952D01*
X54120771Y-104420952D02*
X54120771Y-104611428D01*
X54120771Y-104611428D02*
X54168390Y-104706666D01*
X54168390Y-104706666D02*
X54216009Y-104754285D01*
X54216009Y-104754285D02*
X54311247Y-104801904D01*
X54692200Y-103087618D02*
X54739819Y-102944761D01*
X54739819Y-102944761D02*
X54739819Y-102706666D01*
X54739819Y-102706666D02*
X54692200Y-102611428D01*
X54692200Y-102611428D02*
X54644580Y-102563809D01*
X54644580Y-102563809D02*
X54549342Y-102516190D01*
X54549342Y-102516190D02*
X54454104Y-102516190D01*
X54454104Y-102516190D02*
X54358866Y-102563809D01*
X54358866Y-102563809D02*
X54311247Y-102611428D01*
X54311247Y-102611428D02*
X54263628Y-102706666D01*
X54263628Y-102706666D02*
X54216009Y-102897142D01*
X54216009Y-102897142D02*
X54168390Y-102992380D01*
X54168390Y-102992380D02*
X54120771Y-103039999D01*
X54120771Y-103039999D02*
X54025533Y-103087618D01*
X54025533Y-103087618D02*
X53930295Y-103087618D01*
X53930295Y-103087618D02*
X53835057Y-103039999D01*
X53835057Y-103039999D02*
X53787438Y-102992380D01*
X53787438Y-102992380D02*
X53739819Y-102897142D01*
X53739819Y-102897142D02*
X53739819Y-102659047D01*
X53739819Y-102659047D02*
X53787438Y-102516190D01*
X54739819Y-101944761D02*
X54692200Y-102039999D01*
X54692200Y-102039999D02*
X54644580Y-102087618D01*
X54644580Y-102087618D02*
X54549342Y-102135237D01*
X54549342Y-102135237D02*
X54263628Y-102135237D01*
X54263628Y-102135237D02*
X54168390Y-102087618D01*
X54168390Y-102087618D02*
X54120771Y-102039999D01*
X54120771Y-102039999D02*
X54073152Y-101944761D01*
X54073152Y-101944761D02*
X54073152Y-101801904D01*
X54073152Y-101801904D02*
X54120771Y-101706666D01*
X54120771Y-101706666D02*
X54168390Y-101659047D01*
X54168390Y-101659047D02*
X54263628Y-101611428D01*
X54263628Y-101611428D02*
X54549342Y-101611428D01*
X54549342Y-101611428D02*
X54644580Y-101659047D01*
X54644580Y-101659047D02*
X54692200Y-101706666D01*
X54692200Y-101706666D02*
X54739819Y-101801904D01*
X54739819Y-101801904D02*
X54739819Y-101944761D01*
X54692200Y-100754285D02*
X54739819Y-100849523D01*
X54739819Y-100849523D02*
X54739819Y-101039999D01*
X54739819Y-101039999D02*
X54692200Y-101135237D01*
X54692200Y-101135237D02*
X54644580Y-101182856D01*
X54644580Y-101182856D02*
X54549342Y-101230475D01*
X54549342Y-101230475D02*
X54263628Y-101230475D01*
X54263628Y-101230475D02*
X54168390Y-101182856D01*
X54168390Y-101182856D02*
X54120771Y-101135237D01*
X54120771Y-101135237D02*
X54073152Y-101039999D01*
X54073152Y-101039999D02*
X54073152Y-100849523D01*
X54073152Y-100849523D02*
X54120771Y-100754285D01*
X54739819Y-100325713D02*
X53739819Y-100325713D01*
X54358866Y-100230475D02*
X54739819Y-99944761D01*
X54073152Y-99944761D02*
X54454104Y-100325713D01*
X54692200Y-99135237D02*
X54739819Y-99230475D01*
X54739819Y-99230475D02*
X54739819Y-99420951D01*
X54739819Y-99420951D02*
X54692200Y-99516189D01*
X54692200Y-99516189D02*
X54596961Y-99563808D01*
X54596961Y-99563808D02*
X54216009Y-99563808D01*
X54216009Y-99563808D02*
X54120771Y-99516189D01*
X54120771Y-99516189D02*
X54073152Y-99420951D01*
X54073152Y-99420951D02*
X54073152Y-99230475D01*
X54073152Y-99230475D02*
X54120771Y-99135237D01*
X54120771Y-99135237D02*
X54216009Y-99087618D01*
X54216009Y-99087618D02*
X54311247Y-99087618D01*
X54311247Y-99087618D02*
X54406485Y-99563808D01*
X54073152Y-98801903D02*
X54073152Y-98420951D01*
X53739819Y-98659046D02*
X54596961Y-98659046D01*
X54596961Y-98659046D02*
X54692200Y-98611427D01*
X54692200Y-98611427D02*
X54739819Y-98516189D01*
X54739819Y-98516189D02*
X54739819Y-98420951D01*
X70610476Y-48724819D02*
X70610476Y-47724819D01*
X70610476Y-47724819D02*
X70991428Y-47724819D01*
X70991428Y-47724819D02*
X71086666Y-47772438D01*
X71086666Y-47772438D02*
X71134285Y-47820057D01*
X71134285Y-47820057D02*
X71181904Y-47915295D01*
X71181904Y-47915295D02*
X71181904Y-48058152D01*
X71181904Y-48058152D02*
X71134285Y-48153390D01*
X71134285Y-48153390D02*
X71086666Y-48201009D01*
X71086666Y-48201009D02*
X70991428Y-48248628D01*
X70991428Y-48248628D02*
X70610476Y-48248628D01*
X71800952Y-47724819D02*
X71991428Y-47724819D01*
X71991428Y-47724819D02*
X72086666Y-47772438D01*
X72086666Y-47772438D02*
X72181904Y-47867676D01*
X72181904Y-47867676D02*
X72229523Y-48058152D01*
X72229523Y-48058152D02*
X72229523Y-48391485D01*
X72229523Y-48391485D02*
X72181904Y-48581961D01*
X72181904Y-48581961D02*
X72086666Y-48677200D01*
X72086666Y-48677200D02*
X71991428Y-48724819D01*
X71991428Y-48724819D02*
X71800952Y-48724819D01*
X71800952Y-48724819D02*
X71705714Y-48677200D01*
X71705714Y-48677200D02*
X71610476Y-48581961D01*
X71610476Y-48581961D02*
X71562857Y-48391485D01*
X71562857Y-48391485D02*
X71562857Y-48058152D01*
X71562857Y-48058152D02*
X71610476Y-47867676D01*
X71610476Y-47867676D02*
X71705714Y-47772438D01*
X71705714Y-47772438D02*
X71800952Y-47724819D01*
X72562857Y-47724819D02*
X72800952Y-48724819D01*
X72800952Y-48724819D02*
X72991428Y-48010533D01*
X72991428Y-48010533D02*
X73181904Y-48724819D01*
X73181904Y-48724819D02*
X73420000Y-47724819D01*
X73800952Y-48201009D02*
X74134285Y-48201009D01*
X74277142Y-48724819D02*
X73800952Y-48724819D01*
X73800952Y-48724819D02*
X73800952Y-47724819D01*
X73800952Y-47724819D02*
X74277142Y-47724819D01*
X75277142Y-48724819D02*
X74943809Y-48248628D01*
X74705714Y-48724819D02*
X74705714Y-47724819D01*
X74705714Y-47724819D02*
X75086666Y-47724819D01*
X75086666Y-47724819D02*
X75181904Y-47772438D01*
X75181904Y-47772438D02*
X75229523Y-47820057D01*
X75229523Y-47820057D02*
X75277142Y-47915295D01*
X75277142Y-47915295D02*
X75277142Y-48058152D01*
X75277142Y-48058152D02*
X75229523Y-48153390D01*
X75229523Y-48153390D02*
X75181904Y-48201009D01*
X75181904Y-48201009D02*
X75086666Y-48248628D01*
X75086666Y-48248628D02*
X74705714Y-48248628D01*
X100231905Y-37624819D02*
X100231905Y-36624819D01*
X100231905Y-36624819D02*
X100612857Y-36624819D01*
X100612857Y-36624819D02*
X100708095Y-36672438D01*
X100708095Y-36672438D02*
X100755714Y-36720057D01*
X100755714Y-36720057D02*
X100803333Y-36815295D01*
X100803333Y-36815295D02*
X100803333Y-36958152D01*
X100803333Y-36958152D02*
X100755714Y-37053390D01*
X100755714Y-37053390D02*
X100708095Y-37101009D01*
X100708095Y-37101009D02*
X100612857Y-37148628D01*
X100612857Y-37148628D02*
X100231905Y-37148628D01*
X101184286Y-37577200D02*
X101327143Y-37624819D01*
X101327143Y-37624819D02*
X101565238Y-37624819D01*
X101565238Y-37624819D02*
X101660476Y-37577200D01*
X101660476Y-37577200D02*
X101708095Y-37529580D01*
X101708095Y-37529580D02*
X101755714Y-37434342D01*
X101755714Y-37434342D02*
X101755714Y-37339104D01*
X101755714Y-37339104D02*
X101708095Y-37243866D01*
X101708095Y-37243866D02*
X101660476Y-37196247D01*
X101660476Y-37196247D02*
X101565238Y-37148628D01*
X101565238Y-37148628D02*
X101374762Y-37101009D01*
X101374762Y-37101009D02*
X101279524Y-37053390D01*
X101279524Y-37053390D02*
X101231905Y-37005771D01*
X101231905Y-37005771D02*
X101184286Y-36910533D01*
X101184286Y-36910533D02*
X101184286Y-36815295D01*
X101184286Y-36815295D02*
X101231905Y-36720057D01*
X101231905Y-36720057D02*
X101279524Y-36672438D01*
X101279524Y-36672438D02*
X101374762Y-36624819D01*
X101374762Y-36624819D02*
X101612857Y-36624819D01*
X101612857Y-36624819D02*
X101755714Y-36672438D01*
X102898571Y-36577200D02*
X102041429Y-37862914D01*
X103184286Y-36720057D02*
X103231905Y-36672438D01*
X103231905Y-36672438D02*
X103327143Y-36624819D01*
X103327143Y-36624819D02*
X103565238Y-36624819D01*
X103565238Y-36624819D02*
X103660476Y-36672438D01*
X103660476Y-36672438D02*
X103708095Y-36720057D01*
X103708095Y-36720057D02*
X103755714Y-36815295D01*
X103755714Y-36815295D02*
X103755714Y-36910533D01*
X103755714Y-36910533D02*
X103708095Y-37053390D01*
X103708095Y-37053390D02*
X103136667Y-37624819D01*
X103136667Y-37624819D02*
X103755714Y-37624819D01*
X51291904Y-47768152D02*
X51291904Y-48434819D01*
X51053809Y-47387200D02*
X50815714Y-48101485D01*
X50815714Y-48101485D02*
X51434761Y-48101485D01*
X52006190Y-47434819D02*
X52101428Y-47434819D01*
X52101428Y-47434819D02*
X52196666Y-47482438D01*
X52196666Y-47482438D02*
X52244285Y-47530057D01*
X52244285Y-47530057D02*
X52291904Y-47625295D01*
X52291904Y-47625295D02*
X52339523Y-47815771D01*
X52339523Y-47815771D02*
X52339523Y-48053866D01*
X52339523Y-48053866D02*
X52291904Y-48244342D01*
X52291904Y-48244342D02*
X52244285Y-48339580D01*
X52244285Y-48339580D02*
X52196666Y-48387200D01*
X52196666Y-48387200D02*
X52101428Y-48434819D01*
X52101428Y-48434819D02*
X52006190Y-48434819D01*
X52006190Y-48434819D02*
X51910952Y-48387200D01*
X51910952Y-48387200D02*
X51863333Y-48339580D01*
X51863333Y-48339580D02*
X51815714Y-48244342D01*
X51815714Y-48244342D02*
X51768095Y-48053866D01*
X51768095Y-48053866D02*
X51768095Y-47815771D01*
X51768095Y-47815771D02*
X51815714Y-47625295D01*
X51815714Y-47625295D02*
X51863333Y-47530057D01*
X51863333Y-47530057D02*
X51910952Y-47482438D01*
X51910952Y-47482438D02*
X52006190Y-47434819D01*
X53244285Y-47434819D02*
X52768095Y-47434819D01*
X52768095Y-47434819D02*
X52720476Y-47911009D01*
X52720476Y-47911009D02*
X52768095Y-47863390D01*
X52768095Y-47863390D02*
X52863333Y-47815771D01*
X52863333Y-47815771D02*
X53101428Y-47815771D01*
X53101428Y-47815771D02*
X53196666Y-47863390D01*
X53196666Y-47863390D02*
X53244285Y-47911009D01*
X53244285Y-47911009D02*
X53291904Y-48006247D01*
X53291904Y-48006247D02*
X53291904Y-48244342D01*
X53291904Y-48244342D02*
X53244285Y-48339580D01*
X53244285Y-48339580D02*
X53196666Y-48387200D01*
X53196666Y-48387200D02*
X53101428Y-48434819D01*
X53101428Y-48434819D02*
X52863333Y-48434819D01*
X52863333Y-48434819D02*
X52768095Y-48387200D01*
X52768095Y-48387200D02*
X52720476Y-48339580D01*
X54244285Y-48434819D02*
X53672857Y-48434819D01*
X53958571Y-48434819D02*
X53958571Y-47434819D01*
X53958571Y-47434819D02*
X53863333Y-47577676D01*
X53863333Y-47577676D02*
X53768095Y-47672914D01*
X53768095Y-47672914D02*
X53672857Y-47720533D01*
X60283333Y-42664819D02*
X59950000Y-42188628D01*
X59711905Y-42664819D02*
X59711905Y-41664819D01*
X59711905Y-41664819D02*
X60092857Y-41664819D01*
X60092857Y-41664819D02*
X60188095Y-41712438D01*
X60188095Y-41712438D02*
X60235714Y-41760057D01*
X60235714Y-41760057D02*
X60283333Y-41855295D01*
X60283333Y-41855295D02*
X60283333Y-41998152D01*
X60283333Y-41998152D02*
X60235714Y-42093390D01*
X60235714Y-42093390D02*
X60188095Y-42141009D01*
X60188095Y-42141009D02*
X60092857Y-42188628D01*
X60092857Y-42188628D02*
X59711905Y-42188628D01*
X61235714Y-42664819D02*
X60664286Y-42664819D01*
X60950000Y-42664819D02*
X60950000Y-41664819D01*
X60950000Y-41664819D02*
X60854762Y-41807676D01*
X60854762Y-41807676D02*
X60759524Y-41902914D01*
X60759524Y-41902914D02*
X60664286Y-41950533D01*
X77789819Y-40204952D02*
X78789819Y-39538286D01*
X77789819Y-39538286D02*
X78789819Y-40204952D01*
X78504104Y-39204952D02*
X78504104Y-38728762D01*
X78789819Y-39300190D02*
X77789819Y-38966857D01*
X77789819Y-38966857D02*
X78789819Y-38633524D01*
X78789819Y-38300190D02*
X77789819Y-38300190D01*
X77789819Y-37633524D02*
X77789819Y-37443048D01*
X77789819Y-37443048D02*
X77837438Y-37347810D01*
X77837438Y-37347810D02*
X77932676Y-37252572D01*
X77932676Y-37252572D02*
X78123152Y-37204953D01*
X78123152Y-37204953D02*
X78456485Y-37204953D01*
X78456485Y-37204953D02*
X78646961Y-37252572D01*
X78646961Y-37252572D02*
X78742200Y-37347810D01*
X78742200Y-37347810D02*
X78789819Y-37443048D01*
X78789819Y-37443048D02*
X78789819Y-37633524D01*
X78789819Y-37633524D02*
X78742200Y-37728762D01*
X78742200Y-37728762D02*
X78646961Y-37824000D01*
X78646961Y-37824000D02*
X78456485Y-37871619D01*
X78456485Y-37871619D02*
X78123152Y-37871619D01*
X78123152Y-37871619D02*
X77932676Y-37824000D01*
X77932676Y-37824000D02*
X77837438Y-37728762D01*
X77837438Y-37728762D02*
X77789819Y-37633524D01*
X78742200Y-36062095D02*
X78789819Y-35919238D01*
X78789819Y-35919238D02*
X78789819Y-35681143D01*
X78789819Y-35681143D02*
X78742200Y-35585905D01*
X78742200Y-35585905D02*
X78694580Y-35538286D01*
X78694580Y-35538286D02*
X78599342Y-35490667D01*
X78599342Y-35490667D02*
X78504104Y-35490667D01*
X78504104Y-35490667D02*
X78408866Y-35538286D01*
X78408866Y-35538286D02*
X78361247Y-35585905D01*
X78361247Y-35585905D02*
X78313628Y-35681143D01*
X78313628Y-35681143D02*
X78266009Y-35871619D01*
X78266009Y-35871619D02*
X78218390Y-35966857D01*
X78218390Y-35966857D02*
X78170771Y-36014476D01*
X78170771Y-36014476D02*
X78075533Y-36062095D01*
X78075533Y-36062095D02*
X77980295Y-36062095D01*
X77980295Y-36062095D02*
X77885057Y-36014476D01*
X77885057Y-36014476D02*
X77837438Y-35966857D01*
X77837438Y-35966857D02*
X77789819Y-35871619D01*
X77789819Y-35871619D02*
X77789819Y-35633524D01*
X77789819Y-35633524D02*
X77837438Y-35490667D01*
X78789819Y-34919238D02*
X78742200Y-35014476D01*
X78742200Y-35014476D02*
X78694580Y-35062095D01*
X78694580Y-35062095D02*
X78599342Y-35109714D01*
X78599342Y-35109714D02*
X78313628Y-35109714D01*
X78313628Y-35109714D02*
X78218390Y-35062095D01*
X78218390Y-35062095D02*
X78170771Y-35014476D01*
X78170771Y-35014476D02*
X78123152Y-34919238D01*
X78123152Y-34919238D02*
X78123152Y-34776381D01*
X78123152Y-34776381D02*
X78170771Y-34681143D01*
X78170771Y-34681143D02*
X78218390Y-34633524D01*
X78218390Y-34633524D02*
X78313628Y-34585905D01*
X78313628Y-34585905D02*
X78599342Y-34585905D01*
X78599342Y-34585905D02*
X78694580Y-34633524D01*
X78694580Y-34633524D02*
X78742200Y-34681143D01*
X78742200Y-34681143D02*
X78789819Y-34776381D01*
X78789819Y-34776381D02*
X78789819Y-34919238D01*
X78742200Y-33728762D02*
X78789819Y-33824000D01*
X78789819Y-33824000D02*
X78789819Y-34014476D01*
X78789819Y-34014476D02*
X78742200Y-34109714D01*
X78742200Y-34109714D02*
X78694580Y-34157333D01*
X78694580Y-34157333D02*
X78599342Y-34204952D01*
X78599342Y-34204952D02*
X78313628Y-34204952D01*
X78313628Y-34204952D02*
X78218390Y-34157333D01*
X78218390Y-34157333D02*
X78170771Y-34109714D01*
X78170771Y-34109714D02*
X78123152Y-34014476D01*
X78123152Y-34014476D02*
X78123152Y-33824000D01*
X78123152Y-33824000D02*
X78170771Y-33728762D01*
X78789819Y-33300190D02*
X77789819Y-33300190D01*
X78408866Y-33204952D02*
X78789819Y-32919238D01*
X78123152Y-32919238D02*
X78504104Y-33300190D01*
X78742200Y-32109714D02*
X78789819Y-32204952D01*
X78789819Y-32204952D02*
X78789819Y-32395428D01*
X78789819Y-32395428D02*
X78742200Y-32490666D01*
X78742200Y-32490666D02*
X78646961Y-32538285D01*
X78646961Y-32538285D02*
X78266009Y-32538285D01*
X78266009Y-32538285D02*
X78170771Y-32490666D01*
X78170771Y-32490666D02*
X78123152Y-32395428D01*
X78123152Y-32395428D02*
X78123152Y-32204952D01*
X78123152Y-32204952D02*
X78170771Y-32109714D01*
X78170771Y-32109714D02*
X78266009Y-32062095D01*
X78266009Y-32062095D02*
X78361247Y-32062095D01*
X78361247Y-32062095D02*
X78456485Y-32538285D01*
X78123152Y-31776380D02*
X78123152Y-31395428D01*
X77789819Y-31633523D02*
X78646961Y-31633523D01*
X78646961Y-31633523D02*
X78742200Y-31585904D01*
X78742200Y-31585904D02*
X78789819Y-31490666D01*
X78789819Y-31490666D02*
X78789819Y-31395428D01*
X56823333Y-49989580D02*
X56775714Y-50037200D01*
X56775714Y-50037200D02*
X56632857Y-50084819D01*
X56632857Y-50084819D02*
X56537619Y-50084819D01*
X56537619Y-50084819D02*
X56394762Y-50037200D01*
X56394762Y-50037200D02*
X56299524Y-49941961D01*
X56299524Y-49941961D02*
X56251905Y-49846723D01*
X56251905Y-49846723D02*
X56204286Y-49656247D01*
X56204286Y-49656247D02*
X56204286Y-49513390D01*
X56204286Y-49513390D02*
X56251905Y-49322914D01*
X56251905Y-49322914D02*
X56299524Y-49227676D01*
X56299524Y-49227676D02*
X56394762Y-49132438D01*
X56394762Y-49132438D02*
X56537619Y-49084819D01*
X56537619Y-49084819D02*
X56632857Y-49084819D01*
X56632857Y-49084819D02*
X56775714Y-49132438D01*
X56775714Y-49132438D02*
X56823333Y-49180057D01*
X57204286Y-49180057D02*
X57251905Y-49132438D01*
X57251905Y-49132438D02*
X57347143Y-49084819D01*
X57347143Y-49084819D02*
X57585238Y-49084819D01*
X57585238Y-49084819D02*
X57680476Y-49132438D01*
X57680476Y-49132438D02*
X57728095Y-49180057D01*
X57728095Y-49180057D02*
X57775714Y-49275295D01*
X57775714Y-49275295D02*
X57775714Y-49370533D01*
X57775714Y-49370533D02*
X57728095Y-49513390D01*
X57728095Y-49513390D02*
X57156667Y-50084819D01*
X57156667Y-50084819D02*
X57775714Y-50084819D01*
D11*
X59641666Y-58089240D02*
X59600714Y-58130193D01*
X59600714Y-58130193D02*
X59477856Y-58171145D01*
X59477856Y-58171145D02*
X59395952Y-58171145D01*
X59395952Y-58171145D02*
X59273095Y-58130193D01*
X59273095Y-58130193D02*
X59191190Y-58048288D01*
X59191190Y-58048288D02*
X59150237Y-57966383D01*
X59150237Y-57966383D02*
X59109285Y-57802573D01*
X59109285Y-57802573D02*
X59109285Y-57679716D01*
X59109285Y-57679716D02*
X59150237Y-57515907D01*
X59150237Y-57515907D02*
X59191190Y-57434002D01*
X59191190Y-57434002D02*
X59273095Y-57352097D01*
X59273095Y-57352097D02*
X59395952Y-57311145D01*
X59395952Y-57311145D02*
X59477856Y-57311145D01*
X59477856Y-57311145D02*
X59600714Y-57352097D01*
X59600714Y-57352097D02*
X59641666Y-57393050D01*
X60460714Y-58171145D02*
X59969285Y-58171145D01*
X60214999Y-58171145D02*
X60214999Y-57311145D01*
X60214999Y-57311145D02*
X60133095Y-57434002D01*
X60133095Y-57434002D02*
X60051190Y-57515907D01*
X60051190Y-57515907D02*
X59969285Y-57556859D01*
D12*
X59665000Y-112097469D02*
X59425000Y-111754612D01*
X59253571Y-112097469D02*
X59253571Y-111377469D01*
X59253571Y-111377469D02*
X59527857Y-111377469D01*
X59527857Y-111377469D02*
X59596428Y-111411755D01*
X59596428Y-111411755D02*
X59630714Y-111446041D01*
X59630714Y-111446041D02*
X59665000Y-111514612D01*
X59665000Y-111514612D02*
X59665000Y-111617469D01*
X59665000Y-111617469D02*
X59630714Y-111686041D01*
X59630714Y-111686041D02*
X59596428Y-111720326D01*
X59596428Y-111720326D02*
X59527857Y-111754612D01*
X59527857Y-111754612D02*
X59253571Y-111754612D01*
X59939285Y-111446041D02*
X59973571Y-111411755D01*
X59973571Y-111411755D02*
X60042143Y-111377469D01*
X60042143Y-111377469D02*
X60213571Y-111377469D01*
X60213571Y-111377469D02*
X60282143Y-111411755D01*
X60282143Y-111411755D02*
X60316428Y-111446041D01*
X60316428Y-111446041D02*
X60350714Y-111514612D01*
X60350714Y-111514612D02*
X60350714Y-111583184D01*
X60350714Y-111583184D02*
X60316428Y-111686041D01*
X60316428Y-111686041D02*
X59905000Y-112097469D01*
X59905000Y-112097469D02*
X60350714Y-112097469D01*
D13*
%TO.C,U2*%
X30420000Y-59140000D02*
X30420000Y-61810000D01*
X30420000Y-64350000D02*
X30420000Y-102580000D01*
X30420000Y-102580000D02*
X48460000Y-102580000D01*
X33090000Y-61810000D02*
X30420000Y-61810000D01*
X33090000Y-64350000D02*
X30420000Y-64350000D01*
X33090000Y-64350000D02*
X33090000Y-61810000D01*
X33090000Y-64350000D02*
X33090000Y-99910000D01*
X33090000Y-99910000D02*
X30420000Y-99910000D01*
D14*
X35630000Y-94830000D02*
X43250000Y-94830000D01*
X35630000Y-104990000D02*
X35630000Y-94830000D01*
X43250000Y-94830000D02*
X43250000Y-104990000D01*
X43250000Y-104990000D02*
X35630000Y-104990000D01*
D13*
X45790000Y-61810000D02*
X45790000Y-99910000D01*
X45790000Y-61810000D02*
X48460000Y-61810000D01*
X45790000Y-99910000D02*
X48460000Y-99910000D01*
X48460000Y-59140000D02*
X30420000Y-59140000D01*
X48460000Y-102580000D02*
X48460000Y-59140000D01*
%TO.C,U1*%
X50830000Y-59250000D02*
X50830000Y-110290000D01*
X50830000Y-110290000D02*
X68730000Y-110290000D01*
X53320000Y-59310000D02*
X53320000Y-110230000D01*
X53320000Y-110230000D02*
X66240000Y-110230000D01*
X58780000Y-59310000D02*
X53320000Y-59310000D01*
X66240000Y-59310000D02*
X60780000Y-59310000D01*
X66240000Y-110230000D02*
X66240000Y-59310000D01*
X68730000Y-59250000D02*
X50830000Y-59250000D01*
X68730000Y-110290000D02*
X68730000Y-59250000D01*
X60780000Y-59310000D02*
G75*
G02*
X58780000Y-59310000I-1000000J0D01*
G01*
%TO.C,D17*%
X74505000Y-44020000D02*
X74505000Y-43864000D01*
X74505000Y-46336000D02*
X74505000Y-46180000D01*
X71272665Y-44021392D02*
G75*
G02*
X74505000Y-43864484I1672335J-1078608D01*
G01*
X71903870Y-44020163D02*
G75*
G02*
X73985961Y-44020000I1041130J-1079837D01*
G01*
X73985961Y-46180000D02*
G75*
G02*
X71903870Y-46179837I-1040961J1080000D01*
G01*
X74505000Y-46335516D02*
G75*
G02*
X71272665Y-46178608I-1560000J1235516D01*
G01*
%TO.C,J3*%
X93990000Y-35270000D02*
X93990000Y-22270000D01*
X110190000Y-22270000D02*
X93990000Y-22270000D01*
X110190000Y-35270000D02*
X93990000Y-35270000D01*
X110190000Y-35270000D02*
X110190000Y-22270000D01*
%TO.C,U3*%
X34070000Y-43410000D02*
X34070000Y-45060000D01*
X34070000Y-47060000D02*
X34070000Y-48710000D01*
X34070000Y-48710000D02*
X54510000Y-48710000D01*
X54510000Y-43410000D02*
X34070000Y-43410000D01*
X54510000Y-48710000D02*
X54510000Y-43410000D01*
X34070000Y-45060000D02*
G75*
G02*
X34070000Y-47060000I0J-1000000D01*
G01*
%TO.C,R1*%
X57580000Y-42210000D02*
X58530000Y-42210000D01*
X58530000Y-41290000D02*
X58530000Y-43130000D01*
X58530000Y-43130000D02*
X62370000Y-43130000D01*
X62370000Y-41290000D02*
X58530000Y-41290000D01*
X62370000Y-43130000D02*
X62370000Y-41290000D01*
X63320000Y-42210000D02*
X62370000Y-42210000D01*
%TO.C,PL1*%
X74820000Y-51950000D02*
X74820000Y-53280000D01*
X73490000Y-51950000D02*
X74820000Y-51950000D01*
X72220000Y-54610000D02*
X39140000Y-54610000D01*
X72220000Y-51950000D02*
X72220000Y-54610000D01*
X72220000Y-51950000D02*
X39140000Y-51950000D01*
X39140000Y-51950000D02*
X39140000Y-54610000D01*
%TO.C,U7*%
X77620000Y-22760000D02*
X77620000Y-40600000D01*
X77620000Y-40600000D02*
X90540000Y-40600000D01*
X79000000Y-26630000D02*
X89160000Y-26630000D01*
X79000000Y-39584000D02*
X79000000Y-26630000D01*
X81540000Y-22760000D02*
X77620000Y-22760000D01*
X81540000Y-25868000D02*
X81540000Y-22760000D01*
X86620000Y-22760000D02*
X86620000Y-25868000D01*
X86620000Y-25868000D02*
X81540000Y-25868000D01*
X89160000Y-26630000D02*
X89160000Y-39584000D01*
X89160000Y-39584000D02*
X79000000Y-39584000D01*
X90540000Y-22760000D02*
X86620000Y-22760000D01*
X90540000Y-40600000D02*
X90540000Y-22760000D01*
%TO.C,C2*%
X57759000Y-48174000D02*
X57759000Y-47606000D01*
X57799000Y-48408000D02*
X57799000Y-47372000D01*
X57839000Y-48567000D02*
X57839000Y-47213000D01*
X57879000Y-48695000D02*
X57879000Y-47085000D01*
X57919000Y-48805000D02*
X57919000Y-46975000D01*
X57959000Y-48901000D02*
X57959000Y-46879000D01*
X57999000Y-48988000D02*
X57999000Y-46792000D01*
X58039000Y-49068000D02*
X58039000Y-46712000D01*
X58079000Y-49141000D02*
X58079000Y-46639000D01*
X58119000Y-49209000D02*
X58119000Y-46571000D01*
X58159000Y-49273000D02*
X58159000Y-46507000D01*
X58199000Y-49333000D02*
X58199000Y-46447000D01*
X58239000Y-49390000D02*
X58239000Y-46390000D01*
X58279000Y-49444000D02*
X58279000Y-46336000D01*
X58319000Y-49495000D02*
X58319000Y-46285000D01*
X58359000Y-46850000D02*
X58359000Y-46237000D01*
X58359000Y-49543000D02*
X58359000Y-48930000D01*
X58399000Y-46850000D02*
X58399000Y-46191000D01*
X58399000Y-49589000D02*
X58399000Y-48930000D01*
X58439000Y-46850000D02*
X58439000Y-46147000D01*
X58439000Y-49633000D02*
X58439000Y-48930000D01*
X58479000Y-46850000D02*
X58479000Y-46105000D01*
X58479000Y-49675000D02*
X58479000Y-48930000D01*
X58519000Y-46850000D02*
X58519000Y-46064000D01*
X58519000Y-49716000D02*
X58519000Y-48930000D01*
X58559000Y-46850000D02*
X58559000Y-46026000D01*
X58559000Y-49754000D02*
X58559000Y-48930000D01*
X58599000Y-46850000D02*
X58599000Y-45989000D01*
X58599000Y-49791000D02*
X58599000Y-48930000D01*
X58639000Y-46850000D02*
X58639000Y-45953000D01*
X58639000Y-49827000D02*
X58639000Y-48930000D01*
X58679000Y-46850000D02*
X58679000Y-45919000D01*
X58679000Y-49861000D02*
X58679000Y-48930000D01*
X58719000Y-46850000D02*
X58719000Y-45886000D01*
X58719000Y-49894000D02*
X58719000Y-48930000D01*
X58759000Y-46850000D02*
X58759000Y-45855000D01*
X58759000Y-49925000D02*
X58759000Y-48930000D01*
X58799000Y-46850000D02*
X58799000Y-45825000D01*
X58799000Y-49955000D02*
X58799000Y-48930000D01*
X58839000Y-46850000D02*
X58839000Y-45795000D01*
X58839000Y-49985000D02*
X58839000Y-48930000D01*
X58879000Y-46850000D02*
X58879000Y-45768000D01*
X58879000Y-50012000D02*
X58879000Y-48930000D01*
X58919000Y-46850000D02*
X58919000Y-45741000D01*
X58919000Y-50039000D02*
X58919000Y-48930000D01*
X58959000Y-46850000D02*
X58959000Y-45715000D01*
X58959000Y-50065000D02*
X58959000Y-48930000D01*
X58999000Y-46850000D02*
X58999000Y-45690000D01*
X58999000Y-50090000D02*
X58999000Y-48930000D01*
X59039000Y-46850000D02*
X59039000Y-45666000D01*
X59039000Y-50114000D02*
X59039000Y-48930000D01*
X59079000Y-46850000D02*
X59079000Y-45643000D01*
X59079000Y-50137000D02*
X59079000Y-48930000D01*
X59119000Y-46850000D02*
X59119000Y-45622000D01*
X59119000Y-50158000D02*
X59119000Y-48930000D01*
X59159000Y-46850000D02*
X59159000Y-45600000D01*
X59159000Y-50180000D02*
X59159000Y-48930000D01*
X59199000Y-46850000D02*
X59199000Y-45580000D01*
X59199000Y-50200000D02*
X59199000Y-48930000D01*
X59239000Y-46850000D02*
X59239000Y-45561000D01*
X59239000Y-50219000D02*
X59239000Y-48930000D01*
X59279000Y-46850000D02*
X59279000Y-45542000D01*
X59279000Y-50238000D02*
X59279000Y-48930000D01*
X59319000Y-46850000D02*
X59319000Y-45525000D01*
X59319000Y-50255000D02*
X59319000Y-48930000D01*
X59359000Y-46850000D02*
X59359000Y-45508000D01*
X59359000Y-50272000D02*
X59359000Y-48930000D01*
X59399000Y-46850000D02*
X59399000Y-45492000D01*
X59399000Y-50288000D02*
X59399000Y-48930000D01*
X59439000Y-46850000D02*
X59439000Y-45476000D01*
X59439000Y-50304000D02*
X59439000Y-48930000D01*
X59479000Y-46850000D02*
X59479000Y-45462000D01*
X59479000Y-50318000D02*
X59479000Y-48930000D01*
X59519000Y-46850000D02*
X59519000Y-45448000D01*
X59519000Y-50332000D02*
X59519000Y-48930000D01*
X59559000Y-46850000D02*
X59559000Y-45435000D01*
X59559000Y-50345000D02*
X59559000Y-48930000D01*
X59599000Y-46850000D02*
X59599000Y-45422000D01*
X59599000Y-50358000D02*
X59599000Y-48930000D01*
X59639000Y-46850000D02*
X59639000Y-45410000D01*
X59639000Y-50370000D02*
X59639000Y-48930000D01*
X59680000Y-46850000D02*
X59680000Y-45399000D01*
X59680000Y-50381000D02*
X59680000Y-48930000D01*
X59720000Y-46850000D02*
X59720000Y-45389000D01*
X59720000Y-50391000D02*
X59720000Y-48930000D01*
X59760000Y-46850000D02*
X59760000Y-45379000D01*
X59760000Y-50401000D02*
X59760000Y-48930000D01*
X59800000Y-46850000D02*
X59800000Y-45370000D01*
X59800000Y-50410000D02*
X59800000Y-48930000D01*
X59840000Y-46850000D02*
X59840000Y-45362000D01*
X59840000Y-50418000D02*
X59840000Y-48930000D01*
X59880000Y-46850000D02*
X59880000Y-45354000D01*
X59880000Y-50426000D02*
X59880000Y-48930000D01*
X59920000Y-46850000D02*
X59920000Y-45347000D01*
X59920000Y-50433000D02*
X59920000Y-48930000D01*
X59960000Y-46850000D02*
X59960000Y-45340000D01*
X59960000Y-50440000D02*
X59960000Y-48930000D01*
X60000000Y-46850000D02*
X60000000Y-45334000D01*
X60000000Y-50446000D02*
X60000000Y-48930000D01*
X60040000Y-46850000D02*
X60040000Y-45329000D01*
X60040000Y-50451000D02*
X60040000Y-48930000D01*
X60080000Y-46850000D02*
X60080000Y-45325000D01*
X60080000Y-50455000D02*
X60080000Y-48930000D01*
X60120000Y-46850000D02*
X60120000Y-45321000D01*
X60120000Y-50459000D02*
X60120000Y-48930000D01*
X60160000Y-46850000D02*
X60160000Y-45317000D01*
X60160000Y-50463000D02*
X60160000Y-48930000D01*
X60200000Y-46850000D02*
X60200000Y-45314000D01*
X60200000Y-50466000D02*
X60200000Y-48930000D01*
X60240000Y-46850000D02*
X60240000Y-45312000D01*
X60240000Y-50468000D02*
X60240000Y-48930000D01*
X60280000Y-46850000D02*
X60280000Y-45311000D01*
X60280000Y-50469000D02*
X60280000Y-48930000D01*
X60320000Y-46850000D02*
X60320000Y-45310000D01*
X60320000Y-50470000D02*
X60320000Y-48930000D01*
X60360000Y-46850000D02*
X60360000Y-45310000D01*
X60360000Y-50470000D02*
X60360000Y-48930000D01*
X62914775Y-49615000D02*
X62914775Y-49115000D01*
X63164775Y-49365000D02*
X62664775Y-49365000D01*
X62980000Y-47890000D02*
G75*
G02*
X57740000Y-47890000I-2620000J0D01*
G01*
X57740000Y-47890000D02*
G75*
G02*
X62980000Y-47890000I2620000J0D01*
G01*
%TO.C,C1*%
X57515000Y-56710000D02*
X57515000Y-56725000D01*
X57515000Y-56710000D02*
X62055000Y-56710000D01*
X57515000Y-58835000D02*
X57515000Y-58850000D01*
X57515000Y-58850000D02*
X62055000Y-58850000D01*
X62055000Y-56710000D02*
X62055000Y-56725000D01*
X62055000Y-58835000D02*
X62055000Y-58850000D01*
%TO.C,R2*%
X56915000Y-111770000D02*
X57865000Y-111770000D01*
X57865000Y-110850000D02*
X57865000Y-112690000D01*
X57865000Y-112690000D02*
X61705000Y-112690000D01*
X61705000Y-110850000D02*
X57865000Y-110850000D01*
X61705000Y-112690000D02*
X61705000Y-110850000D01*
X62655000Y-111770000D02*
X61705000Y-111770000D01*
%TD*%
M02*
