%TF.GenerationSoftware,KiCad,Pcbnew,8.0.5*%
%TF.CreationDate,2024-10-27T18:20:28+00:00*%
%TF.ProjectId,Oric-PS2USB,4f726963-2d50-4533-9255-53422e6b6963,rev?*%
%TF.SameCoordinates,Original*%
%TF.FileFunction,Soldermask,Bot*%
%TF.FilePolarity,Negative*%
%FSLAX46Y46*%
G04 Gerber Fmt 4.6, Leading zero omitted, Abs format (unit mm)*
G04 Created by KiCad (PCBNEW 8.0.5) date 2024-10-27 18:20:28*
%MOMM*%
%LPD*%
G01*
G04 APERTURE LIST*
%ADD10C,1.780000*%
%ADD11R,1.600000X1.600000*%
%ADD12O,1.600000X1.600000*%
%ADD13C,4.000000*%
%ADD14R,1.800000X1.800000*%
%ADD15C,1.800000*%
%ADD16C,1.600000*%
%ADD17O,2.000000X3.500000*%
%ADD18O,4.000000X2.000000*%
%ADD19C,1.400000*%
%ADD20O,1.400000X1.400000*%
%ADD21O,1.700000X1.700000*%
%ADD22R,1.700000X1.700000*%
G04 APERTURE END LIST*
D10*
%TO.C,U2*%
X31820000Y-60540000D03*
X31820000Y-101180000D03*
X47060000Y-60540000D03*
X47060000Y-101180000D03*
D11*
X31820000Y-63080000D03*
D12*
X31820000Y-65620000D03*
X31820000Y-68160000D03*
X31820000Y-70700000D03*
X31820000Y-73240000D03*
X31820000Y-75780000D03*
X31820000Y-78320000D03*
X31820000Y-80860000D03*
X31820000Y-83400000D03*
X31820000Y-85940000D03*
X31820000Y-88480000D03*
X31820000Y-91020000D03*
X31820000Y-93560000D03*
X31820000Y-96100000D03*
X31820000Y-98640000D03*
X47060000Y-98640000D03*
X47060000Y-96100000D03*
X47060000Y-93560000D03*
X47060000Y-91020000D03*
X47060000Y-88480000D03*
X47060000Y-85940000D03*
X47060000Y-83400000D03*
X47060000Y-80860000D03*
X47060000Y-78320000D03*
X47060000Y-75780000D03*
X47060000Y-73240000D03*
X47060000Y-70700000D03*
X47060000Y-68160000D03*
X47060000Y-65620000D03*
X47060000Y-63080000D03*
%TD*%
D13*
%TO.C,H1*%
X70500000Y-26940000D03*
%TD*%
D11*
%TO.C,U1*%
X52160000Y-60640000D03*
D12*
X52160000Y-63180000D03*
X52160000Y-65720000D03*
X52160000Y-68260000D03*
X52160000Y-70800000D03*
X52160000Y-73340000D03*
X52160000Y-75880000D03*
X52160000Y-78420000D03*
X52160000Y-80960000D03*
X52160000Y-83500000D03*
X52160000Y-86040000D03*
X52160000Y-88580000D03*
X52160000Y-91120000D03*
X52160000Y-93660000D03*
X52160000Y-96200000D03*
X52160000Y-98740000D03*
X52160000Y-101280000D03*
X52160000Y-103820000D03*
X52160000Y-106360000D03*
X52160000Y-108900000D03*
X67400000Y-108900000D03*
X67400000Y-106360000D03*
X67400000Y-103820000D03*
X67400000Y-101280000D03*
X67400000Y-98740000D03*
X67400000Y-96200000D03*
X67400000Y-93660000D03*
X67400000Y-91120000D03*
X67400000Y-88580000D03*
X67400000Y-86040000D03*
X67400000Y-83500000D03*
X67400000Y-80960000D03*
X67400000Y-78420000D03*
X67400000Y-75880000D03*
X67400000Y-73340000D03*
X67400000Y-70800000D03*
X67400000Y-68260000D03*
X67400000Y-65720000D03*
X67400000Y-63180000D03*
X67400000Y-60640000D03*
%TD*%
D14*
%TO.C,D17*%
X74215000Y-45100000D03*
D15*
X71675000Y-45100000D03*
%TD*%
D11*
%TO.C,J3*%
X100790000Y-30870000D03*
D16*
X103390000Y-30870000D03*
X98690000Y-30870000D03*
X105490000Y-30870000D03*
X98690000Y-33670000D03*
X105490000Y-33670000D03*
D17*
X108940000Y-28020000D03*
D18*
X102090000Y-27220000D03*
D17*
X95240000Y-28020000D03*
%TD*%
D11*
%TO.C,U3*%
X35400000Y-49870000D03*
D12*
X37940000Y-49870000D03*
X40480000Y-49870000D03*
X43020000Y-49870000D03*
X45560000Y-49870000D03*
X48100000Y-49870000D03*
X50640000Y-49870000D03*
X53180000Y-49870000D03*
X53180000Y-42250000D03*
X50640000Y-42250000D03*
X48100000Y-42250000D03*
X45560000Y-42250000D03*
X43020000Y-42250000D03*
X40480000Y-42250000D03*
X37940000Y-42250000D03*
X35400000Y-42250000D03*
%TD*%
D19*
%TO.C,R1*%
X56640000Y-42210000D03*
D20*
X64260000Y-42210000D03*
%TD*%
D21*
%TO.C,PL1*%
X40470000Y-53280000D03*
X43010000Y-53280000D03*
X45550000Y-53280000D03*
X48090000Y-53280000D03*
X50630000Y-53280000D03*
X53170000Y-53280000D03*
X55710000Y-53280000D03*
X58250000Y-53280000D03*
X60790000Y-53280000D03*
X63330000Y-53280000D03*
X65870000Y-53280000D03*
X68410000Y-53280000D03*
X70950000Y-53280000D03*
D22*
X73490000Y-53280000D03*
%TD*%
D11*
%TO.C,U7*%
X76460000Y-24090000D03*
D12*
X76460000Y-26630000D03*
X76460000Y-29170000D03*
X76460000Y-31710000D03*
X76460000Y-34250000D03*
X76460000Y-36790000D03*
X76460000Y-39330000D03*
X91700000Y-39330000D03*
X91700000Y-36790000D03*
X91700000Y-34250000D03*
X91700000Y-31710000D03*
X91700000Y-29170000D03*
X91700000Y-26630000D03*
X91700000Y-24090000D03*
%TD*%
D11*
%TO.C,C2*%
X61360000Y-47890000D03*
D16*
X59360000Y-47890000D03*
%TD*%
%TO.C,C1*%
X57285000Y-57780000D03*
X62285000Y-57780000D03*
%TD*%
D19*
%TO.C,R2*%
X63595000Y-111770000D03*
D20*
X55975000Y-111770000D03*
%TD*%
M02*
