M48
; DRILL file {KiCad 8.0.5} date 2024-10-27T18:20:26+0000
; FORMAT={-:-/ absolute / inch / decimal}
; #@! TF.CreationDate,2024-10-27T18:20:26+00:00
; #@! TF.GenerationSoftware,Kicad,Pcbnew,8.0.5
; #@! TF.FileFunction,Plated,1,2,PTH
FMAT,2
INCH
; #@! TA.AperFunction,Plated,PTH,ViaDrill
T1C0.0157
; #@! TA.AperFunction,Plated,PTH,ComponentDrill
T2C0.0276
; #@! TA.AperFunction,Plated,PTH,ComponentDrill
T3C0.0315
; #@! TA.AperFunction,Plated,PTH,ComponentDrill
T4C0.0354
; #@! TA.AperFunction,Plated,PTH,ComponentDrill
T5C0.0394
%
G90
G05
T1
X1.7272Y-3.1736
X1.7622Y-3.2335
X1.9181Y-2.8391
X1.948Y-2.1878
X1.961Y-2.7669
X2.0028Y-2.5425
X2.0076Y-2.954
X2.0216Y-3.8338
X2.1005Y-2.8193
X2.1251Y-2.9112
X2.1556Y-3.1298
X2.168Y-2.7272
X2.2656Y-2.6344
X2.2656Y-3.1019
X2.2858Y-2.5492
X2.305Y-2.6029
X2.3943Y-2.3106
X2.4504Y-2.1866
X2.4729Y-2.5799
X2.5569Y-2.1838
X2.5636Y-1.9215
X2.6192Y-2.5392
X2.6331Y-2.1913
X2.6343Y-1.9854
X2.7718Y-2.2061
X3.4034Y-1.5784
T2
X2.2037Y-4.4004
X2.2299Y-1.6618
X2.5037Y-4.4004
X2.5299Y-1.6618
T3
X1.3937Y-1.6634
X1.3937Y-1.9634
X1.4937Y-1.6634
X1.4937Y-1.9634
X1.5937Y-1.6634
X1.5937Y-1.9634
X1.6937Y-1.6634
X1.6937Y-1.9634
X1.7937Y-1.6634
X1.7937Y-1.9634
X1.8937Y-1.6634
X1.8937Y-1.9634
X1.9937Y-1.6634
X1.9937Y-1.9634
X2.0535Y-2.3874
X2.0535Y-2.4874
X2.0535Y-2.5874
X2.0535Y-2.6874
X2.0535Y-2.7874
X2.0535Y-2.8874
X2.0535Y-2.9874
X2.0535Y-3.0874
X2.0535Y-3.1874
X2.0535Y-3.2874
X2.0535Y-3.3874
X2.0535Y-3.4874
X2.0535Y-3.5874
X2.0535Y-3.6874
X2.0535Y-3.7874
X2.0535Y-3.8874
X2.0535Y-3.9874
X2.0535Y-4.0874
X2.0535Y-4.1874
X2.0535Y-4.2874
X2.0937Y-1.6634
X2.0937Y-1.9634
X2.2553Y-2.2748
X2.337Y-1.8854
X2.4157Y-1.8854
X2.4522Y-2.2748
X2.6535Y-2.3874
X2.6535Y-2.4874
X2.6535Y-2.5874
X2.6535Y-2.6874
X2.6535Y-2.7874
X2.6535Y-2.8874
X2.6535Y-2.9874
X2.6535Y-3.0874
X2.6535Y-3.1874
X2.6535Y-3.2874
X2.6535Y-3.3874
X2.6535Y-3.4874
X2.6535Y-3.5874
X2.6535Y-3.6874
X2.6535Y-3.7874
X2.6535Y-3.8874
X2.6535Y-3.9874
X2.6535Y-4.0874
X2.6535Y-4.1874
X2.6535Y-4.2874
X3.0102Y-0.9484
X3.0102Y-1.0484
X3.0102Y-1.1484
X3.0102Y-1.2484
X3.0102Y-1.3484
X3.0102Y-1.4484
X3.0102Y-1.5484
X3.6102Y-0.9484
X3.6102Y-1.0484
X3.6102Y-1.1484
X3.6102Y-1.2484
X3.6102Y-1.3484
X3.6102Y-1.4484
X3.6102Y-1.5484
X3.8854Y-1.2154
X3.8854Y-1.3256
X3.9681Y-1.2154
X4.0705Y-1.2154
X4.1531Y-1.2154
X4.1531Y-1.3256
T4
X2.8219Y-1.7756
X2.9219Y-1.7756
T5
X1.2528Y-2.4835
X1.2528Y-2.5835
X1.2528Y-2.6835
X1.2528Y-2.7835
X1.2528Y-2.8835
X1.2528Y-2.9835
X1.2528Y-3.0835
X1.2528Y-3.1835
X1.2528Y-3.2835
X1.2528Y-3.3835
X1.2528Y-3.4835
X1.2528Y-3.5835
X1.2528Y-3.6835
X1.2528Y-3.7835
X1.2528Y-3.8835
X1.5933Y-2.0976
X1.6933Y-2.0976
X1.7933Y-2.0976
X1.8528Y-2.4835
X1.8528Y-2.5835
X1.8528Y-2.6835
X1.8528Y-2.7835
X1.8528Y-2.8835
X1.8528Y-2.9835
X1.8528Y-3.0835
X1.8528Y-3.1835
X1.8528Y-3.2835
X1.8528Y-3.3835
X1.8528Y-3.4835
X1.8528Y-3.5835
X1.8528Y-3.6835
X1.8528Y-3.7835
X1.8528Y-3.8835
X1.8933Y-2.0976
X1.9933Y-2.0976
X2.0933Y-2.0976
X2.1933Y-2.0976
X2.2933Y-2.0976
X2.3933Y-2.0976
X2.4933Y-2.0976
X2.5933Y-2.0976
X2.6933Y-2.0976
X2.7933Y-2.0976
X2.8933Y-2.0976
T5
G00X3.7496Y-1.1327
M15
G01X3.7496Y-1.0736
M16
G05
G00X4.0587Y-1.0717
M15
G01X3.9799Y-1.0717
M16
G05
G00X4.289Y-1.1327
M15
G01X4.289Y-1.0736
M16
G05
M30
