%TF.GenerationSoftware,KiCad,Pcbnew,8.0.5*%
%TF.CreationDate,2024-10-27T18:20:26+00:00*%
%TF.ProjectId,Oric-PS2USB,4f726963-2d50-4533-9255-53422e6b6963,rev?*%
%TF.SameCoordinates,Original*%
%TF.FileFunction,Drillmap*%
%TF.FilePolarity,Positive*%
%FSLAX45Y45*%
G04 Gerber Fmt 4.5, Leading zero omitted, Abs format (unit mm)*
G04 Created by KiCad (PCBNEW 8.0.5) date 2024-10-27 18:20:26*
%MOMM*%
%LPD*%
G01*
G04 APERTURE LIST*
%ADD10C,0.100000*%
%ADD11C,0.200000*%
G04 APERTURE END LIST*
D10*
X10963036Y-2218000D02*
X6902000Y-2218000D01*
X6669000Y-2451000D02*
X6669000Y-3698244D01*
X6669000Y-2451000D02*
G75*
G02*
X6902000Y-2218000I233000J0D01*
G01*
X7001000Y-11137000D02*
X7001244Y-11235244D01*
X7001000Y-7136000D02*
G75*
G02*
X10201000Y-3936000I3200000J0D01*
G01*
X2863756Y-11468244D02*
G75*
G02*
X2630756Y-11235244I0J233000D01*
G01*
X11196036Y-3500964D02*
X11196036Y-2451000D01*
X10963036Y-2218000D02*
G75*
G02*
X11196040Y-2451000I4J-233000D01*
G01*
X7001000Y-7136000D02*
X7001000Y-11137000D01*
X7001244Y-11235244D02*
G75*
G02*
X6768244Y-11468244I-233000J0D01*
G01*
X2630756Y-4164756D02*
G75*
G02*
X2863756Y-3931756I233000J0D01*
G01*
X2863756Y-11468244D02*
X6768244Y-11468244D01*
X11196036Y-3500964D02*
G75*
G02*
X10761000Y-3936000I-435036J0D01*
G01*
X2630756Y-4164756D02*
X2630756Y-11235244D01*
X6669000Y-3698244D02*
G75*
G02*
X6436000Y-3931244I-233000J0D01*
G01*
X6436000Y-3931244D02*
X2863756Y-3931756D01*
X10201000Y-3936000D02*
X10761000Y-3936000D01*
D11*
D10*
X4367000Y-8041000D02*
X4407000Y-8081000D01*
X4407000Y-8041000D02*
X4367000Y-8081000D01*
X4456000Y-8193000D02*
X4496000Y-8233000D01*
X4496000Y-8193000D02*
X4456000Y-8233000D01*
X4852000Y-7191330D02*
X4892000Y-7231330D01*
X4892000Y-7191330D02*
X4852000Y-7231330D01*
X4928000Y-5537000D02*
X4968000Y-5577000D01*
X4968000Y-5537000D02*
X4928000Y-5577000D01*
X4961000Y-7008000D02*
X5001000Y-7048000D01*
X5001000Y-7008000D02*
X4961000Y-7048000D01*
X5067000Y-6438000D02*
X5107000Y-6478000D01*
X5107000Y-6438000D02*
X5067000Y-6478000D01*
X5079290Y-7483240D02*
X5119290Y-7523240D01*
X5119290Y-7483240D02*
X5079290Y-7523240D01*
X5114830Y-9717790D02*
X5154830Y-9757790D01*
X5154830Y-9717790D02*
X5114830Y-9757790D01*
X5315180Y-7140920D02*
X5355180Y-7180920D01*
X5355180Y-7140920D02*
X5315180Y-7180920D01*
X5377880Y-7374560D02*
X5417880Y-7414560D01*
X5417880Y-7374560D02*
X5377880Y-7414560D01*
X5455235Y-7929765D02*
X5495235Y-7969765D01*
X5495235Y-7929765D02*
X5455235Y-7969765D01*
X5486740Y-6907150D02*
X5526740Y-6947150D01*
X5526740Y-6907150D02*
X5486740Y-6947150D01*
X5734570Y-6671460D02*
X5774570Y-6711460D01*
X5774570Y-6671460D02*
X5734570Y-6711460D01*
X5734570Y-7858860D02*
X5774570Y-7898860D01*
X5774570Y-7858860D02*
X5734570Y-7898860D01*
X5786000Y-6455000D02*
X5826000Y-6495000D01*
X5826000Y-6455000D02*
X5786000Y-6495000D01*
X5834800Y-6591370D02*
X5874800Y-6631370D01*
X5874800Y-6591370D02*
X5834800Y-6631370D01*
X6061400Y-5848930D02*
X6101400Y-5888930D01*
X6101400Y-5848930D02*
X6061400Y-5888930D01*
X6204000Y-5534000D02*
X6244000Y-5574000D01*
X6244000Y-5534000D02*
X6204000Y-5574000D01*
X6261280Y-6533000D02*
X6301280Y-6573000D01*
X6301280Y-6533000D02*
X6261280Y-6573000D01*
X6474620Y-5526730D02*
X6514620Y-5566730D01*
X6514620Y-5526730D02*
X6474620Y-5566730D01*
X6491525Y-4860525D02*
X6531525Y-4900525D01*
X6531525Y-4860525D02*
X6491525Y-4900525D01*
X6632760Y-6429630D02*
X6672760Y-6469630D01*
X6672760Y-6429630D02*
X6632760Y-6469630D01*
X6668000Y-5546000D02*
X6708000Y-5586000D01*
X6708000Y-5546000D02*
X6668000Y-5586000D01*
X6671000Y-5023000D02*
X6711000Y-5063000D01*
X6711000Y-5023000D02*
X6671000Y-5063000D01*
X7020280Y-5583540D02*
X7060280Y-5623540D01*
X7060280Y-5583540D02*
X7020280Y-5623540D01*
X8624614Y-3989114D02*
X8664614Y-4029114D01*
X8664614Y-3989114D02*
X8624614Y-4029114D01*
X5632500Y-11177000D02*
G75*
G02*
X5562500Y-11177000I-35000J0D01*
G01*
X5562500Y-11177000D02*
G75*
G02*
X5632500Y-11177000I35000J0D01*
G01*
X5699000Y-4221000D02*
G75*
G02*
X5629000Y-4221000I-35000J0D01*
G01*
X5629000Y-4221000D02*
G75*
G02*
X5699000Y-4221000I35000J0D01*
G01*
X6394500Y-11177000D02*
G75*
G02*
X6324500Y-11177000I-35000J0D01*
G01*
X6324500Y-11177000D02*
G75*
G02*
X6394500Y-11177000I35000J0D01*
G01*
X6461000Y-4221000D02*
G75*
G02*
X6391000Y-4221000I-35000J0D01*
G01*
X6391000Y-4221000D02*
G75*
G02*
X6461000Y-4221000I35000J0D01*
G01*
X3540000Y-4185000D02*
X3540000Y-4265000D01*
X3500000Y-4225000D02*
X3580000Y-4225000D01*
X3540000Y-4947000D02*
X3540000Y-5027000D01*
X3500000Y-4987000D02*
X3580000Y-4987000D01*
X3794000Y-4185000D02*
X3794000Y-4265000D01*
X3754000Y-4225000D02*
X3834000Y-4225000D01*
X3794000Y-4947000D02*
X3794000Y-5027000D01*
X3754000Y-4987000D02*
X3834000Y-4987000D01*
X4048000Y-4185000D02*
X4048000Y-4265000D01*
X4008000Y-4225000D02*
X4088000Y-4225000D01*
X4048000Y-4947000D02*
X4048000Y-5027000D01*
X4008000Y-4987000D02*
X4088000Y-4987000D01*
X4302000Y-4185000D02*
X4302000Y-4265000D01*
X4262000Y-4225000D02*
X4342000Y-4225000D01*
X4302000Y-4947000D02*
X4302000Y-5027000D01*
X4262000Y-4987000D02*
X4342000Y-4987000D01*
X4556000Y-4185000D02*
X4556000Y-4265000D01*
X4516000Y-4225000D02*
X4596000Y-4225000D01*
X4556000Y-4947000D02*
X4556000Y-5027000D01*
X4516000Y-4987000D02*
X4596000Y-4987000D01*
X4810000Y-4185000D02*
X4810000Y-4265000D01*
X4770000Y-4225000D02*
X4850000Y-4225000D01*
X4810000Y-4947000D02*
X4810000Y-5027000D01*
X4770000Y-4987000D02*
X4850000Y-4987000D01*
X5064000Y-4185000D02*
X5064000Y-4265000D01*
X5024000Y-4225000D02*
X5104000Y-4225000D01*
X5064000Y-4947000D02*
X5064000Y-5027000D01*
X5024000Y-4987000D02*
X5104000Y-4987000D01*
X5216000Y-6024000D02*
X5216000Y-6104000D01*
X5176000Y-6064000D02*
X5256000Y-6064000D01*
X5216000Y-6278000D02*
X5216000Y-6358000D01*
X5176000Y-6318000D02*
X5256000Y-6318000D01*
X5216000Y-6532000D02*
X5216000Y-6612000D01*
X5176000Y-6572000D02*
X5256000Y-6572000D01*
X5216000Y-6786000D02*
X5216000Y-6866000D01*
X5176000Y-6826000D02*
X5256000Y-6826000D01*
X5216000Y-7040000D02*
X5216000Y-7120000D01*
X5176000Y-7080000D02*
X5256000Y-7080000D01*
X5216000Y-7294000D02*
X5216000Y-7374000D01*
X5176000Y-7334000D02*
X5256000Y-7334000D01*
X5216000Y-7548000D02*
X5216000Y-7628000D01*
X5176000Y-7588000D02*
X5256000Y-7588000D01*
X5216000Y-7802000D02*
X5216000Y-7882000D01*
X5176000Y-7842000D02*
X5256000Y-7842000D01*
X5216000Y-8056000D02*
X5216000Y-8136000D01*
X5176000Y-8096000D02*
X5256000Y-8096000D01*
X5216000Y-8310000D02*
X5216000Y-8390000D01*
X5176000Y-8350000D02*
X5256000Y-8350000D01*
X5216000Y-8564000D02*
X5216000Y-8644000D01*
X5176000Y-8604000D02*
X5256000Y-8604000D01*
X5216000Y-8818000D02*
X5216000Y-8898000D01*
X5176000Y-8858000D02*
X5256000Y-8858000D01*
X5216000Y-9072000D02*
X5216000Y-9152000D01*
X5176000Y-9112000D02*
X5256000Y-9112000D01*
X5216000Y-9326000D02*
X5216000Y-9406000D01*
X5176000Y-9366000D02*
X5256000Y-9366000D01*
X5216000Y-9580000D02*
X5216000Y-9660000D01*
X5176000Y-9620000D02*
X5256000Y-9620000D01*
X5216000Y-9834000D02*
X5216000Y-9914000D01*
X5176000Y-9874000D02*
X5256000Y-9874000D01*
X5216000Y-10088000D02*
X5216000Y-10168000D01*
X5176000Y-10128000D02*
X5256000Y-10128000D01*
X5216000Y-10342000D02*
X5216000Y-10422000D01*
X5176000Y-10382000D02*
X5256000Y-10382000D01*
X5216000Y-10596000D02*
X5216000Y-10676000D01*
X5176000Y-10636000D02*
X5256000Y-10636000D01*
X5216000Y-10850000D02*
X5216000Y-10930000D01*
X5176000Y-10890000D02*
X5256000Y-10890000D01*
X5318000Y-4185000D02*
X5318000Y-4265000D01*
X5278000Y-4225000D02*
X5358000Y-4225000D01*
X5318000Y-4947000D02*
X5318000Y-5027000D01*
X5278000Y-4987000D02*
X5358000Y-4987000D01*
X5728500Y-5738000D02*
X5728500Y-5818000D01*
X5688500Y-5778000D02*
X5768500Y-5778000D01*
X5936000Y-4749000D02*
X5936000Y-4829000D01*
X5896000Y-4789000D02*
X5976000Y-4789000D01*
X6136000Y-4749000D02*
X6136000Y-4829000D01*
X6096000Y-4789000D02*
X6176000Y-4789000D01*
X6228500Y-5738000D02*
X6228500Y-5818000D01*
X6188500Y-5778000D02*
X6268500Y-5778000D01*
X6740000Y-6024000D02*
X6740000Y-6104000D01*
X6700000Y-6064000D02*
X6780000Y-6064000D01*
X6740000Y-6278000D02*
X6740000Y-6358000D01*
X6700000Y-6318000D02*
X6780000Y-6318000D01*
X6740000Y-6532000D02*
X6740000Y-6612000D01*
X6700000Y-6572000D02*
X6780000Y-6572000D01*
X6740000Y-6786000D02*
X6740000Y-6866000D01*
X6700000Y-6826000D02*
X6780000Y-6826000D01*
X6740000Y-7040000D02*
X6740000Y-7120000D01*
X6700000Y-7080000D02*
X6780000Y-7080000D01*
X6740000Y-7294000D02*
X6740000Y-7374000D01*
X6700000Y-7334000D02*
X6780000Y-7334000D01*
X6740000Y-7548000D02*
X6740000Y-7628000D01*
X6700000Y-7588000D02*
X6780000Y-7588000D01*
X6740000Y-7802000D02*
X6740000Y-7882000D01*
X6700000Y-7842000D02*
X6780000Y-7842000D01*
X6740000Y-8056000D02*
X6740000Y-8136000D01*
X6700000Y-8096000D02*
X6780000Y-8096000D01*
X6740000Y-8310000D02*
X6740000Y-8390000D01*
X6700000Y-8350000D02*
X6780000Y-8350000D01*
X6740000Y-8564000D02*
X6740000Y-8644000D01*
X6700000Y-8604000D02*
X6780000Y-8604000D01*
X6740000Y-8818000D02*
X6740000Y-8898000D01*
X6700000Y-8858000D02*
X6780000Y-8858000D01*
X6740000Y-9072000D02*
X6740000Y-9152000D01*
X6700000Y-9112000D02*
X6780000Y-9112000D01*
X6740000Y-9326000D02*
X6740000Y-9406000D01*
X6700000Y-9366000D02*
X6780000Y-9366000D01*
X6740000Y-9580000D02*
X6740000Y-9660000D01*
X6700000Y-9620000D02*
X6780000Y-9620000D01*
X6740000Y-9834000D02*
X6740000Y-9914000D01*
X6700000Y-9874000D02*
X6780000Y-9874000D01*
X6740000Y-10088000D02*
X6740000Y-10168000D01*
X6700000Y-10128000D02*
X6780000Y-10128000D01*
X6740000Y-10342000D02*
X6740000Y-10422000D01*
X6700000Y-10382000D02*
X6780000Y-10382000D01*
X6740000Y-10596000D02*
X6740000Y-10676000D01*
X6700000Y-10636000D02*
X6780000Y-10636000D01*
X6740000Y-10850000D02*
X6740000Y-10930000D01*
X6700000Y-10890000D02*
X6780000Y-10890000D01*
X7646000Y-2369000D02*
X7646000Y-2449000D01*
X7606000Y-2409000D02*
X7686000Y-2409000D01*
X7646000Y-2623000D02*
X7646000Y-2703000D01*
X7606000Y-2663000D02*
X7686000Y-2663000D01*
X7646000Y-2877000D02*
X7646000Y-2957000D01*
X7606000Y-2917000D02*
X7686000Y-2917000D01*
X7646000Y-3131000D02*
X7646000Y-3211000D01*
X7606000Y-3171000D02*
X7686000Y-3171000D01*
X7646000Y-3385000D02*
X7646000Y-3465000D01*
X7606000Y-3425000D02*
X7686000Y-3425000D01*
X7646000Y-3639000D02*
X7646000Y-3719000D01*
X7606000Y-3679000D02*
X7686000Y-3679000D01*
X7646000Y-3893000D02*
X7646000Y-3973000D01*
X7606000Y-3933000D02*
X7686000Y-3933000D01*
X9170000Y-2369000D02*
X9170000Y-2449000D01*
X9130000Y-2409000D02*
X9210000Y-2409000D01*
X9170000Y-2623000D02*
X9170000Y-2703000D01*
X9130000Y-2663000D02*
X9210000Y-2663000D01*
X9170000Y-2877000D02*
X9170000Y-2957000D01*
X9130000Y-2917000D02*
X9210000Y-2917000D01*
X9170000Y-3131000D02*
X9170000Y-3211000D01*
X9130000Y-3171000D02*
X9210000Y-3171000D01*
X9170000Y-3385000D02*
X9170000Y-3465000D01*
X9130000Y-3425000D02*
X9210000Y-3425000D01*
X9170000Y-3639000D02*
X9170000Y-3719000D01*
X9130000Y-3679000D02*
X9210000Y-3679000D01*
X9170000Y-3893000D02*
X9170000Y-3973000D01*
X9130000Y-3933000D02*
X9210000Y-3933000D01*
X9869000Y-3047000D02*
X9869000Y-3127000D01*
X9829000Y-3087000D02*
X9909000Y-3087000D01*
X9869000Y-3327000D02*
X9869000Y-3407000D01*
X9829000Y-3367000D02*
X9909000Y-3367000D01*
X10079000Y-3047000D02*
X10079000Y-3127000D01*
X10039000Y-3087000D02*
X10119000Y-3087000D01*
X10339000Y-3047000D02*
X10339000Y-3127000D01*
X10299000Y-3087000D02*
X10379000Y-3087000D01*
X10549000Y-3047000D02*
X10549000Y-3127000D01*
X10509000Y-3087000D02*
X10589000Y-3087000D01*
X10549000Y-3327000D02*
X10549000Y-3407000D01*
X10509000Y-3367000D02*
X10589000Y-3367000D01*
X7199320Y-4541820D02*
X7199320Y-4478180D01*
X7135680Y-4478180D01*
X7135680Y-4541820D01*
X7199320Y-4541820D01*
X7453320Y-4541820D02*
X7453320Y-4478180D01*
X7389680Y-4478180D01*
X7389680Y-4541820D01*
X7453320Y-4541820D01*
X3182000Y-6358000D02*
X3232000Y-6308000D01*
X3182000Y-6258000D01*
X3132000Y-6308000D01*
X3182000Y-6358000D01*
X3182000Y-6612000D02*
X3232000Y-6562000D01*
X3182000Y-6512000D01*
X3132000Y-6562000D01*
X3182000Y-6612000D01*
X3182000Y-6866000D02*
X3232000Y-6816000D01*
X3182000Y-6766000D01*
X3132000Y-6816000D01*
X3182000Y-6866000D01*
X3182000Y-7120000D02*
X3232000Y-7070000D01*
X3182000Y-7020000D01*
X3132000Y-7070000D01*
X3182000Y-7120000D01*
X3182000Y-7374000D02*
X3232000Y-7324000D01*
X3182000Y-7274000D01*
X3132000Y-7324000D01*
X3182000Y-7374000D01*
X3182000Y-7628000D02*
X3232000Y-7578000D01*
X3182000Y-7528000D01*
X3132000Y-7578000D01*
X3182000Y-7628000D01*
X3182000Y-7882000D02*
X3232000Y-7832000D01*
X3182000Y-7782000D01*
X3132000Y-7832000D01*
X3182000Y-7882000D01*
X3182000Y-8136000D02*
X3232000Y-8086000D01*
X3182000Y-8036000D01*
X3132000Y-8086000D01*
X3182000Y-8136000D01*
X3182000Y-8390000D02*
X3232000Y-8340000D01*
X3182000Y-8290000D01*
X3132000Y-8340000D01*
X3182000Y-8390000D01*
X3182000Y-8644000D02*
X3232000Y-8594000D01*
X3182000Y-8544000D01*
X3132000Y-8594000D01*
X3182000Y-8644000D01*
X3182000Y-8898000D02*
X3232000Y-8848000D01*
X3182000Y-8798000D01*
X3132000Y-8848000D01*
X3182000Y-8898000D01*
X3182000Y-9152000D02*
X3232000Y-9102000D01*
X3182000Y-9052000D01*
X3132000Y-9102000D01*
X3182000Y-9152000D01*
X3182000Y-9406000D02*
X3232000Y-9356000D01*
X3182000Y-9306000D01*
X3132000Y-9356000D01*
X3182000Y-9406000D01*
X3182000Y-9660000D02*
X3232000Y-9610000D01*
X3182000Y-9560000D01*
X3132000Y-9610000D01*
X3182000Y-9660000D01*
X3182000Y-9914000D02*
X3232000Y-9864000D01*
X3182000Y-9814000D01*
X3132000Y-9864000D01*
X3182000Y-9914000D01*
X4047000Y-5378000D02*
X4097000Y-5328000D01*
X4047000Y-5278000D01*
X3997000Y-5328000D01*
X4047000Y-5378000D01*
X4301000Y-5378000D02*
X4351000Y-5328000D01*
X4301000Y-5278000D01*
X4251000Y-5328000D01*
X4301000Y-5378000D01*
X4555000Y-5378000D02*
X4605000Y-5328000D01*
X4555000Y-5278000D01*
X4505000Y-5328000D01*
X4555000Y-5378000D01*
X4706000Y-6358000D02*
X4756000Y-6308000D01*
X4706000Y-6258000D01*
X4656000Y-6308000D01*
X4706000Y-6358000D01*
X4706000Y-6612000D02*
X4756000Y-6562000D01*
X4706000Y-6512000D01*
X4656000Y-6562000D01*
X4706000Y-6612000D01*
X4706000Y-6866000D02*
X4756000Y-6816000D01*
X4706000Y-6766000D01*
X4656000Y-6816000D01*
X4706000Y-6866000D01*
X4706000Y-7120000D02*
X4756000Y-7070000D01*
X4706000Y-7020000D01*
X4656000Y-7070000D01*
X4706000Y-7120000D01*
X4706000Y-7374000D02*
X4756000Y-7324000D01*
X4706000Y-7274000D01*
X4656000Y-7324000D01*
X4706000Y-7374000D01*
X4706000Y-7628000D02*
X4756000Y-7578000D01*
X4706000Y-7528000D01*
X4656000Y-7578000D01*
X4706000Y-7628000D01*
X4706000Y-7882000D02*
X4756000Y-7832000D01*
X4706000Y-7782000D01*
X4656000Y-7832000D01*
X4706000Y-7882000D01*
X4706000Y-8136000D02*
X4756000Y-8086000D01*
X4706000Y-8036000D01*
X4656000Y-8086000D01*
X4706000Y-8136000D01*
X4706000Y-8390000D02*
X4756000Y-8340000D01*
X4706000Y-8290000D01*
X4656000Y-8340000D01*
X4706000Y-8390000D01*
X4706000Y-8644000D02*
X4756000Y-8594000D01*
X4706000Y-8544000D01*
X4656000Y-8594000D01*
X4706000Y-8644000D01*
X4706000Y-8898000D02*
X4756000Y-8848000D01*
X4706000Y-8798000D01*
X4656000Y-8848000D01*
X4706000Y-8898000D01*
X4706000Y-9152000D02*
X4756000Y-9102000D01*
X4706000Y-9052000D01*
X4656000Y-9102000D01*
X4706000Y-9152000D01*
X4706000Y-9406000D02*
X4756000Y-9356000D01*
X4706000Y-9306000D01*
X4656000Y-9356000D01*
X4706000Y-9406000D01*
X4706000Y-9660000D02*
X4756000Y-9610000D01*
X4706000Y-9560000D01*
X4656000Y-9610000D01*
X4706000Y-9660000D01*
X4706000Y-9914000D02*
X4756000Y-9864000D01*
X4706000Y-9814000D01*
X4656000Y-9864000D01*
X4706000Y-9914000D01*
X4809000Y-5378000D02*
X4859000Y-5328000D01*
X4809000Y-5278000D01*
X4759000Y-5328000D01*
X4809000Y-5378000D01*
X5063000Y-5378000D02*
X5113000Y-5328000D01*
X5063000Y-5278000D01*
X5013000Y-5328000D01*
X5063000Y-5378000D01*
X5317000Y-5378000D02*
X5367000Y-5328000D01*
X5317000Y-5278000D01*
X5267000Y-5328000D01*
X5317000Y-5378000D01*
X5571000Y-5378000D02*
X5621000Y-5328000D01*
X5571000Y-5278000D01*
X5521000Y-5328000D01*
X5571000Y-5378000D01*
X5825000Y-5378000D02*
X5875000Y-5328000D01*
X5825000Y-5278000D01*
X5775000Y-5328000D01*
X5825000Y-5378000D01*
X6079000Y-5378000D02*
X6129000Y-5328000D01*
X6079000Y-5278000D01*
X6029000Y-5328000D01*
X6079000Y-5378000D01*
X6333000Y-5378000D02*
X6383000Y-5328000D01*
X6333000Y-5278000D01*
X6283000Y-5328000D01*
X6333000Y-5378000D01*
X6587000Y-5378000D02*
X6637000Y-5328000D01*
X6587000Y-5278000D01*
X6537000Y-5328000D01*
X6587000Y-5378000D01*
X6841000Y-5378000D02*
X6891000Y-5328000D01*
X6841000Y-5278000D01*
X6791000Y-5328000D01*
X6841000Y-5378000D01*
X7095000Y-5378000D02*
X7145000Y-5328000D01*
X7095000Y-5278000D01*
X7045000Y-5328000D01*
X7095000Y-5378000D01*
X7349000Y-5378000D02*
X7399000Y-5328000D01*
X7349000Y-5278000D01*
X7299000Y-5328000D01*
X7349000Y-5378000D01*
X9524000Y-2852000D02*
X9574000Y-2802000D01*
X9524000Y-2752000D01*
X9474000Y-2802000D01*
X9524000Y-2852000D01*
X9574000Y-2877000D02*
X9574000Y-2727000D01*
X9474000Y-2727000D02*
G75*
G02*
X9574000Y-2727000I50000J0D01*
G01*
X9474000Y-2727000D02*
X9474000Y-2877000D01*
X9474000Y-2877000D02*
G75*
G03*
X9574000Y-2877000I50000J0D01*
G01*
X10209000Y-2772000D02*
X10259000Y-2722000D01*
X10209000Y-2672000D01*
X10159000Y-2722000D01*
X10209000Y-2772000D01*
X10309000Y-2672000D02*
X10109000Y-2672000D01*
X10109000Y-2772000D02*
G75*
G02*
X10109000Y-2672000I0J50000D01*
G01*
X10109000Y-2772000D02*
X10309000Y-2772000D01*
X10309000Y-2772000D02*
G75*
G03*
X10309000Y-2672000I0J50000D01*
G01*
X10894000Y-2852000D02*
X10944000Y-2802000D01*
X10894000Y-2752000D01*
X10844000Y-2802000D01*
X10894000Y-2852000D01*
X10944000Y-2877000D02*
X10944000Y-2727000D01*
X10844000Y-2727000D02*
G75*
G02*
X10944000Y-2727000I50000J0D01*
G01*
X10844000Y-2727000D02*
X10844000Y-2877000D01*
X10844000Y-2877000D02*
G75*
G03*
X10944000Y-2877000I50000J0D01*
G01*
D11*
X2886533Y-11784728D02*
X2886533Y-11584728D01*
X2886533Y-11584728D02*
X2934152Y-11584728D01*
X2934152Y-11584728D02*
X2962723Y-11594252D01*
X2962723Y-11594252D02*
X2981771Y-11613299D01*
X2981771Y-11613299D02*
X2991295Y-11632347D01*
X2991295Y-11632347D02*
X3000818Y-11670442D01*
X3000818Y-11670442D02*
X3000818Y-11699014D01*
X3000818Y-11699014D02*
X2991295Y-11737109D01*
X2991295Y-11737109D02*
X2981771Y-11756156D01*
X2981771Y-11756156D02*
X2962723Y-11775204D01*
X2962723Y-11775204D02*
X2934152Y-11784728D01*
X2934152Y-11784728D02*
X2886533Y-11784728D01*
X3086533Y-11784728D02*
X3086533Y-11651394D01*
X3086533Y-11689490D02*
X3096056Y-11670442D01*
X3096056Y-11670442D02*
X3105580Y-11660918D01*
X3105580Y-11660918D02*
X3124628Y-11651394D01*
X3124628Y-11651394D02*
X3143676Y-11651394D01*
X3210342Y-11784728D02*
X3210342Y-11651394D01*
X3210342Y-11584728D02*
X3200818Y-11594252D01*
X3200818Y-11594252D02*
X3210342Y-11603775D01*
X3210342Y-11603775D02*
X3219866Y-11594252D01*
X3219866Y-11594252D02*
X3210342Y-11584728D01*
X3210342Y-11584728D02*
X3210342Y-11603775D01*
X3334152Y-11784728D02*
X3315104Y-11775204D01*
X3315104Y-11775204D02*
X3305580Y-11756156D01*
X3305580Y-11756156D02*
X3305580Y-11584728D01*
X3438914Y-11784728D02*
X3419866Y-11775204D01*
X3419866Y-11775204D02*
X3410342Y-11756156D01*
X3410342Y-11756156D02*
X3410342Y-11584728D01*
X3667485Y-11784728D02*
X3667485Y-11584728D01*
X3667485Y-11584728D02*
X3734152Y-11727585D01*
X3734152Y-11727585D02*
X3800818Y-11584728D01*
X3800818Y-11584728D02*
X3800818Y-11784728D01*
X3981771Y-11784728D02*
X3981771Y-11679966D01*
X3981771Y-11679966D02*
X3972247Y-11660918D01*
X3972247Y-11660918D02*
X3953199Y-11651394D01*
X3953199Y-11651394D02*
X3915104Y-11651394D01*
X3915104Y-11651394D02*
X3896056Y-11660918D01*
X3981771Y-11775204D02*
X3962723Y-11784728D01*
X3962723Y-11784728D02*
X3915104Y-11784728D01*
X3915104Y-11784728D02*
X3896056Y-11775204D01*
X3896056Y-11775204D02*
X3886533Y-11756156D01*
X3886533Y-11756156D02*
X3886533Y-11737109D01*
X3886533Y-11737109D02*
X3896056Y-11718061D01*
X3896056Y-11718061D02*
X3915104Y-11708537D01*
X3915104Y-11708537D02*
X3962723Y-11708537D01*
X3962723Y-11708537D02*
X3981771Y-11699014D01*
X4077009Y-11651394D02*
X4077009Y-11851394D01*
X4077009Y-11660918D02*
X4096056Y-11651394D01*
X4096056Y-11651394D02*
X4134152Y-11651394D01*
X4134152Y-11651394D02*
X4153199Y-11660918D01*
X4153199Y-11660918D02*
X4162723Y-11670442D01*
X4162723Y-11670442D02*
X4172247Y-11689490D01*
X4172247Y-11689490D02*
X4172247Y-11746633D01*
X4172247Y-11746633D02*
X4162723Y-11765680D01*
X4162723Y-11765680D02*
X4153199Y-11775204D01*
X4153199Y-11775204D02*
X4134152Y-11784728D01*
X4134152Y-11784728D02*
X4096056Y-11784728D01*
X4096056Y-11784728D02*
X4077009Y-11775204D01*
X4257961Y-11765680D02*
X4267485Y-11775204D01*
X4267485Y-11775204D02*
X4257961Y-11784728D01*
X4257961Y-11784728D02*
X4248438Y-11775204D01*
X4248438Y-11775204D02*
X4257961Y-11765680D01*
X4257961Y-11765680D02*
X4257961Y-11784728D01*
X4257961Y-11660918D02*
X4267485Y-11670442D01*
X4267485Y-11670442D02*
X4257961Y-11679966D01*
X4257961Y-11679966D02*
X4248438Y-11670442D01*
X4248438Y-11670442D02*
X4257961Y-11660918D01*
X4257961Y-11660918D02*
X4257961Y-11679966D01*
D10*
X2585756Y-12093244D02*
X2625756Y-12133244D01*
X2625756Y-12093244D02*
X2585756Y-12133244D01*
D11*
X2924628Y-12004728D02*
X2943676Y-12004728D01*
X2943676Y-12004728D02*
X2962723Y-12014252D01*
X2962723Y-12014252D02*
X2972247Y-12023775D01*
X2972247Y-12023775D02*
X2981771Y-12042823D01*
X2981771Y-12042823D02*
X2991295Y-12080918D01*
X2991295Y-12080918D02*
X2991295Y-12128537D01*
X2991295Y-12128537D02*
X2981771Y-12166633D01*
X2981771Y-12166633D02*
X2972247Y-12185680D01*
X2972247Y-12185680D02*
X2962723Y-12195204D01*
X2962723Y-12195204D02*
X2943676Y-12204728D01*
X2943676Y-12204728D02*
X2924628Y-12204728D01*
X2924628Y-12204728D02*
X2905580Y-12195204D01*
X2905580Y-12195204D02*
X2896056Y-12185680D01*
X2896056Y-12185680D02*
X2886533Y-12166633D01*
X2886533Y-12166633D02*
X2877009Y-12128537D01*
X2877009Y-12128537D02*
X2877009Y-12080918D01*
X2877009Y-12080918D02*
X2886533Y-12042823D01*
X2886533Y-12042823D02*
X2896056Y-12023775D01*
X2896056Y-12023775D02*
X2905580Y-12014252D01*
X2905580Y-12014252D02*
X2924628Y-12004728D01*
X3077009Y-12185680D02*
X3086533Y-12195204D01*
X3086533Y-12195204D02*
X3077009Y-12204728D01*
X3077009Y-12204728D02*
X3067485Y-12195204D01*
X3067485Y-12195204D02*
X3077009Y-12185680D01*
X3077009Y-12185680D02*
X3077009Y-12204728D01*
X3257961Y-12071394D02*
X3257961Y-12204728D01*
X3210342Y-11995204D02*
X3162723Y-12138061D01*
X3162723Y-12138061D02*
X3286533Y-12138061D01*
X3400818Y-12004728D02*
X3419866Y-12004728D01*
X3419866Y-12004728D02*
X3438914Y-12014252D01*
X3438914Y-12014252D02*
X3448437Y-12023775D01*
X3448437Y-12023775D02*
X3457961Y-12042823D01*
X3457961Y-12042823D02*
X3467485Y-12080918D01*
X3467485Y-12080918D02*
X3467485Y-12128537D01*
X3467485Y-12128537D02*
X3457961Y-12166633D01*
X3457961Y-12166633D02*
X3448437Y-12185680D01*
X3448437Y-12185680D02*
X3438914Y-12195204D01*
X3438914Y-12195204D02*
X3419866Y-12204728D01*
X3419866Y-12204728D02*
X3400818Y-12204728D01*
X3400818Y-12204728D02*
X3381771Y-12195204D01*
X3381771Y-12195204D02*
X3372247Y-12185680D01*
X3372247Y-12185680D02*
X3362723Y-12166633D01*
X3362723Y-12166633D02*
X3353199Y-12128537D01*
X3353199Y-12128537D02*
X3353199Y-12080918D01*
X3353199Y-12080918D02*
X3362723Y-12042823D01*
X3362723Y-12042823D02*
X3372247Y-12023775D01*
X3372247Y-12023775D02*
X3381771Y-12014252D01*
X3381771Y-12014252D02*
X3400818Y-12004728D01*
X3591295Y-12004728D02*
X3610342Y-12004728D01*
X3610342Y-12004728D02*
X3629390Y-12014252D01*
X3629390Y-12014252D02*
X3638914Y-12023775D01*
X3638914Y-12023775D02*
X3648437Y-12042823D01*
X3648437Y-12042823D02*
X3657961Y-12080918D01*
X3657961Y-12080918D02*
X3657961Y-12128537D01*
X3657961Y-12128537D02*
X3648437Y-12166633D01*
X3648437Y-12166633D02*
X3638914Y-12185680D01*
X3638914Y-12185680D02*
X3629390Y-12195204D01*
X3629390Y-12195204D02*
X3610342Y-12204728D01*
X3610342Y-12204728D02*
X3591295Y-12204728D01*
X3591295Y-12204728D02*
X3572247Y-12195204D01*
X3572247Y-12195204D02*
X3562723Y-12185680D01*
X3562723Y-12185680D02*
X3553199Y-12166633D01*
X3553199Y-12166633D02*
X3543676Y-12128537D01*
X3543676Y-12128537D02*
X3543676Y-12080918D01*
X3543676Y-12080918D02*
X3553199Y-12042823D01*
X3553199Y-12042823D02*
X3562723Y-12023775D01*
X3562723Y-12023775D02*
X3572247Y-12014252D01*
X3572247Y-12014252D02*
X3591295Y-12004728D01*
X3743676Y-12204728D02*
X3743676Y-12071394D01*
X3743676Y-12090442D02*
X3753199Y-12080918D01*
X3753199Y-12080918D02*
X3772247Y-12071394D01*
X3772247Y-12071394D02*
X3800818Y-12071394D01*
X3800818Y-12071394D02*
X3819866Y-12080918D01*
X3819866Y-12080918D02*
X3829390Y-12099966D01*
X3829390Y-12099966D02*
X3829390Y-12204728D01*
X3829390Y-12099966D02*
X3838914Y-12080918D01*
X3838914Y-12080918D02*
X3857961Y-12071394D01*
X3857961Y-12071394D02*
X3886533Y-12071394D01*
X3886533Y-12071394D02*
X3905580Y-12080918D01*
X3905580Y-12080918D02*
X3915104Y-12099966D01*
X3915104Y-12099966D02*
X3915104Y-12204728D01*
X4010342Y-12204728D02*
X4010342Y-12071394D01*
X4010342Y-12090442D02*
X4019866Y-12080918D01*
X4019866Y-12080918D02*
X4038914Y-12071394D01*
X4038914Y-12071394D02*
X4067485Y-12071394D01*
X4067485Y-12071394D02*
X4086533Y-12080918D01*
X4086533Y-12080918D02*
X4096057Y-12099966D01*
X4096057Y-12099966D02*
X4096057Y-12204728D01*
X4096057Y-12099966D02*
X4105580Y-12080918D01*
X4105580Y-12080918D02*
X4124628Y-12071394D01*
X4124628Y-12071394D02*
X4153199Y-12071394D01*
X4153199Y-12071394D02*
X4172247Y-12080918D01*
X4172247Y-12080918D02*
X4181771Y-12099966D01*
X4181771Y-12099966D02*
X4181771Y-12204728D01*
X4572247Y-11995204D02*
X4400819Y-12252347D01*
X4829390Y-12004728D02*
X4848438Y-12004728D01*
X4848438Y-12004728D02*
X4867485Y-12014252D01*
X4867485Y-12014252D02*
X4877009Y-12023775D01*
X4877009Y-12023775D02*
X4886533Y-12042823D01*
X4886533Y-12042823D02*
X4896057Y-12080918D01*
X4896057Y-12080918D02*
X4896057Y-12128537D01*
X4896057Y-12128537D02*
X4886533Y-12166633D01*
X4886533Y-12166633D02*
X4877009Y-12185680D01*
X4877009Y-12185680D02*
X4867485Y-12195204D01*
X4867485Y-12195204D02*
X4848438Y-12204728D01*
X4848438Y-12204728D02*
X4829390Y-12204728D01*
X4829390Y-12204728D02*
X4810342Y-12195204D01*
X4810342Y-12195204D02*
X4800819Y-12185680D01*
X4800819Y-12185680D02*
X4791295Y-12166633D01*
X4791295Y-12166633D02*
X4781771Y-12128537D01*
X4781771Y-12128537D02*
X4781771Y-12080918D01*
X4781771Y-12080918D02*
X4791295Y-12042823D01*
X4791295Y-12042823D02*
X4800819Y-12023775D01*
X4800819Y-12023775D02*
X4810342Y-12014252D01*
X4810342Y-12014252D02*
X4829390Y-12004728D01*
X4981771Y-12185680D02*
X4991295Y-12195204D01*
X4991295Y-12195204D02*
X4981771Y-12204728D01*
X4981771Y-12204728D02*
X4972247Y-12195204D01*
X4972247Y-12195204D02*
X4981771Y-12185680D01*
X4981771Y-12185680D02*
X4981771Y-12204728D01*
X5115104Y-12004728D02*
X5134152Y-12004728D01*
X5134152Y-12004728D02*
X5153200Y-12014252D01*
X5153200Y-12014252D02*
X5162723Y-12023775D01*
X5162723Y-12023775D02*
X5172247Y-12042823D01*
X5172247Y-12042823D02*
X5181771Y-12080918D01*
X5181771Y-12080918D02*
X5181771Y-12128537D01*
X5181771Y-12128537D02*
X5172247Y-12166633D01*
X5172247Y-12166633D02*
X5162723Y-12185680D01*
X5162723Y-12185680D02*
X5153200Y-12195204D01*
X5153200Y-12195204D02*
X5134152Y-12204728D01*
X5134152Y-12204728D02*
X5115104Y-12204728D01*
X5115104Y-12204728D02*
X5096057Y-12195204D01*
X5096057Y-12195204D02*
X5086533Y-12185680D01*
X5086533Y-12185680D02*
X5077009Y-12166633D01*
X5077009Y-12166633D02*
X5067485Y-12128537D01*
X5067485Y-12128537D02*
X5067485Y-12080918D01*
X5067485Y-12080918D02*
X5077009Y-12042823D01*
X5077009Y-12042823D02*
X5086533Y-12023775D01*
X5086533Y-12023775D02*
X5096057Y-12014252D01*
X5096057Y-12014252D02*
X5115104Y-12004728D01*
X5372247Y-12204728D02*
X5257962Y-12204728D01*
X5315104Y-12204728D02*
X5315104Y-12004728D01*
X5315104Y-12004728D02*
X5296057Y-12033299D01*
X5296057Y-12033299D02*
X5277009Y-12052347D01*
X5277009Y-12052347D02*
X5257962Y-12061871D01*
X5553200Y-12004728D02*
X5457962Y-12004728D01*
X5457962Y-12004728D02*
X5448438Y-12099966D01*
X5448438Y-12099966D02*
X5457962Y-12090442D01*
X5457962Y-12090442D02*
X5477009Y-12080918D01*
X5477009Y-12080918D02*
X5524628Y-12080918D01*
X5524628Y-12080918D02*
X5543676Y-12090442D01*
X5543676Y-12090442D02*
X5553200Y-12099966D01*
X5553200Y-12099966D02*
X5562723Y-12119014D01*
X5562723Y-12119014D02*
X5562723Y-12166633D01*
X5562723Y-12166633D02*
X5553200Y-12185680D01*
X5553200Y-12185680D02*
X5543676Y-12195204D01*
X5543676Y-12195204D02*
X5524628Y-12204728D01*
X5524628Y-12204728D02*
X5477009Y-12204728D01*
X5477009Y-12204728D02*
X5457962Y-12195204D01*
X5457962Y-12195204D02*
X5448438Y-12185680D01*
X5629390Y-12004728D02*
X5762723Y-12004728D01*
X5762723Y-12004728D02*
X5677009Y-12204728D01*
X5829390Y-12004728D02*
X5829390Y-12042823D01*
X5905581Y-12004728D02*
X5905581Y-12042823D01*
X6200819Y-12280918D02*
X6191295Y-12271394D01*
X6191295Y-12271394D02*
X6172247Y-12242823D01*
X6172247Y-12242823D02*
X6162723Y-12223775D01*
X6162723Y-12223775D02*
X6153200Y-12195204D01*
X6153200Y-12195204D02*
X6143676Y-12147585D01*
X6143676Y-12147585D02*
X6143676Y-12109490D01*
X6143676Y-12109490D02*
X6153200Y-12061871D01*
X6153200Y-12061871D02*
X6162723Y-12033299D01*
X6162723Y-12033299D02*
X6172247Y-12014252D01*
X6172247Y-12014252D02*
X6191295Y-11985680D01*
X6191295Y-11985680D02*
X6200819Y-11976156D01*
X6267485Y-12023775D02*
X6277009Y-12014252D01*
X6277009Y-12014252D02*
X6296057Y-12004728D01*
X6296057Y-12004728D02*
X6343676Y-12004728D01*
X6343676Y-12004728D02*
X6362723Y-12014252D01*
X6362723Y-12014252D02*
X6372247Y-12023775D01*
X6372247Y-12023775D02*
X6381771Y-12042823D01*
X6381771Y-12042823D02*
X6381771Y-12061871D01*
X6381771Y-12061871D02*
X6372247Y-12090442D01*
X6372247Y-12090442D02*
X6257962Y-12204728D01*
X6257962Y-12204728D02*
X6381771Y-12204728D01*
X6553200Y-12004728D02*
X6515104Y-12004728D01*
X6515104Y-12004728D02*
X6496057Y-12014252D01*
X6496057Y-12014252D02*
X6486533Y-12023775D01*
X6486533Y-12023775D02*
X6467485Y-12052347D01*
X6467485Y-12052347D02*
X6457962Y-12090442D01*
X6457962Y-12090442D02*
X6457962Y-12166633D01*
X6457962Y-12166633D02*
X6467485Y-12185680D01*
X6467485Y-12185680D02*
X6477009Y-12195204D01*
X6477009Y-12195204D02*
X6496057Y-12204728D01*
X6496057Y-12204728D02*
X6534152Y-12204728D01*
X6534152Y-12204728D02*
X6553200Y-12195204D01*
X6553200Y-12195204D02*
X6562723Y-12185680D01*
X6562723Y-12185680D02*
X6572247Y-12166633D01*
X6572247Y-12166633D02*
X6572247Y-12119014D01*
X6572247Y-12119014D02*
X6562723Y-12099966D01*
X6562723Y-12099966D02*
X6553200Y-12090442D01*
X6553200Y-12090442D02*
X6534152Y-12080918D01*
X6534152Y-12080918D02*
X6496057Y-12080918D01*
X6496057Y-12080918D02*
X6477009Y-12090442D01*
X6477009Y-12090442D02*
X6467485Y-12099966D01*
X6467485Y-12099966D02*
X6457962Y-12119014D01*
X6810343Y-12204728D02*
X6810343Y-12004728D01*
X6896057Y-12204728D02*
X6896057Y-12099966D01*
X6896057Y-12099966D02*
X6886533Y-12080918D01*
X6886533Y-12080918D02*
X6867485Y-12071394D01*
X6867485Y-12071394D02*
X6838914Y-12071394D01*
X6838914Y-12071394D02*
X6819866Y-12080918D01*
X6819866Y-12080918D02*
X6810343Y-12090442D01*
X7019866Y-12204728D02*
X7000819Y-12195204D01*
X7000819Y-12195204D02*
X6991295Y-12185680D01*
X6991295Y-12185680D02*
X6981771Y-12166633D01*
X6981771Y-12166633D02*
X6981771Y-12109490D01*
X6981771Y-12109490D02*
X6991295Y-12090442D01*
X6991295Y-12090442D02*
X7000819Y-12080918D01*
X7000819Y-12080918D02*
X7019866Y-12071394D01*
X7019866Y-12071394D02*
X7048438Y-12071394D01*
X7048438Y-12071394D02*
X7067485Y-12080918D01*
X7067485Y-12080918D02*
X7077009Y-12090442D01*
X7077009Y-12090442D02*
X7086533Y-12109490D01*
X7086533Y-12109490D02*
X7086533Y-12166633D01*
X7086533Y-12166633D02*
X7077009Y-12185680D01*
X7077009Y-12185680D02*
X7067485Y-12195204D01*
X7067485Y-12195204D02*
X7048438Y-12204728D01*
X7048438Y-12204728D02*
X7019866Y-12204728D01*
X7200819Y-12204728D02*
X7181771Y-12195204D01*
X7181771Y-12195204D02*
X7172247Y-12176156D01*
X7172247Y-12176156D02*
X7172247Y-12004728D01*
X7353200Y-12195204D02*
X7334152Y-12204728D01*
X7334152Y-12204728D02*
X7296057Y-12204728D01*
X7296057Y-12204728D02*
X7277009Y-12195204D01*
X7277009Y-12195204D02*
X7267485Y-12176156D01*
X7267485Y-12176156D02*
X7267485Y-12099966D01*
X7267485Y-12099966D02*
X7277009Y-12080918D01*
X7277009Y-12080918D02*
X7296057Y-12071394D01*
X7296057Y-12071394D02*
X7334152Y-12071394D01*
X7334152Y-12071394D02*
X7353200Y-12080918D01*
X7353200Y-12080918D02*
X7362724Y-12099966D01*
X7362724Y-12099966D02*
X7362724Y-12119014D01*
X7362724Y-12119014D02*
X7267485Y-12138061D01*
X7438914Y-12195204D02*
X7457962Y-12204728D01*
X7457962Y-12204728D02*
X7496057Y-12204728D01*
X7496057Y-12204728D02*
X7515105Y-12195204D01*
X7515105Y-12195204D02*
X7524628Y-12176156D01*
X7524628Y-12176156D02*
X7524628Y-12166633D01*
X7524628Y-12166633D02*
X7515105Y-12147585D01*
X7515105Y-12147585D02*
X7496057Y-12138061D01*
X7496057Y-12138061D02*
X7467485Y-12138061D01*
X7467485Y-12138061D02*
X7448438Y-12128537D01*
X7448438Y-12128537D02*
X7438914Y-12109490D01*
X7438914Y-12109490D02*
X7438914Y-12099966D01*
X7438914Y-12099966D02*
X7448438Y-12080918D01*
X7448438Y-12080918D02*
X7467485Y-12071394D01*
X7467485Y-12071394D02*
X7496057Y-12071394D01*
X7496057Y-12071394D02*
X7515105Y-12080918D01*
X7591295Y-12280918D02*
X7600819Y-12271394D01*
X7600819Y-12271394D02*
X7619866Y-12242823D01*
X7619866Y-12242823D02*
X7629390Y-12223775D01*
X7629390Y-12223775D02*
X7638914Y-12195204D01*
X7638914Y-12195204D02*
X7648438Y-12147585D01*
X7648438Y-12147585D02*
X7648438Y-12109490D01*
X7648438Y-12109490D02*
X7638914Y-12061871D01*
X7638914Y-12061871D02*
X7629390Y-12033299D01*
X7629390Y-12033299D02*
X7619866Y-12014252D01*
X7619866Y-12014252D02*
X7600819Y-11985680D01*
X7600819Y-11985680D02*
X7591295Y-11976156D01*
D10*
X2625756Y-12377244D02*
G75*
G02*
X2555756Y-12377244I-35000J0D01*
G01*
X2555756Y-12377244D02*
G75*
G02*
X2625756Y-12377244I35000J0D01*
G01*
D11*
X2924628Y-12268728D02*
X2943676Y-12268728D01*
X2943676Y-12268728D02*
X2962723Y-12278252D01*
X2962723Y-12278252D02*
X2972247Y-12287775D01*
X2972247Y-12287775D02*
X2981771Y-12306823D01*
X2981771Y-12306823D02*
X2991295Y-12344918D01*
X2991295Y-12344918D02*
X2991295Y-12392537D01*
X2991295Y-12392537D02*
X2981771Y-12430633D01*
X2981771Y-12430633D02*
X2972247Y-12449680D01*
X2972247Y-12449680D02*
X2962723Y-12459204D01*
X2962723Y-12459204D02*
X2943676Y-12468728D01*
X2943676Y-12468728D02*
X2924628Y-12468728D01*
X2924628Y-12468728D02*
X2905580Y-12459204D01*
X2905580Y-12459204D02*
X2896056Y-12449680D01*
X2896056Y-12449680D02*
X2886533Y-12430633D01*
X2886533Y-12430633D02*
X2877009Y-12392537D01*
X2877009Y-12392537D02*
X2877009Y-12344918D01*
X2877009Y-12344918D02*
X2886533Y-12306823D01*
X2886533Y-12306823D02*
X2896056Y-12287775D01*
X2896056Y-12287775D02*
X2905580Y-12278252D01*
X2905580Y-12278252D02*
X2924628Y-12268728D01*
X3077009Y-12449680D02*
X3086533Y-12459204D01*
X3086533Y-12459204D02*
X3077009Y-12468728D01*
X3077009Y-12468728D02*
X3067485Y-12459204D01*
X3067485Y-12459204D02*
X3077009Y-12449680D01*
X3077009Y-12449680D02*
X3077009Y-12468728D01*
X3153199Y-12268728D02*
X3286533Y-12268728D01*
X3286533Y-12268728D02*
X3200818Y-12468728D01*
X3400818Y-12268728D02*
X3419866Y-12268728D01*
X3419866Y-12268728D02*
X3438914Y-12278252D01*
X3438914Y-12278252D02*
X3448437Y-12287775D01*
X3448437Y-12287775D02*
X3457961Y-12306823D01*
X3457961Y-12306823D02*
X3467485Y-12344918D01*
X3467485Y-12344918D02*
X3467485Y-12392537D01*
X3467485Y-12392537D02*
X3457961Y-12430633D01*
X3457961Y-12430633D02*
X3448437Y-12449680D01*
X3448437Y-12449680D02*
X3438914Y-12459204D01*
X3438914Y-12459204D02*
X3419866Y-12468728D01*
X3419866Y-12468728D02*
X3400818Y-12468728D01*
X3400818Y-12468728D02*
X3381771Y-12459204D01*
X3381771Y-12459204D02*
X3372247Y-12449680D01*
X3372247Y-12449680D02*
X3362723Y-12430633D01*
X3362723Y-12430633D02*
X3353199Y-12392537D01*
X3353199Y-12392537D02*
X3353199Y-12344918D01*
X3353199Y-12344918D02*
X3362723Y-12306823D01*
X3362723Y-12306823D02*
X3372247Y-12287775D01*
X3372247Y-12287775D02*
X3381771Y-12278252D01*
X3381771Y-12278252D02*
X3400818Y-12268728D01*
X3591295Y-12268728D02*
X3610342Y-12268728D01*
X3610342Y-12268728D02*
X3629390Y-12278252D01*
X3629390Y-12278252D02*
X3638914Y-12287775D01*
X3638914Y-12287775D02*
X3648437Y-12306823D01*
X3648437Y-12306823D02*
X3657961Y-12344918D01*
X3657961Y-12344918D02*
X3657961Y-12392537D01*
X3657961Y-12392537D02*
X3648437Y-12430633D01*
X3648437Y-12430633D02*
X3638914Y-12449680D01*
X3638914Y-12449680D02*
X3629390Y-12459204D01*
X3629390Y-12459204D02*
X3610342Y-12468728D01*
X3610342Y-12468728D02*
X3591295Y-12468728D01*
X3591295Y-12468728D02*
X3572247Y-12459204D01*
X3572247Y-12459204D02*
X3562723Y-12449680D01*
X3562723Y-12449680D02*
X3553199Y-12430633D01*
X3553199Y-12430633D02*
X3543676Y-12392537D01*
X3543676Y-12392537D02*
X3543676Y-12344918D01*
X3543676Y-12344918D02*
X3553199Y-12306823D01*
X3553199Y-12306823D02*
X3562723Y-12287775D01*
X3562723Y-12287775D02*
X3572247Y-12278252D01*
X3572247Y-12278252D02*
X3591295Y-12268728D01*
X3743676Y-12468728D02*
X3743676Y-12335394D01*
X3743676Y-12354442D02*
X3753199Y-12344918D01*
X3753199Y-12344918D02*
X3772247Y-12335394D01*
X3772247Y-12335394D02*
X3800818Y-12335394D01*
X3800818Y-12335394D02*
X3819866Y-12344918D01*
X3819866Y-12344918D02*
X3829390Y-12363966D01*
X3829390Y-12363966D02*
X3829390Y-12468728D01*
X3829390Y-12363966D02*
X3838914Y-12344918D01*
X3838914Y-12344918D02*
X3857961Y-12335394D01*
X3857961Y-12335394D02*
X3886533Y-12335394D01*
X3886533Y-12335394D02*
X3905580Y-12344918D01*
X3905580Y-12344918D02*
X3915104Y-12363966D01*
X3915104Y-12363966D02*
X3915104Y-12468728D01*
X4010342Y-12468728D02*
X4010342Y-12335394D01*
X4010342Y-12354442D02*
X4019866Y-12344918D01*
X4019866Y-12344918D02*
X4038914Y-12335394D01*
X4038914Y-12335394D02*
X4067485Y-12335394D01*
X4067485Y-12335394D02*
X4086533Y-12344918D01*
X4086533Y-12344918D02*
X4096057Y-12363966D01*
X4096057Y-12363966D02*
X4096057Y-12468728D01*
X4096057Y-12363966D02*
X4105580Y-12344918D01*
X4105580Y-12344918D02*
X4124628Y-12335394D01*
X4124628Y-12335394D02*
X4153199Y-12335394D01*
X4153199Y-12335394D02*
X4172247Y-12344918D01*
X4172247Y-12344918D02*
X4181771Y-12363966D01*
X4181771Y-12363966D02*
X4181771Y-12468728D01*
X4572247Y-12259204D02*
X4400819Y-12516347D01*
X4829390Y-12268728D02*
X4848438Y-12268728D01*
X4848438Y-12268728D02*
X4867485Y-12278252D01*
X4867485Y-12278252D02*
X4877009Y-12287775D01*
X4877009Y-12287775D02*
X4886533Y-12306823D01*
X4886533Y-12306823D02*
X4896057Y-12344918D01*
X4896057Y-12344918D02*
X4896057Y-12392537D01*
X4896057Y-12392537D02*
X4886533Y-12430633D01*
X4886533Y-12430633D02*
X4877009Y-12449680D01*
X4877009Y-12449680D02*
X4867485Y-12459204D01*
X4867485Y-12459204D02*
X4848438Y-12468728D01*
X4848438Y-12468728D02*
X4829390Y-12468728D01*
X4829390Y-12468728D02*
X4810342Y-12459204D01*
X4810342Y-12459204D02*
X4800819Y-12449680D01*
X4800819Y-12449680D02*
X4791295Y-12430633D01*
X4791295Y-12430633D02*
X4781771Y-12392537D01*
X4781771Y-12392537D02*
X4781771Y-12344918D01*
X4781771Y-12344918D02*
X4791295Y-12306823D01*
X4791295Y-12306823D02*
X4800819Y-12287775D01*
X4800819Y-12287775D02*
X4810342Y-12278252D01*
X4810342Y-12278252D02*
X4829390Y-12268728D01*
X4981771Y-12449680D02*
X4991295Y-12459204D01*
X4991295Y-12459204D02*
X4981771Y-12468728D01*
X4981771Y-12468728D02*
X4972247Y-12459204D01*
X4972247Y-12459204D02*
X4981771Y-12449680D01*
X4981771Y-12449680D02*
X4981771Y-12468728D01*
X5115104Y-12268728D02*
X5134152Y-12268728D01*
X5134152Y-12268728D02*
X5153200Y-12278252D01*
X5153200Y-12278252D02*
X5162723Y-12287775D01*
X5162723Y-12287775D02*
X5172247Y-12306823D01*
X5172247Y-12306823D02*
X5181771Y-12344918D01*
X5181771Y-12344918D02*
X5181771Y-12392537D01*
X5181771Y-12392537D02*
X5172247Y-12430633D01*
X5172247Y-12430633D02*
X5162723Y-12449680D01*
X5162723Y-12449680D02*
X5153200Y-12459204D01*
X5153200Y-12459204D02*
X5134152Y-12468728D01*
X5134152Y-12468728D02*
X5115104Y-12468728D01*
X5115104Y-12468728D02*
X5096057Y-12459204D01*
X5096057Y-12459204D02*
X5086533Y-12449680D01*
X5086533Y-12449680D02*
X5077009Y-12430633D01*
X5077009Y-12430633D02*
X5067485Y-12392537D01*
X5067485Y-12392537D02*
X5067485Y-12344918D01*
X5067485Y-12344918D02*
X5077009Y-12306823D01*
X5077009Y-12306823D02*
X5086533Y-12287775D01*
X5086533Y-12287775D02*
X5096057Y-12278252D01*
X5096057Y-12278252D02*
X5115104Y-12268728D01*
X5257962Y-12287775D02*
X5267485Y-12278252D01*
X5267485Y-12278252D02*
X5286533Y-12268728D01*
X5286533Y-12268728D02*
X5334152Y-12268728D01*
X5334152Y-12268728D02*
X5353200Y-12278252D01*
X5353200Y-12278252D02*
X5362723Y-12287775D01*
X5362723Y-12287775D02*
X5372247Y-12306823D01*
X5372247Y-12306823D02*
X5372247Y-12325871D01*
X5372247Y-12325871D02*
X5362723Y-12354442D01*
X5362723Y-12354442D02*
X5248438Y-12468728D01*
X5248438Y-12468728D02*
X5372247Y-12468728D01*
X5438914Y-12268728D02*
X5572247Y-12268728D01*
X5572247Y-12268728D02*
X5486533Y-12468728D01*
X5734152Y-12268728D02*
X5696057Y-12268728D01*
X5696057Y-12268728D02*
X5677009Y-12278252D01*
X5677009Y-12278252D02*
X5667485Y-12287775D01*
X5667485Y-12287775D02*
X5648438Y-12316347D01*
X5648438Y-12316347D02*
X5638914Y-12354442D01*
X5638914Y-12354442D02*
X5638914Y-12430633D01*
X5638914Y-12430633D02*
X5648438Y-12449680D01*
X5648438Y-12449680D02*
X5657961Y-12459204D01*
X5657961Y-12459204D02*
X5677009Y-12468728D01*
X5677009Y-12468728D02*
X5715104Y-12468728D01*
X5715104Y-12468728D02*
X5734152Y-12459204D01*
X5734152Y-12459204D02*
X5743676Y-12449680D01*
X5743676Y-12449680D02*
X5753200Y-12430633D01*
X5753200Y-12430633D02*
X5753200Y-12383014D01*
X5753200Y-12383014D02*
X5743676Y-12363966D01*
X5743676Y-12363966D02*
X5734152Y-12354442D01*
X5734152Y-12354442D02*
X5715104Y-12344918D01*
X5715104Y-12344918D02*
X5677009Y-12344918D01*
X5677009Y-12344918D02*
X5657961Y-12354442D01*
X5657961Y-12354442D02*
X5648438Y-12363966D01*
X5648438Y-12363966D02*
X5638914Y-12383014D01*
X5829390Y-12268728D02*
X5829390Y-12306823D01*
X5905581Y-12268728D02*
X5905581Y-12306823D01*
X6200819Y-12544918D02*
X6191295Y-12535394D01*
X6191295Y-12535394D02*
X6172247Y-12506823D01*
X6172247Y-12506823D02*
X6162723Y-12487775D01*
X6162723Y-12487775D02*
X6153200Y-12459204D01*
X6153200Y-12459204D02*
X6143676Y-12411585D01*
X6143676Y-12411585D02*
X6143676Y-12373490D01*
X6143676Y-12373490D02*
X6153200Y-12325871D01*
X6153200Y-12325871D02*
X6162723Y-12297299D01*
X6162723Y-12297299D02*
X6172247Y-12278252D01*
X6172247Y-12278252D02*
X6191295Y-12249680D01*
X6191295Y-12249680D02*
X6200819Y-12240156D01*
X6362723Y-12335394D02*
X6362723Y-12468728D01*
X6315104Y-12259204D02*
X6267485Y-12402061D01*
X6267485Y-12402061D02*
X6391295Y-12402061D01*
X6619866Y-12468728D02*
X6619866Y-12268728D01*
X6705581Y-12468728D02*
X6705581Y-12363966D01*
X6705581Y-12363966D02*
X6696057Y-12344918D01*
X6696057Y-12344918D02*
X6677009Y-12335394D01*
X6677009Y-12335394D02*
X6648438Y-12335394D01*
X6648438Y-12335394D02*
X6629390Y-12344918D01*
X6629390Y-12344918D02*
X6619866Y-12354442D01*
X6829390Y-12468728D02*
X6810343Y-12459204D01*
X6810343Y-12459204D02*
X6800819Y-12449680D01*
X6800819Y-12449680D02*
X6791295Y-12430633D01*
X6791295Y-12430633D02*
X6791295Y-12373490D01*
X6791295Y-12373490D02*
X6800819Y-12354442D01*
X6800819Y-12354442D02*
X6810343Y-12344918D01*
X6810343Y-12344918D02*
X6829390Y-12335394D01*
X6829390Y-12335394D02*
X6857962Y-12335394D01*
X6857962Y-12335394D02*
X6877009Y-12344918D01*
X6877009Y-12344918D02*
X6886533Y-12354442D01*
X6886533Y-12354442D02*
X6896057Y-12373490D01*
X6896057Y-12373490D02*
X6896057Y-12430633D01*
X6896057Y-12430633D02*
X6886533Y-12449680D01*
X6886533Y-12449680D02*
X6877009Y-12459204D01*
X6877009Y-12459204D02*
X6857962Y-12468728D01*
X6857962Y-12468728D02*
X6829390Y-12468728D01*
X7010343Y-12468728D02*
X6991295Y-12459204D01*
X6991295Y-12459204D02*
X6981771Y-12440156D01*
X6981771Y-12440156D02*
X6981771Y-12268728D01*
X7162724Y-12459204D02*
X7143676Y-12468728D01*
X7143676Y-12468728D02*
X7105581Y-12468728D01*
X7105581Y-12468728D02*
X7086533Y-12459204D01*
X7086533Y-12459204D02*
X7077009Y-12440156D01*
X7077009Y-12440156D02*
X7077009Y-12363966D01*
X7077009Y-12363966D02*
X7086533Y-12344918D01*
X7086533Y-12344918D02*
X7105581Y-12335394D01*
X7105581Y-12335394D02*
X7143676Y-12335394D01*
X7143676Y-12335394D02*
X7162724Y-12344918D01*
X7162724Y-12344918D02*
X7172247Y-12363966D01*
X7172247Y-12363966D02*
X7172247Y-12383014D01*
X7172247Y-12383014D02*
X7077009Y-12402061D01*
X7248438Y-12459204D02*
X7267485Y-12468728D01*
X7267485Y-12468728D02*
X7305581Y-12468728D01*
X7305581Y-12468728D02*
X7324628Y-12459204D01*
X7324628Y-12459204D02*
X7334152Y-12440156D01*
X7334152Y-12440156D02*
X7334152Y-12430633D01*
X7334152Y-12430633D02*
X7324628Y-12411585D01*
X7324628Y-12411585D02*
X7305581Y-12402061D01*
X7305581Y-12402061D02*
X7277009Y-12402061D01*
X7277009Y-12402061D02*
X7257962Y-12392537D01*
X7257962Y-12392537D02*
X7248438Y-12373490D01*
X7248438Y-12373490D02*
X7248438Y-12363966D01*
X7248438Y-12363966D02*
X7257962Y-12344918D01*
X7257962Y-12344918D02*
X7277009Y-12335394D01*
X7277009Y-12335394D02*
X7305581Y-12335394D01*
X7305581Y-12335394D02*
X7324628Y-12344918D01*
X7400819Y-12544918D02*
X7410343Y-12535394D01*
X7410343Y-12535394D02*
X7429390Y-12506823D01*
X7429390Y-12506823D02*
X7438914Y-12487775D01*
X7438914Y-12487775D02*
X7448438Y-12459204D01*
X7448438Y-12459204D02*
X7457962Y-12411585D01*
X7457962Y-12411585D02*
X7457962Y-12373490D01*
X7457962Y-12373490D02*
X7448438Y-12325871D01*
X7448438Y-12325871D02*
X7438914Y-12297299D01*
X7438914Y-12297299D02*
X7429390Y-12278252D01*
X7429390Y-12278252D02*
X7410343Y-12249680D01*
X7410343Y-12249680D02*
X7400819Y-12240156D01*
D10*
X2585756Y-12601244D02*
X2585756Y-12681244D01*
X2545756Y-12641244D02*
X2625756Y-12641244D01*
D11*
X2924628Y-12532728D02*
X2943676Y-12532728D01*
X2943676Y-12532728D02*
X2962723Y-12542252D01*
X2962723Y-12542252D02*
X2972247Y-12551775D01*
X2972247Y-12551775D02*
X2981771Y-12570823D01*
X2981771Y-12570823D02*
X2991295Y-12608918D01*
X2991295Y-12608918D02*
X2991295Y-12656537D01*
X2991295Y-12656537D02*
X2981771Y-12694633D01*
X2981771Y-12694633D02*
X2972247Y-12713680D01*
X2972247Y-12713680D02*
X2962723Y-12723204D01*
X2962723Y-12723204D02*
X2943676Y-12732728D01*
X2943676Y-12732728D02*
X2924628Y-12732728D01*
X2924628Y-12732728D02*
X2905580Y-12723204D01*
X2905580Y-12723204D02*
X2896056Y-12713680D01*
X2896056Y-12713680D02*
X2886533Y-12694633D01*
X2886533Y-12694633D02*
X2877009Y-12656537D01*
X2877009Y-12656537D02*
X2877009Y-12608918D01*
X2877009Y-12608918D02*
X2886533Y-12570823D01*
X2886533Y-12570823D02*
X2896056Y-12551775D01*
X2896056Y-12551775D02*
X2905580Y-12542252D01*
X2905580Y-12542252D02*
X2924628Y-12532728D01*
X3077009Y-12713680D02*
X3086533Y-12723204D01*
X3086533Y-12723204D02*
X3077009Y-12732728D01*
X3077009Y-12732728D02*
X3067485Y-12723204D01*
X3067485Y-12723204D02*
X3077009Y-12713680D01*
X3077009Y-12713680D02*
X3077009Y-12732728D01*
X3200818Y-12618442D02*
X3181771Y-12608918D01*
X3181771Y-12608918D02*
X3172247Y-12599394D01*
X3172247Y-12599394D02*
X3162723Y-12580347D01*
X3162723Y-12580347D02*
X3162723Y-12570823D01*
X3162723Y-12570823D02*
X3172247Y-12551775D01*
X3172247Y-12551775D02*
X3181771Y-12542252D01*
X3181771Y-12542252D02*
X3200818Y-12532728D01*
X3200818Y-12532728D02*
X3238914Y-12532728D01*
X3238914Y-12532728D02*
X3257961Y-12542252D01*
X3257961Y-12542252D02*
X3267485Y-12551775D01*
X3267485Y-12551775D02*
X3277009Y-12570823D01*
X3277009Y-12570823D02*
X3277009Y-12580347D01*
X3277009Y-12580347D02*
X3267485Y-12599394D01*
X3267485Y-12599394D02*
X3257961Y-12608918D01*
X3257961Y-12608918D02*
X3238914Y-12618442D01*
X3238914Y-12618442D02*
X3200818Y-12618442D01*
X3200818Y-12618442D02*
X3181771Y-12627966D01*
X3181771Y-12627966D02*
X3172247Y-12637490D01*
X3172247Y-12637490D02*
X3162723Y-12656537D01*
X3162723Y-12656537D02*
X3162723Y-12694633D01*
X3162723Y-12694633D02*
X3172247Y-12713680D01*
X3172247Y-12713680D02*
X3181771Y-12723204D01*
X3181771Y-12723204D02*
X3200818Y-12732728D01*
X3200818Y-12732728D02*
X3238914Y-12732728D01*
X3238914Y-12732728D02*
X3257961Y-12723204D01*
X3257961Y-12723204D02*
X3267485Y-12713680D01*
X3267485Y-12713680D02*
X3277009Y-12694633D01*
X3277009Y-12694633D02*
X3277009Y-12656537D01*
X3277009Y-12656537D02*
X3267485Y-12637490D01*
X3267485Y-12637490D02*
X3257961Y-12627966D01*
X3257961Y-12627966D02*
X3238914Y-12618442D01*
X3400818Y-12532728D02*
X3419866Y-12532728D01*
X3419866Y-12532728D02*
X3438914Y-12542252D01*
X3438914Y-12542252D02*
X3448437Y-12551775D01*
X3448437Y-12551775D02*
X3457961Y-12570823D01*
X3457961Y-12570823D02*
X3467485Y-12608918D01*
X3467485Y-12608918D02*
X3467485Y-12656537D01*
X3467485Y-12656537D02*
X3457961Y-12694633D01*
X3457961Y-12694633D02*
X3448437Y-12713680D01*
X3448437Y-12713680D02*
X3438914Y-12723204D01*
X3438914Y-12723204D02*
X3419866Y-12732728D01*
X3419866Y-12732728D02*
X3400818Y-12732728D01*
X3400818Y-12732728D02*
X3381771Y-12723204D01*
X3381771Y-12723204D02*
X3372247Y-12713680D01*
X3372247Y-12713680D02*
X3362723Y-12694633D01*
X3362723Y-12694633D02*
X3353199Y-12656537D01*
X3353199Y-12656537D02*
X3353199Y-12608918D01*
X3353199Y-12608918D02*
X3362723Y-12570823D01*
X3362723Y-12570823D02*
X3372247Y-12551775D01*
X3372247Y-12551775D02*
X3381771Y-12542252D01*
X3381771Y-12542252D02*
X3400818Y-12532728D01*
X3591295Y-12532728D02*
X3610342Y-12532728D01*
X3610342Y-12532728D02*
X3629390Y-12542252D01*
X3629390Y-12542252D02*
X3638914Y-12551775D01*
X3638914Y-12551775D02*
X3648437Y-12570823D01*
X3648437Y-12570823D02*
X3657961Y-12608918D01*
X3657961Y-12608918D02*
X3657961Y-12656537D01*
X3657961Y-12656537D02*
X3648437Y-12694633D01*
X3648437Y-12694633D02*
X3638914Y-12713680D01*
X3638914Y-12713680D02*
X3629390Y-12723204D01*
X3629390Y-12723204D02*
X3610342Y-12732728D01*
X3610342Y-12732728D02*
X3591295Y-12732728D01*
X3591295Y-12732728D02*
X3572247Y-12723204D01*
X3572247Y-12723204D02*
X3562723Y-12713680D01*
X3562723Y-12713680D02*
X3553199Y-12694633D01*
X3553199Y-12694633D02*
X3543676Y-12656537D01*
X3543676Y-12656537D02*
X3543676Y-12608918D01*
X3543676Y-12608918D02*
X3553199Y-12570823D01*
X3553199Y-12570823D02*
X3562723Y-12551775D01*
X3562723Y-12551775D02*
X3572247Y-12542252D01*
X3572247Y-12542252D02*
X3591295Y-12532728D01*
X3743676Y-12732728D02*
X3743676Y-12599394D01*
X3743676Y-12618442D02*
X3753199Y-12608918D01*
X3753199Y-12608918D02*
X3772247Y-12599394D01*
X3772247Y-12599394D02*
X3800818Y-12599394D01*
X3800818Y-12599394D02*
X3819866Y-12608918D01*
X3819866Y-12608918D02*
X3829390Y-12627966D01*
X3829390Y-12627966D02*
X3829390Y-12732728D01*
X3829390Y-12627966D02*
X3838914Y-12608918D01*
X3838914Y-12608918D02*
X3857961Y-12599394D01*
X3857961Y-12599394D02*
X3886533Y-12599394D01*
X3886533Y-12599394D02*
X3905580Y-12608918D01*
X3905580Y-12608918D02*
X3915104Y-12627966D01*
X3915104Y-12627966D02*
X3915104Y-12732728D01*
X4010342Y-12732728D02*
X4010342Y-12599394D01*
X4010342Y-12618442D02*
X4019866Y-12608918D01*
X4019866Y-12608918D02*
X4038914Y-12599394D01*
X4038914Y-12599394D02*
X4067485Y-12599394D01*
X4067485Y-12599394D02*
X4086533Y-12608918D01*
X4086533Y-12608918D02*
X4096057Y-12627966D01*
X4096057Y-12627966D02*
X4096057Y-12732728D01*
X4096057Y-12627966D02*
X4105580Y-12608918D01*
X4105580Y-12608918D02*
X4124628Y-12599394D01*
X4124628Y-12599394D02*
X4153199Y-12599394D01*
X4153199Y-12599394D02*
X4172247Y-12608918D01*
X4172247Y-12608918D02*
X4181771Y-12627966D01*
X4181771Y-12627966D02*
X4181771Y-12732728D01*
X4572247Y-12523204D02*
X4400819Y-12780347D01*
X4829390Y-12532728D02*
X4848438Y-12532728D01*
X4848438Y-12532728D02*
X4867485Y-12542252D01*
X4867485Y-12542252D02*
X4877009Y-12551775D01*
X4877009Y-12551775D02*
X4886533Y-12570823D01*
X4886533Y-12570823D02*
X4896057Y-12608918D01*
X4896057Y-12608918D02*
X4896057Y-12656537D01*
X4896057Y-12656537D02*
X4886533Y-12694633D01*
X4886533Y-12694633D02*
X4877009Y-12713680D01*
X4877009Y-12713680D02*
X4867485Y-12723204D01*
X4867485Y-12723204D02*
X4848438Y-12732728D01*
X4848438Y-12732728D02*
X4829390Y-12732728D01*
X4829390Y-12732728D02*
X4810342Y-12723204D01*
X4810342Y-12723204D02*
X4800819Y-12713680D01*
X4800819Y-12713680D02*
X4791295Y-12694633D01*
X4791295Y-12694633D02*
X4781771Y-12656537D01*
X4781771Y-12656537D02*
X4781771Y-12608918D01*
X4781771Y-12608918D02*
X4791295Y-12570823D01*
X4791295Y-12570823D02*
X4800819Y-12551775D01*
X4800819Y-12551775D02*
X4810342Y-12542252D01*
X4810342Y-12542252D02*
X4829390Y-12532728D01*
X4981771Y-12713680D02*
X4991295Y-12723204D01*
X4991295Y-12723204D02*
X4981771Y-12732728D01*
X4981771Y-12732728D02*
X4972247Y-12723204D01*
X4972247Y-12723204D02*
X4981771Y-12713680D01*
X4981771Y-12713680D02*
X4981771Y-12732728D01*
X5115104Y-12532728D02*
X5134152Y-12532728D01*
X5134152Y-12532728D02*
X5153200Y-12542252D01*
X5153200Y-12542252D02*
X5162723Y-12551775D01*
X5162723Y-12551775D02*
X5172247Y-12570823D01*
X5172247Y-12570823D02*
X5181771Y-12608918D01*
X5181771Y-12608918D02*
X5181771Y-12656537D01*
X5181771Y-12656537D02*
X5172247Y-12694633D01*
X5172247Y-12694633D02*
X5162723Y-12713680D01*
X5162723Y-12713680D02*
X5153200Y-12723204D01*
X5153200Y-12723204D02*
X5134152Y-12732728D01*
X5134152Y-12732728D02*
X5115104Y-12732728D01*
X5115104Y-12732728D02*
X5096057Y-12723204D01*
X5096057Y-12723204D02*
X5086533Y-12713680D01*
X5086533Y-12713680D02*
X5077009Y-12694633D01*
X5077009Y-12694633D02*
X5067485Y-12656537D01*
X5067485Y-12656537D02*
X5067485Y-12608918D01*
X5067485Y-12608918D02*
X5077009Y-12570823D01*
X5077009Y-12570823D02*
X5086533Y-12551775D01*
X5086533Y-12551775D02*
X5096057Y-12542252D01*
X5096057Y-12542252D02*
X5115104Y-12532728D01*
X5248438Y-12532728D02*
X5372247Y-12532728D01*
X5372247Y-12532728D02*
X5305581Y-12608918D01*
X5305581Y-12608918D02*
X5334152Y-12608918D01*
X5334152Y-12608918D02*
X5353200Y-12618442D01*
X5353200Y-12618442D02*
X5362723Y-12627966D01*
X5362723Y-12627966D02*
X5372247Y-12647014D01*
X5372247Y-12647014D02*
X5372247Y-12694633D01*
X5372247Y-12694633D02*
X5362723Y-12713680D01*
X5362723Y-12713680D02*
X5353200Y-12723204D01*
X5353200Y-12723204D02*
X5334152Y-12732728D01*
X5334152Y-12732728D02*
X5277009Y-12732728D01*
X5277009Y-12732728D02*
X5257962Y-12723204D01*
X5257962Y-12723204D02*
X5248438Y-12713680D01*
X5562723Y-12732728D02*
X5448438Y-12732728D01*
X5505581Y-12732728D02*
X5505581Y-12532728D01*
X5505581Y-12532728D02*
X5486533Y-12561299D01*
X5486533Y-12561299D02*
X5467485Y-12580347D01*
X5467485Y-12580347D02*
X5448438Y-12589871D01*
X5743676Y-12532728D02*
X5648438Y-12532728D01*
X5648438Y-12532728D02*
X5638914Y-12627966D01*
X5638914Y-12627966D02*
X5648438Y-12618442D01*
X5648438Y-12618442D02*
X5667485Y-12608918D01*
X5667485Y-12608918D02*
X5715104Y-12608918D01*
X5715104Y-12608918D02*
X5734152Y-12618442D01*
X5734152Y-12618442D02*
X5743676Y-12627966D01*
X5743676Y-12627966D02*
X5753200Y-12647014D01*
X5753200Y-12647014D02*
X5753200Y-12694633D01*
X5753200Y-12694633D02*
X5743676Y-12713680D01*
X5743676Y-12713680D02*
X5734152Y-12723204D01*
X5734152Y-12723204D02*
X5715104Y-12732728D01*
X5715104Y-12732728D02*
X5667485Y-12732728D01*
X5667485Y-12732728D02*
X5648438Y-12723204D01*
X5648438Y-12723204D02*
X5638914Y-12713680D01*
X5829390Y-12532728D02*
X5829390Y-12570823D01*
X5905581Y-12532728D02*
X5905581Y-12570823D01*
X6200819Y-12808918D02*
X6191295Y-12799394D01*
X6191295Y-12799394D02*
X6172247Y-12770823D01*
X6172247Y-12770823D02*
X6162723Y-12751775D01*
X6162723Y-12751775D02*
X6153200Y-12723204D01*
X6153200Y-12723204D02*
X6143676Y-12675585D01*
X6143676Y-12675585D02*
X6143676Y-12637490D01*
X6143676Y-12637490D02*
X6153200Y-12589871D01*
X6153200Y-12589871D02*
X6162723Y-12561299D01*
X6162723Y-12561299D02*
X6172247Y-12542252D01*
X6172247Y-12542252D02*
X6191295Y-12513680D01*
X6191295Y-12513680D02*
X6200819Y-12504156D01*
X6305581Y-12618442D02*
X6286533Y-12608918D01*
X6286533Y-12608918D02*
X6277009Y-12599394D01*
X6277009Y-12599394D02*
X6267485Y-12580347D01*
X6267485Y-12580347D02*
X6267485Y-12570823D01*
X6267485Y-12570823D02*
X6277009Y-12551775D01*
X6277009Y-12551775D02*
X6286533Y-12542252D01*
X6286533Y-12542252D02*
X6305581Y-12532728D01*
X6305581Y-12532728D02*
X6343676Y-12532728D01*
X6343676Y-12532728D02*
X6362723Y-12542252D01*
X6362723Y-12542252D02*
X6372247Y-12551775D01*
X6372247Y-12551775D02*
X6381771Y-12570823D01*
X6381771Y-12570823D02*
X6381771Y-12580347D01*
X6381771Y-12580347D02*
X6372247Y-12599394D01*
X6372247Y-12599394D02*
X6362723Y-12608918D01*
X6362723Y-12608918D02*
X6343676Y-12618442D01*
X6343676Y-12618442D02*
X6305581Y-12618442D01*
X6305581Y-12618442D02*
X6286533Y-12627966D01*
X6286533Y-12627966D02*
X6277009Y-12637490D01*
X6277009Y-12637490D02*
X6267485Y-12656537D01*
X6267485Y-12656537D02*
X6267485Y-12694633D01*
X6267485Y-12694633D02*
X6277009Y-12713680D01*
X6277009Y-12713680D02*
X6286533Y-12723204D01*
X6286533Y-12723204D02*
X6305581Y-12732728D01*
X6305581Y-12732728D02*
X6343676Y-12732728D01*
X6343676Y-12732728D02*
X6362723Y-12723204D01*
X6362723Y-12723204D02*
X6372247Y-12713680D01*
X6372247Y-12713680D02*
X6381771Y-12694633D01*
X6381771Y-12694633D02*
X6381771Y-12656537D01*
X6381771Y-12656537D02*
X6372247Y-12637490D01*
X6372247Y-12637490D02*
X6362723Y-12627966D01*
X6362723Y-12627966D02*
X6343676Y-12618442D01*
X6505581Y-12532728D02*
X6524628Y-12532728D01*
X6524628Y-12532728D02*
X6543676Y-12542252D01*
X6543676Y-12542252D02*
X6553200Y-12551775D01*
X6553200Y-12551775D02*
X6562723Y-12570823D01*
X6562723Y-12570823D02*
X6572247Y-12608918D01*
X6572247Y-12608918D02*
X6572247Y-12656537D01*
X6572247Y-12656537D02*
X6562723Y-12694633D01*
X6562723Y-12694633D02*
X6553200Y-12713680D01*
X6553200Y-12713680D02*
X6543676Y-12723204D01*
X6543676Y-12723204D02*
X6524628Y-12732728D01*
X6524628Y-12732728D02*
X6505581Y-12732728D01*
X6505581Y-12732728D02*
X6486533Y-12723204D01*
X6486533Y-12723204D02*
X6477009Y-12713680D01*
X6477009Y-12713680D02*
X6467485Y-12694633D01*
X6467485Y-12694633D02*
X6457962Y-12656537D01*
X6457962Y-12656537D02*
X6457962Y-12608918D01*
X6457962Y-12608918D02*
X6467485Y-12570823D01*
X6467485Y-12570823D02*
X6477009Y-12551775D01*
X6477009Y-12551775D02*
X6486533Y-12542252D01*
X6486533Y-12542252D02*
X6505581Y-12532728D01*
X6810343Y-12732728D02*
X6810343Y-12532728D01*
X6896057Y-12732728D02*
X6896057Y-12627966D01*
X6896057Y-12627966D02*
X6886533Y-12608918D01*
X6886533Y-12608918D02*
X6867485Y-12599394D01*
X6867485Y-12599394D02*
X6838914Y-12599394D01*
X6838914Y-12599394D02*
X6819866Y-12608918D01*
X6819866Y-12608918D02*
X6810343Y-12618442D01*
X7019866Y-12732728D02*
X7000819Y-12723204D01*
X7000819Y-12723204D02*
X6991295Y-12713680D01*
X6991295Y-12713680D02*
X6981771Y-12694633D01*
X6981771Y-12694633D02*
X6981771Y-12637490D01*
X6981771Y-12637490D02*
X6991295Y-12618442D01*
X6991295Y-12618442D02*
X7000819Y-12608918D01*
X7000819Y-12608918D02*
X7019866Y-12599394D01*
X7019866Y-12599394D02*
X7048438Y-12599394D01*
X7048438Y-12599394D02*
X7067485Y-12608918D01*
X7067485Y-12608918D02*
X7077009Y-12618442D01*
X7077009Y-12618442D02*
X7086533Y-12637490D01*
X7086533Y-12637490D02*
X7086533Y-12694633D01*
X7086533Y-12694633D02*
X7077009Y-12713680D01*
X7077009Y-12713680D02*
X7067485Y-12723204D01*
X7067485Y-12723204D02*
X7048438Y-12732728D01*
X7048438Y-12732728D02*
X7019866Y-12732728D01*
X7200819Y-12732728D02*
X7181771Y-12723204D01*
X7181771Y-12723204D02*
X7172247Y-12704156D01*
X7172247Y-12704156D02*
X7172247Y-12532728D01*
X7353200Y-12723204D02*
X7334152Y-12732728D01*
X7334152Y-12732728D02*
X7296057Y-12732728D01*
X7296057Y-12732728D02*
X7277009Y-12723204D01*
X7277009Y-12723204D02*
X7267485Y-12704156D01*
X7267485Y-12704156D02*
X7267485Y-12627966D01*
X7267485Y-12627966D02*
X7277009Y-12608918D01*
X7277009Y-12608918D02*
X7296057Y-12599394D01*
X7296057Y-12599394D02*
X7334152Y-12599394D01*
X7334152Y-12599394D02*
X7353200Y-12608918D01*
X7353200Y-12608918D02*
X7362724Y-12627966D01*
X7362724Y-12627966D02*
X7362724Y-12647014D01*
X7362724Y-12647014D02*
X7267485Y-12666061D01*
X7438914Y-12723204D02*
X7457962Y-12732728D01*
X7457962Y-12732728D02*
X7496057Y-12732728D01*
X7496057Y-12732728D02*
X7515105Y-12723204D01*
X7515105Y-12723204D02*
X7524628Y-12704156D01*
X7524628Y-12704156D02*
X7524628Y-12694633D01*
X7524628Y-12694633D02*
X7515105Y-12675585D01*
X7515105Y-12675585D02*
X7496057Y-12666061D01*
X7496057Y-12666061D02*
X7467485Y-12666061D01*
X7467485Y-12666061D02*
X7448438Y-12656537D01*
X7448438Y-12656537D02*
X7438914Y-12637490D01*
X7438914Y-12637490D02*
X7438914Y-12627966D01*
X7438914Y-12627966D02*
X7448438Y-12608918D01*
X7448438Y-12608918D02*
X7467485Y-12599394D01*
X7467485Y-12599394D02*
X7496057Y-12599394D01*
X7496057Y-12599394D02*
X7515105Y-12608918D01*
X7591295Y-12808918D02*
X7600819Y-12799394D01*
X7600819Y-12799394D02*
X7619866Y-12770823D01*
X7619866Y-12770823D02*
X7629390Y-12751775D01*
X7629390Y-12751775D02*
X7638914Y-12723204D01*
X7638914Y-12723204D02*
X7648438Y-12675585D01*
X7648438Y-12675585D02*
X7648438Y-12637490D01*
X7648438Y-12637490D02*
X7638914Y-12589871D01*
X7638914Y-12589871D02*
X7629390Y-12561299D01*
X7629390Y-12561299D02*
X7619866Y-12542252D01*
X7619866Y-12542252D02*
X7600819Y-12513680D01*
X7600819Y-12513680D02*
X7591295Y-12504156D01*
D10*
X2612576Y-12937064D02*
X2612576Y-12873424D01*
X2548936Y-12873424D01*
X2548936Y-12937064D01*
X2612576Y-12937064D01*
D11*
X2924628Y-12796728D02*
X2943676Y-12796728D01*
X2943676Y-12796728D02*
X2962723Y-12806252D01*
X2962723Y-12806252D02*
X2972247Y-12815775D01*
X2972247Y-12815775D02*
X2981771Y-12834823D01*
X2981771Y-12834823D02*
X2991295Y-12872918D01*
X2991295Y-12872918D02*
X2991295Y-12920537D01*
X2991295Y-12920537D02*
X2981771Y-12958633D01*
X2981771Y-12958633D02*
X2972247Y-12977680D01*
X2972247Y-12977680D02*
X2962723Y-12987204D01*
X2962723Y-12987204D02*
X2943676Y-12996728D01*
X2943676Y-12996728D02*
X2924628Y-12996728D01*
X2924628Y-12996728D02*
X2905580Y-12987204D01*
X2905580Y-12987204D02*
X2896056Y-12977680D01*
X2896056Y-12977680D02*
X2886533Y-12958633D01*
X2886533Y-12958633D02*
X2877009Y-12920537D01*
X2877009Y-12920537D02*
X2877009Y-12872918D01*
X2877009Y-12872918D02*
X2886533Y-12834823D01*
X2886533Y-12834823D02*
X2896056Y-12815775D01*
X2896056Y-12815775D02*
X2905580Y-12806252D01*
X2905580Y-12806252D02*
X2924628Y-12796728D01*
X3077009Y-12977680D02*
X3086533Y-12987204D01*
X3086533Y-12987204D02*
X3077009Y-12996728D01*
X3077009Y-12996728D02*
X3067485Y-12987204D01*
X3067485Y-12987204D02*
X3077009Y-12977680D01*
X3077009Y-12977680D02*
X3077009Y-12996728D01*
X3181771Y-12996728D02*
X3219866Y-12996728D01*
X3219866Y-12996728D02*
X3238914Y-12987204D01*
X3238914Y-12987204D02*
X3248437Y-12977680D01*
X3248437Y-12977680D02*
X3267485Y-12949109D01*
X3267485Y-12949109D02*
X3277009Y-12911014D01*
X3277009Y-12911014D02*
X3277009Y-12834823D01*
X3277009Y-12834823D02*
X3267485Y-12815775D01*
X3267485Y-12815775D02*
X3257961Y-12806252D01*
X3257961Y-12806252D02*
X3238914Y-12796728D01*
X3238914Y-12796728D02*
X3200818Y-12796728D01*
X3200818Y-12796728D02*
X3181771Y-12806252D01*
X3181771Y-12806252D02*
X3172247Y-12815775D01*
X3172247Y-12815775D02*
X3162723Y-12834823D01*
X3162723Y-12834823D02*
X3162723Y-12882442D01*
X3162723Y-12882442D02*
X3172247Y-12901490D01*
X3172247Y-12901490D02*
X3181771Y-12911014D01*
X3181771Y-12911014D02*
X3200818Y-12920537D01*
X3200818Y-12920537D02*
X3238914Y-12920537D01*
X3238914Y-12920537D02*
X3257961Y-12911014D01*
X3257961Y-12911014D02*
X3267485Y-12901490D01*
X3267485Y-12901490D02*
X3277009Y-12882442D01*
X3400818Y-12796728D02*
X3419866Y-12796728D01*
X3419866Y-12796728D02*
X3438914Y-12806252D01*
X3438914Y-12806252D02*
X3448437Y-12815775D01*
X3448437Y-12815775D02*
X3457961Y-12834823D01*
X3457961Y-12834823D02*
X3467485Y-12872918D01*
X3467485Y-12872918D02*
X3467485Y-12920537D01*
X3467485Y-12920537D02*
X3457961Y-12958633D01*
X3457961Y-12958633D02*
X3448437Y-12977680D01*
X3448437Y-12977680D02*
X3438914Y-12987204D01*
X3438914Y-12987204D02*
X3419866Y-12996728D01*
X3419866Y-12996728D02*
X3400818Y-12996728D01*
X3400818Y-12996728D02*
X3381771Y-12987204D01*
X3381771Y-12987204D02*
X3372247Y-12977680D01*
X3372247Y-12977680D02*
X3362723Y-12958633D01*
X3362723Y-12958633D02*
X3353199Y-12920537D01*
X3353199Y-12920537D02*
X3353199Y-12872918D01*
X3353199Y-12872918D02*
X3362723Y-12834823D01*
X3362723Y-12834823D02*
X3372247Y-12815775D01*
X3372247Y-12815775D02*
X3381771Y-12806252D01*
X3381771Y-12806252D02*
X3400818Y-12796728D01*
X3591295Y-12796728D02*
X3610342Y-12796728D01*
X3610342Y-12796728D02*
X3629390Y-12806252D01*
X3629390Y-12806252D02*
X3638914Y-12815775D01*
X3638914Y-12815775D02*
X3648437Y-12834823D01*
X3648437Y-12834823D02*
X3657961Y-12872918D01*
X3657961Y-12872918D02*
X3657961Y-12920537D01*
X3657961Y-12920537D02*
X3648437Y-12958633D01*
X3648437Y-12958633D02*
X3638914Y-12977680D01*
X3638914Y-12977680D02*
X3629390Y-12987204D01*
X3629390Y-12987204D02*
X3610342Y-12996728D01*
X3610342Y-12996728D02*
X3591295Y-12996728D01*
X3591295Y-12996728D02*
X3572247Y-12987204D01*
X3572247Y-12987204D02*
X3562723Y-12977680D01*
X3562723Y-12977680D02*
X3553199Y-12958633D01*
X3553199Y-12958633D02*
X3543676Y-12920537D01*
X3543676Y-12920537D02*
X3543676Y-12872918D01*
X3543676Y-12872918D02*
X3553199Y-12834823D01*
X3553199Y-12834823D02*
X3562723Y-12815775D01*
X3562723Y-12815775D02*
X3572247Y-12806252D01*
X3572247Y-12806252D02*
X3591295Y-12796728D01*
X3743676Y-12996728D02*
X3743676Y-12863394D01*
X3743676Y-12882442D02*
X3753199Y-12872918D01*
X3753199Y-12872918D02*
X3772247Y-12863394D01*
X3772247Y-12863394D02*
X3800818Y-12863394D01*
X3800818Y-12863394D02*
X3819866Y-12872918D01*
X3819866Y-12872918D02*
X3829390Y-12891966D01*
X3829390Y-12891966D02*
X3829390Y-12996728D01*
X3829390Y-12891966D02*
X3838914Y-12872918D01*
X3838914Y-12872918D02*
X3857961Y-12863394D01*
X3857961Y-12863394D02*
X3886533Y-12863394D01*
X3886533Y-12863394D02*
X3905580Y-12872918D01*
X3905580Y-12872918D02*
X3915104Y-12891966D01*
X3915104Y-12891966D02*
X3915104Y-12996728D01*
X4010342Y-12996728D02*
X4010342Y-12863394D01*
X4010342Y-12882442D02*
X4019866Y-12872918D01*
X4019866Y-12872918D02*
X4038914Y-12863394D01*
X4038914Y-12863394D02*
X4067485Y-12863394D01*
X4067485Y-12863394D02*
X4086533Y-12872918D01*
X4086533Y-12872918D02*
X4096057Y-12891966D01*
X4096057Y-12891966D02*
X4096057Y-12996728D01*
X4096057Y-12891966D02*
X4105580Y-12872918D01*
X4105580Y-12872918D02*
X4124628Y-12863394D01*
X4124628Y-12863394D02*
X4153199Y-12863394D01*
X4153199Y-12863394D02*
X4172247Y-12872918D01*
X4172247Y-12872918D02*
X4181771Y-12891966D01*
X4181771Y-12891966D02*
X4181771Y-12996728D01*
X4572247Y-12787204D02*
X4400819Y-13044347D01*
X4829390Y-12796728D02*
X4848438Y-12796728D01*
X4848438Y-12796728D02*
X4867485Y-12806252D01*
X4867485Y-12806252D02*
X4877009Y-12815775D01*
X4877009Y-12815775D02*
X4886533Y-12834823D01*
X4886533Y-12834823D02*
X4896057Y-12872918D01*
X4896057Y-12872918D02*
X4896057Y-12920537D01*
X4896057Y-12920537D02*
X4886533Y-12958633D01*
X4886533Y-12958633D02*
X4877009Y-12977680D01*
X4877009Y-12977680D02*
X4867485Y-12987204D01*
X4867485Y-12987204D02*
X4848438Y-12996728D01*
X4848438Y-12996728D02*
X4829390Y-12996728D01*
X4829390Y-12996728D02*
X4810342Y-12987204D01*
X4810342Y-12987204D02*
X4800819Y-12977680D01*
X4800819Y-12977680D02*
X4791295Y-12958633D01*
X4791295Y-12958633D02*
X4781771Y-12920537D01*
X4781771Y-12920537D02*
X4781771Y-12872918D01*
X4781771Y-12872918D02*
X4791295Y-12834823D01*
X4791295Y-12834823D02*
X4800819Y-12815775D01*
X4800819Y-12815775D02*
X4810342Y-12806252D01*
X4810342Y-12806252D02*
X4829390Y-12796728D01*
X4981771Y-12977680D02*
X4991295Y-12987204D01*
X4991295Y-12987204D02*
X4981771Y-12996728D01*
X4981771Y-12996728D02*
X4972247Y-12987204D01*
X4972247Y-12987204D02*
X4981771Y-12977680D01*
X4981771Y-12977680D02*
X4981771Y-12996728D01*
X5115104Y-12796728D02*
X5134152Y-12796728D01*
X5134152Y-12796728D02*
X5153200Y-12806252D01*
X5153200Y-12806252D02*
X5162723Y-12815775D01*
X5162723Y-12815775D02*
X5172247Y-12834823D01*
X5172247Y-12834823D02*
X5181771Y-12872918D01*
X5181771Y-12872918D02*
X5181771Y-12920537D01*
X5181771Y-12920537D02*
X5172247Y-12958633D01*
X5172247Y-12958633D02*
X5162723Y-12977680D01*
X5162723Y-12977680D02*
X5153200Y-12987204D01*
X5153200Y-12987204D02*
X5134152Y-12996728D01*
X5134152Y-12996728D02*
X5115104Y-12996728D01*
X5115104Y-12996728D02*
X5096057Y-12987204D01*
X5096057Y-12987204D02*
X5086533Y-12977680D01*
X5086533Y-12977680D02*
X5077009Y-12958633D01*
X5077009Y-12958633D02*
X5067485Y-12920537D01*
X5067485Y-12920537D02*
X5067485Y-12872918D01*
X5067485Y-12872918D02*
X5077009Y-12834823D01*
X5077009Y-12834823D02*
X5086533Y-12815775D01*
X5086533Y-12815775D02*
X5096057Y-12806252D01*
X5096057Y-12806252D02*
X5115104Y-12796728D01*
X5248438Y-12796728D02*
X5372247Y-12796728D01*
X5372247Y-12796728D02*
X5305581Y-12872918D01*
X5305581Y-12872918D02*
X5334152Y-12872918D01*
X5334152Y-12872918D02*
X5353200Y-12882442D01*
X5353200Y-12882442D02*
X5362723Y-12891966D01*
X5362723Y-12891966D02*
X5372247Y-12911014D01*
X5372247Y-12911014D02*
X5372247Y-12958633D01*
X5372247Y-12958633D02*
X5362723Y-12977680D01*
X5362723Y-12977680D02*
X5353200Y-12987204D01*
X5353200Y-12987204D02*
X5334152Y-12996728D01*
X5334152Y-12996728D02*
X5277009Y-12996728D01*
X5277009Y-12996728D02*
X5257962Y-12987204D01*
X5257962Y-12987204D02*
X5248438Y-12977680D01*
X5553200Y-12796728D02*
X5457962Y-12796728D01*
X5457962Y-12796728D02*
X5448438Y-12891966D01*
X5448438Y-12891966D02*
X5457962Y-12882442D01*
X5457962Y-12882442D02*
X5477009Y-12872918D01*
X5477009Y-12872918D02*
X5524628Y-12872918D01*
X5524628Y-12872918D02*
X5543676Y-12882442D01*
X5543676Y-12882442D02*
X5553200Y-12891966D01*
X5553200Y-12891966D02*
X5562723Y-12911014D01*
X5562723Y-12911014D02*
X5562723Y-12958633D01*
X5562723Y-12958633D02*
X5553200Y-12977680D01*
X5553200Y-12977680D02*
X5543676Y-12987204D01*
X5543676Y-12987204D02*
X5524628Y-12996728D01*
X5524628Y-12996728D02*
X5477009Y-12996728D01*
X5477009Y-12996728D02*
X5457962Y-12987204D01*
X5457962Y-12987204D02*
X5448438Y-12977680D01*
X5734152Y-12863394D02*
X5734152Y-12996728D01*
X5686533Y-12787204D02*
X5638914Y-12930061D01*
X5638914Y-12930061D02*
X5762723Y-12930061D01*
X5829390Y-12796728D02*
X5829390Y-12834823D01*
X5905581Y-12796728D02*
X5905581Y-12834823D01*
X6200819Y-13072918D02*
X6191295Y-13063394D01*
X6191295Y-13063394D02*
X6172247Y-13034823D01*
X6172247Y-13034823D02*
X6162723Y-13015775D01*
X6162723Y-13015775D02*
X6153200Y-12987204D01*
X6153200Y-12987204D02*
X6143676Y-12939585D01*
X6143676Y-12939585D02*
X6143676Y-12901490D01*
X6143676Y-12901490D02*
X6153200Y-12853871D01*
X6153200Y-12853871D02*
X6162723Y-12825299D01*
X6162723Y-12825299D02*
X6172247Y-12806252D01*
X6172247Y-12806252D02*
X6191295Y-12777680D01*
X6191295Y-12777680D02*
X6200819Y-12768156D01*
X6267485Y-12815775D02*
X6277009Y-12806252D01*
X6277009Y-12806252D02*
X6296057Y-12796728D01*
X6296057Y-12796728D02*
X6343676Y-12796728D01*
X6343676Y-12796728D02*
X6362723Y-12806252D01*
X6362723Y-12806252D02*
X6372247Y-12815775D01*
X6372247Y-12815775D02*
X6381771Y-12834823D01*
X6381771Y-12834823D02*
X6381771Y-12853871D01*
X6381771Y-12853871D02*
X6372247Y-12882442D01*
X6372247Y-12882442D02*
X6257962Y-12996728D01*
X6257962Y-12996728D02*
X6381771Y-12996728D01*
X6619866Y-12996728D02*
X6619866Y-12796728D01*
X6705581Y-12996728D02*
X6705581Y-12891966D01*
X6705581Y-12891966D02*
X6696057Y-12872918D01*
X6696057Y-12872918D02*
X6677009Y-12863394D01*
X6677009Y-12863394D02*
X6648438Y-12863394D01*
X6648438Y-12863394D02*
X6629390Y-12872918D01*
X6629390Y-12872918D02*
X6619866Y-12882442D01*
X6829390Y-12996728D02*
X6810343Y-12987204D01*
X6810343Y-12987204D02*
X6800819Y-12977680D01*
X6800819Y-12977680D02*
X6791295Y-12958633D01*
X6791295Y-12958633D02*
X6791295Y-12901490D01*
X6791295Y-12901490D02*
X6800819Y-12882442D01*
X6800819Y-12882442D02*
X6810343Y-12872918D01*
X6810343Y-12872918D02*
X6829390Y-12863394D01*
X6829390Y-12863394D02*
X6857962Y-12863394D01*
X6857962Y-12863394D02*
X6877009Y-12872918D01*
X6877009Y-12872918D02*
X6886533Y-12882442D01*
X6886533Y-12882442D02*
X6896057Y-12901490D01*
X6896057Y-12901490D02*
X6896057Y-12958633D01*
X6896057Y-12958633D02*
X6886533Y-12977680D01*
X6886533Y-12977680D02*
X6877009Y-12987204D01*
X6877009Y-12987204D02*
X6857962Y-12996728D01*
X6857962Y-12996728D02*
X6829390Y-12996728D01*
X7010343Y-12996728D02*
X6991295Y-12987204D01*
X6991295Y-12987204D02*
X6981771Y-12968156D01*
X6981771Y-12968156D02*
X6981771Y-12796728D01*
X7162724Y-12987204D02*
X7143676Y-12996728D01*
X7143676Y-12996728D02*
X7105581Y-12996728D01*
X7105581Y-12996728D02*
X7086533Y-12987204D01*
X7086533Y-12987204D02*
X7077009Y-12968156D01*
X7077009Y-12968156D02*
X7077009Y-12891966D01*
X7077009Y-12891966D02*
X7086533Y-12872918D01*
X7086533Y-12872918D02*
X7105581Y-12863394D01*
X7105581Y-12863394D02*
X7143676Y-12863394D01*
X7143676Y-12863394D02*
X7162724Y-12872918D01*
X7162724Y-12872918D02*
X7172247Y-12891966D01*
X7172247Y-12891966D02*
X7172247Y-12911014D01*
X7172247Y-12911014D02*
X7077009Y-12930061D01*
X7248438Y-12987204D02*
X7267485Y-12996728D01*
X7267485Y-12996728D02*
X7305581Y-12996728D01*
X7305581Y-12996728D02*
X7324628Y-12987204D01*
X7324628Y-12987204D02*
X7334152Y-12968156D01*
X7334152Y-12968156D02*
X7334152Y-12958633D01*
X7334152Y-12958633D02*
X7324628Y-12939585D01*
X7324628Y-12939585D02*
X7305581Y-12930061D01*
X7305581Y-12930061D02*
X7277009Y-12930061D01*
X7277009Y-12930061D02*
X7257962Y-12920537D01*
X7257962Y-12920537D02*
X7248438Y-12901490D01*
X7248438Y-12901490D02*
X7248438Y-12891966D01*
X7248438Y-12891966D02*
X7257962Y-12872918D01*
X7257962Y-12872918D02*
X7277009Y-12863394D01*
X7277009Y-12863394D02*
X7305581Y-12863394D01*
X7305581Y-12863394D02*
X7324628Y-12872918D01*
X7400819Y-13072918D02*
X7410343Y-13063394D01*
X7410343Y-13063394D02*
X7429390Y-13034823D01*
X7429390Y-13034823D02*
X7438914Y-13015775D01*
X7438914Y-13015775D02*
X7448438Y-12987204D01*
X7448438Y-12987204D02*
X7457962Y-12939585D01*
X7457962Y-12939585D02*
X7457962Y-12901490D01*
X7457962Y-12901490D02*
X7448438Y-12853871D01*
X7448438Y-12853871D02*
X7438914Y-12825299D01*
X7438914Y-12825299D02*
X7429390Y-12806252D01*
X7429390Y-12806252D02*
X7410343Y-12777680D01*
X7410343Y-12777680D02*
X7400819Y-12768156D01*
D10*
X2575756Y-13219244D02*
X2625756Y-13169244D01*
X2575756Y-13119244D01*
X2525756Y-13169244D01*
X2575756Y-13219244D01*
D11*
X2991295Y-13260728D02*
X2877009Y-13260728D01*
X2934152Y-13260728D02*
X2934152Y-13060728D01*
X2934152Y-13060728D02*
X2915104Y-13089299D01*
X2915104Y-13089299D02*
X2896056Y-13108347D01*
X2896056Y-13108347D02*
X2877009Y-13117871D01*
X3077009Y-13241680D02*
X3086533Y-13251204D01*
X3086533Y-13251204D02*
X3077009Y-13260728D01*
X3077009Y-13260728D02*
X3067485Y-13251204D01*
X3067485Y-13251204D02*
X3077009Y-13241680D01*
X3077009Y-13241680D02*
X3077009Y-13260728D01*
X3210342Y-13060728D02*
X3229390Y-13060728D01*
X3229390Y-13060728D02*
X3248437Y-13070252D01*
X3248437Y-13070252D02*
X3257961Y-13079775D01*
X3257961Y-13079775D02*
X3267485Y-13098823D01*
X3267485Y-13098823D02*
X3277009Y-13136918D01*
X3277009Y-13136918D02*
X3277009Y-13184537D01*
X3277009Y-13184537D02*
X3267485Y-13222633D01*
X3267485Y-13222633D02*
X3257961Y-13241680D01*
X3257961Y-13241680D02*
X3248437Y-13251204D01*
X3248437Y-13251204D02*
X3229390Y-13260728D01*
X3229390Y-13260728D02*
X3210342Y-13260728D01*
X3210342Y-13260728D02*
X3191295Y-13251204D01*
X3191295Y-13251204D02*
X3181771Y-13241680D01*
X3181771Y-13241680D02*
X3172247Y-13222633D01*
X3172247Y-13222633D02*
X3162723Y-13184537D01*
X3162723Y-13184537D02*
X3162723Y-13136918D01*
X3162723Y-13136918D02*
X3172247Y-13098823D01*
X3172247Y-13098823D02*
X3181771Y-13079775D01*
X3181771Y-13079775D02*
X3191295Y-13070252D01*
X3191295Y-13070252D02*
X3210342Y-13060728D01*
X3400818Y-13060728D02*
X3419866Y-13060728D01*
X3419866Y-13060728D02*
X3438914Y-13070252D01*
X3438914Y-13070252D02*
X3448437Y-13079775D01*
X3448437Y-13079775D02*
X3457961Y-13098823D01*
X3457961Y-13098823D02*
X3467485Y-13136918D01*
X3467485Y-13136918D02*
X3467485Y-13184537D01*
X3467485Y-13184537D02*
X3457961Y-13222633D01*
X3457961Y-13222633D02*
X3448437Y-13241680D01*
X3448437Y-13241680D02*
X3438914Y-13251204D01*
X3438914Y-13251204D02*
X3419866Y-13260728D01*
X3419866Y-13260728D02*
X3400818Y-13260728D01*
X3400818Y-13260728D02*
X3381771Y-13251204D01*
X3381771Y-13251204D02*
X3372247Y-13241680D01*
X3372247Y-13241680D02*
X3362723Y-13222633D01*
X3362723Y-13222633D02*
X3353199Y-13184537D01*
X3353199Y-13184537D02*
X3353199Y-13136918D01*
X3353199Y-13136918D02*
X3362723Y-13098823D01*
X3362723Y-13098823D02*
X3372247Y-13079775D01*
X3372247Y-13079775D02*
X3381771Y-13070252D01*
X3381771Y-13070252D02*
X3400818Y-13060728D01*
X3591295Y-13060728D02*
X3610342Y-13060728D01*
X3610342Y-13060728D02*
X3629390Y-13070252D01*
X3629390Y-13070252D02*
X3638914Y-13079775D01*
X3638914Y-13079775D02*
X3648437Y-13098823D01*
X3648437Y-13098823D02*
X3657961Y-13136918D01*
X3657961Y-13136918D02*
X3657961Y-13184537D01*
X3657961Y-13184537D02*
X3648437Y-13222633D01*
X3648437Y-13222633D02*
X3638914Y-13241680D01*
X3638914Y-13241680D02*
X3629390Y-13251204D01*
X3629390Y-13251204D02*
X3610342Y-13260728D01*
X3610342Y-13260728D02*
X3591295Y-13260728D01*
X3591295Y-13260728D02*
X3572247Y-13251204D01*
X3572247Y-13251204D02*
X3562723Y-13241680D01*
X3562723Y-13241680D02*
X3553199Y-13222633D01*
X3553199Y-13222633D02*
X3543676Y-13184537D01*
X3543676Y-13184537D02*
X3543676Y-13136918D01*
X3543676Y-13136918D02*
X3553199Y-13098823D01*
X3553199Y-13098823D02*
X3562723Y-13079775D01*
X3562723Y-13079775D02*
X3572247Y-13070252D01*
X3572247Y-13070252D02*
X3591295Y-13060728D01*
X3743676Y-13260728D02*
X3743676Y-13127394D01*
X3743676Y-13146442D02*
X3753199Y-13136918D01*
X3753199Y-13136918D02*
X3772247Y-13127394D01*
X3772247Y-13127394D02*
X3800818Y-13127394D01*
X3800818Y-13127394D02*
X3819866Y-13136918D01*
X3819866Y-13136918D02*
X3829390Y-13155966D01*
X3829390Y-13155966D02*
X3829390Y-13260728D01*
X3829390Y-13155966D02*
X3838914Y-13136918D01*
X3838914Y-13136918D02*
X3857961Y-13127394D01*
X3857961Y-13127394D02*
X3886533Y-13127394D01*
X3886533Y-13127394D02*
X3905580Y-13136918D01*
X3905580Y-13136918D02*
X3915104Y-13155966D01*
X3915104Y-13155966D02*
X3915104Y-13260728D01*
X4010342Y-13260728D02*
X4010342Y-13127394D01*
X4010342Y-13146442D02*
X4019866Y-13136918D01*
X4019866Y-13136918D02*
X4038914Y-13127394D01*
X4038914Y-13127394D02*
X4067485Y-13127394D01*
X4067485Y-13127394D02*
X4086533Y-13136918D01*
X4086533Y-13136918D02*
X4096057Y-13155966D01*
X4096057Y-13155966D02*
X4096057Y-13260728D01*
X4096057Y-13155966D02*
X4105580Y-13136918D01*
X4105580Y-13136918D02*
X4124628Y-13127394D01*
X4124628Y-13127394D02*
X4153199Y-13127394D01*
X4153199Y-13127394D02*
X4172247Y-13136918D01*
X4172247Y-13136918D02*
X4181771Y-13155966D01*
X4181771Y-13155966D02*
X4181771Y-13260728D01*
X4572247Y-13051204D02*
X4400819Y-13308347D01*
X4829390Y-13060728D02*
X4848438Y-13060728D01*
X4848438Y-13060728D02*
X4867485Y-13070252D01*
X4867485Y-13070252D02*
X4877009Y-13079775D01*
X4877009Y-13079775D02*
X4886533Y-13098823D01*
X4886533Y-13098823D02*
X4896057Y-13136918D01*
X4896057Y-13136918D02*
X4896057Y-13184537D01*
X4896057Y-13184537D02*
X4886533Y-13222633D01*
X4886533Y-13222633D02*
X4877009Y-13241680D01*
X4877009Y-13241680D02*
X4867485Y-13251204D01*
X4867485Y-13251204D02*
X4848438Y-13260728D01*
X4848438Y-13260728D02*
X4829390Y-13260728D01*
X4829390Y-13260728D02*
X4810342Y-13251204D01*
X4810342Y-13251204D02*
X4800819Y-13241680D01*
X4800819Y-13241680D02*
X4791295Y-13222633D01*
X4791295Y-13222633D02*
X4781771Y-13184537D01*
X4781771Y-13184537D02*
X4781771Y-13136918D01*
X4781771Y-13136918D02*
X4791295Y-13098823D01*
X4791295Y-13098823D02*
X4800819Y-13079775D01*
X4800819Y-13079775D02*
X4810342Y-13070252D01*
X4810342Y-13070252D02*
X4829390Y-13060728D01*
X4981771Y-13241680D02*
X4991295Y-13251204D01*
X4991295Y-13251204D02*
X4981771Y-13260728D01*
X4981771Y-13260728D02*
X4972247Y-13251204D01*
X4972247Y-13251204D02*
X4981771Y-13241680D01*
X4981771Y-13241680D02*
X4981771Y-13260728D01*
X5115104Y-13060728D02*
X5134152Y-13060728D01*
X5134152Y-13060728D02*
X5153200Y-13070252D01*
X5153200Y-13070252D02*
X5162723Y-13079775D01*
X5162723Y-13079775D02*
X5172247Y-13098823D01*
X5172247Y-13098823D02*
X5181771Y-13136918D01*
X5181771Y-13136918D02*
X5181771Y-13184537D01*
X5181771Y-13184537D02*
X5172247Y-13222633D01*
X5172247Y-13222633D02*
X5162723Y-13241680D01*
X5162723Y-13241680D02*
X5153200Y-13251204D01*
X5153200Y-13251204D02*
X5134152Y-13260728D01*
X5134152Y-13260728D02*
X5115104Y-13260728D01*
X5115104Y-13260728D02*
X5096057Y-13251204D01*
X5096057Y-13251204D02*
X5086533Y-13241680D01*
X5086533Y-13241680D02*
X5077009Y-13222633D01*
X5077009Y-13222633D02*
X5067485Y-13184537D01*
X5067485Y-13184537D02*
X5067485Y-13136918D01*
X5067485Y-13136918D02*
X5077009Y-13098823D01*
X5077009Y-13098823D02*
X5086533Y-13079775D01*
X5086533Y-13079775D02*
X5096057Y-13070252D01*
X5096057Y-13070252D02*
X5115104Y-13060728D01*
X5248438Y-13060728D02*
X5372247Y-13060728D01*
X5372247Y-13060728D02*
X5305581Y-13136918D01*
X5305581Y-13136918D02*
X5334152Y-13136918D01*
X5334152Y-13136918D02*
X5353200Y-13146442D01*
X5353200Y-13146442D02*
X5362723Y-13155966D01*
X5362723Y-13155966D02*
X5372247Y-13175014D01*
X5372247Y-13175014D02*
X5372247Y-13222633D01*
X5372247Y-13222633D02*
X5362723Y-13241680D01*
X5362723Y-13241680D02*
X5353200Y-13251204D01*
X5353200Y-13251204D02*
X5334152Y-13260728D01*
X5334152Y-13260728D02*
X5277009Y-13260728D01*
X5277009Y-13260728D02*
X5257962Y-13251204D01*
X5257962Y-13251204D02*
X5248438Y-13241680D01*
X5467485Y-13260728D02*
X5505581Y-13260728D01*
X5505581Y-13260728D02*
X5524628Y-13251204D01*
X5524628Y-13251204D02*
X5534152Y-13241680D01*
X5534152Y-13241680D02*
X5553200Y-13213109D01*
X5553200Y-13213109D02*
X5562723Y-13175014D01*
X5562723Y-13175014D02*
X5562723Y-13098823D01*
X5562723Y-13098823D02*
X5553200Y-13079775D01*
X5553200Y-13079775D02*
X5543676Y-13070252D01*
X5543676Y-13070252D02*
X5524628Y-13060728D01*
X5524628Y-13060728D02*
X5486533Y-13060728D01*
X5486533Y-13060728D02*
X5467485Y-13070252D01*
X5467485Y-13070252D02*
X5457962Y-13079775D01*
X5457962Y-13079775D02*
X5448438Y-13098823D01*
X5448438Y-13098823D02*
X5448438Y-13146442D01*
X5448438Y-13146442D02*
X5457962Y-13165490D01*
X5457962Y-13165490D02*
X5467485Y-13175014D01*
X5467485Y-13175014D02*
X5486533Y-13184537D01*
X5486533Y-13184537D02*
X5524628Y-13184537D01*
X5524628Y-13184537D02*
X5543676Y-13175014D01*
X5543676Y-13175014D02*
X5553200Y-13165490D01*
X5553200Y-13165490D02*
X5562723Y-13146442D01*
X5734152Y-13127394D02*
X5734152Y-13260728D01*
X5686533Y-13051204D02*
X5638914Y-13194061D01*
X5638914Y-13194061D02*
X5762723Y-13194061D01*
X5829390Y-13060728D02*
X5829390Y-13098823D01*
X5905581Y-13060728D02*
X5905581Y-13098823D01*
X6200819Y-13336918D02*
X6191295Y-13327394D01*
X6191295Y-13327394D02*
X6172247Y-13298823D01*
X6172247Y-13298823D02*
X6162723Y-13279775D01*
X6162723Y-13279775D02*
X6153200Y-13251204D01*
X6153200Y-13251204D02*
X6143676Y-13203585D01*
X6143676Y-13203585D02*
X6143676Y-13165490D01*
X6143676Y-13165490D02*
X6153200Y-13117871D01*
X6153200Y-13117871D02*
X6162723Y-13089299D01*
X6162723Y-13089299D02*
X6172247Y-13070252D01*
X6172247Y-13070252D02*
X6191295Y-13041680D01*
X6191295Y-13041680D02*
X6200819Y-13032156D01*
X6362723Y-13127394D02*
X6362723Y-13260728D01*
X6315104Y-13051204D02*
X6267485Y-13194061D01*
X6267485Y-13194061D02*
X6391295Y-13194061D01*
X6553200Y-13127394D02*
X6553200Y-13260728D01*
X6505581Y-13051204D02*
X6457962Y-13194061D01*
X6457962Y-13194061D02*
X6581771Y-13194061D01*
X6810343Y-13260728D02*
X6810343Y-13060728D01*
X6896057Y-13260728D02*
X6896057Y-13155966D01*
X6896057Y-13155966D02*
X6886533Y-13136918D01*
X6886533Y-13136918D02*
X6867485Y-13127394D01*
X6867485Y-13127394D02*
X6838914Y-13127394D01*
X6838914Y-13127394D02*
X6819866Y-13136918D01*
X6819866Y-13136918D02*
X6810343Y-13146442D01*
X7019866Y-13260728D02*
X7000819Y-13251204D01*
X7000819Y-13251204D02*
X6991295Y-13241680D01*
X6991295Y-13241680D02*
X6981771Y-13222633D01*
X6981771Y-13222633D02*
X6981771Y-13165490D01*
X6981771Y-13165490D02*
X6991295Y-13146442D01*
X6991295Y-13146442D02*
X7000819Y-13136918D01*
X7000819Y-13136918D02*
X7019866Y-13127394D01*
X7019866Y-13127394D02*
X7048438Y-13127394D01*
X7048438Y-13127394D02*
X7067485Y-13136918D01*
X7067485Y-13136918D02*
X7077009Y-13146442D01*
X7077009Y-13146442D02*
X7086533Y-13165490D01*
X7086533Y-13165490D02*
X7086533Y-13222633D01*
X7086533Y-13222633D02*
X7077009Y-13241680D01*
X7077009Y-13241680D02*
X7067485Y-13251204D01*
X7067485Y-13251204D02*
X7048438Y-13260728D01*
X7048438Y-13260728D02*
X7019866Y-13260728D01*
X7200819Y-13260728D02*
X7181771Y-13251204D01*
X7181771Y-13251204D02*
X7172247Y-13232156D01*
X7172247Y-13232156D02*
X7172247Y-13060728D01*
X7353200Y-13251204D02*
X7334152Y-13260728D01*
X7334152Y-13260728D02*
X7296057Y-13260728D01*
X7296057Y-13260728D02*
X7277009Y-13251204D01*
X7277009Y-13251204D02*
X7267485Y-13232156D01*
X7267485Y-13232156D02*
X7267485Y-13155966D01*
X7267485Y-13155966D02*
X7277009Y-13136918D01*
X7277009Y-13136918D02*
X7296057Y-13127394D01*
X7296057Y-13127394D02*
X7334152Y-13127394D01*
X7334152Y-13127394D02*
X7353200Y-13136918D01*
X7353200Y-13136918D02*
X7362724Y-13155966D01*
X7362724Y-13155966D02*
X7362724Y-13175014D01*
X7362724Y-13175014D02*
X7267485Y-13194061D01*
X7438914Y-13251204D02*
X7457962Y-13260728D01*
X7457962Y-13260728D02*
X7496057Y-13260728D01*
X7496057Y-13260728D02*
X7515105Y-13251204D01*
X7515105Y-13251204D02*
X7524628Y-13232156D01*
X7524628Y-13232156D02*
X7524628Y-13222633D01*
X7524628Y-13222633D02*
X7515105Y-13203585D01*
X7515105Y-13203585D02*
X7496057Y-13194061D01*
X7496057Y-13194061D02*
X7467485Y-13194061D01*
X7467485Y-13194061D02*
X7448438Y-13184537D01*
X7448438Y-13184537D02*
X7438914Y-13165490D01*
X7438914Y-13165490D02*
X7438914Y-13155966D01*
X7438914Y-13155966D02*
X7448438Y-13136918D01*
X7448438Y-13136918D02*
X7467485Y-13127394D01*
X7467485Y-13127394D02*
X7496057Y-13127394D01*
X7496057Y-13127394D02*
X7515105Y-13136918D01*
X7762724Y-13184537D02*
X7915105Y-13184537D01*
X7838914Y-13260728D02*
X7838914Y-13108347D01*
X8143676Y-13060728D02*
X8267486Y-13060728D01*
X8267486Y-13060728D02*
X8200819Y-13136918D01*
X8200819Y-13136918D02*
X8229390Y-13136918D01*
X8229390Y-13136918D02*
X8248438Y-13146442D01*
X8248438Y-13146442D02*
X8257962Y-13155966D01*
X8257962Y-13155966D02*
X8267486Y-13175014D01*
X8267486Y-13175014D02*
X8267486Y-13222633D01*
X8267486Y-13222633D02*
X8257962Y-13241680D01*
X8257962Y-13241680D02*
X8248438Y-13251204D01*
X8248438Y-13251204D02*
X8229390Y-13260728D01*
X8229390Y-13260728D02*
X8172247Y-13260728D01*
X8172247Y-13260728D02*
X8153200Y-13251204D01*
X8153200Y-13251204D02*
X8143676Y-13241680D01*
X8496057Y-13251204D02*
X8515105Y-13260728D01*
X8515105Y-13260728D02*
X8553200Y-13260728D01*
X8553200Y-13260728D02*
X8572248Y-13251204D01*
X8572248Y-13251204D02*
X8581771Y-13232156D01*
X8581771Y-13232156D02*
X8581771Y-13222633D01*
X8581771Y-13222633D02*
X8572248Y-13203585D01*
X8572248Y-13203585D02*
X8553200Y-13194061D01*
X8553200Y-13194061D02*
X8524629Y-13194061D01*
X8524629Y-13194061D02*
X8505581Y-13184537D01*
X8505581Y-13184537D02*
X8496057Y-13165490D01*
X8496057Y-13165490D02*
X8496057Y-13155966D01*
X8496057Y-13155966D02*
X8505581Y-13136918D01*
X8505581Y-13136918D02*
X8524629Y-13127394D01*
X8524629Y-13127394D02*
X8553200Y-13127394D01*
X8553200Y-13127394D02*
X8572248Y-13136918D01*
X8696057Y-13260728D02*
X8677010Y-13251204D01*
X8677010Y-13251204D02*
X8667486Y-13232156D01*
X8667486Y-13232156D02*
X8667486Y-13060728D01*
X8800819Y-13260728D02*
X8781771Y-13251204D01*
X8781771Y-13251204D02*
X8772248Y-13241680D01*
X8772248Y-13241680D02*
X8762724Y-13222633D01*
X8762724Y-13222633D02*
X8762724Y-13165490D01*
X8762724Y-13165490D02*
X8772248Y-13146442D01*
X8772248Y-13146442D02*
X8781771Y-13136918D01*
X8781771Y-13136918D02*
X8800819Y-13127394D01*
X8800819Y-13127394D02*
X8829391Y-13127394D01*
X8829391Y-13127394D02*
X8848438Y-13136918D01*
X8848438Y-13136918D02*
X8857962Y-13146442D01*
X8857962Y-13146442D02*
X8867486Y-13165490D01*
X8867486Y-13165490D02*
X8867486Y-13222633D01*
X8867486Y-13222633D02*
X8857962Y-13241680D01*
X8857962Y-13241680D02*
X8848438Y-13251204D01*
X8848438Y-13251204D02*
X8829391Y-13260728D01*
X8829391Y-13260728D02*
X8800819Y-13260728D01*
X8924629Y-13127394D02*
X9000819Y-13127394D01*
X8953200Y-13060728D02*
X8953200Y-13232156D01*
X8953200Y-13232156D02*
X8962724Y-13251204D01*
X8962724Y-13251204D02*
X8981771Y-13260728D01*
X8981771Y-13260728D02*
X9000819Y-13260728D01*
X9057962Y-13251204D02*
X9077010Y-13260728D01*
X9077010Y-13260728D02*
X9115105Y-13260728D01*
X9115105Y-13260728D02*
X9134152Y-13251204D01*
X9134152Y-13251204D02*
X9143676Y-13232156D01*
X9143676Y-13232156D02*
X9143676Y-13222633D01*
X9143676Y-13222633D02*
X9134152Y-13203585D01*
X9134152Y-13203585D02*
X9115105Y-13194061D01*
X9115105Y-13194061D02*
X9086533Y-13194061D01*
X9086533Y-13194061D02*
X9067486Y-13184537D01*
X9067486Y-13184537D02*
X9057962Y-13165490D01*
X9057962Y-13165490D02*
X9057962Y-13155966D01*
X9057962Y-13155966D02*
X9067486Y-13136918D01*
X9067486Y-13136918D02*
X9086533Y-13127394D01*
X9086533Y-13127394D02*
X9115105Y-13127394D01*
X9115105Y-13127394D02*
X9134152Y-13136918D01*
X9210343Y-13336918D02*
X9219867Y-13327394D01*
X9219867Y-13327394D02*
X9238914Y-13298823D01*
X9238914Y-13298823D02*
X9248438Y-13279775D01*
X9248438Y-13279775D02*
X9257962Y-13251204D01*
X9257962Y-13251204D02*
X9267486Y-13203585D01*
X9267486Y-13203585D02*
X9267486Y-13165490D01*
X9267486Y-13165490D02*
X9257962Y-13117871D01*
X9257962Y-13117871D02*
X9248438Y-13089299D01*
X9248438Y-13089299D02*
X9238914Y-13070252D01*
X9238914Y-13070252D02*
X9219867Y-13041680D01*
X9219867Y-13041680D02*
X9210343Y-13032156D01*
M02*
